<svg width="375" height="93" viewBox="0 0 375 93" fill="none" xmlns="http://www.w3.org/2000/svg">
<mask id="path-1-inside-1_70_405" fill="white">
<path d="M0 13H375V93H0V13Z"/>
</mask>
<path d="M0 13H375V93H0V13Z" fill="#102466"/>
<path d="M0 14H375V12H0V14Z" fill="white" mask="url(#path-1-inside-1_70_405)"/>
<path fill-rule="evenodd" clip-rule="evenodd" d="M40.9553 35.25C40.9701 35.25 40.985 35.25 41 35.25L57.0448 35.25C57.4776 35.25 57.8744 35.2499 58.1972 35.2933C58.5527 35.3411 58.9284 35.4535 59.2374 35.7626C59.5465 36.0716 59.6589 36.4473 59.7067 36.8028C59.7501 37.1256 59.7501 37.5224 59.75 37.9553V38.0448C59.7501 38.4776 59.7501 38.8744 59.7067 39.1972C59.6589 39.5527 59.5465 39.9284 59.2374 40.2374C58.9437 40.5312 58.5896 40.6473 58.25 40.6991V46.0564C58.25 47.8942 58.25 49.3498 58.0969 50.489C57.9392 51.6615 57.6071 52.6104 56.8588 53.3588C56.1104 54.1071 55.1615 54.4392 53.989 54.5969C52.8498 54.75 51.3942 54.75 49.5564 54.75H48.4436C46.6058 54.75 45.1502 54.75 44.011 54.5969C42.8386 54.4392 41.8896 54.1071 41.1412 53.3588C40.3929 52.6104 40.0608 51.6615 39.9031 50.489C39.75 49.3498 39.75 47.8942 39.75 46.0564L39.75 40.6991C39.4104 40.6473 39.0563 40.5312 38.7626 40.2374C38.4535 39.9284 38.3411 39.5527 38.2933 39.1972C38.2499 38.8744 38.25 38.4776 38.25 38.0448C38.25 38.0299 38.25 38.015 38.25 38C38.25 37.985 38.25 37.9701 38.25 37.9553C38.25 37.5224 38.2499 37.1256 38.2933 36.8028C38.3411 36.4473 38.4535 36.0716 38.7626 35.7626C39.0716 35.4535 39.4473 35.3411 39.8028 35.2933C40.1256 35.2499 40.5224 35.25 40.9553 35.25ZM41.25 40.75V46C41.25 47.9068 41.2516 49.2615 41.3898 50.2892C41.525 51.2952 41.7787 51.8749 42.2019 52.2981C42.6251 52.7213 43.2048 52.975 44.2109 53.1102C45.2385 53.2484 46.5932 53.25 48.5 53.25H49.5C51.4068 53.25 52.7615 53.2484 53.7892 53.1102C54.7952 52.975 55.3749 52.7213 55.7981 52.2981C56.2213 51.8749 56.475 51.2952 56.6102 50.2892C56.7484 49.2615 56.75 47.9068 56.75 46V40.75H41.25ZM39.8232 36.8232L39.8257 36.8219C39.8276 36.8209 39.8309 36.8192 39.836 36.8172C39.8578 36.8082 39.9061 36.7929 40.0027 36.7799C40.2134 36.7516 40.5074 36.75 41 36.75H57C57.4926 36.75 57.7866 36.7516 57.9973 36.7799C58.0939 36.7929 58.1423 36.8082 58.164 36.8172C58.1691 36.8192 58.1724 36.8209 58.1743 36.8219L58.1768 36.8232L58.1781 36.8257C58.1792 36.8276 58.1808 36.8309 58.1828 36.836C58.1918 36.8578 58.2071 36.9061 58.2201 37.0027C58.2484 37.2134 58.25 37.5074 58.25 38C58.25 38.4926 58.2484 38.7866 58.2201 38.9973C58.2071 39.0939 58.1918 39.1423 58.1828 39.164C58.1808 39.1691 58.1792 39.1724 58.1781 39.1743L58.1768 39.1768L58.1743 39.1781C58.1724 39.1792 58.1691 39.1808 58.164 39.1828C58.1423 39.1918 58.0939 39.2071 57.9973 39.2201C57.7866 39.2484 57.4926 39.25 57 39.25H41C40.5074 39.25 40.2134 39.2484 40.0027 39.2201C39.9061 39.2071 39.8578 39.1918 39.836 39.1828C39.8309 39.1808 39.8276 39.1792 39.8257 39.1781L39.8232 39.1768L39.8219 39.1743C39.8209 39.1724 39.8192 39.1691 39.8172 39.164C39.8082 39.1423 39.7929 39.0939 39.7799 38.9973C39.7516 38.7866 39.75 38.4926 39.75 38C39.75 37.5074 39.7516 37.2134 39.7799 37.0027C39.7929 36.9061 39.8082 36.8578 39.8172 36.836C39.8192 36.8309 39.8209 36.8276 39.8219 36.8257L39.8232 36.8232ZM39.8232 39.1768C39.823 39.1764 39.8228 39.1764 39.8232 39.1768ZM47.4782 42.75H50.5218C50.736 42.75 50.9329 42.75 51.0982 42.7613C51.2759 42.7734 51.4712 42.801 51.6697 42.8832C52.0985 43.0608 52.4392 43.4015 52.6168 43.8303C52.699 44.0288 52.7266 44.2242 52.7388 44.4018C52.75 44.5671 52.75 44.764 52.75 44.9782V45.0218C52.75 45.236 52.75 45.4329 52.7388 45.5982C52.7266 45.7759 52.699 45.9712 52.6168 46.1697C52.4392 46.5985 52.0985 46.9392 51.6697 47.1168C51.4712 47.199 51.2759 47.2266 51.0982 47.2388C50.9329 47.25 50.736 47.25 50.5218 47.25H47.4782C47.264 47.25 47.0671 47.25 46.9018 47.2388C46.7242 47.2266 46.5288 47.199 46.3303 47.1168C45.9015 46.9392 45.5608 46.5985 45.3832 46.1697C45.301 45.9712 45.2734 45.7759 45.2613 45.5982C45.25 45.4329 45.25 45.236 45.25 45.0218V44.9782C45.25 44.764 45.25 44.5671 45.2613 44.4018C45.2734 44.2242 45.301 44.0288 45.3832 43.8303C45.5608 43.4015 45.9015 43.0608 46.3303 42.8832C46.5288 42.801 46.7242 42.7734 46.9018 42.7613C47.0671 42.75 47.264 42.75 47.4782 42.75ZM46.9013 44.2703C46.8425 44.2956 46.7956 44.3425 46.7703 44.4013C46.7684 44.4087 46.7623 44.4371 46.7578 44.5039C46.7504 44.6119 46.75 44.7568 46.75 45C46.75 45.2432 46.7504 45.3881 46.7578 45.4961C46.7623 45.5629 46.7684 45.5913 46.7703 45.5987C46.7956 45.6575 46.8425 45.7044 46.9013 45.7297C46.9087 45.7316 46.9371 45.7377 47.0039 45.7422C47.1119 45.7496 47.2568 45.75 47.5 45.75H50.5C50.7432 45.75 50.8881 45.7496 50.9961 45.7422C51.0629 45.7377 51.0913 45.7316 51.0987 45.7297C51.1575 45.7044 51.2044 45.6575 51.2297 45.5987C51.2316 45.5913 51.2377 45.5629 51.2422 45.4961C51.2496 45.3881 51.25 45.2432 51.25 45C51.25 44.7568 51.2496 44.6119 51.2422 44.5039C51.2377 44.4371 51.2316 44.4087 51.2297 44.4013C51.2044 44.3425 51.1575 44.2956 51.0987 44.2703C51.0913 44.2684 51.0629 44.2623 50.9961 44.2578C50.8881 44.2504 50.7432 44.25 50.5 44.25H47.5C47.2568 44.25 47.1119 44.2504 47.0039 44.2578C46.9371 44.2623 46.9087 44.2684 46.9013 44.2703Z" fill="#747474"/>
<circle cx="115" cy="45" r="24" fill="#284194"/>
<path fill-rule="evenodd" clip-rule="evenodd" d="M121.955 34.25C121.522 34.25 121.126 34.2499 120.803 34.2933C120.447 34.3411 120.072 34.4535 119.763 34.7626C119.454 35.0716 119.341 35.4473 119.293 35.8028C119.25 36.1256 119.25 36.5224 119.25 36.9552V50.0448C119.25 50.4776 119.25 50.8744 119.293 51.1972C119.341 51.5527 119.454 51.9284 119.763 52.2374C120.072 52.5465 120.447 52.6589 120.803 52.7067C121.126 52.7501 121.522 52.7501 121.955 52.75H122.045C122.478 52.7501 122.874 52.7501 123.197 52.7067C123.553 52.6589 123.928 52.5465 124.237 52.2374C124.546 51.9284 124.659 51.5527 124.707 51.1972C124.75 50.8744 124.75 50.4776 124.75 50.0448V36.9553C124.75 36.5224 124.75 36.1256 124.707 35.8028C124.659 35.4473 124.546 35.0716 124.237 34.7626C123.928 34.4535 123.553 34.3411 123.197 34.2933C122.874 34.2499 122.478 34.25 122.045 34.25H121.955ZM120.826 35.8219L120.823 35.8232L120.822 35.8257C120.821 35.8276 120.819 35.8309 120.817 35.836C120.808 35.8578 120.793 35.9061 120.78 36.0027C120.752 36.2134 120.75 36.5074 120.75 37V50C120.75 50.4926 120.752 50.7866 120.78 50.9973C120.793 51.0939 120.808 51.1423 120.817 51.164C120.819 51.1691 120.821 51.1724 120.822 51.1743L120.823 51.1768L120.826 51.1781C120.826 51.1786 120.828 51.1791 120.829 51.1797C120.831 51.1806 120.833 51.1817 120.836 51.1828C120.858 51.1918 120.906 51.2071 121.003 51.2201C121.213 51.2484 121.507 51.25 122 51.25C122.493 51.25 122.787 51.2484 122.997 51.2201C123.094 51.2071 123.142 51.1918 123.164 51.1828C123.169 51.1808 123.172 51.1792 123.174 51.1781L123.177 51.1768L123.178 51.1743C123.179 51.1724 123.181 51.1691 123.183 51.164C123.192 51.1423 123.207 51.0939 123.22 50.9973C123.248 50.7866 123.25 50.4926 123.25 50V37C123.25 36.5074 123.248 36.2134 123.22 36.0027C123.207 35.9061 123.192 35.8578 123.183 35.836C123.181 35.8309 123.179 35.8276 123.178 35.8257L123.177 35.8232L123.174 35.8219C123.172 35.8209 123.169 35.8192 123.164 35.8172C123.142 35.8082 123.094 35.7929 122.997 35.7799C122.787 35.7516 122.493 35.75 122 35.75C121.507 35.75 121.213 35.7516 121.003 35.7799C120.906 35.7929 120.858 35.8082 120.836 35.8172C120.831 35.8192 120.828 35.8209 120.826 35.8219Z" fill="white"/>
<path fill-rule="evenodd" clip-rule="evenodd" d="M114.955 37.25H115.045C115.478 37.25 115.874 37.2499 116.197 37.2933C116.553 37.3411 116.928 37.4535 117.237 37.7626C117.546 38.0716 117.659 38.4473 117.707 38.8028C117.75 39.1256 117.75 39.5224 117.75 39.9552V50.0448C117.75 50.4776 117.75 50.8744 117.707 51.1972C117.659 51.5527 117.546 51.9284 117.237 52.2374C116.928 52.5465 116.553 52.6589 116.197 52.7067C115.874 52.7501 115.478 52.7501 115.045 52.75H114.955C114.522 52.7501 114.126 52.7501 113.803 52.7067C113.447 52.6589 113.072 52.5465 112.763 52.2374C112.454 51.9284 112.341 51.5527 112.293 51.1972C112.25 50.8744 112.25 50.4776 112.25 50.0448V39.9553C112.25 39.5224 112.25 39.1256 112.293 38.8028C112.341 38.4473 112.454 38.0716 112.763 37.7626C113.072 37.4535 113.447 37.3411 113.803 37.2933C114.126 37.2499 114.522 37.25 114.955 37.25ZM113.823 38.8232L113.826 38.8219L113.823 51.1768L113.822 51.1743C113.821 51.1724 113.819 51.1691 113.817 51.164C113.808 51.1423 113.793 51.0939 113.78 50.9973C113.752 50.7866 113.75 50.4926 113.75 50V40C113.75 39.5074 113.752 39.2134 113.78 39.0027C113.793 38.9061 113.808 38.8578 113.817 38.836C113.819 38.8309 113.821 38.8276 113.822 38.8257L113.823 38.8232ZM113.823 51.1768L113.826 38.8219L113.829 38.82L113.836 38.8172C113.858 38.8082 113.906 38.7929 114.003 38.7799C114.213 38.7516 114.507 38.75 115 38.75C115.493 38.75 115.787 38.7516 115.997 38.7799C116.094 38.7929 116.142 38.8082 116.164 38.8172C116.169 38.8192 116.172 38.8209 116.174 38.8219L116.177 38.8232L116.178 38.8257C116.179 38.8276 116.181 38.8309 116.183 38.836C116.192 38.8578 116.207 38.9061 116.22 39.0027C116.248 39.2134 116.25 39.5074 116.25 40V50C116.25 50.4926 116.248 50.7866 116.22 50.9973C116.207 51.0939 116.192 51.1423 116.183 51.164C116.181 51.1691 116.179 51.1724 116.178 51.1743L116.177 51.1768L116.174 51.1781C116.173 51.1788 116.171 51.1797 116.169 51.1809C116.167 51.1815 116.166 51.1821 116.164 51.1828C116.142 51.1918 116.094 51.2071 115.997 51.2201C115.787 51.2484 115.493 51.25 115 51.25C114.507 51.25 114.213 51.2484 114.003 51.2201C113.906 51.2071 113.858 51.1918 113.836 51.1828C113.831 51.1808 113.828 51.1792 113.826 51.1781L113.823 51.1768Z" fill="white"/>
<path fill-rule="evenodd" clip-rule="evenodd" d="M107.955 41.25C107.522 41.25 107.126 41.2499 106.803 41.2933C106.447 41.3411 106.072 41.4535 105.763 41.7626C105.454 42.0716 105.341 42.4473 105.293 42.8028C105.25 43.1256 105.25 43.5224 105.25 43.9553V50.0448C105.25 50.4776 105.25 50.8744 105.293 51.1972C105.341 51.5527 105.454 51.9284 105.763 52.2374C106.072 52.5465 106.447 52.6589 106.803 52.7067C107.126 52.7501 107.522 52.7501 107.955 52.75H108.045C108.478 52.7501 108.874 52.7501 109.197 52.7067C109.553 52.6589 109.928 52.5465 110.237 52.2374C110.546 51.9284 110.659 51.5527 110.707 51.1972C110.75 50.8744 110.75 50.4776 110.75 50.0448V43.9553C110.75 43.5224 110.75 43.1256 110.707 42.8028C110.659 42.4473 110.546 42.0716 110.237 41.7626C109.928 41.4535 109.553 41.3411 109.197 41.2933C108.874 41.2499 108.478 41.25 108.045 41.25H107.955ZM106.826 42.8219L106.823 42.8232L106.822 42.8257C106.821 42.8276 106.819 42.8309 106.817 42.836C106.808 42.8578 106.793 42.9061 106.78 43.0027C106.752 43.2134 106.75 43.5074 106.75 44V50C106.75 50.4926 106.752 50.7866 106.78 50.9973C106.793 51.0939 106.808 51.1423 106.817 51.164C106.819 51.1691 106.821 51.1724 106.822 51.1743L106.823 51.1761L106.826 51.1781C106.828 51.1792 106.831 51.1808 106.836 51.1828C106.858 51.1918 106.906 51.2071 107.003 51.2201C107.213 51.2484 107.507 51.25 108 51.25C108.493 51.25 108.787 51.2484 108.997 51.2201C109.094 51.2071 109.142 51.1918 109.164 51.1828C109.169 51.1808 109.172 51.1792 109.174 51.1781L109.177 51.1768L109.178 51.1743L109.18 51.1698L109.183 51.164C109.192 51.1423 109.207 51.0939 109.22 50.9973C109.248 50.7866 109.25 50.4926 109.25 50V44C109.25 43.5074 109.248 43.2134 109.22 43.0027C109.207 42.9061 109.192 42.8578 109.183 42.836C109.181 42.8309 109.179 42.8276 109.178 42.8257L109.177 42.8232L109.174 42.8219C109.172 42.8209 109.169 42.8192 109.164 42.8172C109.142 42.8082 109.094 42.7929 108.997 42.7799C108.787 42.7516 108.493 42.75 108 42.75C107.507 42.75 107.213 42.7516 107.003 42.7799C106.906 42.7929 106.858 42.8082 106.836 42.8172C106.831 42.8192 106.828 42.8209 106.826 42.8219Z" fill="white"/>
<path d="M106 54.25C105.586 54.25 105.25 54.5858 105.25 55C105.25 55.4142 105.586 55.75 106 55.75H124C124.414 55.75 124.75 55.4142 124.75 55C124.75 54.5858 124.414 54.25 124 54.25H106Z" fill="white"/>
<path d="M218.5 30.5C218.5 47.0535 204.636 60.5 187.5 60.5C170.364 60.5 156.5 47.0535 156.5 30.5C156.5 13.9465 170.364 0.5 187.5 0.5C204.636 0.5 218.5 13.9465 218.5 30.5Z" fill="#102466" stroke="white"/>
<path fill-rule="evenodd" clip-rule="evenodd" d="M183.598 23.4867C183.865 22.1768 185.031 21.25 186.366 21.25H189.634C190.969 21.25 192.135 22.1768 192.402 23.4867C192.463 23.789 192.737 24.0109 193.022 24.0109H193.038L193.055 24.0116C194.458 24.0729 195.536 24.2452 196.436 24.8356C197.003 25.2076 197.491 25.6862 197.871 26.2446C198.344 26.9395 198.552 27.7369 198.652 28.7014C198.75 29.6438 198.75 30.825 198.75 32.3211V32.4062C198.75 33.9023 198.75 35.0835 198.652 36.0258C198.552 36.9903 198.344 37.7878 197.871 38.4826C197.491 39.0411 197.003 39.5197 196.436 39.8917C195.733 40.3532 194.926 40.5567 193.948 40.6544C192.99 40.75 191.789 40.75 190.263 40.75H185.737C184.211 40.75 183.01 40.75 182.052 40.6544C181.074 40.5567 180.267 40.3532 179.564 39.8917C178.997 39.5197 178.509 39.0411 178.129 38.4826C177.656 37.7878 177.448 36.9903 177.348 36.0258C177.25 35.0835 177.25 33.9023 177.25 32.4062V32.3211C177.25 30.825 177.25 29.6438 177.348 28.7014C177.448 27.7369 177.656 26.9395 178.129 26.2446C178.509 25.6862 178.997 25.2076 179.564 24.8356C180.464 24.2452 181.542 24.0729 182.945 24.0116L182.962 24.0109H182.978C183.263 24.0109 183.537 23.789 183.598 23.4867ZM186.366 22.75C185.725 22.75 185.189 23.193 185.068 23.7861C184.873 24.7466 184.021 25.5019 182.996 25.5108C181.648 25.5707 180.925 25.7364 180.387 26.0898C179.983 26.3545 179.638 26.6941 179.369 27.0886C179.093 27.4943 178.927 28.0132 178.84 28.856C178.751 29.7121 178.75 30.8156 178.75 32.3636C178.75 33.9117 178.751 35.0152 178.84 35.8712C178.927 36.714 179.093 37.2329 179.369 37.6387C179.638 38.0332 179.983 38.3728 180.387 38.6375C180.804 38.9114 181.338 39.0756 182.201 39.1618C183.075 39.2491 184.202 39.25 185.778 39.25H190.222C191.798 39.25 192.925 39.2491 193.799 39.1618C194.662 39.0756 195.196 38.9114 195.613 38.6375C196.017 38.3728 196.362 38.0332 196.631 37.6387C196.907 37.2329 197.073 36.714 197.16 35.8712C197.249 35.0152 197.25 33.9117 197.25 32.3636C197.25 30.8156 197.249 29.7121 197.16 28.856C197.073 28.0132 196.907 27.4943 196.631 27.0886C196.362 26.6941 196.017 26.3545 195.613 26.0898C195.075 25.7364 194.352 25.5707 193.004 25.5108C191.979 25.5019 191.127 24.7466 190.932 23.7861C190.811 23.193 190.275 22.75 189.634 22.75H186.366ZM188 29.75C186.757 29.75 185.75 30.7574 185.75 32C185.75 33.2426 186.757 34.25 188 34.25C189.243 34.25 190.25 33.2426 190.25 32C190.25 30.7574 189.243 29.75 188 29.75ZM184.25 32C184.25 29.9289 185.929 28.25 188 28.25C190.071 28.25 191.75 29.9289 191.75 32C191.75 34.0711 190.071 35.75 188 35.75C185.929 35.75 184.25 34.0711 184.25 32ZM193.25 29C193.25 28.5858 193.586 28.25 194 28.25H195C195.414 28.25 195.75 28.5858 195.75 29C195.75 29.4142 195.414 29.75 195 29.75H194C193.586 29.75 193.25 29.4142 193.25 29Z" fill="white"/>
<path fill-rule="evenodd" clip-rule="evenodd" d="M257.465 35.8206C259.087 35.0598 260.913 35.0598 262.536 35.8206L269.227 38.9576C270.279 39.4509 270.75 40.5222 270.75 41.5C270.75 42.4778 270.279 43.5491 269.227 44.0425L267.75 44.7349V49.6254C267.75 50.8785 267.122 52.0883 265.978 52.7217C265.226 53.138 264.238 53.6391 263.199 54.038C262.171 54.4321 261.034 54.75 260 54.75C258.966 54.75 257.829 54.4321 256.801 54.038C255.762 53.6391 254.774 53.138 254.022 52.7217C252.878 52.0883 252.25 50.8785 252.25 49.6254V44.5C252.25 44.4586 252.253 44.4179 252.26 44.3783C252.236 44.2343 252.254 44.0818 252.321 43.9397C252.497 43.5647 252.944 43.4032 253.319 43.579L258.101 45.8213C259.321 46.3929 260.68 46.3929 261.899 45.8213L268.59 42.6843C268.993 42.4953 269.25 42.0444 269.25 41.5C269.25 40.9556 268.993 40.5047 268.59 40.3157L261.899 37.1787C260.68 36.6071 259.321 36.6071 258.101 37.1787L251.41 40.3157C251.035 40.4915 250.589 40.33 250.413 39.955C250.237 39.5799 250.398 39.1333 250.773 38.9575L257.465 35.8206ZM253.75 45.4379V49.6254C253.75 50.3884 254.129 51.0661 254.749 51.4095C255.465 51.8063 256.387 52.2724 257.338 52.6375C258.302 53.0073 259.238 53.25 260 53.25C260.762 53.25 261.698 53.0073 262.662 52.6375C263.613 52.2724 264.535 51.8063 265.251 51.4095C265.871 51.0661 266.25 50.3884 266.25 49.6254V45.4381L262.536 47.1794C260.913 47.9402 259.087 47.9402 257.465 47.1794L253.75 45.4379Z" fill="#747474"/>
<path d="M254.689 40.7046C254.853 41.0853 254.676 41.5262 254.295 41.6894L253.22 42.1504C252.617 42.4087 252.22 42.58 251.928 42.7442C251.652 42.8994 251.532 43.0154 251.456 43.1307C251.38 43.2459 251.321 43.4015 251.287 43.7164C251.251 44.0493 251.25 44.4818 251.25 45.1376V48C251.25 48.4142 250.914 48.75 250.5 48.75C250.086 48.75 249.75 48.4142 249.75 48V45.0987C249.75 44.4923 249.75 43.9782 249.796 43.5553C249.844 43.1053 249.95 42.6906 250.204 42.3049C250.459 41.9192 250.798 41.6588 251.193 41.4369C251.563 41.2283 252.036 41.0258 252.593 40.787L253.705 40.3106C254.085 40.1475 254.526 40.3238 254.689 40.7046Z" fill="#747474"/>
<path fill-rule="evenodd" clip-rule="evenodd" d="M326 41.25C323.929 41.25 322.25 42.9289 322.25 45C322.25 47.0711 323.929 48.75 326 48.75C328.071 48.75 329.75 47.0711 329.75 45C329.75 42.9289 328.071 41.25 326 41.25ZM323.75 45C323.75 43.7574 324.757 42.75 326 42.75C327.243 42.75 328.25 43.7574 328.25 45C328.25 46.2426 327.243 47.25 326 47.25C324.757 47.25 323.75 46.2426 323.75 45Z" fill="#747474"/>
<path fill-rule="evenodd" clip-rule="evenodd" d="M325.975 34.25C325.53 34.25 325.159 34.25 324.855 34.2708C324.538 34.2924 324.238 34.339 323.948 34.4593C323.274 34.7384 322.738 35.2738 322.459 35.9476C322.314 36.2984 322.275 36.6681 322.26 37.07C322.248 37.393 322.085 37.6625 321.844 37.8014C321.603 37.9403 321.288 37.9467 321.003 37.7957C320.647 37.6078 320.307 37.457 319.931 37.4074C319.208 37.3122 318.476 37.5082 317.898 37.9522C317.648 38.1435 317.458 38.3796 317.281 38.6434C317.111 38.8968 316.925 39.2181 316.703 39.6031L316.678 39.6468C316.455 40.0317 316.27 40.353 316.136 40.6272C315.996 40.9127 315.886 41.1954 315.845 41.507C315.75 42.2301 315.946 42.9614 316.39 43.5401C316.621 43.8412 316.922 44.0602 317.262 44.2741C317.536 44.4461 317.688 44.7221 317.688 45C317.688 45.2778 317.536 45.5538 317.262 45.7258C316.922 45.9397 316.621 46.1587 316.39 46.4599C315.946 47.0385 315.75 47.7698 315.845 48.4929C315.886 48.8045 315.996 49.0873 316.136 49.3727C316.27 49.6469 316.455 49.9682 316.678 50.3531L316.703 50.3969C316.925 50.7818 317.111 51.1031 317.281 51.3565C317.458 51.6203 317.648 51.8564 317.898 52.0477C318.476 52.4917 319.208 52.6877 319.931 52.5925C320.307 52.5429 320.647 52.3922 321.003 52.2043C321.288 52.0532 321.603 52.0596 321.844 52.1986C322.085 52.3375 322.248 52.607 322.26 52.9301C322.275 53.3319 322.314 53.7016 322.459 54.0524C322.738 54.7262 323.274 55.2616 323.948 55.5407C324.238 55.661 324.538 55.7076 324.855 55.7292C325.159 55.75 325.53 55.75 325.975 55.75H326.025C326.47 55.75 326.841 55.75 327.145 55.7292C327.462 55.7076 327.762 55.661 328.052 55.5407C328.726 55.2616 329.262 54.7262 329.541 54.0524C329.686 53.7016 329.725 53.3319 329.74 52.93C329.752 52.607 329.915 52.3375 330.156 52.1985C330.397 52.0596 330.712 52.0532 330.997 52.2042C331.353 52.3921 331.693 52.5429 332.069 52.5924C332.792 52.6876 333.524 52.4917 334.102 52.0477C334.352 51.8563 334.542 51.6203 334.719 51.3565C334.889 51.1031 335.075 50.7818 335.297 50.3969L335.322 50.3531C335.544 49.9682 335.73 49.6468 335.864 49.3726C336.004 49.0872 336.114 48.8045 336.155 48.4929C336.25 47.7697 336.054 47.0384 335.61 46.4598C335.379 46.1586 335.078 45.9397 334.738 45.7258C334.464 45.5538 334.312 45.2778 334.312 44.9999C334.312 44.7221 334.464 44.4462 334.738 44.2742C335.078 44.0603 335.379 43.8414 335.61 43.5401C336.054 42.9615 336.25 42.2302 336.155 41.5071C336.114 41.1955 336.004 40.9127 335.864 40.6273C335.73 40.3531 335.545 40.0318 335.322 39.647L335.297 39.6032C335.075 39.2183 334.889 38.8969 334.719 38.6435C334.542 38.3797 334.352 38.1436 334.102 37.9523C333.524 37.5083 332.792 37.3123 332.069 37.4075C331.693 37.4571 331.353 37.6078 330.997 37.7957C330.712 37.9468 330.397 37.9404 330.156 37.8014C329.915 37.6625 329.752 37.393 329.74 37.0699C329.725 36.6681 329.686 36.2984 329.541 35.9476C329.262 35.2738 328.726 34.7384 328.052 34.4593C327.762 34.339 327.462 34.2924 327.145 34.2708C326.841 34.25 326.47 34.25 326.025 34.25H325.975ZM324.522 35.8452C324.599 35.8132 324.716 35.7837 324.957 35.7673C325.204 35.7504 325.524 35.75 326 35.75C326.476 35.75 326.796 35.7504 327.043 35.7673C327.284 35.7837 327.401 35.8132 327.478 35.8452C327.785 35.972 328.028 36.2154 328.155 36.5216C328.195 36.6183 328.228 36.7689 328.241 37.126C328.271 37.9183 328.68 38.6813 329.406 39.1005C330.132 39.5197 330.997 39.4924 331.698 39.1219C332.014 38.9549 332.161 38.9083 332.265 38.8947C332.594 38.8514 332.926 38.9405 333.189 39.1423C333.255 39.1931 333.34 39.2799 333.474 39.4802C333.612 39.686 333.773 39.9626 334.011 40.375C334.249 40.7874 334.408 41.0644 334.517 41.2871C334.624 41.5038 334.657 41.6201 334.668 41.7029C334.711 42.0316 334.622 42.364 334.42 42.627C334.356 42.71 334.242 42.814 333.94 43.0041C333.268 43.426 332.812 44.1616 332.812 44.9999C332.812 45.8383 333.268 46.574 333.94 46.9959C334.242 47.186 334.356 47.29 334.42 47.373C334.622 47.636 334.711 47.9684 334.667 48.2971C334.657 48.3799 334.623 48.4961 334.517 48.7128C334.408 48.9355 334.249 49.2125 334.011 49.6249C333.773 50.0373 333.612 50.3139 333.474 50.5198C333.339 50.72 333.255 50.8068 333.189 50.8576C332.926 51.0595 332.594 51.1485 332.265 51.1053C332.161 51.0916 332.014 51.045 331.698 50.8781C330.997 50.5075 330.132 50.4803 329.406 50.8995C328.68 51.3187 328.271 52.0816 328.241 52.874C328.228 53.2311 328.195 53.3817 328.155 53.4784C328.028 53.7846 327.785 54.028 327.478 54.1549C327.401 54.1868 327.284 54.2163 327.043 54.2327C326.796 54.2496 326.476 54.25 326 54.25C325.524 54.25 325.204 54.2496 324.957 54.2327C324.716 54.2163 324.599 54.1868 324.522 54.1549C324.215 54.028 323.972 53.7846 323.845 53.4784C323.805 53.3817 323.772 53.2311 323.759 52.874C323.729 52.0817 323.32 51.3187 322.594 50.8995C321.868 50.4803 321.003 50.5076 320.302 50.8781C319.986 51.0451 319.839 51.0917 319.735 51.1053C319.406 51.1486 319.074 51.0595 318.811 50.8577C318.745 50.8069 318.66 50.7201 318.526 50.5198C318.388 50.314 318.227 50.0374 317.989 49.625C317.751 49.2126 317.592 48.9356 317.483 48.7129C317.376 48.4962 317.343 48.3799 317.332 48.2971C317.289 47.9684 317.378 47.636 317.58 47.373C317.644 47.2901 317.758 47.186 318.06 46.9959C318.732 46.5741 319.188 45.8384 319.188 45.0001C319.188 44.1616 318.732 43.4259 318.06 43.004C317.758 42.8139 317.644 42.7099 317.58 42.6269C317.378 42.3639 317.289 42.0315 317.333 41.7028C317.343 41.62 317.377 41.5038 317.483 41.2871C317.592 41.0643 317.751 40.7873 317.989 40.3749C318.227 39.9625 318.388 39.686 318.526 39.4801C318.661 39.2798 318.745 39.1931 318.811 39.1422C319.074 38.9404 319.406 38.8513 319.735 38.8946C319.839 38.9083 319.986 38.9548 320.302 39.1218C321.003 39.4924 321.868 39.5196 322.594 39.1005C323.32 38.6813 323.729 37.9184 323.759 37.126C323.772 36.7689 323.805 36.6183 323.845 36.5216C323.972 36.2154 324.215 35.972 324.522 35.8452Z" fill="#747474"/>
</svg>
