<svg width="63" height="69" viewBox="0 0 63 69" fill="none" xmlns="http://www.w3.org/2000/svg">
<path d="M62.5 30.5C62.5 47.0535 48.6362 60.5 31.5 60.5C14.3638 60.5 0.5 47.0535 0.5 30.5C0.5 13.9465 14.3638 0.5 31.5 0.5C48.6362 0.5 62.5 13.9465 62.5 30.5Z" fill="#102466" stroke="white"/>
<path fill-rule="evenodd" clip-rule="evenodd" d="M27.5984 23.4867C27.8653 22.1768 29.0309 21.25 30.3663 21.25H33.6337C34.9691 21.25 36.1347 22.1768 36.4016 23.4867C36.4632 23.789 36.7371 24.0109 37.022 24.0109H37.0384L37.0548 24.0116C38.4582 24.0729 39.5362 24.2452 40.4362 24.8356C41.0032 25.2076 41.4909 25.6862 41.871 26.2446C42.3439 26.9395 42.5524 27.7369 42.6524 28.7014C42.75 29.6438 42.75 30.825 42.75 32.3211V32.4062C42.75 33.9023 42.75 35.0835 42.6524 36.0258C42.5524 36.9903 42.3439 37.7878 41.871 38.4826C41.4909 39.0411 41.0032 39.5197 40.4362 39.8917C39.7327 40.3532 38.9262 40.5567 37.948 40.6544C36.9903 40.75 35.789 40.75 34.2634 40.75H29.7366C28.211 40.75 27.0097 40.75 26.052 40.6544C25.0738 40.5567 24.2673 40.3532 23.5638 39.8917C22.9968 39.5197 22.5091 39.0411 22.129 38.4826C21.6561 37.7878 21.4476 36.9903 21.3476 36.0258C21.25 35.0835 21.25 33.9023 21.25 32.4062V32.3211C21.25 30.825 21.25 29.6438 21.3476 28.7014C21.4476 27.7369 21.6561 26.9395 22.129 26.2446C22.5091 25.6862 22.9968 25.2076 23.5638 24.8356C24.4638 24.2452 25.5418 24.0729 26.9452 24.0116L26.9616 24.0109H26.978C27.2629 24.0109 27.5368 23.789 27.5984 23.4867ZM30.3663 22.75C29.7252 22.75 29.1891 23.193 29.0682 23.7861C28.8726 24.7466 28.021 25.5019 26.9963 25.5108C25.6477 25.5707 24.9254 25.7364 24.3866 26.0898C23.9831 26.3545 23.6375 26.6941 23.3691 27.0886C23.0929 27.4943 22.927 28.0132 22.8396 28.856C22.7509 29.7121 22.75 30.8156 22.75 32.3636C22.75 33.9117 22.7509 35.0152 22.8396 35.8712C22.927 36.714 23.0929 37.2329 23.3691 37.6387C23.6375 38.0332 23.9831 38.3728 24.3866 38.6375C24.8042 38.9114 25.3384 39.0756 26.201 39.1618C27.0755 39.2491 28.2019 39.25 29.7778 39.25H34.2222C35.7981 39.25 36.9245 39.2491 37.799 39.1618C38.6616 39.0756 39.1958 38.9114 39.6134 38.6375C40.0169 38.3728 40.3625 38.0332 40.6309 37.6387C40.9071 37.2329 41.073 36.714 41.1604 35.8712C41.2491 35.0152 41.25 33.9117 41.25 32.3636C41.25 30.8156 41.2491 29.7121 41.1604 28.856C41.073 28.0132 40.9071 27.4943 40.6309 27.0886C40.3625 26.6941 40.0169 26.3545 39.6134 26.0898C39.0746 25.7364 38.3523 25.5707 37.0037 25.5108C35.979 25.5019 35.1274 24.7466 34.9318 23.7861C34.8109 23.193 34.2748 22.75 33.6337 22.75H30.3663ZM32 29.75C30.7574 29.75 29.75 30.7574 29.75 32C29.75 33.2426 30.7574 34.25 32 34.25C33.2426 34.25 34.25 33.2426 34.25 32C34.25 30.7574 33.2426 29.75 32 29.75ZM28.25 32C28.25 29.9289 29.9289 28.25 32 28.25C34.0711 28.25 35.75 29.9289 35.75 32C35.75 34.0711 34.0711 35.75 32 35.75C29.9289 35.75 28.25 34.0711 28.25 32ZM37.25 29C37.25 28.5858 37.5858 28.25 38 28.25H39C39.4142 28.25 39.75 28.5858 39.75 29C39.75 29.4142 39.4142 29.75 39 29.75H38C37.5858 29.75 37.25 29.4142 37.25 29Z" fill="white"/>
</svg>
