<svg width="375" height="812" viewBox="0 0 375 812" fill="none" xmlns="http://www.w3.org/2000/svg">
<g clip-path="url(#clip0_39_72)">
<rect width="375" height="812" fill="#F4F3F1"/>
<path d="M0 0H375V260C375 260 272.897 199.089 183.5 200.5C96.6988 201.87 0 260 0 260V0Z" fill="#102466"/>
<g clip-path="url(#clip1_39_72)">
<path opacity="0.38" fill-rule="evenodd" clip-rule="evenodd" d="M359 20.8345C359.747 21.2667 360.25 22.0746 360.25 23C360.25 23.9254 359.747 24.7333 359 25.1655V20.8345V20.8345Z" fill="white"/>
</g>
<path d="M28.3262 83.4551H21.6641V79.957H28.3262C29.4863 79.957 30.4238 79.7695 31.1387 79.3945C31.8535 79.0195 32.375 78.5039 32.7031 77.8477C33.043 77.1797 33.2129 76.418 33.2129 75.5625C33.2129 74.7539 33.043 73.998 32.7031 73.2949C32.375 72.5801 31.8535 72.0059 31.1387 71.5723C30.4238 71.1387 29.4863 70.9219 28.3262 70.9219H23.0176V93H18.6055V67.4062H28.3262C30.3066 67.4062 31.9883 67.7578 33.3711 68.4609C34.7656 69.1523 35.8262 70.1133 36.5527 71.3438C37.2793 72.5625 37.6426 73.957 37.6426 75.5273C37.6426 77.1797 37.2793 78.5977 36.5527 79.7812C35.8262 80.9648 34.7656 81.873 33.3711 82.5059C31.9883 83.1387 30.3066 83.4551 28.3262 83.4551ZM51.6875 89.1855V80.1152C51.6875 79.4355 51.5645 78.8496 51.3184 78.3574C51.0723 77.8652 50.6973 77.4844 50.1934 77.2148C49.7012 76.9453 49.0801 76.8105 48.3301 76.8105C47.6387 76.8105 47.041 76.9277 46.5371 77.1621C46.0332 77.3965 45.6406 77.7129 45.3594 78.1113C45.0781 78.5098 44.9375 78.9609 44.9375 79.4648H40.7188C40.7188 78.7148 40.9004 77.9883 41.2637 77.2852C41.627 76.582 42.1543 75.9551 42.8457 75.4043C43.5371 74.8535 44.3633 74.4199 45.3242 74.1035C46.2852 73.7871 47.3633 73.6289 48.5586 73.6289C49.9883 73.6289 51.2539 73.8691 52.3555 74.3496C53.4688 74.8301 54.3418 75.5566 54.9746 76.5293C55.6191 77.4902 55.9414 78.6973 55.9414 80.1504V88.6055C55.9414 89.4727 56 90.252 56.1172 90.9434C56.2461 91.623 56.4277 92.2148 56.6621 92.7188V93H52.3203C52.1211 92.543 51.9629 91.9629 51.8457 91.2598C51.7402 90.5449 51.6875 89.8535 51.6875 89.1855ZM52.3027 81.4336L52.3379 84.0527H49.2969C48.5117 84.0527 47.8203 84.1289 47.2227 84.2812C46.625 84.4219 46.127 84.6328 45.7285 84.9141C45.3301 85.1953 45.0312 85.5352 44.832 85.9336C44.6328 86.332 44.5332 86.7832 44.5332 87.2871C44.5332 87.791 44.6504 88.2539 44.8848 88.6758C45.1191 89.0859 45.459 89.4082 45.9043 89.6426C46.3613 89.877 46.9121 89.9941 47.5566 89.9941C48.4238 89.9941 49.1797 89.8184 49.8242 89.4668C50.4805 89.1035 50.9961 88.6641 51.3711 88.1484C51.7461 87.6211 51.9453 87.123 51.9688 86.6543L53.3398 88.5352C53.1992 89.0156 52.959 89.5312 52.6191 90.082C52.2793 90.6328 51.834 91.1602 51.2832 91.6641C50.7441 92.1562 50.0938 92.5605 49.332 92.877C48.582 93.1934 47.7148 93.3516 46.7305 93.3516C45.4883 93.3516 44.3809 93.1055 43.4082 92.6133C42.4355 92.1094 41.6738 91.4355 41.123 90.5918C40.5723 89.7363 40.2969 88.7695 40.2969 87.6914C40.2969 86.6836 40.4844 85.793 40.8594 85.0195C41.2461 84.2344 41.8086 83.5781 42.5469 83.0508C43.2969 82.5234 44.2109 82.125 45.2891 81.8555C46.3672 81.5742 47.5977 81.4336 48.9805 81.4336H52.3027ZM68.1406 89.9766C68.832 89.9766 69.4531 89.8418 70.0039 89.5723C70.5664 89.291 71.0176 88.9043 71.3574 88.4121C71.709 87.9199 71.9023 87.3516 71.9375 86.707H75.9277C75.9043 87.9375 75.541 89.0566 74.8379 90.0645C74.1348 91.0723 73.2031 91.875 72.043 92.4727C70.8828 93.0586 69.5996 93.3516 68.1934 93.3516C66.7402 93.3516 65.4746 93.1055 64.3965 92.6133C63.3184 92.1094 62.4219 91.418 61.707 90.5391C60.9922 89.6602 60.4531 88.6465 60.0898 87.498C59.7383 86.3496 59.5625 85.1191 59.5625 83.8066V83.1914C59.5625 81.8789 59.7383 80.6484 60.0898 79.5C60.4531 78.3398 60.9922 77.3203 61.707 76.4414C62.4219 75.5625 63.3184 74.877 64.3965 74.3848C65.4746 73.8809 66.7344 73.6289 68.1758 73.6289C69.6992 73.6289 71.0352 73.9336 72.1836 74.543C73.332 75.1406 74.2344 75.9785 74.8906 77.0566C75.5586 78.123 75.9043 79.3652 75.9277 80.7832H71.9375C71.9023 80.0801 71.7266 79.4473 71.4102 78.8848C71.1055 78.3105 70.6719 77.8535 70.1094 77.5137C69.5586 77.1738 68.8965 77.0039 68.123 77.0039C67.2676 77.0039 66.5586 77.1797 65.9961 77.5312C65.4336 77.8711 64.9941 78.3398 64.6777 78.9375C64.3613 79.5234 64.1328 80.1855 63.9922 80.9238C63.8633 81.6504 63.7988 82.4062 63.7988 83.1914V83.8066C63.7988 84.5918 63.8633 85.3535 63.9922 86.0918C64.1211 86.8301 64.3438 87.4922 64.6602 88.0781C64.9883 88.6523 65.4336 89.1152 65.9961 89.4668C66.5586 89.8066 67.2734 89.9766 68.1406 89.9766ZM82.4141 73.9805L86.0352 80.291L89.7266 73.9805H94.3848L88.6191 83.3145L94.6133 93H89.9551L86.0879 86.4258L82.2207 93H77.5449L83.5215 83.3145L77.7734 73.9805H82.4141ZM95.9844 83.7012V83.2969C95.9844 81.9258 96.1836 80.6543 96.582 79.4824C96.9805 78.2988 97.5547 77.2734 98.3047 76.4062C99.0664 75.5273 99.9922 74.8477 101.082 74.3672C102.184 73.875 103.426 73.6289 104.809 73.6289C106.203 73.6289 107.445 73.875 108.535 74.3672C109.637 74.8477 110.568 75.5273 111.33 76.4062C112.092 77.2734 112.672 78.2988 113.07 79.4824C113.469 80.6543 113.668 81.9258 113.668 83.2969V83.7012C113.668 85.0723 113.469 86.3438 113.07 87.5156C112.672 88.6875 112.092 89.7129 111.33 90.5918C110.568 91.459 109.643 92.1387 108.553 92.6309C107.463 93.1113 106.227 93.3516 104.844 93.3516C103.449 93.3516 102.201 93.1113 101.1 92.6309C100.01 92.1387 99.084 91.459 98.3223 90.5918C97.5605 89.7129 96.9805 88.6875 96.582 87.5156C96.1836 86.3438 95.9844 85.0723 95.9844 83.7012ZM100.221 83.2969V83.7012C100.221 84.5566 100.309 85.3652 100.484 86.127C100.66 86.8887 100.936 87.5566 101.311 88.1309C101.686 88.7051 102.166 89.1562 102.752 89.4844C103.338 89.8125 104.035 89.9766 104.844 89.9766C105.629 89.9766 106.309 89.8125 106.883 89.4844C107.469 89.1562 107.949 88.7051 108.324 88.1309C108.699 87.5566 108.975 86.8887 109.15 86.127C109.338 85.3652 109.432 84.5566 109.432 83.7012V83.2969C109.432 82.4531 109.338 81.6562 109.15 80.9062C108.975 80.1445 108.693 79.4707 108.307 78.8848C107.932 78.2988 107.451 77.8418 106.865 77.5137C106.291 77.1738 105.605 77.0039 104.809 77.0039C104.012 77.0039 103.32 77.1738 102.734 77.5137C102.16 77.8418 101.686 78.2988 101.311 78.8848C100.936 79.4707 100.66 80.1445 100.484 80.9062C100.309 81.6562 100.221 82.4531 100.221 83.2969ZM119.398 73.9805H123.635L123.424 80.6777C123.365 82.623 123.143 84.293 122.756 85.6875C122.369 87.082 121.865 88.2598 121.244 89.2207C120.623 90.1699 119.92 90.9492 119.135 91.5586C118.361 92.168 117.547 92.6484 116.691 93H115.443V89.6602L116.041 89.625C116.545 89.0859 116.979 88.5469 117.342 88.0078C117.717 87.457 118.033 86.8535 118.291 86.1973C118.549 85.5293 118.748 84.75 118.889 83.8594C119.041 82.9688 119.141 81.9082 119.188 80.6777L119.398 73.9805ZM120.523 73.9805H132.582V93H128.363V77.5664H120.523V73.9805ZM114.477 89.625H135.184V98.6602H130.947V93H118.766V98.6602H114.459L114.477 89.625ZM141.354 80.0273H146.961C148.602 80.0273 149.996 80.3027 151.145 80.8535C152.293 81.4043 153.166 82.1719 153.764 83.1562C154.373 84.1289 154.678 85.2422 154.678 86.4961C154.678 87.4219 154.508 88.2832 154.168 89.0801C153.828 89.8652 153.324 90.5508 152.656 91.1367C152 91.7227 151.191 92.1797 150.23 92.5078C149.281 92.8359 148.191 93 146.961 93H138.541V73.9805H142.795V89.6426H146.961C147.805 89.6426 148.479 89.4961 148.982 89.2031C149.486 88.9102 149.85 88.5293 150.072 88.0605C150.307 87.5918 150.424 87.0938 150.424 86.5664C150.424 86.0273 150.307 85.5176 150.072 85.0371C149.85 84.5566 149.486 84.1641 148.982 83.8594C148.479 83.5547 147.805 83.4023 146.961 83.4023H141.354V80.0273ZM162.166 73.9805V93H157.93V73.9805H162.166Z" fill="#FE724C"/>
<mask id="path-4-inside-1_39_72" fill="white">
<path d="M0 732H375V812H0V732Z"/>
</mask>
<path d="M0 732H375V812H0V732Z" fill="#102466"/>
<path d="M0 733H375V731H0V733Z" fill="white" mask="url(#path-4-inside-1_39_72)"/>
<path fill-rule="evenodd" clip-rule="evenodd" d="M40.9553 754.25C40.9701 754.25 40.985 754.25 41 754.25L57.0448 754.25C57.4776 754.25 57.8744 754.25 58.1972 754.293C58.5527 754.341 58.9284 754.454 59.2374 754.763C59.5465 755.072 59.6589 755.447 59.7067 755.803C59.7501 756.126 59.7501 756.522 59.75 756.955V757.045C59.7501 757.478 59.7501 757.874 59.7067 758.197C59.6589 758.553 59.5465 758.928 59.2374 759.237C58.9437 759.531 58.5896 759.647 58.25 759.699V765.056C58.25 766.894 58.25 768.35 58.0969 769.489C57.9392 770.661 57.6071 771.61 56.8588 772.359C56.1104 773.107 55.1615 773.439 53.989 773.597C52.8498 773.75 51.3942 773.75 49.5564 773.75H48.4436C46.6058 773.75 45.1502 773.75 44.011 773.597C42.8386 773.439 41.8896 773.107 41.1412 772.359C40.3929 771.61 40.0608 770.661 39.9031 769.489C39.75 768.35 39.75 766.894 39.75 765.056L39.75 759.699C39.4104 759.647 39.0563 759.531 38.7626 759.237C38.4535 758.928 38.3411 758.553 38.2933 758.197C38.2499 757.874 38.25 757.478 38.25 757.045C38.25 757.03 38.25 757.015 38.25 757C38.25 756.985 38.25 756.97 38.25 756.955C38.25 756.522 38.2499 756.126 38.2933 755.803C38.3411 755.447 38.4535 755.072 38.7626 754.763C39.0716 754.454 39.4473 754.341 39.8028 754.293C40.1256 754.25 40.5224 754.25 40.9553 754.25ZM41.25 759.75V765C41.25 766.907 41.2516 768.261 41.3898 769.289C41.525 770.295 41.7787 770.875 42.2019 771.298C42.6251 771.721 43.2048 771.975 44.2109 772.11C45.2385 772.248 46.5932 772.25 48.5 772.25H49.5C51.4068 772.25 52.7615 772.248 53.7892 772.11C54.7952 771.975 55.3749 771.721 55.7981 771.298C56.2213 770.875 56.475 770.295 56.6102 769.289C56.7484 768.261 56.75 766.907 56.75 765V759.75H41.25ZM39.8232 755.823L39.8257 755.822C39.8276 755.821 39.8309 755.819 39.836 755.817C39.8578 755.808 39.9061 755.793 40.0027 755.78C40.2134 755.752 40.5074 755.75 41 755.75H57C57.4926 755.75 57.7866 755.752 57.9973 755.78C58.0939 755.793 58.1423 755.808 58.164 755.817C58.1691 755.819 58.1724 755.821 58.1743 755.822L58.1768 755.823L58.1781 755.826C58.1792 755.828 58.1808 755.831 58.1828 755.836C58.1918 755.858 58.2071 755.906 58.2201 756.003C58.2484 756.213 58.25 756.507 58.25 757C58.25 757.493 58.2484 757.787 58.2201 757.997C58.2071 758.094 58.1918 758.142 58.1828 758.164C58.1808 758.169 58.1792 758.172 58.1781 758.174L58.1768 758.177L58.1743 758.178C58.1724 758.179 58.1691 758.181 58.164 758.183C58.1423 758.192 58.0939 758.207 57.9973 758.22C57.7866 758.248 57.4926 758.25 57 758.25H41C40.5074 758.25 40.2134 758.248 40.0027 758.22C39.9061 758.207 39.8578 758.192 39.836 758.183C39.8309 758.181 39.8276 758.179 39.8257 758.178L39.8232 758.177L39.8219 758.174C39.8209 758.172 39.8192 758.169 39.8172 758.164C39.8082 758.142 39.7929 758.094 39.7799 757.997C39.7516 757.787 39.75 757.493 39.75 757C39.75 756.507 39.7516 756.213 39.7799 756.003C39.7929 755.906 39.8082 755.858 39.8172 755.836C39.8192 755.831 39.8209 755.828 39.8219 755.826L39.8232 755.823ZM39.8232 758.177C39.823 758.176 39.8228 758.176 39.8232 758.177ZM47.4782 761.75H50.5218C50.736 761.75 50.9329 761.75 51.0982 761.761C51.2759 761.773 51.4712 761.801 51.6697 761.883C52.0985 762.061 52.4392 762.402 52.6168 762.83C52.699 763.029 52.7266 763.224 52.7388 763.402C52.75 763.567 52.75 763.764 52.75 763.978V764.022C52.75 764.236 52.75 764.433 52.7388 764.598C52.7266 764.776 52.699 764.971 52.6168 765.17C52.4392 765.599 52.0985 765.939 51.6697 766.117C51.4712 766.199 51.2759 766.227 51.0982 766.239C50.9329 766.25 50.736 766.25 50.5218 766.25H47.4782C47.264 766.25 47.0671 766.25 46.9018 766.239C46.7242 766.227 46.5288 766.199 46.3303 766.117C45.9015 765.939 45.5608 765.599 45.3832 765.17C45.301 764.971 45.2734 764.776 45.2613 764.598C45.25 764.433 45.25 764.236 45.25 764.022V763.978C45.25 763.764 45.25 763.567 45.2613 763.402C45.2734 763.224 45.301 763.029 45.3832 762.83C45.5608 762.402 45.9015 762.061 46.3303 761.883C46.5288 761.801 46.7242 761.773 46.9018 761.761C47.0671 761.75 47.264 761.75 47.4782 761.75ZM46.9013 763.27C46.8425 763.296 46.7956 763.342 46.7703 763.401C46.7684 763.409 46.7623 763.437 46.7578 763.504C46.7504 763.612 46.75 763.757 46.75 764C46.75 764.243 46.7504 764.388 46.7578 764.496C46.7623 764.563 46.7684 764.591 46.7703 764.599C46.7956 764.658 46.8425 764.704 46.9013 764.73C46.9087 764.732 46.9371 764.738 47.0039 764.742C47.1119 764.75 47.2568 764.75 47.5 764.75H50.5C50.7432 764.75 50.8881 764.75 50.9961 764.742C51.0629 764.738 51.0913 764.732 51.0987 764.73C51.1575 764.704 51.2044 764.658 51.2297 764.599C51.2316 764.591 51.2377 764.563 51.2422 764.496C51.2496 764.388 51.25 764.243 51.25 764C51.25 763.757 51.2496 763.612 51.2422 763.504C51.2377 763.437 51.2316 763.409 51.2297 763.401C51.2044 763.342 51.1575 763.296 51.0987 763.27C51.0913 763.268 51.0629 763.262 50.9961 763.258C50.8881 763.25 50.7432 763.25 50.5 763.25H47.5C47.2568 763.25 47.1119 763.25 47.0039 763.258C46.9371 763.262 46.9087 763.268 46.9013 763.27Z" fill="#747474"/>
<circle cx="115" cy="764" r="24" fill="#284194"/>
<path fill-rule="evenodd" clip-rule="evenodd" d="M121.955 753.25C121.522 753.25 121.126 753.25 120.803 753.293C120.447 753.341 120.072 753.454 119.763 753.763C119.454 754.072 119.341 754.447 119.293 754.803C119.25 755.126 119.25 755.522 119.25 755.955V769.045C119.25 769.478 119.25 769.874 119.293 770.197C119.341 770.553 119.454 770.928 119.763 771.237C120.072 771.546 120.447 771.659 120.803 771.707C121.126 771.75 121.522 771.75 121.955 771.75H122.045C122.478 771.75 122.874 771.75 123.197 771.707C123.553 771.659 123.928 771.546 124.237 771.237C124.546 770.928 124.659 770.553 124.707 770.197C124.75 769.874 124.75 769.478 124.75 769.045V755.955C124.75 755.522 124.75 755.126 124.707 754.803C124.659 754.447 124.546 754.072 124.237 753.763C123.928 753.454 123.553 753.341 123.197 753.293C122.874 753.25 122.478 753.25 122.045 753.25H121.955ZM120.826 754.822L120.823 754.823L120.822 754.826C120.821 754.828 120.819 754.831 120.817 754.836C120.808 754.858 120.793 754.906 120.78 755.003C120.752 755.213 120.75 755.507 120.75 756V769C120.75 769.493 120.752 769.787 120.78 769.997C120.793 770.094 120.808 770.142 120.817 770.164C120.819 770.169 120.821 770.172 120.822 770.174L120.823 770.177L120.826 770.178C120.826 770.179 120.828 770.179 120.829 770.18C120.831 770.181 120.833 770.182 120.836 770.183C120.858 770.192 120.906 770.207 121.003 770.22C121.213 770.248 121.507 770.25 122 770.25C122.493 770.25 122.787 770.248 122.997 770.22C123.094 770.207 123.142 770.192 123.164 770.183C123.169 770.181 123.172 770.179 123.174 770.178L123.177 770.177L123.178 770.174C123.179 770.172 123.181 770.169 123.183 770.164C123.192 770.142 123.207 770.094 123.22 769.997C123.248 769.787 123.25 769.493 123.25 769V756C123.25 755.507 123.248 755.213 123.22 755.003C123.207 754.906 123.192 754.858 123.183 754.836C123.181 754.831 123.179 754.828 123.178 754.826L123.177 754.823L123.174 754.822C123.172 754.821 123.169 754.819 123.164 754.817C123.142 754.808 123.094 754.793 122.997 754.78C122.787 754.752 122.493 754.75 122 754.75C121.507 754.75 121.213 754.752 121.003 754.78C120.906 754.793 120.858 754.808 120.836 754.817C120.831 754.819 120.828 754.821 120.826 754.822Z" fill="white"/>
<path fill-rule="evenodd" clip-rule="evenodd" d="M114.955 756.25H115.045C115.478 756.25 115.874 756.25 116.197 756.293C116.553 756.341 116.928 756.454 117.237 756.763C117.546 757.072 117.659 757.447 117.707 757.803C117.75 758.126 117.75 758.522 117.75 758.955V769.045C117.75 769.478 117.75 769.874 117.707 770.197C117.659 770.553 117.546 770.928 117.237 771.237C116.928 771.546 116.553 771.659 116.197 771.707C115.874 771.75 115.478 771.75 115.045 771.75H114.955C114.522 771.75 114.126 771.75 113.803 771.707C113.447 771.659 113.072 771.546 112.763 771.237C112.454 770.928 112.341 770.553 112.293 770.197C112.25 769.874 112.25 769.478 112.25 769.045V758.955C112.25 758.522 112.25 758.126 112.293 757.803C112.341 757.447 112.454 757.072 112.763 756.763C113.072 756.454 113.447 756.341 113.803 756.293C114.126 756.25 114.522 756.25 114.955 756.25ZM113.823 757.823L113.826 757.822L113.823 770.177L113.822 770.174C113.821 770.172 113.819 770.169 113.817 770.164C113.808 770.142 113.793 770.094 113.78 769.997C113.752 769.787 113.75 769.493 113.75 769V759C113.75 758.507 113.752 758.213 113.78 758.003C113.793 757.906 113.808 757.858 113.817 757.836C113.819 757.831 113.821 757.828 113.822 757.826L113.823 757.823ZM113.823 770.177L113.826 757.822L113.829 757.82L113.836 757.817C113.858 757.808 113.906 757.793 114.003 757.78C114.213 757.752 114.507 757.75 115 757.75C115.493 757.75 115.787 757.752 115.997 757.78C116.094 757.793 116.142 757.808 116.164 757.817C116.169 757.819 116.172 757.821 116.174 757.822L116.177 757.823L116.178 757.826C116.179 757.828 116.181 757.831 116.183 757.836C116.192 757.858 116.207 757.906 116.22 758.003C116.248 758.213 116.25 758.507 116.25 759V769C116.25 769.493 116.248 769.787 116.22 769.997C116.207 770.094 116.192 770.142 116.183 770.164C116.181 770.169 116.179 770.172 116.178 770.174L116.177 770.177L116.174 770.178C116.173 770.179 116.171 770.18 116.169 770.181C116.167 770.181 116.166 770.182 116.164 770.183C116.142 770.192 116.094 770.207 115.997 770.22C115.787 770.248 115.493 770.25 115 770.25C114.507 770.25 114.213 770.248 114.003 770.22C113.906 770.207 113.858 770.192 113.836 770.183C113.831 770.181 113.828 770.179 113.826 770.178L113.823 770.177Z" fill="white"/>
<path fill-rule="evenodd" clip-rule="evenodd" d="M107.955 760.25C107.522 760.25 107.126 760.25 106.803 760.293C106.447 760.341 106.072 760.454 105.763 760.763C105.454 761.072 105.341 761.447 105.293 761.803C105.25 762.126 105.25 762.522 105.25 762.955V769.045C105.25 769.478 105.25 769.874 105.293 770.197C105.341 770.553 105.454 770.928 105.763 771.237C106.072 771.546 106.447 771.659 106.803 771.707C107.126 771.75 107.522 771.75 107.955 771.75H108.045C108.478 771.75 108.874 771.75 109.197 771.707C109.553 771.659 109.928 771.546 110.237 771.237C110.546 770.928 110.659 770.553 110.707 770.197C110.75 769.874 110.75 769.478 110.75 769.045V762.955C110.75 762.522 110.75 762.126 110.707 761.803C110.659 761.447 110.546 761.072 110.237 760.763C109.928 760.454 109.553 760.341 109.197 760.293C108.874 760.25 108.478 760.25 108.045 760.25H107.955ZM106.826 761.822L106.823 761.823L106.822 761.826C106.821 761.828 106.819 761.831 106.817 761.836C106.808 761.858 106.793 761.906 106.78 762.003C106.752 762.213 106.75 762.507 106.75 763V769C106.75 769.493 106.752 769.787 106.78 769.997C106.793 770.094 106.808 770.142 106.817 770.164C106.819 770.169 106.821 770.172 106.822 770.174L106.823 770.176L106.826 770.178C106.828 770.179 106.831 770.181 106.836 770.183C106.858 770.192 106.906 770.207 107.003 770.22C107.213 770.248 107.507 770.25 108 770.25C108.493 770.25 108.787 770.248 108.997 770.22C109.094 770.207 109.142 770.192 109.164 770.183C109.169 770.181 109.172 770.179 109.174 770.178L109.177 770.177L109.178 770.174L109.18 770.17L109.183 770.164C109.192 770.142 109.207 770.094 109.22 769.997C109.248 769.787 109.25 769.493 109.25 769V763C109.25 762.507 109.248 762.213 109.22 762.003C109.207 761.906 109.192 761.858 109.183 761.836C109.181 761.831 109.179 761.828 109.178 761.826L109.177 761.823L109.174 761.822C109.172 761.821 109.169 761.819 109.164 761.817C109.142 761.808 109.094 761.793 108.997 761.78C108.787 761.752 108.493 761.75 108 761.75C107.507 761.75 107.213 761.752 107.003 761.78C106.906 761.793 106.858 761.808 106.836 761.817C106.831 761.819 106.828 761.821 106.826 761.822Z" fill="white"/>
<path d="M106 773.25C105.586 773.25 105.25 773.586 105.25 774C105.25 774.414 105.586 774.75 106 774.75H124C124.414 774.75 124.75 774.414 124.75 774C124.75 773.586 124.414 773.25 124 773.25H106Z" fill="white"/>
<path d="M218.5 749.5C218.5 766.053 204.636 779.5 187.5 779.5C170.364 779.5 156.5 766.053 156.5 749.5C156.5 732.947 170.364 719.5 187.5 719.5C204.636 719.5 218.5 732.947 218.5 749.5Z" fill="#102466" stroke="white"/>
<path fill-rule="evenodd" clip-rule="evenodd" d="M183.598 742.487C183.865 741.177 185.031 740.25 186.366 740.25H189.634C190.969 740.25 192.135 741.177 192.402 742.487C192.463 742.789 192.737 743.011 193.022 743.011H193.038L193.055 743.012C194.458 743.073 195.536 743.245 196.436 743.836C197.003 744.208 197.491 744.686 197.871 745.245C198.344 745.939 198.552 746.737 198.652 747.701C198.75 748.644 198.75 749.825 198.75 751.321V751.406C198.75 752.902 198.75 754.083 198.652 755.026C198.552 755.99 198.344 756.788 197.871 757.483C197.491 758.041 197.003 758.52 196.436 758.892C195.733 759.353 194.926 759.557 193.948 759.654C192.99 759.75 191.789 759.75 190.263 759.75H185.737C184.211 759.75 183.01 759.75 182.052 759.654C181.074 759.557 180.267 759.353 179.564 758.892C178.997 758.52 178.509 758.041 178.129 757.483C177.656 756.788 177.448 755.99 177.348 755.026C177.25 754.083 177.25 752.902 177.25 751.406V751.321C177.25 749.825 177.25 748.644 177.348 747.701C177.448 746.737 177.656 745.939 178.129 745.245C178.509 744.686 178.997 744.208 179.564 743.836C180.464 743.245 181.542 743.073 182.945 743.012L182.962 743.011H182.978C183.263 743.011 183.537 742.789 183.598 742.487ZM186.366 741.75C185.725 741.75 185.189 742.193 185.068 742.786C184.873 743.747 184.021 744.502 182.996 744.511C181.648 744.571 180.925 744.736 180.387 745.09C179.983 745.355 179.638 745.694 179.369 746.089C179.093 746.494 178.927 747.013 178.84 747.856C178.751 748.712 178.75 749.816 178.75 751.364C178.75 752.912 178.751 754.015 178.84 754.871C178.927 755.714 179.093 756.233 179.369 756.639C179.638 757.033 179.983 757.373 180.387 757.637C180.804 757.911 181.338 758.076 182.201 758.162C183.075 758.249 184.202 758.25 185.778 758.25H190.222C191.798 758.25 192.925 758.249 193.799 758.162C194.662 758.076 195.196 757.911 195.613 757.637C196.017 757.373 196.362 757.033 196.631 756.639C196.907 756.233 197.073 755.714 197.16 754.871C197.249 754.015 197.25 752.912 197.25 751.364C197.25 749.816 197.249 748.712 197.16 747.856C197.073 747.013 196.907 746.494 196.631 746.089C196.362 745.694 196.017 745.355 195.613 745.09C195.075 744.736 194.352 744.571 193.004 744.511C191.979 744.502 191.127 743.747 190.932 742.786C190.811 742.193 190.275 741.75 189.634 741.75H186.366ZM188 748.75C186.757 748.75 185.75 749.757 185.75 751C185.75 752.243 186.757 753.25 188 753.25C189.243 753.25 190.25 752.243 190.25 751C190.25 749.757 189.243 748.75 188 748.75ZM184.25 751C184.25 748.929 185.929 747.25 188 747.25C190.071 747.25 191.75 748.929 191.75 751C191.75 753.071 190.071 754.75 188 754.75C185.929 754.75 184.25 753.071 184.25 751ZM193.25 748C193.25 747.586 193.586 747.25 194 747.25H195C195.414 747.25 195.75 747.586 195.75 748C195.75 748.414 195.414 748.75 195 748.75H194C193.586 748.75 193.25 748.414 193.25 748Z" fill="white"/>
<path fill-rule="evenodd" clip-rule="evenodd" d="M257.465 754.821C259.087 754.06 260.913 754.06 262.536 754.821L269.227 757.958C270.279 758.451 270.75 759.522 270.75 760.5C270.75 761.478 270.279 762.549 269.227 763.042L267.75 763.735V768.625C267.75 769.878 267.122 771.088 265.978 771.722C265.226 772.138 264.238 772.639 263.199 773.038C262.171 773.432 261.034 773.75 260 773.75C258.966 773.75 257.829 773.432 256.801 773.038C255.762 772.639 254.774 772.138 254.022 771.722C252.878 771.088 252.25 769.878 252.25 768.625V763.5C252.25 763.459 252.253 763.418 252.26 763.378C252.236 763.234 252.254 763.082 252.321 762.94C252.497 762.565 252.944 762.403 253.319 762.579L258.101 764.821C259.321 765.393 260.68 765.393 261.899 764.821L268.59 761.684C268.993 761.495 269.25 761.044 269.25 760.5C269.25 759.956 268.993 759.505 268.59 759.316L261.899 756.179C260.68 755.607 259.321 755.607 258.101 756.179L251.41 759.316C251.035 759.491 250.589 759.33 250.413 758.955C250.237 758.58 250.398 758.133 250.773 757.958L257.465 754.821ZM253.75 764.438V768.625C253.75 769.388 254.129 770.066 254.749 770.409C255.465 770.806 256.387 771.272 257.338 771.637C258.302 772.007 259.238 772.25 260 772.25C260.762 772.25 261.698 772.007 262.662 771.637C263.613 771.272 264.535 770.806 265.251 770.409C265.871 770.066 266.25 769.388 266.25 768.625V764.438L262.536 766.179C260.913 766.94 259.087 766.94 257.465 766.179L253.75 764.438Z" fill="#747474"/>
<path d="M254.689 759.705C254.853 760.085 254.676 760.526 254.295 760.689L253.22 761.15C252.617 761.409 252.22 761.58 251.928 761.744C251.652 761.899 251.532 762.015 251.456 762.131C251.38 762.246 251.321 762.402 251.287 762.716C251.251 763.049 251.25 763.482 251.25 764.138V767C251.25 767.414 250.914 767.75 250.5 767.75C250.086 767.75 249.75 767.414 249.75 767V764.099C249.75 763.492 249.75 762.978 249.796 762.555C249.844 762.105 249.95 761.691 250.204 761.305C250.459 760.919 250.798 760.659 251.193 760.437C251.563 760.228 252.036 760.026 252.593 759.787L253.705 759.311C254.085 759.147 254.526 759.324 254.689 759.705Z" fill="#747474"/>
<path fill-rule="evenodd" clip-rule="evenodd" d="M326 760.25C323.929 760.25 322.25 761.929 322.25 764C322.25 766.071 323.929 767.75 326 767.75C328.071 767.75 329.75 766.071 329.75 764C329.75 761.929 328.071 760.25 326 760.25ZM323.75 764C323.75 762.757 324.757 761.75 326 761.75C327.243 761.75 328.25 762.757 328.25 764C328.25 765.243 327.243 766.25 326 766.25C324.757 766.25 323.75 765.243 323.75 764Z" fill="#747474"/>
<path fill-rule="evenodd" clip-rule="evenodd" d="M325.975 753.25C325.53 753.25 325.159 753.25 324.855 753.271C324.538 753.292 324.238 753.339 323.948 753.459C323.274 753.738 322.738 754.274 322.459 754.948C322.314 755.298 322.275 755.668 322.26 756.07C322.248 756.393 322.085 756.663 321.844 756.801C321.603 756.94 321.288 756.947 321.003 756.796C320.647 756.608 320.307 756.457 319.931 756.407C319.208 756.312 318.476 756.508 317.898 756.952C317.648 757.144 317.458 757.38 317.281 757.643C317.111 757.897 316.925 758.218 316.703 758.603L316.678 758.647C316.455 759.032 316.27 759.353 316.136 759.627C315.996 759.913 315.886 760.195 315.845 760.507C315.75 761.23 315.946 761.961 316.39 762.54C316.621 762.841 316.922 763.06 317.262 763.274C317.536 763.446 317.688 763.722 317.688 764C317.688 764.278 317.536 764.554 317.262 764.726C316.922 764.94 316.621 765.159 316.39 765.46C315.946 766.039 315.75 766.77 315.845 767.493C315.886 767.805 315.996 768.087 316.136 768.373C316.27 768.647 316.455 768.968 316.678 769.353L316.703 769.397C316.925 769.782 317.111 770.103 317.281 770.357C317.458 770.62 317.648 770.856 317.898 771.048C318.476 771.492 319.208 771.688 319.931 771.592C320.307 771.543 320.647 771.392 321.003 771.204C321.288 771.053 321.603 771.06 321.844 771.199C322.085 771.337 322.248 771.607 322.26 771.93C322.275 772.332 322.314 772.702 322.459 773.052C322.738 773.726 323.274 774.262 323.948 774.541C324.238 774.661 324.538 774.708 324.855 774.729C325.159 774.75 325.53 774.75 325.975 774.75H326.025C326.47 774.75 326.841 774.75 327.145 774.729C327.462 774.708 327.762 774.661 328.052 774.541C328.726 774.262 329.262 773.726 329.541 773.052C329.686 772.702 329.725 772.332 329.74 771.93C329.752 771.607 329.915 771.337 330.156 771.199C330.397 771.06 330.712 771.053 330.997 771.204C331.353 771.392 331.693 771.543 332.069 771.592C332.792 771.688 333.524 771.492 334.102 771.048C334.352 770.856 334.542 770.62 334.719 770.356C334.889 770.103 335.075 769.782 335.297 769.397L335.322 769.353C335.544 768.968 335.73 768.647 335.864 768.373C336.004 768.087 336.114 767.804 336.155 767.493C336.25 766.77 336.054 766.038 335.61 765.46C335.379 765.159 335.078 764.94 334.738 764.726C334.464 764.554 334.312 764.278 334.312 764C334.312 763.722 334.464 763.446 334.738 763.274C335.078 763.06 335.379 762.841 335.61 762.54C336.054 761.961 336.25 761.23 336.155 760.507C336.114 760.195 336.004 759.913 335.864 759.627C335.73 759.353 335.545 759.032 335.322 758.647L335.297 758.603C335.075 758.218 334.889 757.897 334.719 757.643C334.542 757.38 334.352 757.144 334.102 756.952C333.524 756.508 332.792 756.312 332.069 756.408C331.693 756.457 331.353 756.608 330.997 756.796C330.712 756.947 330.397 756.94 330.156 756.801C329.915 756.663 329.752 756.393 329.74 756.07C329.725 755.668 329.686 755.298 329.541 754.948C329.262 754.274 328.726 753.738 328.052 753.459C327.762 753.339 327.462 753.292 327.145 753.271C326.841 753.25 326.47 753.25 326.025 753.25H325.975ZM324.522 754.845C324.599 754.813 324.716 754.784 324.957 754.767C325.204 754.75 325.524 754.75 326 754.75C326.476 754.75 326.796 754.75 327.043 754.767C327.284 754.784 327.401 754.813 327.478 754.845C327.785 754.972 328.028 755.215 328.155 755.522C328.195 755.618 328.228 755.769 328.241 756.126C328.271 756.918 328.68 757.681 329.406 758.1C330.132 758.52 330.997 758.492 331.698 758.122C332.014 757.955 332.161 757.908 332.265 757.895C332.594 757.851 332.926 757.94 333.189 758.142C333.255 758.193 333.34 758.28 333.474 758.48C333.612 758.686 333.773 758.963 334.011 759.375C334.249 759.787 334.408 760.064 334.517 760.287C334.624 760.504 334.657 760.62 334.668 760.703C334.711 761.032 334.622 761.364 334.42 761.627C334.356 761.71 334.242 761.814 333.94 762.004C333.268 762.426 332.812 763.162 332.812 764C332.812 764.838 333.268 765.574 333.94 765.996C334.242 766.186 334.356 766.29 334.42 766.373C334.622 766.636 334.711 766.968 334.667 767.297C334.657 767.38 334.623 767.496 334.517 767.713C334.408 767.936 334.249 768.213 334.011 768.625C333.773 769.037 333.612 769.314 333.474 769.52C333.339 769.72 333.255 769.807 333.189 769.858C332.926 770.059 332.594 770.149 332.265 770.105C332.161 770.092 332.014 770.045 331.698 769.878C330.997 769.508 330.132 769.48 329.406 769.9C328.68 770.319 328.271 771.082 328.241 771.874C328.228 772.231 328.195 772.382 328.155 772.478C328.028 772.785 327.785 773.028 327.478 773.155C327.401 773.187 327.284 773.216 327.043 773.233C326.796 773.25 326.476 773.25 326 773.25C325.524 773.25 325.204 773.25 324.957 773.233C324.716 773.216 324.599 773.187 324.522 773.155C324.215 773.028 323.972 772.785 323.845 772.478C323.805 772.382 323.772 772.231 323.759 771.874C323.729 771.082 323.32 770.319 322.594 769.9C321.868 769.48 321.003 769.508 320.302 769.878C319.986 770.045 319.839 770.092 319.735 770.105C319.406 770.149 319.074 770.06 318.811 769.858C318.745 769.807 318.66 769.72 318.526 769.52C318.388 769.314 318.227 769.037 317.989 768.625C317.751 768.213 317.592 767.936 317.483 767.713C317.376 767.496 317.343 767.38 317.332 767.297C317.289 766.968 317.378 766.636 317.58 766.373C317.644 766.29 317.758 766.186 318.06 765.996C318.732 765.574 319.188 764.838 319.188 764C319.188 763.162 318.732 762.426 318.06 762.004C317.758 761.814 317.644 761.71 317.58 761.627C317.378 761.364 317.289 761.031 317.333 760.703C317.343 760.62 317.377 760.504 317.483 760.287C317.592 760.064 317.751 759.787 317.989 759.375C318.227 758.963 318.388 758.686 318.526 758.48C318.661 758.28 318.745 758.193 318.811 758.142C319.074 757.94 319.406 757.851 319.735 757.895C319.839 757.908 319.986 757.955 320.302 758.122C321.003 758.492 321.868 758.52 322.594 758.1C323.32 757.681 323.729 756.918 323.759 756.126C323.772 755.769 323.805 755.618 323.845 755.522C323.972 755.215 324.215 754.972 324.522 754.845Z" fill="#747474"/>
</g>
<defs>
<clipPath id="clip0_39_72">
<rect width="375" height="812" fill="white"/>
</clipPath>
<clipPath id="clip1_39_72">
<rect width="375" height="44" fill="white"/>
</clipPath>
</defs>
</svg>
