<svg width="375" height="812" viewBox="0 0 375 812" fill="none" xmlns="http://www.w3.org/2000/svg">
<rect width="375" height="812" fill="#F4F3F1"/>
<rect width="375" height="102" fill="#102466"/>
<path fill-rule="evenodd" clip-rule="evenodd" d="M31.4881 72.4306C31.8026 72.7001 31.839 73.1736 31.5694 73.4881L25.9878 80L31.5694 86.5119C31.839 86.8264 31.8026 87.2999 31.4881 87.5694C31.1736 87.839 30.7001 87.8026 30.4306 87.4881L24.4306 80.4881C24.1898 80.2072 24.1898 79.7928 24.4306 79.5119L30.4306 72.5119C30.7001 72.1974 31.1736 72.161 31.4881 72.4306Z" fill="#747474"/>
<path d="M53.5947 75.1177H55.5952C56.2925 75.1177 56.9372 75.2367 57.5293 75.4746C58.127 75.707 58.6471 76.0391 59.0898 76.4707C59.5381 76.9023 59.8867 77.417 60.1357 78.0146C60.3848 78.6068 60.5093 79.2625 60.5093 79.9819C60.5093 80.7013 60.3848 81.3599 60.1357 81.9575C59.8867 82.5552 59.5381 83.0726 59.0898 83.5098C58.6471 83.9414 58.127 84.2762 57.5293 84.5142C56.9372 84.7466 56.2925 84.8628 55.5952 84.8628H53.5947C52.8975 84.8628 52.2528 84.7466 51.6606 84.5142C51.0685 84.2762 50.5483 83.9414 50.1001 83.5098C49.6574 83.0781 49.3115 82.5662 49.0625 81.9741C48.819 81.3765 48.6973 80.7179 48.6973 79.9985C48.6973 79.2791 48.819 78.6234 49.0625 78.0312C49.3115 77.4336 49.6574 76.9189 50.1001 76.4873C50.5483 76.0501 51.0685 75.7126 51.6606 75.4746C52.2528 75.2367 52.8975 75.1177 53.5947 75.1177ZM53.5947 76.3794C52.8698 76.3794 52.2555 76.5316 51.752 76.8359C51.2484 77.1348 50.8665 77.5553 50.6064 78.0977C50.3464 78.64 50.2163 79.2736 50.2163 79.9985C50.2163 80.5464 50.2882 81.0417 50.4321 81.4844C50.5815 81.9271 50.8001 82.3062 51.0879 82.6216C51.3757 82.937 51.7298 83.1805 52.1504 83.3521C52.571 83.5236 53.0524 83.6094 53.5947 83.6094H55.6118C56.3312 83.6094 56.9399 83.46 57.438 83.1611C57.9416 82.8568 58.3234 82.4334 58.5835 81.8911C58.8491 81.3433 58.9819 80.7069 58.9819 79.9819C58.9819 79.4396 58.9072 78.9471 58.7578 78.5044C58.6084 78.0617 58.3898 77.6826 58.1021 77.3672C57.8198 77.0518 57.4684 76.8083 57.0479 76.6367C56.6328 76.4652 56.1541 76.3794 55.6118 76.3794H53.5947ZM55.3711 73.416V86.498H53.8354V73.416H55.3711ZM63.9624 83.5679L68.1045 77.0186H69.6484V86H68.1045V79.4507L63.9624 86H62.4351V77.0186H63.9624V83.5679ZM78.2065 80.9116V82.1567H73.4585V80.9116H78.2065ZM73.7822 77.0186V86H72.2466V77.0186H73.7822ZM79.4517 77.0186V86H77.9077V77.0186H79.4517ZM87.2212 84.4644V79.8408C87.2212 79.4867 87.1493 79.1795 87.0054 78.9194C86.867 78.6538 86.6567 78.4491 86.3745 78.3052C86.0923 78.1613 85.7437 78.0894 85.3286 78.0894C84.9412 78.0894 84.6009 78.1558 84.3076 78.2886C84.0199 78.4214 83.793 78.5957 83.627 78.8115C83.4665 79.0273 83.3862 79.2598 83.3862 79.5088H81.8506C81.8506 79.1878 81.9336 78.8696 82.0996 78.5542C82.2656 78.2388 82.5036 77.9538 82.8135 77.6992C83.1289 77.4391 83.5052 77.2344 83.9424 77.085C84.3851 76.93 84.8776 76.8525 85.4199 76.8525C86.0729 76.8525 86.6484 76.9632 87.1465 77.1846C87.6501 77.4059 88.043 77.7407 88.3252 78.189C88.613 78.6317 88.7568 79.1878 88.7568 79.8574V84.041C88.7568 84.3398 88.7817 84.658 88.8315 84.9956C88.8869 85.3332 88.9671 85.6237 89.0723 85.8672V86H87.4702C87.3927 85.8229 87.3319 85.5877 87.2876 85.2944C87.2433 84.9956 87.2212 84.7189 87.2212 84.4644ZM87.4868 80.5547L87.5034 81.6338H85.9512C85.514 81.6338 85.1239 81.6698 84.7808 81.7417C84.4377 81.8081 84.1499 81.9105 83.9175 82.0488C83.6851 82.1872 83.508 82.3615 83.3862 82.5718C83.2645 82.7765 83.2036 83.0173 83.2036 83.2939C83.2036 83.5762 83.2673 83.8335 83.3945 84.0659C83.5218 84.2983 83.7127 84.4837 83.9673 84.6221C84.2274 84.7549 84.5456 84.8213 84.9219 84.8213C85.3923 84.8213 85.8073 84.7217 86.167 84.5225C86.5267 84.3232 86.8117 84.0798 87.022 83.792C87.2378 83.5042 87.354 83.2248 87.3706 82.9536L88.0264 83.6924C87.9876 83.9248 87.8825 84.1821 87.7109 84.4644C87.5394 84.7466 87.3097 85.0177 87.022 85.2778C86.7397 85.5324 86.4022 85.7454 86.0093 85.917C85.6219 86.083 85.1847 86.166 84.6978 86.166C84.089 86.166 83.555 86.047 83.0957 85.8091C82.6419 85.5711 82.2878 85.2529 82.0332 84.8545C81.7842 84.4505 81.6597 83.9995 81.6597 83.5015C81.6597 83.02 81.7537 82.5967 81.9419 82.2314C82.13 81.8607 82.4012 81.5535 82.7554 81.3101C83.1095 81.061 83.5356 80.8729 84.0337 80.7456C84.5317 80.6183 85.0879 80.5547 85.7021 80.5547H87.4868ZM97.2651 80.9116V82.1567H92.5171V80.9116H97.2651ZM92.8408 77.0186V86H91.3052V77.0186H92.8408ZM98.5103 77.0186V86H96.9663V77.0186H98.5103ZM104.578 84.9043C104.943 84.9043 105.281 84.8296 105.591 84.6802C105.901 84.5308 106.155 84.326 106.354 84.0659C106.554 83.8003 106.667 83.4987 106.695 83.1611H108.156C108.128 83.6924 107.948 84.1877 107.616 84.647C107.29 85.1007 106.861 85.4688 106.33 85.751C105.798 86.0277 105.215 86.166 104.578 86.166C103.903 86.166 103.314 86.047 102.81 85.8091C102.312 85.5711 101.897 85.2446 101.565 84.8296C101.238 84.4146 100.992 83.9386 100.826 83.4019C100.666 82.8595 100.585 82.2868 100.585 81.6836V81.335C100.585 80.7318 100.666 80.1618 100.826 79.625C100.992 79.0827 101.238 78.604 101.565 78.189C101.897 77.7739 102.312 77.4474 102.81 77.2095C103.314 76.9715 103.903 76.8525 104.578 76.8525C105.281 76.8525 105.895 76.9964 106.421 77.2842C106.947 77.5664 107.359 77.9538 107.658 78.4463C107.962 78.9333 108.128 79.4867 108.156 80.1064H106.695C106.667 79.7357 106.562 79.4009 106.379 79.1021C106.202 78.8032 105.959 78.5653 105.649 78.3882C105.345 78.2056 104.988 78.1143 104.578 78.1143C104.108 78.1143 103.712 78.2083 103.391 78.3965C103.076 78.5791 102.824 78.8281 102.636 79.1436C102.453 79.4535 102.32 79.7993 102.237 80.1812C102.16 80.5575 102.121 80.9421 102.121 81.335V81.6836C102.121 82.0765 102.16 82.4639 102.237 82.8457C102.315 83.2275 102.445 83.5734 102.627 83.8833C102.816 84.1932 103.067 84.4422 103.383 84.6304C103.704 84.813 104.102 84.9043 104.578 84.9043ZM109.476 81.6089V81.418C109.476 80.7705 109.57 80.1701 109.758 79.6167C109.946 79.0578 110.217 78.5736 110.571 78.1641C110.925 77.749 111.354 77.4281 111.858 77.2012C112.361 76.9688 112.926 76.8525 113.551 76.8525C114.182 76.8525 114.749 76.9688 115.253 77.2012C115.762 77.4281 116.194 77.749 116.548 78.1641C116.908 78.5736 117.181 79.0578 117.37 79.6167C117.558 80.1701 117.652 80.7705 117.652 81.418V81.6089C117.652 82.2563 117.558 82.8568 117.37 83.4102C117.181 83.9635 116.908 84.4478 116.548 84.8628C116.194 85.2723 115.765 85.5933 115.261 85.8257C114.763 86.0526 114.199 86.166 113.568 86.166C112.937 86.166 112.37 86.0526 111.866 85.8257C111.363 85.5933 110.931 85.2723 110.571 84.8628C110.217 84.4478 109.946 83.9635 109.758 83.4102C109.57 82.8568 109.476 82.2563 109.476 81.6089ZM111.011 81.418V81.6089C111.011 82.0571 111.064 82.4805 111.169 82.8789C111.274 83.2718 111.432 83.6204 111.642 83.9248C111.858 84.2292 112.126 84.4699 112.447 84.647C112.768 84.8185 113.142 84.9043 113.568 84.9043C113.988 84.9043 114.356 84.8185 114.672 84.647C114.993 84.4699 115.258 84.2292 115.469 83.9248C115.679 83.6204 115.837 83.2718 115.942 82.8789C116.053 82.4805 116.108 82.0571 116.108 81.6089V81.418C116.108 80.9753 116.053 80.5575 115.942 80.1646C115.837 79.7661 115.676 79.4147 115.46 79.1104C115.25 78.8005 114.985 78.557 114.664 78.3799C114.348 78.2028 113.977 78.1143 113.551 78.1143C113.131 78.1143 112.76 78.2028 112.439 78.3799C112.124 78.557 111.858 78.8005 111.642 79.1104C111.432 79.4147 111.274 79.7661 111.169 80.1646C111.064 80.5575 111.011 80.9753 111.011 81.418ZM123.794 82.0488H120.848L120.831 80.8203H123.238C123.714 80.8203 124.11 80.7733 124.425 80.6792C124.746 80.5851 124.987 80.444 125.147 80.2559C125.308 80.0677 125.388 79.8353 125.388 79.5586C125.388 79.3428 125.341 79.1546 125.247 78.9941C125.159 78.8281 125.023 78.6925 124.84 78.5874C124.658 78.4767 124.431 78.3965 124.16 78.3467C123.894 78.2913 123.581 78.2637 123.222 78.2637H121.254V86H119.719V77.0186H123.222C123.792 77.0186 124.304 77.0684 124.757 77.168C125.217 77.2676 125.607 77.4198 125.928 77.6245C126.254 77.8237 126.503 78.0783 126.675 78.3882C126.846 78.6981 126.932 79.0633 126.932 79.4839C126.932 79.755 126.877 80.0124 126.766 80.2559C126.655 80.4993 126.492 80.7152 126.276 80.9033C126.061 81.0915 125.795 81.2464 125.479 81.3682C125.164 81.4844 124.802 81.5591 124.392 81.5923L123.794 82.0488ZM123.794 86H120.292L121.055 84.7549H123.794C124.221 84.7549 124.575 84.7023 124.857 84.5972C125.139 84.4865 125.349 84.3315 125.488 84.1323C125.632 83.9276 125.704 83.6841 125.704 83.4019C125.704 83.1196 125.632 82.8789 125.488 82.6797C125.349 82.4749 125.139 82.32 124.857 82.2148C124.575 82.1042 124.221 82.0488 123.794 82.0488H121.462L121.479 80.8203H124.392L124.948 81.2852C125.441 81.3239 125.859 81.4456 126.202 81.6504C126.545 81.8551 126.805 82.1152 126.982 82.4307C127.159 82.7406 127.248 83.0781 127.248 83.4434C127.248 83.8639 127.167 84.2347 127.007 84.5557C126.852 84.8766 126.625 85.145 126.326 85.3608C126.027 85.5711 125.665 85.7316 125.239 85.8423C124.813 85.9474 124.331 86 123.794 86ZM134.602 84.4644V79.8408C134.602 79.4867 134.53 79.1795 134.386 78.9194C134.248 78.6538 134.038 78.4491 133.755 78.3052C133.473 78.1613 133.125 78.0894 132.709 78.0894C132.322 78.0894 131.982 78.1558 131.688 78.2886C131.401 78.4214 131.174 78.5957 131.008 78.8115C130.847 79.0273 130.767 79.2598 130.767 79.5088H129.231C129.231 79.1878 129.314 78.8696 129.48 78.5542C129.646 78.2388 129.884 77.9538 130.194 77.6992C130.51 77.4391 130.886 77.2344 131.323 77.085C131.766 76.93 132.258 76.8525 132.801 76.8525C133.454 76.8525 134.029 76.9632 134.527 77.1846C135.031 77.4059 135.424 77.7407 135.706 78.189C135.994 78.6317 136.138 79.1878 136.138 79.8574V84.041C136.138 84.3398 136.163 84.658 136.212 84.9956C136.268 85.3332 136.348 85.6237 136.453 85.8672V86H134.851C134.774 85.8229 134.713 85.5877 134.668 85.2944C134.624 84.9956 134.602 84.7189 134.602 84.4644ZM134.868 80.5547L134.884 81.6338H133.332C132.895 81.6338 132.505 81.6698 132.162 81.7417C131.819 81.8081 131.531 81.9105 131.298 82.0488C131.066 82.1872 130.889 82.3615 130.767 82.5718C130.645 82.7765 130.584 83.0173 130.584 83.2939C130.584 83.5762 130.648 83.8335 130.775 84.0659C130.903 84.2983 131.094 84.4837 131.348 84.6221C131.608 84.7549 131.926 84.8213 132.303 84.8213C132.773 84.8213 133.188 84.7217 133.548 84.5225C133.908 84.3232 134.193 84.0798 134.403 83.792C134.619 83.5042 134.735 83.2248 134.751 82.9536L135.407 83.6924C135.368 83.9248 135.263 84.1821 135.092 84.4644C134.92 84.7466 134.691 85.0177 134.403 85.2778C134.121 85.5324 133.783 85.7454 133.39 85.917C133.003 86.083 132.566 86.166 132.079 86.166C131.47 86.166 130.936 86.047 130.477 85.8091C130.023 85.5711 129.669 85.2529 129.414 84.8545C129.165 84.4505 129.041 83.9995 129.041 83.5015C129.041 83.02 129.135 82.5967 129.323 82.2314C129.511 81.8607 129.782 81.5535 130.136 81.3101C130.49 81.061 130.917 80.8729 131.415 80.7456C131.913 80.6183 132.469 80.5547 133.083 80.5547H134.868ZM140.371 81.7168H142.031L139.433 86H137.773L140.371 81.7168ZM141.658 77.0186H145.41V86H143.874V78.2637H141.658C141.221 78.2637 140.864 78.3384 140.587 78.4878C140.31 78.6317 140.108 78.8198 139.981 79.0522C139.854 79.2847 139.79 79.5254 139.79 79.7744C139.79 80.0179 139.848 80.2531 139.964 80.48C140.081 80.7013 140.263 80.884 140.512 81.0278C140.761 81.1717 141.082 81.2437 141.475 81.2437H144.289V82.5054H141.475C140.96 82.5054 140.504 82.4362 140.105 82.2979C139.707 82.1595 139.369 81.9686 139.093 81.7251C138.816 81.4761 138.606 81.1855 138.462 80.8535C138.318 80.516 138.246 80.1507 138.246 79.7578C138.246 79.3649 138.321 79.0024 138.47 78.6704C138.625 78.3384 138.847 78.0479 139.134 77.7988C139.428 77.5498 139.785 77.3589 140.205 77.2261C140.631 77.0877 141.115 77.0186 141.658 77.0186ZM157.902 77.0186V78.2886H153.752V86H152.216V77.0186H157.902ZM160.774 78.7451V89.4531H159.23V77.0186H160.642L160.774 78.7451ZM166.826 81.4346V81.6089C166.826 82.2619 166.748 82.8678 166.593 83.4268C166.438 83.9801 166.211 84.4616 165.913 84.8711C165.619 85.2806 165.257 85.5988 164.825 85.8257C164.394 86.0526 163.898 86.166 163.339 86.166C162.769 86.166 162.266 86.0719 161.829 85.8838C161.391 85.6956 161.021 85.4217 160.716 85.062C160.412 84.7023 160.168 84.2707 159.986 83.7671C159.809 83.2635 159.687 82.6963 159.621 82.0654V81.1357C159.687 80.4717 159.812 79.8768 159.994 79.3511C160.177 78.8254 160.417 78.3771 160.716 78.0063C161.021 77.63 161.389 77.3451 161.82 77.1514C162.252 76.9521 162.75 76.8525 163.314 76.8525C163.879 76.8525 164.38 76.9632 164.817 77.1846C165.254 77.4004 165.622 77.7103 165.921 78.1143C166.22 78.5182 166.444 79.0024 166.593 79.5669C166.748 80.1258 166.826 80.7484 166.826 81.4346ZM165.282 81.6089V81.4346C165.282 80.9863 165.235 80.5658 165.141 80.1729C165.047 79.7744 164.9 79.4258 164.701 79.127C164.507 78.8226 164.258 78.5846 163.954 78.4131C163.649 78.236 163.287 78.1475 162.866 78.1475C162.479 78.1475 162.141 78.2139 161.854 78.3467C161.571 78.4795 161.331 78.6593 161.131 78.8862C160.932 79.1076 160.769 79.3621 160.642 79.6499C160.52 79.9321 160.429 80.2254 160.368 80.5298V82.6797C160.478 83.0671 160.633 83.4323 160.833 83.7754C161.032 84.113 161.297 84.3869 161.629 84.5972C161.961 84.8019 162.379 84.9043 162.883 84.9043C163.298 84.9043 163.655 84.8185 163.954 84.647C164.258 84.4699 164.507 84.2292 164.701 83.9248C164.9 83.6204 165.047 83.2718 165.141 82.8789C165.235 82.4805 165.282 82.0571 165.282 81.6089ZM174.081 84.4644V79.8408C174.081 79.4867 174.009 79.1795 173.865 78.9194C173.726 78.6538 173.516 78.4491 173.234 78.3052C172.952 78.1613 172.603 78.0894 172.188 78.0894C171.801 78.0894 171.46 78.1558 171.167 78.2886C170.879 78.4214 170.652 78.5957 170.486 78.8115C170.326 79.0273 170.246 79.2598 170.246 79.5088H168.71C168.71 79.1878 168.793 78.8696 168.959 78.5542C169.125 78.2388 169.363 77.9538 169.673 77.6992C169.988 77.4391 170.365 77.2344 170.802 77.085C171.244 76.93 171.737 76.8525 172.279 76.8525C172.932 76.8525 173.508 76.9632 174.006 77.1846C174.509 77.4059 174.902 77.7407 175.185 78.189C175.472 78.6317 175.616 79.1878 175.616 79.8574V84.041C175.616 84.3398 175.641 84.658 175.691 84.9956C175.746 85.3332 175.826 85.6237 175.932 85.8672V86H174.33C174.252 85.8229 174.191 85.5877 174.147 85.2944C174.103 84.9956 174.081 84.7189 174.081 84.4644ZM174.346 80.5547L174.363 81.6338H172.811C172.373 81.6338 171.983 81.6698 171.64 81.7417C171.297 81.8081 171.009 81.9105 170.777 82.0488C170.544 82.1872 170.367 82.3615 170.246 82.5718C170.124 82.7765 170.063 83.0173 170.063 83.2939C170.063 83.5762 170.127 83.8335 170.254 84.0659C170.381 84.2983 170.572 84.4837 170.827 84.6221C171.087 84.7549 171.405 84.8213 171.781 84.8213C172.252 84.8213 172.667 84.7217 173.026 84.5225C173.386 84.3232 173.671 84.0798 173.881 83.792C174.097 83.5042 174.213 83.2248 174.23 82.9536L174.886 83.6924C174.847 83.9248 174.742 84.1821 174.57 84.4644C174.399 84.7466 174.169 85.0177 173.881 85.2778C173.599 85.5324 173.262 85.7454 172.869 85.917C172.481 86.083 172.044 86.166 171.557 86.166C170.948 86.166 170.414 86.047 169.955 85.8091C169.501 85.5711 169.147 85.2529 168.893 84.8545C168.644 84.4505 168.519 83.9995 168.519 83.5015C168.519 83.02 168.613 82.5967 168.801 82.2314C168.989 81.8607 169.261 81.5535 169.615 81.3101C169.969 81.061 170.395 80.8729 170.893 80.7456C171.391 80.6183 171.947 80.5547 172.562 80.5547H174.346ZM183.195 83.958L186.25 77.0186H187.727L183.726 86H182.664L178.679 77.0186H180.157L183.195 83.958ZM179.708 77.0186V86H178.173V77.0186H179.708ZM186.631 86V77.0186H188.175V86H186.631ZM190.242 81.6089V81.418C190.242 80.7705 190.336 80.1701 190.524 79.6167C190.713 79.0578 190.984 78.5736 191.338 78.1641C191.692 77.749 192.121 77.4281 192.625 77.2012C193.128 76.9688 193.693 76.8525 194.318 76.8525C194.949 76.8525 195.516 76.9688 196.02 77.2012C196.529 77.4281 196.96 77.749 197.314 78.1641C197.674 78.5736 197.948 79.0578 198.136 79.6167C198.324 80.1701 198.418 80.7705 198.418 81.418V81.6089C198.418 82.2563 198.324 82.8568 198.136 83.4102C197.948 83.9635 197.674 84.4478 197.314 84.8628C196.96 85.2723 196.531 85.5933 196.028 85.8257C195.53 86.0526 194.965 86.166 194.334 86.166C193.704 86.166 193.136 86.0526 192.633 85.8257C192.129 85.5933 191.698 85.2723 191.338 84.8628C190.984 84.4478 190.713 83.9635 190.524 83.4102C190.336 82.8568 190.242 82.2563 190.242 81.6089ZM191.778 81.418V81.6089C191.778 82.0571 191.83 82.4805 191.936 82.8789C192.041 83.2718 192.198 83.6204 192.409 83.9248C192.625 84.2292 192.893 84.4699 193.214 84.647C193.535 84.8185 193.908 84.9043 194.334 84.9043C194.755 84.9043 195.123 84.8185 195.438 84.647C195.759 84.4699 196.025 84.2292 196.235 83.9248C196.446 83.6204 196.603 83.2718 196.708 82.8789C196.819 82.4805 196.875 82.0571 196.875 81.6089V81.418C196.875 80.9753 196.819 80.5575 196.708 80.1646C196.603 79.7661 196.443 79.4147 196.227 79.1104C196.017 78.8005 195.751 78.557 195.43 78.3799C195.115 78.2028 194.744 78.1143 194.318 78.1143C193.897 78.1143 193.527 78.2028 193.206 78.3799C192.89 78.557 192.625 78.8005 192.409 79.1104C192.198 79.4147 192.041 79.7661 191.936 80.1646C191.83 80.5575 191.778 80.9753 191.778 81.418ZM203.822 77.0186V86H202.278V77.0186H203.822ZM206.835 77.0186V78.2637H199.323V77.0186H206.835ZM214.439 80.9116V82.1567H209.691V80.9116H214.439ZM210.015 77.0186V86H208.479V77.0186H210.015ZM215.684 77.0186V86H214.14V77.0186H215.684ZM217.751 81.6089V81.418C217.751 80.7705 217.845 80.1701 218.033 79.6167C218.221 79.0578 218.493 78.5736 218.847 78.1641C219.201 77.749 219.63 77.4281 220.133 77.2012C220.637 76.9688 221.201 76.8525 221.827 76.8525C222.458 76.8525 223.025 76.9688 223.528 77.2012C224.037 77.4281 224.469 77.749 224.823 78.1641C225.183 78.5736 225.457 79.0578 225.645 79.6167C225.833 80.1701 225.927 80.7705 225.927 81.418V81.6089C225.927 82.2563 225.833 82.8568 225.645 83.4102C225.457 83.9635 225.183 84.4478 224.823 84.8628C224.469 85.2723 224.04 85.5933 223.537 85.8257C223.039 86.0526 222.474 86.166 221.843 86.166C221.212 86.166 220.645 86.0526 220.142 85.8257C219.638 85.5933 219.206 85.2723 218.847 84.8628C218.493 84.4478 218.221 83.9635 218.033 83.4102C217.845 82.8568 217.751 82.2563 217.751 81.6089ZM219.287 81.418V81.6089C219.287 82.0571 219.339 82.4805 219.444 82.8789C219.549 83.2718 219.707 83.6204 219.917 83.9248C220.133 84.2292 220.402 84.4699 220.723 84.647C221.044 84.8185 221.417 84.9043 221.843 84.9043C222.264 84.9043 222.632 84.8185 222.947 84.647C223.268 84.4699 223.534 84.2292 223.744 83.9248C223.954 83.6204 224.112 83.2718 224.217 82.8789C224.328 82.4805 224.383 82.0571 224.383 81.6089V81.418C224.383 80.9753 224.328 80.5575 224.217 80.1646C224.112 79.7661 223.952 79.4147 223.736 79.1104C223.526 78.8005 223.26 78.557 222.939 78.3799C222.624 78.2028 222.253 78.1143 221.827 78.1143C221.406 78.1143 221.035 78.2028 220.714 78.3799C220.399 78.557 220.133 78.8005 219.917 79.1104C219.707 79.4147 219.549 79.7661 219.444 80.1646C219.339 80.5575 219.287 80.9753 219.287 81.418ZM231.447 84.9043C231.812 84.9043 232.15 84.8296 232.46 84.6802C232.77 84.5308 233.024 84.326 233.224 84.0659C233.423 83.8003 233.536 83.4987 233.564 83.1611H235.025C234.997 83.6924 234.817 84.1877 234.485 84.647C234.159 85.1007 233.73 85.4688 233.199 85.751C232.667 86.0277 232.084 86.166 231.447 86.166C230.772 86.166 230.183 86.047 229.679 85.8091C229.181 85.5711 228.766 85.2446 228.434 84.8296C228.108 84.4146 227.861 83.9386 227.695 83.4019C227.535 82.8595 227.455 82.2868 227.455 81.6836V81.335C227.455 80.7318 227.535 80.1618 227.695 79.625C227.861 79.0827 228.108 78.604 228.434 78.189C228.766 77.7739 229.181 77.4474 229.679 77.2095C230.183 76.9715 230.772 76.8525 231.447 76.8525C232.15 76.8525 232.764 76.9964 233.29 77.2842C233.816 77.5664 234.228 77.9538 234.527 78.4463C234.831 78.9333 234.997 79.4867 235.025 80.1064H233.564C233.536 79.7357 233.431 79.4009 233.249 79.1021C233.071 78.8032 232.828 78.5653 232.518 78.3882C232.214 78.2056 231.857 78.1143 231.447 78.1143C230.977 78.1143 230.581 78.2083 230.26 78.3965C229.945 78.5791 229.693 78.8281 229.505 79.1436C229.322 79.4535 229.189 79.7993 229.106 80.1812C229.029 80.5575 228.99 80.9421 228.99 81.335V81.6836C228.99 82.0765 229.029 82.4639 229.106 82.8457C229.184 83.2275 229.314 83.5734 229.497 83.8833C229.685 84.1932 229.937 84.4422 230.252 84.6304C230.573 84.813 230.971 84.9043 231.447 84.9043ZM240.412 77.0186V86H238.868V77.0186H240.412ZM243.425 77.0186V78.2637H235.913V77.0186H243.425ZM246.198 80.1064H248.896C249.62 80.1064 250.232 80.2337 250.73 80.4883C251.228 80.7373 251.604 81.0832 251.859 81.5259C252.119 81.9631 252.249 82.4611 252.249 83.02C252.249 83.4351 252.177 83.8252 252.033 84.1904C251.889 84.5501 251.674 84.8656 251.386 85.1367C251.104 85.4079 250.752 85.6209 250.332 85.7759C249.917 85.9253 249.438 86 248.896 86H245.077V77.0186H246.613V84.7383H248.896C249.338 84.7383 249.692 84.658 249.958 84.4976C250.224 84.3371 250.415 84.1296 250.531 83.875C250.647 83.6204 250.705 83.3548 250.705 83.0781C250.705 82.807 250.647 82.5413 250.531 82.2812C250.415 82.0212 250.224 81.8053 249.958 81.6338C249.692 81.4567 249.338 81.3682 248.896 81.3682H246.198V80.1064Z" fill="white"/>
</svg>
