<svg width="343" height="56" viewBox="0 0 343 56" fill="none" xmlns="http://www.w3.org/2000/svg">
<rect width="343" height="56" rx="12" fill="white"/>
<path d="M18.8984 21.625V33H17.3906V21.625H18.8984ZM25.9062 21.625L20.9688 27.8828H18.2969L18.0625 26.6328H20.0703L24.0391 21.625H25.9062ZM24.3906 33L20.1172 27.6875L20.9609 26.3672L26.2344 33H24.3906ZM28.6406 26.1719V36.25H27.1875V24.5469H28.5156L28.6406 26.1719ZM34.3359 28.7031V28.8672C34.3359 29.4818 34.263 30.0521 34.1172 30.5781C33.9714 31.099 33.7578 31.5521 33.4766 31.9375C33.2005 32.3229 32.8594 32.6224 32.4531 32.8359C32.0469 33.0495 31.5807 33.1562 31.0547 33.1562C30.5182 33.1562 30.0443 33.0677 29.6328 32.8906C29.2214 32.7135 28.8724 32.4557 28.5859 32.1172C28.2995 31.7786 28.0703 31.3724 27.8984 30.8984C27.7318 30.4245 27.6172 29.8906 27.5547 29.2969V28.4219C27.6172 27.7969 27.7344 27.237 27.9062 26.7422C28.0781 26.2474 28.3047 25.8255 28.5859 25.4766C28.8724 25.1224 29.2188 24.8542 29.625 24.6719C30.0312 24.4844 30.5 24.3906 31.0312 24.3906C31.5625 24.3906 32.0339 24.4948 32.4453 24.7031C32.8568 24.9062 33.2031 25.1979 33.4844 25.5781C33.7656 25.9583 33.9766 26.4141 34.1172 26.9453C34.263 27.4714 34.3359 28.0573 34.3359 28.7031ZM32.8828 28.8672V28.7031C32.8828 28.2812 32.8385 27.8854 32.75 27.5156C32.6615 27.1406 32.5234 26.8125 32.3359 26.5312C32.1536 26.2448 31.9193 26.0208 31.6328 25.8594C31.3464 25.6927 31.0052 25.6094 30.6094 25.6094C30.2448 25.6094 29.9271 25.6719 29.6562 25.7969C29.3906 25.9219 29.1641 26.0911 28.9766 26.3047C28.7891 26.513 28.6354 26.7526 28.5156 27.0234C28.401 27.2891 28.3151 27.5651 28.2578 27.8516V29.875C28.362 30.2396 28.5078 30.5833 28.6953 30.9062C28.8828 31.224 29.1328 31.4818 29.4453 31.6797C29.7578 31.8724 30.151 31.9688 30.625 31.9688C31.0156 31.9688 31.3516 31.888 31.6328 31.7266C31.9193 31.5599 32.1536 31.3333 32.3359 31.0469C32.5234 30.7604 32.6615 30.4323 32.75 30.0625C32.8385 29.6875 32.8828 29.2891 32.8828 28.8672ZM39.6875 33.1562C39.099 33.1562 38.5651 33.0573 38.0859 32.8594C37.612 32.6562 37.2031 32.3724 36.8594 32.0078C36.5208 31.6432 36.2604 31.2109 36.0781 30.7109C35.8958 30.2109 35.8047 29.6641 35.8047 29.0703V28.7422C35.8047 28.0547 35.9062 27.4427 36.1094 26.9062C36.3125 26.3646 36.5885 25.9062 36.9375 25.5312C37.2865 25.1562 37.6823 24.8724 38.125 24.6797C38.5677 24.487 39.026 24.3906 39.5 24.3906C40.1042 24.3906 40.625 24.4948 41.0625 24.7031C41.5052 24.9115 41.8672 25.2031 42.1484 25.5781C42.4297 25.9479 42.638 26.3854 42.7734 26.8906C42.9089 27.3906 42.9766 27.9375 42.9766 28.5312V29.1797H36.6641V28H41.5312V27.8906C41.5104 27.5156 41.4323 27.151 41.2969 26.7969C41.1667 26.4427 40.9583 26.151 40.6719 25.9219C40.3854 25.6927 39.9948 25.5781 39.5 25.5781C39.1719 25.5781 38.8698 25.6484 38.5938 25.7891C38.3177 25.9245 38.0807 26.1276 37.8828 26.3984C37.6849 26.6693 37.5312 27 37.4219 27.3906C37.3125 27.7812 37.2578 28.2318 37.2578 28.7422V29.0703C37.2578 29.4714 37.3125 29.849 37.4219 30.2031C37.5365 30.5521 37.7005 30.8594 37.9141 31.125C38.1328 31.3906 38.3958 31.599 38.7031 31.75C39.0156 31.901 39.3698 31.9766 39.7656 31.9766C40.276 31.9766 40.7083 31.8724 41.0625 31.6641C41.4167 31.4557 41.7266 31.1771 41.9922 30.8281L42.8672 31.5234C42.6849 31.7995 42.4531 32.0625 42.1719 32.3125C41.8906 32.5625 41.5443 32.7656 41.1328 32.9219C40.7266 33.0781 40.2448 33.1562 39.6875 33.1562ZM46.1875 24.5469H47.6328L47.5078 27.7109C47.4766 28.513 47.3854 29.2057 47.2344 29.7891C47.0833 30.3724 46.8906 30.8698 46.6562 31.2812C46.4219 31.6875 46.1589 32.0286 45.8672 32.3047C45.5807 32.5807 45.2839 32.8125 44.9766 33H44.2578L44.2969 31.8203L44.5938 31.8125C44.7656 31.6094 44.9323 31.401 45.0938 31.1875C45.2552 30.9688 45.4036 30.7109 45.5391 30.4141C45.6745 30.112 45.7865 29.7448 45.875 29.3125C45.9688 28.875 46.0286 28.3411 46.0547 27.7109L46.1875 24.5469ZM46.5469 24.5469H51.6328V33H50.1875V25.8828H46.5469V24.5469ZM43.9297 31.8125H52.7188V35.4922H51.2734V33H45.375V35.4922H43.9219L43.9297 31.8125ZM55.8828 30.7109L59.7812 24.5469H61.2344V33H59.7812V26.8359L55.8828 33H54.4453V24.5469H55.8828V30.7109ZM67 24.5469V33H65.5469V24.5469H67ZM69.8359 24.5469V25.7188H62.7656V24.5469H69.8359ZM72.4453 27.4531H74.9844C75.6667 27.4531 76.2422 27.5729 76.7109 27.8125C77.1797 28.0469 77.5339 28.3724 77.7734 28.7891C78.0182 29.2005 78.1406 29.6693 78.1406 30.1953C78.1406 30.5859 78.0729 30.9531 77.9375 31.2969C77.8021 31.6354 77.599 31.9323 77.3281 32.1875C77.0625 32.4427 76.7318 32.6432 76.3359 32.7891C75.9453 32.9297 75.4948 33 74.9844 33H71.3906V24.5469H72.8359V31.8125H74.9844C75.401 31.8125 75.7344 31.737 75.9844 31.5859C76.2344 31.4349 76.4141 31.2396 76.5234 31C76.6328 30.7604 76.6875 30.5104 76.6875 30.25C76.6875 29.9948 76.6328 29.7448 76.5234 29.5C76.4141 29.2552 76.2344 29.0521 75.9844 28.8906C75.7344 28.724 75.401 28.6406 74.9844 28.6406H72.4453V27.4531ZM81.1484 24.5469V33H79.7031V24.5469H81.1484ZM89.2109 30.7109L93.1094 24.5469H94.5625V33H93.1094V26.8359L89.2109 33H87.7734V24.5469H89.2109V30.7109ZM104.008 28.9609H102.453V28.0703H103.891C104.292 28.0703 104.609 28.0208 104.844 27.9219C105.078 27.8177 105.245 27.6745 105.344 27.4922C105.443 27.3099 105.492 27.0964 105.492 26.8516C105.492 26.6328 105.435 26.4271 105.32 26.2344C105.211 26.0365 105.034 25.8776 104.789 25.7578C104.544 25.6328 104.216 25.5703 103.805 25.5703C103.471 25.5703 103.169 25.6302 102.898 25.75C102.628 25.8646 102.411 26.0234 102.25 26.2266C102.094 26.4245 102.016 26.6484 102.016 26.8984H100.57C100.57 26.3828 100.716 25.9401 101.008 25.5703C101.305 25.1953 101.698 24.9062 102.188 24.7031C102.682 24.5 103.221 24.3984 103.805 24.3984C104.294 24.3984 104.732 24.4531 105.117 24.5625C105.508 24.6667 105.839 24.8229 106.109 25.0312C106.38 25.2344 106.586 25.4896 106.727 25.7969C106.872 26.099 106.945 26.4505 106.945 26.8516C106.945 27.138 106.878 27.4089 106.742 27.6641C106.607 27.9193 106.411 28.1458 106.156 28.3438C105.901 28.5365 105.591 28.6875 105.227 28.7969C104.867 28.9062 104.461 28.9609 104.008 28.9609ZM102.453 28.4141H104.008C104.513 28.4141 104.958 28.4635 105.344 28.5625C105.729 28.6562 106.052 28.7969 106.312 28.9844C106.573 29.1719 106.768 29.4036 106.898 29.6797C107.034 29.9505 107.102 30.263 107.102 30.6172C107.102 31.013 107.021 31.3698 106.859 31.6875C106.703 32 106.479 32.2656 106.188 32.4844C105.896 32.7031 105.547 32.8698 105.141 32.9844C104.74 33.099 104.294 33.1562 103.805 33.1562C103.258 33.1562 102.727 33.0625 102.211 32.875C101.695 32.6875 101.271 32.3984 100.938 32.0078C100.604 31.612 100.438 31.1094 100.438 30.5H101.883C101.883 30.7552 101.964 30.9974 102.125 31.2266C102.286 31.4557 102.51 31.6406 102.797 31.7812C103.089 31.9219 103.424 31.9922 103.805 31.9922C104.211 31.9922 104.549 31.9297 104.82 31.8047C105.091 31.6797 105.294 31.513 105.43 31.3047C105.57 31.0964 105.641 30.8698 105.641 30.625C105.641 30.3073 105.578 30.0521 105.453 29.8594C105.328 29.6667 105.135 29.526 104.875 29.4375C104.62 29.3438 104.292 29.2969 103.891 29.2969H102.453V28.4141ZM113.961 31.5547V27.2031C113.961 26.8698 113.893 26.5807 113.758 26.3359C113.628 26.0859 113.43 25.8932 113.164 25.7578C112.898 25.6224 112.57 25.5547 112.18 25.5547C111.815 25.5547 111.495 25.6172 111.219 25.7422C110.948 25.8672 110.734 26.0312 110.578 26.2344C110.427 26.4375 110.352 26.6562 110.352 26.8906H108.906C108.906 26.5885 108.984 26.2891 109.141 25.9922C109.297 25.6953 109.521 25.4271 109.812 25.1875C110.109 24.9427 110.464 24.75 110.875 24.6094C111.292 24.4635 111.755 24.3906 112.266 24.3906C112.88 24.3906 113.422 24.4948 113.891 24.7031C114.365 24.9115 114.734 25.2266 115 25.6484C115.271 26.0651 115.406 26.5885 115.406 27.2188V31.1562C115.406 31.4375 115.43 31.737 115.477 32.0547C115.529 32.3724 115.604 32.6458 115.703 32.875V33H114.195C114.122 32.8333 114.065 32.612 114.023 32.3359C113.982 32.0547 113.961 31.7943 113.961 31.5547ZM114.211 27.875L114.227 28.8906H112.766C112.354 28.8906 111.987 28.9245 111.664 28.9922C111.341 29.0547 111.07 29.151 110.852 29.2812C110.633 29.4115 110.466 29.5755 110.352 29.7734C110.237 29.9661 110.18 30.1927 110.18 30.4531C110.18 30.7188 110.24 30.9609 110.359 31.1797C110.479 31.3984 110.659 31.5729 110.898 31.7031C111.143 31.8281 111.443 31.8906 111.797 31.8906C112.24 31.8906 112.63 31.7969 112.969 31.6094C113.307 31.4219 113.576 31.1927 113.773 30.9219C113.977 30.651 114.086 30.388 114.102 30.1328L114.719 30.8281C114.682 31.0469 114.583 31.2891 114.422 31.5547C114.26 31.8203 114.044 32.0755 113.773 32.3203C113.508 32.5599 113.19 32.7604 112.82 32.9219C112.456 33.0781 112.044 33.1562 111.586 33.1562C111.013 33.1562 110.51 33.0443 110.078 32.8203C109.651 32.5964 109.318 32.2969 109.078 31.9219C108.844 31.5417 108.727 31.1172 108.727 30.6484C108.727 30.1953 108.815 29.7969 108.992 29.4531C109.169 29.1042 109.424 28.8151 109.758 28.5859C110.091 28.3516 110.492 28.1745 110.961 28.0547C111.43 27.9349 111.953 27.875 112.531 27.875H114.211ZM119.242 30.7109L123.141 24.5469H124.594V33H123.141V26.8359L119.242 33H117.805V24.5469H119.242V30.7109ZM122.352 21.4844H123.523C123.523 21.8906 123.43 22.2526 123.242 22.5703C123.055 22.8828 122.786 23.1276 122.438 23.3047C122.089 23.4818 121.674 23.5703 121.195 23.5703C120.471 23.5703 119.898 23.3776 119.477 22.9922C119.06 22.6016 118.852 22.099 118.852 21.4844H120.023C120.023 21.7917 120.112 22.0625 120.289 22.2969C120.466 22.5312 120.768 22.6484 121.195 22.6484C121.612 22.6484 121.909 22.5312 122.086 22.2969C122.263 22.0625 122.352 21.7917 122.352 21.4844ZM131.773 31.0781L134.648 24.5469H136.039L132.273 33H131.273L127.523 24.5469H128.914L131.773 31.0781ZM128.492 24.5469V33H127.047V24.5469H128.492ZM135.008 33V24.5469H136.461V33H135.008ZM139.977 27.4531H142.516C143.198 27.4531 143.773 27.5729 144.242 27.8125C144.711 28.0469 145.065 28.3724 145.305 28.7891C145.549 29.2005 145.672 29.6693 145.672 30.1953C145.672 30.5859 145.604 30.9531 145.469 31.2969C145.333 31.6354 145.13 31.9323 144.859 32.1875C144.594 32.4427 144.263 32.6432 143.867 32.7891C143.477 32.9297 143.026 33 142.516 33H138.922V24.5469H140.367V31.8125H142.516C142.932 31.8125 143.266 31.737 143.516 31.5859C143.766 31.4349 143.945 31.2396 144.055 31C144.164 30.7604 144.219 30.5104 144.219 30.25C144.219 29.9948 144.164 29.7448 144.055 29.5C143.945 29.2552 143.766 29.0521 143.516 28.8906C143.266 28.724 142.932 28.6406 142.516 28.6406H139.977V27.4531ZM148.68 24.5469V33H147.234V24.5469H148.68Z" fill="#030303"/>
<path fill-rule="evenodd" clip-rule="evenodd" d="M311.512 20.4306C311.826 20.161 312.3 20.1974 312.569 20.5119L318.569 27.5119C318.81 27.7928 318.81 28.2072 318.569 28.4881L312.569 35.4881C312.3 35.8026 311.826 35.839 311.512 35.5695C311.197 35.2999 311.161 34.8264 311.431 34.5119L317.012 28L311.431 21.4881C311.161 21.1736 311.197 20.7001 311.512 20.4306Z" fill="#FF7035"/>
</svg>
