<svg width="375" height="812" viewBox="0 0 375 812" fill="none" xmlns="http://www.w3.org/2000/svg">
<rect width="375" height="812" fill="#102466"/>
<path opacity="0.81" d="M187.5 465.751C244.109 465.751 290 419.916 290 363.376C290 306.835 244.109 261 187.5 261C130.891 261 85 306.835 85 363.376C85 419.916 130.891 465.751 187.5 465.751Z" fill="#FF7035"/>
<path d="M154.692 322.401C154.692 314.506 148.284 308.105 140.379 308.105C132.473 308.105 126.065 314.506 126.065 322.401V364.115L113.869 378.391L154.346 378.266L154.692 364.115V322.401Z" fill="#102466"/>
<path d="M218.601 308.105V285.276C218.601 284.409 217.898 283.707 217.03 283.707H103.695C102.831 283.707 102.129 284.403 102.125 285.266C102.075 294.626 101.806 343.129 102.014 366.16C102.022 367.064 102.129 367.968 102.334 368.849C102.533 369.707 102.826 370.543 103.205 371.338C103.577 372.121 104.033 372.863 104.561 373.551C105.087 374.234 105.684 374.862 106.34 375.422C106.998 375.984 107.715 376.478 108.475 376.89C109.245 377.309 110.061 377.645 110.902 377.891C111.898 378.182 112.933 378.357 113.969 378.395C114.934 378.431 115.903 378.351 116.849 378.159C117.701 377.988 118.534 377.725 119.331 377.378C120.113 377.037 120.861 376.615 121.556 376.12C122.247 375.628 122.887 375.066 123.464 374.445C124.042 373.822 124.555 373.141 124.993 372.414C125.436 371.68 125.802 370.9 126.083 370.089C126.37 369.26 126.568 368.401 126.672 367.531C126.731 367.038 126.761 366.542 126.761 366.046V364.115V322.744C126.761 314.992 132.796 308.39 140.553 308.114C148.695 307.825 155.388 314.332 155.388 322.401" fill="url(#paint0_linear_54_333)"/>
<path opacity="0.12" d="M147.604 364.115L147.95 322.401C147.95 314.506 149.447 308.105 141.542 308.105H236.099C246.896 308.105 255.648 316.847 255.648 327.631V387.336C255.648 416.281 250.293 443.144 275.557 471H274.553H166.009C147.383 456.766 147.604 434.679 147.604 411.254V364.115Z" fill="#102466"/>
<path d="M262.389 387.336V327.631C262.389 316.847 253.637 308.105 242.84 308.105H140.378C148.284 308.105 154.692 314.506 154.692 322.401L154.346 364.115V411.254C154.346 434.678 154.125 456.766 172.751 471H281.294H282.298C257.034 443.144 262.389 416.281 262.389 387.336Z" fill="url(#paint1_linear_54_333)"/>
<path d="M169.984 358.553V344.623H172.938V358.553H169.984ZM182.266 347.7C183.403 347.7 184.318 348.011 185.01 348.634C185.702 349.25 186.048 350.241 186.048 351.607V358.553H183.142V352.331C183.142 351.569 183.003 350.994 182.723 350.606C182.45 350.219 182.018 350.025 181.427 350.025C180.538 350.025 179.931 350.327 179.607 350.93C179.284 351.534 179.122 352.404 179.122 353.541V358.553H176.215V347.9H178.436L178.826 349.263H178.988C179.217 348.894 179.499 348.596 179.836 348.367C180.179 348.138 180.557 347.97 180.97 347.862C181.389 347.754 181.821 347.7 182.266 347.7ZM191.575 358.553L187.516 347.9H190.555L192.613 353.97C192.728 354.325 192.817 354.7 192.88 355.094C192.95 355.488 192.998 355.84 193.023 356.152H193.099C193.118 355.815 193.163 355.456 193.233 355.075C193.309 354.694 193.407 354.325 193.528 353.97L195.577 347.9H198.616L194.557 358.553H191.575ZM209.831 353.207C209.831 354.097 209.71 354.884 209.468 355.57C209.233 356.256 208.887 356.838 208.43 357.314C207.979 357.784 207.433 358.14 206.791 358.381C206.156 358.623 205.438 358.743 204.638 358.743C203.888 358.743 203.199 358.623 202.57 358.381C201.948 358.14 201.405 357.784 200.941 357.314C200.483 356.838 200.128 356.256 199.874 355.57C199.626 354.884 199.502 354.097 199.502 353.207C199.502 352.026 199.712 351.025 200.131 350.206C200.55 349.387 201.147 348.764 201.922 348.339C202.697 347.913 203.621 347.7 204.695 347.7C205.692 347.7 206.575 347.913 207.344 348.339C208.119 348.764 208.725 349.387 209.164 350.206C209.608 351.025 209.831 352.026 209.831 353.207ZM202.465 353.207C202.465 353.906 202.542 354.494 202.694 354.97C202.846 355.447 203.085 355.805 203.409 356.047C203.733 356.288 204.155 356.409 204.676 356.409C205.19 356.409 205.606 356.288 205.924 356.047C206.248 355.805 206.483 355.447 206.629 354.97C206.782 354.494 206.858 353.906 206.858 353.207C206.858 352.502 206.782 351.918 206.629 351.454C206.483 350.984 206.248 350.632 205.924 350.397C205.6 350.162 205.178 350.044 204.657 350.044C203.888 350.044 203.329 350.308 202.98 350.835C202.637 351.362 202.465 352.153 202.465 353.207ZM178.207 381.684C178.207 382.51 178.007 383.228 177.607 383.838C177.206 384.447 176.622 384.917 175.853 385.248C175.091 385.578 174.164 385.743 173.071 385.743C172.588 385.743 172.115 385.711 171.652 385.648C171.194 385.584 170.753 385.492 170.327 385.372C169.908 385.245 169.508 385.089 169.127 384.905V382.161C169.787 382.453 170.473 382.716 171.185 382.952C171.896 383.187 172.601 383.304 173.3 383.304C173.783 383.304 174.17 383.241 174.462 383.113C174.761 382.986 174.977 382.812 175.11 382.589C175.244 382.367 175.31 382.113 175.31 381.827C175.31 381.478 175.193 381.179 174.958 380.932C174.723 380.684 174.399 380.452 173.986 380.236C173.579 380.02 173.119 379.788 172.604 379.54C172.28 379.388 171.928 379.204 171.547 378.988C171.166 378.766 170.804 378.496 170.461 378.178C170.118 377.86 169.835 377.476 169.613 377.025C169.397 376.568 169.289 376.021 169.289 375.386C169.289 374.554 169.479 373.843 169.86 373.252C170.241 372.661 170.784 372.21 171.49 371.899C172.201 371.581 173.039 371.423 174.005 371.423C174.729 371.423 175.418 371.508 176.073 371.68C176.733 371.845 177.422 372.086 178.14 372.404L177.187 374.7C176.546 374.44 175.971 374.24 175.463 374.1C174.955 373.954 174.437 373.881 173.91 373.881C173.541 373.881 173.227 373.941 172.966 374.062C172.706 374.176 172.509 374.341 172.376 374.557C172.242 374.767 172.176 375.011 172.176 375.291C172.176 375.621 172.271 375.901 172.461 376.129C172.658 376.352 172.951 376.568 173.338 376.777C173.732 376.987 174.221 377.231 174.805 377.511C175.517 377.848 176.123 378.2 176.625 378.569C177.133 378.931 177.524 379.359 177.797 379.855C178.07 380.344 178.207 380.954 178.207 381.684ZM186.553 374.7C187.69 374.7 188.605 375.011 189.298 375.634C189.99 376.25 190.336 377.241 190.336 378.607V385.553H187.43V379.331C187.43 378.569 187.29 377.994 187.011 377.606C186.738 377.219 186.306 377.025 185.715 377.025C184.826 377.025 184.219 377.327 183.895 377.93C183.571 378.534 183.409 379.404 183.409 380.541V385.553H180.503V374.9H182.723L183.114 376.263H183.276C183.504 375.894 183.787 375.596 184.124 375.367C184.467 375.138 184.845 374.97 185.258 374.862C185.677 374.754 186.109 374.7 186.553 374.7ZM197.692 374.681C199.121 374.681 200.217 374.992 200.979 375.615C201.741 376.237 202.122 377.184 202.122 378.454V385.553H200.093L199.531 384.104H199.454C199.15 384.486 198.838 384.797 198.521 385.038C198.203 385.28 197.838 385.457 197.425 385.572C197.012 385.686 196.51 385.743 195.92 385.743C195.291 385.743 194.725 385.623 194.224 385.381C193.728 385.14 193.337 384.771 193.052 384.276C192.766 383.774 192.623 383.139 192.623 382.37C192.623 381.24 193.02 380.408 193.814 379.874C194.608 379.334 195.799 379.035 197.387 378.978L199.235 378.921V378.454C199.235 377.895 199.089 377.486 198.797 377.225C198.505 376.965 198.098 376.834 197.577 376.834C197.063 376.834 196.558 376.908 196.062 377.054C195.567 377.2 195.072 377.384 194.576 377.606L193.614 375.643C194.179 375.345 194.811 375.11 195.51 374.938C196.215 374.767 196.942 374.681 197.692 374.681ZM199.235 380.617L198.111 380.655C197.171 380.681 196.517 380.849 196.148 381.16C195.786 381.471 195.605 381.881 195.605 382.389C195.605 382.834 195.735 383.152 195.996 383.342C196.256 383.526 196.596 383.618 197.015 383.618C197.638 383.618 198.162 383.434 198.587 383.066C199.019 382.697 199.235 382.173 199.235 381.494V380.617ZM211.05 374.7C212.251 374.7 213.219 375.167 213.956 376.101C214.699 377.035 215.071 378.403 215.071 380.207C215.071 381.414 214.896 382.431 214.547 383.256C214.198 384.076 213.715 384.695 213.099 385.114C212.483 385.534 211.774 385.743 210.974 385.743C210.459 385.743 210.018 385.68 209.65 385.553C209.281 385.419 208.967 385.251 208.706 385.048C208.446 384.838 208.22 384.616 208.03 384.381H207.877C207.928 384.635 207.966 384.895 207.992 385.162C208.017 385.429 208.03 385.689 208.03 385.943V390.24H205.124V374.9H207.487L207.896 376.282H208.03C208.22 375.996 208.452 375.732 208.725 375.491C208.998 375.25 209.326 375.059 209.707 374.919C210.094 374.773 210.542 374.7 211.05 374.7ZM210.116 377.025C209.608 377.025 209.205 377.13 208.906 377.339C208.608 377.549 208.389 377.864 208.249 378.283C208.115 378.702 208.042 379.232 208.03 379.874V380.188C208.03 380.874 208.093 381.456 208.22 381.932C208.354 382.408 208.573 382.77 208.878 383.018C209.189 383.266 209.615 383.39 210.154 383.39C210.599 383.39 210.964 383.266 211.25 383.018C211.536 382.77 211.749 382.408 211.889 381.932C212.035 381.449 212.108 380.862 212.108 380.169C212.108 379.128 211.946 378.343 211.622 377.816C211.298 377.289 210.796 377.025 210.116 377.025Z" fill="#284194"/>
<path d="M172.724 427.973H176.418" stroke="#284194" stroke-width="2" stroke-miterlimit="10"/>
<path d="M183.211 427.973H247.749" stroke="#284194" stroke-width="2" stroke-miterlimit="10" stroke-dasharray="11.03 11.03"/>
<path d="M251.145 427.973H254.839" stroke="#284194" stroke-width="2" stroke-miterlimit="10"/>
<path d="M183.383 457.777H181.566V450.722H179.24V449.21H185.709V450.722H183.383V457.777ZM194.803 453.482C194.803 454.142 194.721 454.743 194.557 455.286C194.393 455.825 194.143 456.29 193.807 456.681C193.475 457.071 193.053 457.372 192.541 457.583C192.029 457.79 191.424 457.894 190.725 457.894C190.025 457.894 189.42 457.79 188.908 457.583C188.396 457.372 187.973 457.071 187.637 456.681C187.305 456.29 187.057 455.823 186.893 455.28C186.729 454.737 186.646 454.134 186.646 453.47C186.646 452.583 186.791 451.812 187.08 451.155C187.373 450.495 187.822 449.984 188.428 449.62C189.033 449.257 189.803 449.075 190.736 449.075C191.666 449.075 192.43 449.257 193.027 449.62C193.629 449.984 194.074 450.495 194.363 451.155C194.656 451.816 194.803 452.591 194.803 453.482ZM188.551 453.482C188.551 454.079 188.625 454.595 188.773 455.028C188.926 455.458 189.162 455.79 189.482 456.025C189.803 456.255 190.217 456.37 190.725 456.37C191.24 456.37 191.658 456.255 191.979 456.025C192.299 455.79 192.531 455.458 192.676 455.028C192.824 454.595 192.898 454.079 192.898 453.482C192.898 452.583 192.73 451.876 192.395 451.361C192.059 450.845 191.506 450.587 190.736 450.587C190.225 450.587 189.807 450.704 189.482 450.939C189.162 451.169 188.926 451.501 188.773 451.935C188.625 452.364 188.551 452.88 188.551 453.482ZM199.883 457.777H198.066V450.722H195.74V449.21H202.209V450.722H199.883V457.777ZM208.771 457.777L208.15 455.737H205.027L204.406 457.777H202.449L205.473 449.175H207.693L210.729 457.777H208.771ZM207.717 454.214L207.096 452.222C207.057 452.089 207.004 451.919 206.938 451.712C206.875 451.501 206.811 451.288 206.744 451.073C206.682 450.855 206.631 450.665 206.592 450.505C206.553 450.665 206.498 450.864 206.428 451.103C206.361 451.337 206.297 451.56 206.234 451.771C206.172 451.982 206.127 452.132 206.1 452.222L205.484 454.214H207.717ZM211.812 457.777V449.21H213.629V456.277H217.104V457.777H211.812ZM218.205 456.939C218.205 456.571 218.305 456.314 218.504 456.165C218.707 456.017 218.951 455.943 219.236 455.943C219.514 455.943 219.752 456.017 219.951 456.165C220.154 456.314 220.256 456.571 220.256 456.939C220.256 457.29 220.154 457.544 219.951 457.7C219.752 457.857 219.514 457.935 219.236 457.935C218.951 457.935 218.707 457.857 218.504 457.7C218.305 457.544 218.205 457.29 218.205 456.939ZM218.205 452.099C218.205 451.732 218.305 451.474 218.504 451.325C218.707 451.177 218.951 451.103 219.236 451.103C219.514 451.103 219.752 451.177 219.951 451.325C220.154 451.474 220.256 451.732 220.256 452.099C220.256 452.454 220.154 452.71 219.951 452.866C219.752 453.019 219.514 453.095 219.236 453.095C218.951 453.095 218.707 453.019 218.504 452.866C218.305 452.71 218.205 452.454 218.205 452.099ZM230.48 453.493C230.48 454.185 230.426 454.802 230.316 455.345C230.211 455.888 230.039 456.349 229.801 456.728C229.566 457.107 229.258 457.396 228.875 457.595C228.492 457.794 228.027 457.894 227.48 457.894C226.793 457.894 226.229 457.72 225.787 457.372C225.346 457.021 225.02 456.517 224.809 455.861C224.598 455.2 224.492 454.411 224.492 453.493C224.492 452.568 224.588 451.777 224.779 451.12C224.975 450.46 225.291 449.954 225.729 449.603C226.166 449.251 226.75 449.075 227.48 449.075C228.164 449.075 228.727 449.251 229.168 449.603C229.613 449.95 229.943 450.454 230.158 451.114C230.373 451.771 230.48 452.564 230.48 453.493ZM226.291 453.493C226.291 454.146 226.326 454.691 226.396 455.128C226.471 455.562 226.594 455.888 226.766 456.107C226.938 456.325 227.176 456.435 227.48 456.435C227.781 456.435 228.018 456.327 228.189 456.112C228.365 455.894 228.49 455.568 228.564 455.134C228.639 454.696 228.676 454.15 228.676 453.493C228.676 452.841 228.639 452.296 228.564 451.859C228.49 451.421 228.365 451.093 228.189 450.874C228.018 450.652 227.781 450.54 227.48 450.54C227.176 450.54 226.938 450.652 226.766 450.874C226.594 451.093 226.471 451.421 226.396 451.859C226.326 452.296 226.291 452.841 226.291 453.493ZM237.348 453.493C237.348 454.185 237.293 454.802 237.184 455.345C237.078 455.888 236.906 456.349 236.668 456.728C236.434 457.107 236.125 457.396 235.742 457.595C235.359 457.794 234.895 457.894 234.348 457.894C233.66 457.894 233.096 457.72 232.654 457.372C232.213 457.021 231.887 456.517 231.676 455.861C231.465 455.2 231.359 454.411 231.359 453.493C231.359 452.568 231.455 451.777 231.646 451.12C231.842 450.46 232.158 449.954 232.596 449.603C233.033 449.251 233.617 449.075 234.348 449.075C235.031 449.075 235.594 449.251 236.035 449.603C236.48 449.95 236.811 450.454 237.025 451.114C237.24 451.771 237.348 452.564 237.348 453.493ZM233.158 453.493C233.158 454.146 233.193 454.691 233.264 455.128C233.338 455.562 233.461 455.888 233.633 456.107C233.805 456.325 234.043 456.435 234.348 456.435C234.648 456.435 234.885 456.327 235.057 456.112C235.232 455.894 235.357 455.568 235.432 455.134C235.506 454.696 235.543 454.15 235.543 453.493C235.543 452.841 235.506 452.296 235.432 451.859C235.357 451.421 235.232 451.093 235.057 450.874C234.885 450.652 234.648 450.54 234.348 450.54C234.043 450.54 233.805 450.652 233.633 450.874C233.461 451.093 233.338 451.421 233.264 451.859C233.193 452.296 233.158 452.841 233.158 453.493ZM238.479 456.939C238.479 456.571 238.578 456.314 238.777 456.165C238.98 456.017 239.225 455.943 239.51 455.943C239.787 455.943 240.025 456.017 240.225 456.165C240.428 456.314 240.529 456.571 240.529 456.939C240.529 457.29 240.428 457.544 240.225 457.7C240.025 457.857 239.787 457.935 239.51 457.935C239.225 457.935 238.98 457.857 238.777 457.7C238.578 457.544 238.479 457.29 238.479 456.939ZM247.637 453.493C247.637 454.185 247.582 454.802 247.473 455.345C247.367 455.888 247.195 456.349 246.957 456.728C246.723 457.107 246.414 457.396 246.031 457.595C245.648 457.794 245.184 457.894 244.637 457.894C243.949 457.894 243.385 457.72 242.943 457.372C242.502 457.021 242.176 456.517 241.965 455.861C241.754 455.2 241.648 454.411 241.648 453.493C241.648 452.568 241.744 451.777 241.936 451.12C242.131 450.46 242.447 449.954 242.885 449.603C243.322 449.251 243.906 449.075 244.637 449.075C245.32 449.075 245.883 449.251 246.324 449.603C246.77 449.95 247.1 450.454 247.314 451.114C247.529 451.771 247.637 452.564 247.637 453.493ZM243.447 453.493C243.447 454.146 243.482 454.691 243.553 455.128C243.627 455.562 243.75 455.888 243.922 456.107C244.094 456.325 244.332 456.435 244.637 456.435C244.938 456.435 245.174 456.327 245.346 456.112C245.521 455.894 245.646 455.568 245.721 455.134C245.795 454.696 245.832 454.15 245.832 453.493C245.832 452.841 245.795 452.296 245.721 451.859C245.646 451.421 245.521 451.093 245.346 450.874C245.174 450.652 244.938 450.54 244.637 450.54C244.332 450.54 244.094 450.652 243.922 450.874C243.75 451.093 243.627 451.421 243.553 451.859C243.482 452.296 243.447 452.841 243.447 453.493ZM254.504 453.493C254.504 454.185 254.449 454.802 254.34 455.345C254.234 455.888 254.062 456.349 253.824 456.728C253.59 457.107 253.281 457.396 252.898 457.595C252.516 457.794 252.051 457.894 251.504 457.894C250.816 457.894 250.252 457.72 249.811 457.372C249.369 457.021 249.043 456.517 248.832 455.861C248.621 455.2 248.516 454.411 248.516 453.493C248.516 452.568 248.611 451.777 248.803 451.12C248.998 450.46 249.314 449.954 249.752 449.603C250.189 449.251 250.773 449.075 251.504 449.075C252.188 449.075 252.75 449.251 253.191 449.603C253.637 449.95 253.967 450.454 254.182 451.114C254.396 451.771 254.504 452.564 254.504 453.493ZM250.314 453.493C250.314 454.146 250.35 454.691 250.42 455.128C250.494 455.562 250.617 455.888 250.789 456.107C250.961 456.325 251.199 456.435 251.504 456.435C251.805 456.435 252.041 456.327 252.213 456.112C252.389 455.894 252.514 455.568 252.588 455.134C252.662 454.696 252.699 454.15 252.699 453.493C252.699 452.841 252.662 452.296 252.588 451.859C252.514 451.421 252.389 451.093 252.213 450.874C252.041 450.652 251.805 450.54 251.504 450.54C251.199 450.54 250.961 450.652 250.789 450.874C250.617 451.093 250.494 451.421 250.42 451.859C250.35 452.296 250.314 452.841 250.314 453.493Z" fill="#5852A0"/>
<path d="M167.202 409.334H255.858" stroke="#284194" stroke-width="6" stroke-miterlimit="10"/>
<path d="M167.202 419.778H255.858" stroke="#284194" stroke-width="6" stroke-miterlimit="10"/>
<path d="M97.3359 504.875V539H92.8125V504.875H97.3359ZM109.242 519.055V539H104.906V513.641H109.008L109.242 519.055ZM108.211 525.359L106.406 525.289C106.422 523.555 106.68 521.953 107.18 520.484C107.68 519 108.383 517.711 109.289 516.617C110.195 515.523 111.273 514.68 112.523 514.086C113.789 513.477 115.188 513.172 116.719 513.172C117.969 513.172 119.094 513.344 120.094 513.688C121.094 514.016 121.945 514.547 122.648 515.281C123.367 516.016 123.914 516.969 124.289 518.141C124.664 519.297 124.852 520.711 124.852 522.383V539H120.492V522.336C120.492 521.008 120.297 519.945 119.906 519.148C119.516 518.336 118.945 517.75 118.195 517.391C117.445 517.016 116.523 516.828 115.43 516.828C114.352 516.828 113.367 517.055 112.477 517.508C111.602 517.961 110.844 518.586 110.203 519.383C109.578 520.18 109.086 521.094 108.727 522.125C108.383 523.141 108.211 524.219 108.211 525.359ZM139.148 535.086L146.086 513.641H150.516L141.398 539H138.492L139.148 535.086ZM133.359 513.641L140.508 535.203L141 539H138.094L128.906 513.641H133.359ZM153.164 526.602V526.062C153.164 524.234 153.43 522.539 153.961 520.977C154.492 519.398 155.258 518.031 156.258 516.875C157.258 515.703 158.469 514.797 159.891 514.156C161.312 513.5 162.906 513.172 164.672 513.172C166.453 513.172 168.055 513.5 169.477 514.156C170.914 514.797 172.133 515.703 173.133 516.875C174.148 518.031 174.922 519.398 175.453 520.977C175.984 522.539 176.25 524.234 176.25 526.062V526.602C176.25 528.43 175.984 530.125 175.453 531.688C174.922 533.25 174.148 534.617 173.133 535.789C172.133 536.945 170.922 537.852 169.5 538.508C168.094 539.148 166.5 539.469 164.719 539.469C162.938 539.469 161.336 539.148 159.914 538.508C158.492 537.852 157.273 536.945 156.258 535.789C155.258 534.617 154.492 533.25 153.961 531.688C153.43 530.125 153.164 528.43 153.164 526.602ZM157.5 526.062V526.602C157.5 527.867 157.648 529.062 157.945 530.188C158.242 531.297 158.688 532.281 159.281 533.141C159.891 534 160.648 534.68 161.555 535.18C162.461 535.664 163.516 535.906 164.719 535.906C165.906 535.906 166.945 535.664 167.836 535.18C168.742 534.68 169.492 534 170.086 533.141C170.68 532.281 171.125 531.297 171.422 530.188C171.734 529.062 171.891 527.867 171.891 526.602V526.062C171.891 524.812 171.734 523.633 171.422 522.523C171.125 521.398 170.672 520.406 170.062 519.547C169.469 518.672 168.719 517.984 167.812 517.484C166.922 516.984 165.875 516.734 164.672 516.734C163.484 516.734 162.438 516.984 161.531 517.484C160.641 517.984 159.891 518.672 159.281 519.547C158.688 520.406 158.242 521.398 157.945 522.523C157.648 523.633 157.5 524.812 157.5 526.062ZM200.531 530.375C200.531 529.578 200.406 528.875 200.156 528.266C199.922 527.641 199.5 527.078 198.891 526.578C198.297 526.078 197.469 525.602 196.406 525.148C195.359 524.695 194.031 524.234 192.422 523.766C190.734 523.266 189.211 522.711 187.852 522.102C186.492 521.477 185.328 520.766 184.359 519.969C183.391 519.172 182.648 518.258 182.133 517.227C181.617 516.195 181.359 515.016 181.359 513.688C181.359 512.359 181.633 511.133 182.18 510.008C182.727 508.883 183.508 507.906 184.523 507.078C185.555 506.234 186.781 505.578 188.203 505.109C189.625 504.641 191.211 504.406 192.961 504.406C195.523 504.406 197.695 504.898 199.477 505.883C201.273 506.852 202.641 508.125 203.578 509.703C204.516 511.266 204.984 512.938 204.984 514.719H200.484C200.484 513.438 200.211 512.305 199.664 511.32C199.117 510.32 198.289 509.539 197.18 508.977C196.07 508.398 194.664 508.109 192.961 508.109C191.352 508.109 190.023 508.352 188.977 508.836C187.93 509.32 187.148 509.977 186.633 510.805C186.133 511.633 185.883 512.578 185.883 513.641C185.883 514.359 186.031 515.016 186.328 515.609C186.641 516.188 187.117 516.727 187.758 517.227C188.414 517.727 189.242 518.188 190.242 518.609C191.258 519.031 192.469 519.438 193.875 519.828C195.812 520.375 197.484 520.984 198.891 521.656C200.297 522.328 201.453 523.086 202.359 523.93C203.281 524.758 203.961 525.703 204.398 526.766C204.852 527.812 205.078 529 205.078 530.328C205.078 531.719 204.797 532.977 204.234 534.102C203.672 535.227 202.867 536.188 201.82 536.984C200.773 537.781 199.516 538.398 198.047 538.836C196.594 539.258 194.969 539.469 193.172 539.469C191.594 539.469 190.039 539.25 188.508 538.812C186.992 538.375 185.609 537.719 184.359 536.844C183.125 535.969 182.133 534.891 181.383 533.609C180.648 532.312 180.281 530.812 180.281 529.109H184.781C184.781 530.281 185.008 531.289 185.461 532.133C185.914 532.961 186.531 533.648 187.312 534.195C188.109 534.742 189.008 535.148 190.008 535.414C191.023 535.664 192.078 535.789 193.172 535.789C194.75 535.789 196.086 535.57 197.18 535.133C198.273 534.695 199.102 534.07 199.664 533.258C200.242 532.445 200.531 531.484 200.531 530.375ZM214.523 519.055V539H210.188V513.641H214.289L214.523 519.055ZM213.492 525.359L211.688 525.289C211.703 523.555 211.961 521.953 212.461 520.484C212.961 519 213.664 517.711 214.57 516.617C215.477 515.523 216.555 514.68 217.805 514.086C219.07 513.477 220.469 513.172 222 513.172C223.25 513.172 224.375 513.344 225.375 513.688C226.375 514.016 227.227 514.547 227.93 515.281C228.648 516.016 229.195 516.969 229.57 518.141C229.945 519.297 230.133 520.711 230.133 522.383V539H225.773V522.336C225.773 521.008 225.578 519.945 225.188 519.148C224.797 518.336 224.227 517.75 223.477 517.391C222.727 517.016 221.805 516.828 220.711 516.828C219.633 516.828 218.648 517.055 217.758 517.508C216.883 517.961 216.125 518.586 215.484 519.383C214.859 520.18 214.367 521.094 214.008 522.125C213.664 523.141 213.492 524.219 213.492 525.359ZM251.672 534.664V521.609C251.672 520.609 251.469 519.742 251.062 519.008C250.672 518.258 250.078 517.68 249.281 517.273C248.484 516.867 247.5 516.664 246.328 516.664C245.234 516.664 244.273 516.852 243.445 517.227C242.633 517.602 241.992 518.094 241.523 518.703C241.07 519.312 240.844 519.969 240.844 520.672H236.508C236.508 519.766 236.742 518.867 237.211 517.977C237.68 517.086 238.352 516.281 239.227 515.562C240.117 514.828 241.18 514.25 242.414 513.828C243.664 513.391 245.055 513.172 246.586 513.172C248.43 513.172 250.055 513.484 251.461 514.109C252.883 514.734 253.992 515.68 254.789 516.945C255.602 518.195 256.008 519.766 256.008 521.656V533.469C256.008 534.312 256.078 535.211 256.219 536.164C256.375 537.117 256.602 537.938 256.898 538.625V539H252.375C252.156 538.5 251.984 537.836 251.859 537.008C251.734 536.164 251.672 535.383 251.672 534.664ZM252.422 523.625L252.469 526.672H248.086C246.852 526.672 245.75 526.773 244.781 526.977C243.812 527.164 243 527.453 242.344 527.844C241.688 528.234 241.188 528.727 240.844 529.32C240.5 529.898 240.328 530.578 240.328 531.359C240.328 532.156 240.508 532.883 240.867 533.539C241.227 534.195 241.766 534.719 242.484 535.109C243.219 535.484 244.117 535.672 245.18 535.672C246.508 535.672 247.68 535.391 248.695 534.828C249.711 534.266 250.516 533.578 251.109 532.766C251.719 531.953 252.047 531.164 252.094 530.398L253.945 532.484C253.836 533.141 253.539 533.867 253.055 534.664C252.57 535.461 251.922 536.227 251.109 536.961C250.312 537.68 249.359 538.281 248.25 538.766C247.156 539.234 245.922 539.469 244.547 539.469C242.828 539.469 241.32 539.133 240.023 538.461C238.742 537.789 237.742 536.891 237.023 535.766C236.32 534.625 235.969 533.352 235.969 531.945C235.969 530.586 236.234 529.391 236.766 528.359C237.297 527.312 238.062 526.445 239.062 525.758C240.062 525.055 241.266 524.523 242.672 524.164C244.078 523.805 245.648 523.625 247.383 523.625H252.422ZM267.164 518.516V548.75H262.805V513.641H266.789L267.164 518.516ZM284.25 526.109V526.602C284.25 528.445 284.031 530.156 283.594 531.734C283.156 533.297 282.516 534.656 281.672 535.812C280.844 536.969 279.82 537.867 278.602 538.508C277.383 539.148 275.984 539.469 274.406 539.469C272.797 539.469 271.375 539.203 270.141 538.672C268.906 538.141 267.859 537.367 267 536.352C266.141 535.336 265.453 534.117 264.938 532.695C264.438 531.273 264.094 529.672 263.906 527.891V525.266C264.094 523.391 264.445 521.711 264.961 520.227C265.477 518.742 266.156 517.477 267 516.43C267.859 515.367 268.898 514.562 270.117 514.016C271.336 513.453 272.742 513.172 274.336 513.172C275.93 513.172 277.344 513.484 278.578 514.109C279.812 514.719 280.852 515.594 281.695 516.734C282.539 517.875 283.172 519.242 283.594 520.836C284.031 522.414 284.25 524.172 284.25 526.109ZM279.891 526.602V526.109C279.891 524.844 279.758 523.656 279.492 522.547C279.227 521.422 278.812 520.438 278.25 519.594C277.703 518.734 277 518.062 276.141 517.578C275.281 517.078 274.258 516.828 273.07 516.828C271.977 516.828 271.023 517.016 270.211 517.391C269.414 517.766 268.734 518.273 268.172 518.914C267.609 519.539 267.148 520.258 266.789 521.07C266.445 521.867 266.188 522.695 266.016 523.555V529.625C266.328 530.719 266.766 531.75 267.328 532.719C267.891 533.672 268.641 534.445 269.578 535.039C270.516 535.617 271.695 535.906 273.117 535.906C274.289 535.906 275.297 535.664 276.141 535.18C277 534.68 277.703 534 278.25 533.141C278.812 532.281 279.227 531.297 279.492 530.188C279.758 529.062 279.891 527.867 279.891 526.602Z" fill="#FF7035"/>
<defs>
<linearGradient id="paint0_linear_54_333" x1="160.269" y1="262.886" x2="160.269" y2="406.194" gradientUnits="userSpaceOnUse">
<stop stop-color="#ECEAF4"/>
<stop offset="0.1352" stop-color="#E3E1F0"/>
<stop offset="0.3592" stop-color="#CAC7E4"/>
<stop offset="0.5674" stop-color="#AEAAD7"/>
<stop offset="0.8652" stop-color="#847CBE"/>
<stop offset="0.9944" stop-color="#696397"/>
</linearGradient>
<linearGradient id="paint1_linear_54_333" x1="211.338" y1="376.646" x2="211.338" y2="582.043" gradientUnits="userSpaceOnUse">
<stop stop-color="#ECEAF4"/>
<stop offset="0.1352" stop-color="#E3E1F0"/>
<stop offset="0.3592" stop-color="#CAC7E4"/>
<stop offset="0.5674" stop-color="#AEAAD7"/>
<stop offset="0.8652" stop-color="#847CBE"/>
<stop offset="0.9944" stop-color="#696397"/>
</linearGradient>
</defs>
</svg>
