<svg width="375" height="812" viewBox="0 0 375 812" fill="none" xmlns="http://www.w3.org/2000/svg">
<g clip-path="url(#clip0_37_406)">
<rect width="375" height="812" fill="#F4F3F1"/>
<path d="M0 0H375V260C375 260 272.897 199.089 183.5 200.5C96.6988 201.87 0 260 0 260V0Z" fill="#102466"/>
<path d="M33.9453 84.668H38.3398C38.1992 86.3438 37.7305 87.8379 36.9336 89.1504C36.1367 90.4512 35.0176 91.4766 33.5762 92.2266C32.1348 92.9766 30.3828 93.3516 28.3203 93.3516C26.7383 93.3516 25.3145 93.0703 24.0488 92.5078C22.7832 91.9336 21.6992 91.125 20.7969 90.082C19.8945 89.0273 19.2031 87.7559 18.7227 86.2676C18.2539 84.7793 18.0195 83.1152 18.0195 81.2754V79.1484C18.0195 77.3086 18.2598 75.6445 18.7402 74.1562C19.2324 72.668 19.9355 71.3965 20.8496 70.3418C21.7637 69.2754 22.8594 68.4609 24.1367 67.8984C25.4258 67.3359 26.873 67.0547 28.4785 67.0547C30.5176 67.0547 32.2402 67.4297 33.6465 68.1797C35.0527 68.9297 36.1426 69.9668 36.916 71.291C37.7012 72.6152 38.1816 74.1328 38.3574 75.8438H33.9629C33.8457 74.7422 33.5879 73.7988 33.1895 73.0137C32.8027 72.2285 32.2285 71.6309 31.4668 71.2207C30.7051 70.7988 29.709 70.5879 28.4785 70.5879C27.4707 70.5879 26.5918 70.7754 25.8418 71.1504C25.0918 71.5254 24.4648 72.0762 23.9609 72.8027C23.457 73.5293 23.0762 74.4258 22.8184 75.4922C22.5723 76.5469 22.4492 77.7539 22.4492 79.1133V81.2754C22.4492 82.5645 22.5605 83.7363 22.7832 84.791C23.0176 85.834 23.3691 86.7305 23.8379 87.4805C24.3184 88.2305 24.9277 88.8105 25.666 89.2207C26.4043 89.6309 27.2891 89.8359 28.3203 89.8359C29.5742 89.8359 30.5879 89.6367 31.3613 89.2383C32.1465 88.8398 32.7383 88.2598 33.1367 87.498C33.5469 86.7246 33.8164 85.7812 33.9453 84.668ZM41.1172 83.7012V83.2969C41.1172 81.9258 41.3164 80.6543 41.7148 79.4824C42.1133 78.2988 42.6875 77.2734 43.4375 76.4062C44.1992 75.5273 45.125 74.8477 46.2148 74.3672C47.3164 73.875 48.5586 73.6289 49.9414 73.6289C51.3359 73.6289 52.5781 73.875 53.668 74.3672C54.7695 74.8477 55.7012 75.5273 56.4629 76.4062C57.2246 77.2734 57.8047 78.2988 58.2031 79.4824C58.6016 80.6543 58.8008 81.9258 58.8008 83.2969V83.7012C58.8008 85.0723 58.6016 86.3438 58.2031 87.5156C57.8047 88.6875 57.2246 89.7129 56.4629 90.5918C55.7012 91.459 54.7754 92.1387 53.6855 92.6309C52.5957 93.1113 51.3594 93.3516 49.9766 93.3516C48.582 93.3516 47.334 93.1113 46.2324 92.6309C45.1426 92.1387 44.2168 91.459 43.4551 90.5918C42.6934 89.7129 42.1133 88.6875 41.7148 87.5156C41.3164 86.3438 41.1172 85.0723 41.1172 83.7012ZM45.3535 83.2969V83.7012C45.3535 84.5566 45.4414 85.3652 45.6172 86.127C45.793 86.8887 46.0684 87.5566 46.4434 88.1309C46.8184 88.7051 47.2988 89.1562 47.8848 89.4844C48.4707 89.8125 49.168 89.9766 49.9766 89.9766C50.7617 89.9766 51.4414 89.8125 52.0156 89.4844C52.6016 89.1562 53.082 88.7051 53.457 88.1309C53.832 87.5566 54.1074 86.8887 54.2832 86.127C54.4707 85.3652 54.5645 84.5566 54.5645 83.7012V83.2969C54.5645 82.4531 54.4707 81.6562 54.2832 80.9062C54.1074 80.1445 53.8262 79.4707 53.4395 78.8848C53.0645 78.2988 52.584 77.8418 51.998 77.5137C51.4238 77.1738 50.7383 77.0039 49.9414 77.0039C49.1445 77.0039 48.4531 77.1738 47.8672 77.5137C47.293 77.8418 46.8184 78.2988 46.4434 78.8848C46.0684 79.4707 45.793 80.1445 45.6172 80.9062C45.4414 81.6562 45.3535 82.4531 45.3535 83.2969ZM65.1992 73.9805L68.8203 80.291L72.5117 73.9805H77.1699L71.4043 83.3145L77.3984 93H72.7402L68.873 86.4258L65.0059 93H60.3301L66.3066 83.3145L60.5586 73.9805H65.1992ZM84.3242 77.6367V100.312H80.0879V73.9805H83.9902L84.3242 77.6367ZM96.7168 83.3145V83.6836C96.7168 85.0664 96.5527 86.3496 96.2246 87.5332C95.9082 88.7051 95.4336 89.7305 94.8008 90.6094C94.1797 91.4766 93.4121 92.1504 92.498 92.6309C91.584 93.1113 90.5293 93.3516 89.334 93.3516C88.1504 93.3516 87.1133 93.1348 86.2227 92.7012C85.3438 92.2559 84.5996 91.6289 83.9902 90.8203C83.3809 90.0117 82.8887 89.0625 82.5137 87.9727C82.1504 86.8711 81.8926 85.6641 81.7402 84.3516V82.9277C81.8926 81.5332 82.1504 80.2676 82.5137 79.1309C82.8887 77.9941 83.3809 77.0156 83.9902 76.1953C84.5996 75.375 85.3438 74.7422 86.2227 74.2969C87.1016 73.8516 88.127 73.6289 89.2988 73.6289C90.4941 73.6289 91.5547 73.8633 92.4805 74.332C93.4062 74.7891 94.1855 75.4453 94.8184 76.3008C95.4512 77.1445 95.9258 78.1641 96.2422 79.3594C96.5586 80.543 96.7168 81.8613 96.7168 83.3145ZM92.4805 83.6836V83.3145C92.4805 82.4355 92.3984 81.6211 92.2344 80.8711C92.0703 80.1094 91.8125 79.4414 91.4609 78.8672C91.1094 78.293 90.6582 77.8477 90.1074 77.5312C89.5684 77.2031 88.918 77.0391 88.1562 77.0391C87.4062 77.0391 86.7617 77.168 86.2227 77.4258C85.6836 77.6719 85.2324 78.0176 84.8691 78.4629C84.5059 78.9082 84.2246 79.4297 84.0254 80.0273C83.8262 80.6133 83.6855 81.252 83.6035 81.9434V85.3535C83.7441 86.1973 83.9844 86.9707 84.3242 87.6738C84.6641 88.377 85.1445 88.9395 85.7656 89.3613C86.3984 89.7715 87.207 89.9766 88.1914 89.9766C88.9531 89.9766 89.6035 89.8125 90.1426 89.4844C90.6816 89.1562 91.1211 88.7051 91.4609 88.1309C91.8125 87.5449 92.0703 86.8711 92.2344 86.1094C92.3984 85.3477 92.4805 84.5391 92.4805 83.6836ZM111.043 89.1855V80.1152C111.043 79.4355 110.92 78.8496 110.674 78.3574C110.428 77.8652 110.053 77.4844 109.549 77.2148C109.057 76.9453 108.436 76.8105 107.686 76.8105C106.994 76.8105 106.396 76.9277 105.893 77.1621C105.389 77.3965 104.996 77.7129 104.715 78.1113C104.434 78.5098 104.293 78.9609 104.293 79.4648H100.074C100.074 78.7148 100.256 77.9883 100.619 77.2852C100.982 76.582 101.51 75.9551 102.201 75.4043C102.893 74.8535 103.719 74.4199 104.68 74.1035C105.641 73.7871 106.719 73.6289 107.914 73.6289C109.344 73.6289 110.609 73.8691 111.711 74.3496C112.824 74.8301 113.697 75.5566 114.33 76.5293C114.975 77.4902 115.297 78.6973 115.297 80.1504V88.6055C115.297 89.4727 115.355 90.252 115.473 90.9434C115.602 91.623 115.783 92.2148 116.018 92.7188V93H111.676C111.477 92.543 111.318 91.9629 111.201 91.2598C111.096 90.5449 111.043 89.8535 111.043 89.1855ZM111.658 81.4336L111.693 84.0527H108.652C107.867 84.0527 107.176 84.1289 106.578 84.2812C105.98 84.4219 105.482 84.6328 105.084 84.9141C104.686 85.1953 104.387 85.5352 104.188 85.9336C103.988 86.332 103.889 86.7832 103.889 87.2871C103.889 87.791 104.006 88.2539 104.24 88.6758C104.475 89.0859 104.814 89.4082 105.26 89.6426C105.717 89.877 106.268 89.9941 106.912 89.9941C107.779 89.9941 108.535 89.8184 109.18 89.4668C109.836 89.1035 110.352 88.6641 110.727 88.1484C111.102 87.6211 111.301 87.123 111.324 86.6543L112.695 88.5352C112.555 89.0156 112.314 89.5312 111.975 90.082C111.635 90.6328 111.189 91.1602 110.639 91.6641C110.1 92.1562 109.449 92.5605 108.688 92.877C107.938 93.1934 107.07 93.3516 106.086 93.3516C104.844 93.3516 103.736 93.1055 102.764 92.6133C101.791 92.1094 101.029 91.4355 100.479 90.5918C99.9277 89.7363 99.6523 88.7695 99.6523 87.6914C99.6523 86.6836 99.8398 85.793 100.215 85.0195C100.602 84.2344 101.164 83.5781 101.902 83.0508C102.652 82.5234 103.566 82.125 104.645 81.8555C105.723 81.5742 106.953 81.4336 108.336 81.4336H111.658ZM132.717 81.9258V85.2656H122.873V81.9258H132.717ZM124.104 73.9805V93H119.867V73.9805H124.104ZM135.775 73.9805V93H131.539V73.9805H135.775ZM148.678 93.3516C147.271 93.3516 146 93.123 144.863 92.666C143.738 92.1973 142.777 91.5469 141.98 90.7148C141.195 89.8828 140.592 88.9043 140.17 87.7793C139.748 86.6543 139.537 85.4414 139.537 84.1406V83.4375C139.537 81.9492 139.754 80.6016 140.188 79.3945C140.621 78.1875 141.225 77.1562 141.998 76.3008C142.771 75.4336 143.686 74.7715 144.74 74.3145C145.795 73.8574 146.938 73.6289 148.168 73.6289C149.527 73.6289 150.717 73.8574 151.736 74.3145C152.756 74.7715 153.6 75.416 154.268 76.248C154.947 77.0684 155.451 78.0469 155.779 79.1836C156.119 80.3203 156.289 81.5742 156.289 82.9453V84.7559H141.594V81.7148H152.105V81.3809C152.082 80.6191 151.93 79.9043 151.648 79.2363C151.379 78.5684 150.963 78.0293 150.4 77.6191C149.838 77.209 149.088 77.0039 148.15 77.0039C147.447 77.0039 146.82 77.1562 146.27 77.4609C145.73 77.7539 145.279 78.1816 144.916 78.7441C144.553 79.3066 144.271 79.9863 144.072 80.7832C143.885 81.5684 143.791 82.4531 143.791 83.4375V84.1406C143.791 84.9727 143.902 85.7461 144.125 86.4609C144.359 87.1641 144.699 87.7793 145.145 88.3066C145.59 88.834 146.129 89.25 146.762 89.5547C147.395 89.8477 148.115 89.9941 148.924 89.9941C149.943 89.9941 150.852 89.7891 151.648 89.3789C152.445 88.9688 153.137 88.3887 153.723 87.6387L155.955 89.8008C155.545 90.3984 155.012 90.9727 154.355 91.5234C153.699 92.0625 152.896 92.502 151.947 92.8418C151.01 93.1816 149.92 93.3516 148.678 93.3516ZM172.584 81.9258V85.2656H162.74V81.9258H172.584ZM163.971 73.9805V93H159.734V73.9805H163.971ZM175.643 73.9805V93H171.406V73.9805H175.643ZM183.307 80.0273H188.914C190.555 80.0273 191.949 80.3027 193.098 80.8535C194.246 81.4043 195.119 82.1719 195.717 83.1562C196.326 84.1289 196.631 85.2422 196.631 86.4961C196.631 87.4219 196.461 88.2832 196.121 89.0801C195.781 89.8652 195.277 90.5508 194.609 91.1367C193.953 91.7227 193.145 92.1797 192.184 92.5078C191.234 92.8359 190.145 93 188.914 93H180.494V73.9805H184.748V89.6426H188.914C189.758 89.6426 190.432 89.4961 190.936 89.2031C191.439 88.9102 191.803 88.5293 192.025 88.0605C192.26 87.5918 192.377 87.0938 192.377 86.5664C192.377 86.0273 192.26 85.5176 192.025 85.0371C191.803 84.5566 191.439 84.1641 190.936 83.8594C190.432 83.5547 189.758 83.4023 188.914 83.4023H183.307V80.0273ZM204.119 73.9805V93H199.883V73.9805H204.119ZM217.514 93.3516C216.107 93.3516 214.836 93.123 213.699 92.666C212.574 92.1973 211.613 91.5469 210.816 90.7148C210.031 89.8828 209.428 88.9043 209.006 87.7793C208.584 86.6543 208.373 85.4414 208.373 84.1406V83.4375C208.373 81.9492 208.59 80.6016 209.023 79.3945C209.457 78.1875 210.061 77.1562 210.834 76.3008C211.607 75.4336 212.521 74.7715 213.576 74.3145C214.631 73.8574 215.773 73.6289 217.004 73.6289C218.363 73.6289 219.553 73.8574 220.572 74.3145C221.592 74.7715 222.436 75.416 223.104 76.248C223.783 77.0684 224.287 78.0469 224.615 79.1836C224.955 80.3203 225.125 81.5742 225.125 82.9453V84.7559H210.43V81.7148H220.941V81.3809C220.918 80.6191 220.766 79.9043 220.484 79.2363C220.215 78.5684 219.799 78.0293 219.236 77.6191C218.674 77.209 217.924 77.0039 216.986 77.0039C216.283 77.0039 215.656 77.1562 215.105 77.4609C214.566 77.7539 214.115 78.1816 213.752 78.7441C213.389 79.3066 213.107 79.9863 212.908 80.7832C212.721 81.5684 212.627 82.4531 212.627 83.4375V84.1406C212.627 84.9727 212.738 85.7461 212.961 86.4609C213.195 87.1641 213.535 87.7793 213.98 88.3066C214.426 88.834 214.965 89.25 215.598 89.5547C216.23 89.8477 216.951 89.9941 217.76 89.9941C218.779 89.9941 219.688 89.7891 220.484 89.3789C221.281 88.9688 221.973 88.3887 222.559 87.6387L224.791 89.8008C224.381 90.3984 223.848 90.9727 223.191 91.5234C222.535 92.0625 221.732 92.502 220.783 92.8418C219.846 93.1816 218.756 93.3516 217.514 93.3516ZM252.67 73.9805V93H248.434V73.9805H252.67ZM250.877 82.4004V85.7578C250.361 85.9805 249.781 86.1855 249.137 86.373C248.504 86.5488 247.836 86.6953 247.133 86.8125C246.43 86.918 245.721 86.9707 245.006 86.9707C243.33 86.9707 241.883 86.7129 240.664 86.1973C239.457 85.6816 238.525 84.8906 237.869 83.8242C237.225 82.7461 236.902 81.3809 236.902 79.7285V73.9629H241.121V79.7285C241.121 80.6777 241.262 81.4336 241.543 81.9961C241.836 82.5586 242.27 82.9629 242.844 83.209C243.418 83.4551 244.139 83.5781 245.006 83.5781C245.732 83.5781 246.418 83.5312 247.062 83.4375C247.707 83.332 248.346 83.1914 248.979 83.0156C249.611 82.8398 250.244 82.6348 250.877 82.4004ZM265.572 93.3516C264.166 93.3516 262.895 93.123 261.758 92.666C260.633 92.1973 259.672 91.5469 258.875 90.7148C258.09 89.8828 257.486 88.9043 257.064 87.7793C256.643 86.6543 256.432 85.4414 256.432 84.1406V83.4375C256.432 81.9492 256.648 80.6016 257.082 79.3945C257.516 78.1875 258.119 77.1562 258.893 76.3008C259.666 75.4336 260.58 74.7715 261.635 74.3145C262.689 73.8574 263.832 73.6289 265.062 73.6289C266.422 73.6289 267.611 73.8574 268.631 74.3145C269.65 74.7715 270.494 75.416 271.162 76.248C271.842 77.0684 272.346 78.0469 272.674 79.1836C273.014 80.3203 273.184 81.5742 273.184 82.9453V84.7559H258.488V81.7148H269V81.3809C268.977 80.6191 268.824 79.9043 268.543 79.2363C268.273 78.5684 267.857 78.0293 267.295 77.6191C266.732 77.209 265.982 77.0039 265.045 77.0039C264.342 77.0039 263.715 77.1562 263.164 77.4609C262.625 77.7539 262.174 78.1816 261.811 78.7441C261.447 79.3066 261.166 79.9863 260.967 80.7832C260.779 81.5684 260.686 82.4531 260.686 83.4375V84.1406C260.686 84.9727 260.797 85.7461 261.02 86.4609C261.254 87.1641 261.594 87.7793 262.039 88.3066C262.484 88.834 263.023 89.25 263.656 89.5547C264.289 89.8477 265.01 89.9941 265.818 89.9941C266.838 89.9941 267.746 89.7891 268.543 89.3789C269.34 88.9688 270.031 88.3887 270.617 87.6387L272.85 89.8008C272.439 90.3984 271.906 90.9727 271.25 91.5234C270.594 92.0625 269.791 92.502 268.842 92.8418C267.904 93.1816 266.814 93.3516 265.572 93.3516ZM281.059 73.9805V93H276.822V73.9805H281.059ZM293.469 73.9805L284.908 85.4238H280.074L279.512 81.5918H283.045L288.178 73.9805H293.469ZM288.512 93L282.781 84.7031L286.121 82.2949L294.084 93H288.512ZM300.764 86.8125L308.234 73.9805H312.471V93H308.234V80.1504L300.764 93H296.527V73.9805H300.764V86.8125Z" fill="#FE724C"/>
<rect x="16" y="118" width="343" height="56" rx="12" fill="white"/>
<path fill-rule="evenodd" clip-rule="evenodd" d="M43.5 136.75C38.6675 136.75 34.75 140.668 34.75 145.5C34.75 150.332 38.6675 154.25 43.5 154.25C48.3325 154.25 52.25 150.332 52.25 145.5C52.25 140.668 48.3325 136.75 43.5 136.75ZM33.25 145.5C33.25 139.839 37.8391 135.25 43.5 135.25C49.1609 135.25 53.75 139.839 53.75 145.5C53.75 148.061 52.8111 150.402 51.2589 152.198L54.5303 155.47C54.8232 155.763 54.8232 156.237 54.5303 156.53C54.2374 156.823 53.7626 156.823 53.4697 156.53L50.1982 153.259C48.4017 154.811 46.0605 155.75 43.5 155.75C37.8391 155.75 33.25 151.161 33.25 145.5Z" fill="#FF7035"/>
<path d="M66.5293 148.717L71.4307 141.047H72.75V151H71.4307V143.323L66.5293 151H65.2168V141.047H66.5293V148.717ZM77.918 150.098C78.2188 150.098 78.4967 150.036 78.752 149.913C79.0072 149.79 79.2168 149.621 79.3809 149.407C79.5449 149.188 79.6383 148.94 79.6611 148.662H80.8643C80.8415 149.1 80.6934 149.507 80.4199 149.886C80.151 150.259 79.7979 150.562 79.3604 150.795C78.9229 151.023 78.4421 151.137 77.918 151.137C77.362 151.137 76.8766 151.039 76.4619 150.843C76.0518 150.647 75.71 150.378 75.4365 150.036C75.1676 149.694 74.9648 149.302 74.8281 148.86C74.696 148.414 74.6299 147.942 74.6299 147.445V147.158C74.6299 146.661 74.696 146.192 74.8281 145.75C74.9648 145.303 75.1676 144.909 75.4365 144.567C75.71 144.226 76.0518 143.957 76.4619 143.761C76.8766 143.565 77.362 143.467 77.918 143.467C78.4967 143.467 79.0026 143.585 79.4355 143.822C79.8685 144.055 80.208 144.374 80.4541 144.779C80.7048 145.18 80.8415 145.636 80.8643 146.146H79.6611C79.6383 145.841 79.5518 145.565 79.4014 145.319C79.2555 145.073 79.055 144.877 78.7998 144.731C78.5492 144.581 78.2552 144.506 77.918 144.506C77.5306 144.506 77.2048 144.583 76.9404 144.738C76.6807 144.889 76.4733 145.094 76.3184 145.354C76.168 145.609 76.0586 145.894 75.9902 146.208C75.9264 146.518 75.8945 146.835 75.8945 147.158V147.445C75.8945 147.769 75.9264 148.088 75.9902 148.402C76.054 148.717 76.1611 149.002 76.3115 149.257C76.4665 149.512 76.6738 149.717 76.9336 149.872C77.1979 150.022 77.526 150.098 77.918 150.098ZM83.6602 143.604V151H82.3955V143.604H83.6602ZM88.5137 143.604L85.0068 147.842H83.2363L83.0449 146.734H84.4941L86.9756 143.604H88.5137ZM87.1533 151L84.4326 147.65L85.2461 146.734L88.7598 151H87.1533ZM94.2217 149.735V145.928C94.2217 145.636 94.1624 145.383 94.0439 145.169C93.93 144.95 93.7568 144.782 93.5244 144.663C93.292 144.545 93.0049 144.485 92.6631 144.485C92.3441 144.485 92.0638 144.54 91.8223 144.649C91.5853 144.759 91.3984 144.902 91.2617 145.08C91.1296 145.258 91.0635 145.449 91.0635 145.654H89.7988C89.7988 145.39 89.8672 145.128 90.0039 144.868C90.1406 144.608 90.3366 144.374 90.5918 144.164C90.8516 143.95 91.1615 143.781 91.5215 143.658C91.8861 143.531 92.2917 143.467 92.7383 143.467C93.276 143.467 93.75 143.558 94.1602 143.74C94.5749 143.923 94.8984 144.198 95.1309 144.567C95.3678 144.932 95.4863 145.39 95.4863 145.941V149.387C95.4863 149.633 95.5068 149.895 95.5479 150.173C95.5934 150.451 95.6595 150.69 95.7461 150.891V151H94.4268C94.363 150.854 94.3128 150.66 94.2764 150.419C94.2399 150.173 94.2217 149.945 94.2217 149.735ZM94.4404 146.516L94.4541 147.404H93.1758C92.8158 147.404 92.4945 147.434 92.2119 147.493C91.9294 147.548 91.6924 147.632 91.501 147.746C91.3096 147.86 91.1637 148.004 91.0635 148.177C90.9632 148.345 90.9131 148.544 90.9131 148.771C90.9131 149.004 90.9655 149.216 91.0703 149.407C91.1751 149.599 91.3324 149.751 91.542 149.865C91.7562 149.975 92.0182 150.029 92.3281 150.029C92.7155 150.029 93.0573 149.947 93.3535 149.783C93.6497 149.619 93.8844 149.419 94.0576 149.182C94.2354 148.945 94.3311 148.715 94.3447 148.491L94.8848 149.1C94.8529 149.291 94.7663 149.503 94.625 149.735C94.4837 149.968 94.2946 150.191 94.0576 150.405C93.8252 150.615 93.5472 150.79 93.2236 150.932C92.9046 151.068 92.5446 151.137 92.1436 151.137C91.6423 151.137 91.2025 151.039 90.8242 150.843C90.4505 150.647 90.1589 150.385 89.9492 150.057C89.7441 149.724 89.6416 149.353 89.6416 148.942C89.6416 148.546 89.7191 148.197 89.874 147.896C90.029 147.591 90.2523 147.338 90.5439 147.138C90.8356 146.933 91.1865 146.778 91.5967 146.673C92.0068 146.568 92.4648 146.516 92.9707 146.516H94.4404ZM100.381 143.604V151H99.1094V143.604H100.381ZM102.862 143.604V144.629H96.6758V143.604H102.862ZM105.146 146.146H107.367C107.964 146.146 108.468 146.251 108.878 146.461C109.288 146.666 109.598 146.951 109.808 147.315C110.022 147.675 110.129 148.086 110.129 148.546C110.129 148.888 110.07 149.209 109.951 149.51C109.833 149.806 109.655 150.066 109.418 150.289C109.186 150.512 108.896 150.688 108.55 150.815C108.208 150.938 107.814 151 107.367 151H104.223V143.604H105.487V149.961H107.367C107.732 149.961 108.023 149.895 108.242 149.763C108.461 149.631 108.618 149.46 108.714 149.25C108.81 149.04 108.857 148.822 108.857 148.594C108.857 148.37 108.81 148.152 108.714 147.938C108.618 147.723 108.461 147.546 108.242 147.404C108.023 147.258 107.732 147.186 107.367 147.186H105.146V146.146ZM120.759 143.604V151H119.494V143.604H120.759ZM120.328 147.001V148.04C120.073 148.136 119.813 148.222 119.549 148.3C119.289 148.373 119.013 148.432 118.722 148.478C118.435 148.519 118.122 148.539 117.785 148.539C117.202 148.539 116.696 148.439 116.268 148.238C115.839 148.033 115.509 147.726 115.276 147.315C115.044 146.901 114.928 146.379 114.928 145.75V143.59H116.192V145.75C116.192 146.16 116.254 146.493 116.377 146.748C116.5 147.003 116.68 147.192 116.917 147.315C117.154 147.434 117.443 147.493 117.785 147.493C118.113 147.493 118.421 147.473 118.708 147.432C119 147.386 119.278 147.327 119.542 147.254C119.811 147.181 120.073 147.097 120.328 147.001ZM125.865 151.137C125.35 151.137 124.883 151.05 124.464 150.877C124.049 150.699 123.691 150.451 123.391 150.132C123.094 149.813 122.867 149.435 122.707 148.997C122.548 148.56 122.468 148.081 122.468 147.562V147.274C122.468 146.673 122.557 146.137 122.734 145.668C122.912 145.194 123.154 144.793 123.459 144.465C123.764 144.137 124.111 143.888 124.498 143.72C124.885 143.551 125.286 143.467 125.701 143.467C126.23 143.467 126.686 143.558 127.068 143.74C127.456 143.923 127.772 144.178 128.019 144.506C128.265 144.829 128.447 145.212 128.565 145.654C128.684 146.092 128.743 146.57 128.743 147.09V147.657H123.22V146.625H127.479V146.529C127.46 146.201 127.392 145.882 127.273 145.572C127.16 145.262 126.977 145.007 126.727 144.807C126.476 144.606 126.134 144.506 125.701 144.506C125.414 144.506 125.15 144.567 124.908 144.69C124.667 144.809 124.459 144.987 124.286 145.224C124.113 145.461 123.979 145.75 123.883 146.092C123.787 146.434 123.739 146.828 123.739 147.274V147.562C123.739 147.912 123.787 148.243 123.883 148.553C123.983 148.858 124.127 149.127 124.313 149.359C124.505 149.592 124.735 149.774 125.004 149.906C125.277 150.038 125.587 150.104 125.934 150.104C126.38 150.104 126.758 150.013 127.068 149.831C127.378 149.649 127.649 149.405 127.882 149.1L128.647 149.708C128.488 149.95 128.285 150.18 128.039 150.398C127.793 150.617 127.49 150.795 127.13 150.932C126.774 151.068 126.353 151.137 125.865 151.137ZM131.594 143.604V151H130.329V143.604H131.594ZM136.447 143.604L132.94 147.842H131.17L130.979 146.734H132.428L134.909 143.604H136.447ZM135.087 151L132.366 147.65L133.18 146.734L136.693 151H135.087Z" fill="white"/>
<path d="M311 134V158" stroke="#284194" stroke-width="0.3"/>
<path fill-rule="evenodd" clip-rule="evenodd" d="M335 139.25C335.203 139.25 335.397 139.332 335.538 139.478L339.538 143.603C339.827 143.9 339.819 144.375 339.522 144.663C339.225 144.952 338.75 144.944 338.462 144.647L335.75 141.851L335.75 152C335.75 152.414 335.414 152.75 335 152.75C334.586 152.75 334.25 152.414 334.25 152L334.25 141.851L331.538 144.647C331.25 144.944 330.775 144.952 330.478 144.663C330.181 144.375 330.173 143.9 330.462 143.603L334.462 139.478C334.603 139.332 334.797 139.25 335 139.25ZM327 139.25C327.414 139.25 327.75 139.586 327.75 140L327.75 150.149L330.462 147.353C330.75 147.056 331.225 147.048 331.522 147.337C331.819 147.625 331.827 148.1 331.538 148.397L327.538 152.522C327.397 152.668 327.203 152.75 327 152.75C326.797 152.75 326.603 152.668 326.462 152.522L322.462 148.397C322.173 148.1 322.181 147.625 322.478 147.337C322.775 147.048 323.25 147.056 323.538 147.353L326.25 150.149L326.25 140C326.25 139.586 326.586 139.25 327 139.25Z" fill="#FF7035"/>
<mask id="path-8-inside-1_37_406" fill="white">
<path d="M0 732H375V812H0V732Z"/>
</mask>
<path d="M0 732H375V812H0V732Z" fill="#102466"/>
<path d="M0 733H375V731H0V733Z" fill="white" mask="url(#path-8-inside-1_37_406)"/>
<circle cx="49" cy="764" r="24" fill="#284194"/>
<path fill-rule="evenodd" clip-rule="evenodd" d="M40.9553 754.25C40.9701 754.25 40.985 754.25 41 754.25L57.0447 754.25C57.4776 754.25 57.8744 754.25 58.1972 754.293C58.5527 754.341 58.9284 754.454 59.2374 754.763C59.5465 755.072 59.6589 755.447 59.7067 755.803C59.7501 756.126 59.7501 756.522 59.75 756.955V757.045C59.7501 757.478 59.7501 757.874 59.7067 758.197C59.6589 758.553 59.5465 758.928 59.2374 759.237C58.9437 759.531 58.5896 759.647 58.25 759.699V765.056C58.25 766.894 58.25 768.35 58.0969 769.489C57.9392 770.661 57.6071 771.61 56.8588 772.359C56.1104 773.107 55.1614 773.439 53.989 773.597C52.8498 773.75 51.3942 773.75 49.5564 773.75H48.4436C46.6058 773.75 45.1502 773.75 44.011 773.597C42.8386 773.439 41.8896 773.107 41.1412 772.359C40.3929 771.61 40.0608 770.661 39.9031 769.489C39.75 768.35 39.75 766.894 39.75 765.056L39.75 759.699C39.4104 759.647 39.0563 759.531 38.7626 759.237C38.4535 758.928 38.3411 758.553 38.2933 758.197C38.2499 757.874 38.2499 757.478 38.25 757.045C38.25 757.03 38.25 757.015 38.25 757C38.25 756.985 38.25 756.97 38.25 756.955C38.2499 756.522 38.2499 756.126 38.2933 755.803C38.3411 755.447 38.4535 755.072 38.7626 754.763C39.0716 754.454 39.4473 754.341 39.8028 754.293C40.1256 754.25 40.5224 754.25 40.9553 754.25ZM41.25 759.75V765C41.25 766.907 41.2516 768.261 41.3898 769.289C41.525 770.295 41.7787 770.875 42.2019 771.298C42.6251 771.721 43.2048 771.975 44.2108 772.11C45.2385 772.248 46.5932 772.25 48.5 772.25H49.5C51.4068 772.25 52.7615 772.248 53.7892 772.11C54.7952 771.975 55.3749 771.721 55.7981 771.298C56.2213 770.875 56.475 770.295 56.6102 769.289C56.7484 768.261 56.75 766.907 56.75 765V759.75H41.25ZM39.8232 755.823L39.8257 755.822C39.8276 755.821 39.8309 755.819 39.836 755.817C39.8577 755.808 39.9061 755.793 40.0027 755.78C40.2134 755.752 40.5074 755.75 41 755.75H57C57.4926 755.75 57.7866 755.752 57.9973 755.78C58.0939 755.793 58.1423 755.808 58.164 755.817C58.1691 755.819 58.1724 755.821 58.1743 755.822L58.1768 755.823L58.1781 755.826C58.1791 755.828 58.1808 755.831 58.1828 755.836C58.1918 755.858 58.2071 755.906 58.2201 756.003C58.2484 756.213 58.25 756.507 58.25 757C58.25 757.493 58.2484 757.787 58.2201 757.997C58.2071 758.094 58.1918 758.142 58.1828 758.164C58.1808 758.169 58.1791 758.172 58.1781 758.174L58.1768 758.177L58.1743 758.178C58.1724 758.179 58.1691 758.181 58.164 758.183C58.1423 758.192 58.0939 758.207 57.9973 758.22C57.7866 758.248 57.4926 758.25 57 758.25H41C40.5074 758.25 40.2134 758.248 40.0027 758.22C39.9061 758.207 39.8577 758.192 39.836 758.183C39.8309 758.181 39.8276 758.179 39.8257 758.178L39.8232 758.177L39.8219 758.174C39.8209 758.172 39.8192 758.169 39.8172 758.164C39.8082 758.142 39.7929 758.094 39.7799 757.997C39.7516 757.787 39.75 757.493 39.75 757C39.75 756.507 39.7516 756.213 39.7799 756.003C39.7929 755.906 39.8082 755.858 39.8172 755.836C39.8192 755.831 39.8209 755.828 39.8219 755.826L39.8232 755.823ZM39.8232 758.177C39.823 758.176 39.8228 758.176 39.8232 758.177ZM47.4782 761.75H50.5218C50.736 761.75 50.9329 761.75 51.0982 761.761C51.2759 761.773 51.4712 761.801 51.6697 761.883C52.0985 762.061 52.4392 762.402 52.6168 762.83C52.699 763.029 52.7266 763.224 52.7387 763.402C52.75 763.567 52.75 763.764 52.75 763.978V764.022C52.75 764.236 52.75 764.433 52.7387 764.598C52.7266 764.776 52.699 764.971 52.6168 765.17C52.4392 765.599 52.0985 765.939 51.6697 766.117C51.4712 766.199 51.2759 766.227 51.0982 766.239C50.9329 766.25 50.736 766.25 50.5218 766.25H47.4782C47.264 766.25 47.0671 766.25 46.9018 766.239C46.7241 766.227 46.5288 766.199 46.3303 766.117C45.9015 765.939 45.5608 765.599 45.3832 765.17C45.301 764.971 45.2734 764.776 45.2613 764.598C45.25 764.433 45.25 764.236 45.25 764.022V763.978C45.25 763.764 45.25 763.567 45.2613 763.402C45.2734 763.224 45.301 763.029 45.3832 762.83C45.5608 762.402 45.9015 762.061 46.3303 761.883C46.5288 761.801 46.7241 761.773 46.9018 761.761C47.0671 761.75 47.264 761.75 47.4782 761.75ZM46.9013 763.27C46.8425 763.296 46.7956 763.342 46.7703 763.401C46.7684 763.409 46.7623 763.437 46.7578 763.504C46.7504 763.612 46.75 763.757 46.75 764C46.75 764.243 46.7504 764.388 46.7578 764.496C46.7623 764.563 46.7684 764.591 46.7703 764.599C46.7956 764.658 46.8425 764.704 46.9013 764.73C46.9087 764.732 46.9371 764.738 47.0039 764.742C47.1119 764.75 47.2568 764.75 47.5 764.75H50.5C50.7432 764.75 50.8881 764.75 50.9961 764.742C51.0629 764.738 51.0913 764.732 51.0987 764.73C51.1575 764.704 51.2044 764.658 51.2297 764.599C51.2316 764.591 51.2377 764.563 51.2422 764.496C51.2496 764.388 51.25 764.243 51.25 764C51.25 763.757 51.2496 763.612 51.2422 763.504C51.2377 763.437 51.2316 763.409 51.2297 763.401C51.2044 763.342 51.1575 763.296 51.0987 763.27C51.0913 763.268 51.0629 763.262 50.9961 763.258C50.8881 763.25 50.7432 763.25 50.5 763.25H47.5C47.2568 763.25 47.1119 763.25 47.0039 763.258C46.9371 763.262 46.9087 763.268 46.9013 763.27Z" fill="white"/>
<path fill-rule="evenodd" clip-rule="evenodd" d="M121.955 753.25C121.522 753.25 121.126 753.25 120.803 753.293C120.447 753.341 120.072 753.454 119.763 753.763C119.454 754.072 119.341 754.447 119.293 754.803C119.25 755.126 119.25 755.522 119.25 755.955V769.045C119.25 769.478 119.25 769.874 119.293 770.197C119.341 770.553 119.454 770.928 119.763 771.237C120.072 771.546 120.447 771.659 120.803 771.707C121.126 771.75 121.522 771.75 121.955 771.75H122.045C122.478 771.75 122.874 771.75 123.197 771.707C123.553 771.659 123.928 771.546 124.237 771.237C124.546 770.928 124.659 770.553 124.707 770.197C124.75 769.874 124.75 769.478 124.75 769.045V755.955C124.75 755.522 124.75 755.126 124.707 754.803C124.659 754.447 124.546 754.072 124.237 753.763C123.928 753.454 123.553 753.341 123.197 753.293C122.874 753.25 122.478 753.25 122.045 753.25H121.955ZM120.826 754.822L120.823 754.823L120.822 754.826C120.821 754.828 120.819 754.831 120.817 754.836C120.808 754.858 120.793 754.906 120.78 755.003C120.752 755.213 120.75 755.507 120.75 756V769C120.75 769.493 120.752 769.787 120.78 769.997C120.793 770.094 120.808 770.142 120.817 770.164C120.819 770.169 120.821 770.172 120.822 770.174L120.823 770.177L120.826 770.178C120.826 770.179 120.828 770.179 120.829 770.18C120.831 770.181 120.833 770.182 120.836 770.183C120.858 770.192 120.906 770.207 121.003 770.22C121.213 770.248 121.507 770.25 122 770.25C122.493 770.25 122.787 770.248 122.997 770.22C123.094 770.207 123.142 770.192 123.164 770.183C123.169 770.181 123.172 770.179 123.174 770.178L123.177 770.177L123.178 770.174C123.179 770.172 123.181 770.169 123.183 770.164C123.192 770.142 123.207 770.094 123.22 769.997C123.248 769.787 123.25 769.493 123.25 769V756C123.25 755.507 123.248 755.213 123.22 755.003C123.207 754.906 123.192 754.858 123.183 754.836C123.181 754.831 123.179 754.828 123.178 754.826L123.177 754.823L123.174 754.822C123.172 754.821 123.169 754.819 123.164 754.817C123.142 754.808 123.094 754.793 122.997 754.78C122.787 754.752 122.493 754.75 122 754.75C121.507 754.75 121.213 754.752 121.003 754.78C120.906 754.793 120.858 754.808 120.836 754.817C120.831 754.819 120.828 754.821 120.826 754.822Z" fill="#747474"/>
<path fill-rule="evenodd" clip-rule="evenodd" d="M114.955 756.25H115.045C115.478 756.25 115.874 756.25 116.197 756.293C116.553 756.341 116.928 756.454 117.237 756.763C117.546 757.072 117.659 757.447 117.707 757.803C117.75 758.126 117.75 758.522 117.75 758.955V769.045C117.75 769.478 117.75 769.874 117.707 770.197C117.659 770.553 117.546 770.928 117.237 771.237C116.928 771.546 116.553 771.659 116.197 771.707C115.874 771.75 115.478 771.75 115.045 771.75H114.955C114.522 771.75 114.126 771.75 113.803 771.707C113.447 771.659 113.072 771.546 112.763 771.237C112.454 770.928 112.341 770.553 112.293 770.197C112.25 769.874 112.25 769.478 112.25 769.045V758.955C112.25 758.522 112.25 758.126 112.293 757.803C112.341 757.447 112.454 757.072 112.763 756.763C113.072 756.454 113.447 756.341 113.803 756.293C114.126 756.25 114.522 756.25 114.955 756.25ZM113.823 757.823L113.826 757.822L113.823 770.177L113.822 770.174C113.821 770.172 113.819 770.169 113.817 770.164C113.808 770.142 113.793 770.094 113.78 769.997C113.752 769.787 113.75 769.493 113.75 769V759C113.75 758.507 113.752 758.213 113.78 758.003C113.793 757.906 113.808 757.858 113.817 757.836C113.819 757.831 113.821 757.828 113.822 757.826L113.823 757.823ZM113.823 770.177L113.826 757.822L113.829 757.82L113.836 757.817C113.858 757.808 113.906 757.793 114.003 757.78C114.213 757.752 114.507 757.75 115 757.75C115.493 757.75 115.787 757.752 115.997 757.78C116.094 757.793 116.142 757.808 116.164 757.817C116.169 757.819 116.172 757.821 116.174 757.822L116.177 757.823L116.178 757.826C116.179 757.828 116.181 757.831 116.183 757.836C116.192 757.858 116.207 757.906 116.22 758.003C116.248 758.213 116.25 758.507 116.25 759V769C116.25 769.493 116.248 769.787 116.22 769.997C116.207 770.094 116.192 770.142 116.183 770.164C116.181 770.169 116.179 770.172 116.178 770.174L116.177 770.177L116.174 770.178C116.173 770.179 116.171 770.18 116.169 770.181C116.167 770.181 116.166 770.182 116.164 770.183C116.142 770.192 116.094 770.207 115.997 770.22C115.787 770.248 115.493 770.25 115 770.25C114.507 770.25 114.213 770.248 114.003 770.22C113.906 770.207 113.858 770.192 113.836 770.183C113.831 770.181 113.828 770.179 113.826 770.178L113.823 770.177Z" fill="#747474"/>
<path fill-rule="evenodd" clip-rule="evenodd" d="M107.955 760.25C107.522 760.25 107.126 760.25 106.803 760.293C106.447 760.341 106.072 760.454 105.763 760.763C105.454 761.072 105.341 761.447 105.293 761.803C105.25 762.126 105.25 762.522 105.25 762.955V769.045C105.25 769.478 105.25 769.874 105.293 770.197C105.341 770.553 105.454 770.928 105.763 771.237C106.072 771.546 106.447 771.659 106.803 771.707C107.126 771.75 107.522 771.75 107.955 771.75H108.045C108.478 771.75 108.874 771.75 109.197 771.707C109.553 771.659 109.928 771.546 110.237 771.237C110.546 770.928 110.659 770.553 110.707 770.197C110.75 769.874 110.75 769.478 110.75 769.045V762.955C110.75 762.522 110.75 762.126 110.707 761.803C110.659 761.447 110.546 761.072 110.237 760.763C109.928 760.454 109.553 760.341 109.197 760.293C108.874 760.25 108.478 760.25 108.045 760.25H107.955ZM106.826 761.822L106.823 761.823L106.822 761.826C106.821 761.828 106.819 761.831 106.817 761.836C106.808 761.858 106.793 761.906 106.78 762.003C106.752 762.213 106.75 762.507 106.75 763V769C106.75 769.493 106.752 769.787 106.78 769.997C106.793 770.094 106.808 770.142 106.817 770.164C106.819 770.169 106.821 770.172 106.822 770.174L106.823 770.176L106.826 770.178C106.828 770.179 106.831 770.181 106.836 770.183C106.858 770.192 106.906 770.207 107.003 770.22C107.213 770.248 107.507 770.25 108 770.25C108.493 770.25 108.787 770.248 108.997 770.22C109.094 770.207 109.142 770.192 109.164 770.183C109.169 770.181 109.172 770.179 109.174 770.178L109.177 770.177L109.178 770.174L109.18 770.17L109.183 770.164C109.192 770.142 109.207 770.094 109.22 769.997C109.248 769.787 109.25 769.493 109.25 769V763C109.25 762.507 109.248 762.213 109.22 762.003C109.207 761.906 109.192 761.858 109.183 761.836C109.181 761.831 109.179 761.828 109.178 761.826L109.177 761.823L109.174 761.822C109.172 761.821 109.169 761.819 109.164 761.817C109.142 761.808 109.094 761.793 108.997 761.78C108.787 761.752 108.493 761.75 108 761.75C107.507 761.75 107.213 761.752 107.003 761.78C106.906 761.793 106.858 761.808 106.836 761.817C106.831 761.819 106.828 761.821 106.826 761.822Z" fill="#747474"/>
<path d="M106 773.25C105.586 773.25 105.25 773.586 105.25 774C105.25 774.414 105.586 774.75 106 774.75H124C124.414 774.75 124.75 774.414 124.75 774C124.75 773.586 124.414 773.25 124 773.25H106Z" fill="#747474"/>
<path d="M218.5 749.5C218.5 766.053 204.636 779.5 187.5 779.5C170.364 779.5 156.5 766.053 156.5 749.5C156.5 732.947 170.364 719.5 187.5 719.5C204.636 719.5 218.5 732.947 218.5 749.5Z" fill="#102466" stroke="white"/>
<path fill-rule="evenodd" clip-rule="evenodd" d="M183.598 742.487C183.865 741.177 185.031 740.25 186.366 740.25H189.634C190.969 740.25 192.135 741.177 192.402 742.487C192.463 742.789 192.737 743.011 193.022 743.011H193.038L193.055 743.012C194.458 743.073 195.536 743.245 196.436 743.836C197.003 744.208 197.491 744.686 197.871 745.245C198.344 745.939 198.552 746.737 198.652 747.701C198.75 748.644 198.75 749.825 198.75 751.321V751.406C198.75 752.902 198.75 754.083 198.652 755.026C198.552 755.99 198.344 756.788 197.871 757.483C197.491 758.041 197.003 758.52 196.436 758.892C195.733 759.353 194.926 759.557 193.948 759.654C192.99 759.75 191.789 759.75 190.263 759.75H185.737C184.211 759.75 183.01 759.75 182.052 759.654C181.074 759.557 180.267 759.353 179.564 758.892C178.997 758.52 178.509 758.041 178.129 757.483C177.656 756.788 177.448 755.99 177.348 755.026C177.25 754.083 177.25 752.902 177.25 751.406V751.321C177.25 749.825 177.25 748.644 177.348 747.701C177.448 746.737 177.656 745.939 178.129 745.245C178.509 744.686 178.997 744.208 179.564 743.836C180.464 743.245 181.542 743.073 182.945 743.012L182.962 743.011H182.978C183.263 743.011 183.537 742.789 183.598 742.487ZM186.366 741.75C185.725 741.75 185.189 742.193 185.068 742.786C184.873 743.747 184.021 744.502 182.996 744.511C181.648 744.571 180.925 744.736 180.387 745.09C179.983 745.355 179.638 745.694 179.369 746.089C179.093 746.494 178.927 747.013 178.84 747.856C178.751 748.712 178.75 749.816 178.75 751.364C178.75 752.912 178.751 754.015 178.84 754.871C178.927 755.714 179.093 756.233 179.369 756.639C179.638 757.033 179.983 757.373 180.387 757.637C180.804 757.911 181.338 758.076 182.201 758.162C183.075 758.249 184.202 758.25 185.778 758.25H190.222C191.798 758.25 192.925 758.249 193.799 758.162C194.662 758.076 195.196 757.911 195.613 757.637C196.017 757.373 196.362 757.033 196.631 756.639C196.907 756.233 197.073 755.714 197.16 754.871C197.249 754.015 197.25 752.912 197.25 751.364C197.25 749.816 197.249 748.712 197.16 747.856C197.073 747.013 196.907 746.494 196.631 746.089C196.362 745.694 196.017 745.355 195.613 745.09C195.075 744.736 194.352 744.571 193.004 744.511C191.979 744.502 191.127 743.747 190.932 742.786C190.811 742.193 190.275 741.75 189.634 741.75H186.366ZM188 748.75C186.757 748.75 185.75 749.757 185.75 751C185.75 752.243 186.757 753.25 188 753.25C189.243 753.25 190.25 752.243 190.25 751C190.25 749.757 189.243 748.75 188 748.75ZM184.25 751C184.25 748.929 185.929 747.25 188 747.25C190.071 747.25 191.75 748.929 191.75 751C191.75 753.071 190.071 754.75 188 754.75C185.929 754.75 184.25 753.071 184.25 751ZM193.25 748C193.25 747.586 193.586 747.25 194 747.25H195C195.414 747.25 195.75 747.586 195.75 748C195.75 748.414 195.414 748.75 195 748.75H194C193.586 748.75 193.25 748.414 193.25 748Z" fill="white"/>
<path fill-rule="evenodd" clip-rule="evenodd" d="M257.465 754.821C259.087 754.06 260.913 754.06 262.536 754.821L269.227 757.958C270.279 758.451 270.75 759.522 270.75 760.5C270.75 761.478 270.279 762.549 269.227 763.042L267.75 763.735V768.625C267.75 769.878 267.122 771.088 265.978 771.722C265.226 772.138 264.238 772.639 263.199 773.038C262.171 773.432 261.034 773.75 260 773.75C258.966 773.75 257.829 773.432 256.801 773.038C255.762 772.639 254.774 772.138 254.022 771.722C252.878 771.088 252.25 769.878 252.25 768.625V763.5C252.25 763.459 252.253 763.418 252.26 763.378C252.236 763.234 252.254 763.082 252.321 762.94C252.497 762.565 252.944 762.403 253.319 762.579L258.101 764.821C259.321 765.393 260.68 765.393 261.899 764.821L268.59 761.684C268.993 761.495 269.25 761.044 269.25 760.5C269.25 759.956 268.993 759.505 268.59 759.316L261.899 756.179C260.68 755.607 259.321 755.607 258.101 756.179L251.41 759.316C251.035 759.491 250.589 759.33 250.413 758.955C250.237 758.58 250.398 758.133 250.773 757.958L257.465 754.821ZM253.75 764.438V768.625C253.75 769.388 254.129 770.066 254.749 770.409C255.465 770.806 256.387 771.272 257.338 771.637C258.302 772.007 259.238 772.25 260 772.25C260.762 772.25 261.698 772.007 262.662 771.637C263.613 771.272 264.535 770.806 265.251 770.409C265.871 770.066 266.25 769.388 266.25 768.625V764.438L262.536 766.179C260.913 766.94 259.087 766.94 257.465 766.179L253.75 764.438Z" fill="#747474"/>
<path d="M254.689 759.705C254.853 760.085 254.676 760.526 254.295 760.689L253.22 761.15C252.617 761.409 252.22 761.58 251.928 761.744C251.652 761.899 251.532 762.015 251.456 762.131C251.38 762.246 251.321 762.402 251.287 762.716C251.251 763.049 251.25 763.482 251.25 764.138V767C251.25 767.414 250.914 767.75 250.5 767.75C250.086 767.75 249.75 767.414 249.75 767V764.099C249.75 763.492 249.75 762.978 249.796 762.555C249.844 762.105 249.95 761.691 250.204 761.305C250.459 760.919 250.798 760.659 251.193 760.437C251.563 760.228 252.036 760.026 252.593 759.787L253.705 759.311C254.085 759.147 254.526 759.324 254.689 759.705Z" fill="#747474"/>
<path fill-rule="evenodd" clip-rule="evenodd" d="M326 760.25C323.929 760.25 322.25 761.929 322.25 764C322.25 766.071 323.929 767.75 326 767.75C328.071 767.75 329.75 766.071 329.75 764C329.75 761.929 328.071 760.25 326 760.25ZM323.75 764C323.75 762.757 324.757 761.75 326 761.75C327.243 761.75 328.25 762.757 328.25 764C328.25 765.243 327.243 766.25 326 766.25C324.757 766.25 323.75 765.243 323.75 764Z" fill="#747474"/>
<path fill-rule="evenodd" clip-rule="evenodd" d="M325.975 753.25C325.53 753.25 325.159 753.25 324.855 753.271C324.538 753.292 324.238 753.339 323.948 753.459C323.274 753.738 322.738 754.274 322.459 754.948C322.314 755.298 322.275 755.668 322.26 756.07C322.248 756.393 322.085 756.663 321.844 756.801C321.603 756.94 321.288 756.947 321.003 756.796C320.647 756.608 320.307 756.457 319.931 756.407C319.208 756.312 318.476 756.508 317.898 756.952C317.648 757.144 317.458 757.38 317.281 757.643C317.111 757.897 316.925 758.218 316.703 758.603L316.678 758.647C316.455 759.032 316.27 759.353 316.136 759.627C315.996 759.913 315.886 760.195 315.845 760.507C315.75 761.23 315.946 761.961 316.39 762.54C316.621 762.841 316.922 763.06 317.262 763.274C317.536 763.446 317.688 763.722 317.688 764C317.688 764.278 317.536 764.554 317.262 764.726C316.922 764.94 316.621 765.159 316.39 765.46C315.946 766.039 315.75 766.77 315.845 767.493C315.886 767.805 315.996 768.087 316.136 768.373C316.27 768.647 316.455 768.968 316.678 769.353L316.703 769.397C316.925 769.782 317.111 770.103 317.281 770.357C317.458 770.62 317.648 770.856 317.898 771.048C318.476 771.492 319.208 771.688 319.931 771.592C320.307 771.543 320.647 771.392 321.003 771.204C321.288 771.053 321.603 771.06 321.844 771.199C322.085 771.337 322.248 771.607 322.26 771.93C322.275 772.332 322.314 772.702 322.459 773.052C322.738 773.726 323.274 774.262 323.948 774.541C324.238 774.661 324.538 774.708 324.855 774.729C325.159 774.75 325.53 774.75 325.975 774.75H326.025C326.47 774.75 326.841 774.75 327.145 774.729C327.462 774.708 327.762 774.661 328.052 774.541C328.726 774.262 329.262 773.726 329.541 773.052C329.686 772.702 329.725 772.332 329.74 771.93C329.752 771.607 329.915 771.337 330.156 771.199C330.397 771.06 330.712 771.053 330.997 771.204C331.353 771.392 331.693 771.543 332.069 771.592C332.792 771.688 333.524 771.492 334.102 771.048C334.352 770.856 334.542 770.62 334.719 770.356C334.889 770.103 335.075 769.782 335.297 769.397L335.322 769.353C335.544 768.968 335.73 768.647 335.864 768.373C336.004 768.087 336.114 767.804 336.155 767.493C336.25 766.77 336.054 766.038 335.61 765.46C335.379 765.159 335.078 764.94 334.738 764.726C334.464 764.554 334.312 764.278 334.312 764C334.312 763.722 334.464 763.446 334.738 763.274C335.078 763.06 335.379 762.841 335.61 762.54C336.054 761.961 336.25 761.23 336.155 760.507C336.114 760.195 336.004 759.913 335.864 759.627C335.73 759.353 335.545 759.032 335.322 758.647L335.297 758.603C335.075 758.218 334.889 757.897 334.719 757.643C334.542 757.38 334.352 757.144 334.102 756.952C333.524 756.508 332.792 756.312 332.069 756.408C331.693 756.457 331.353 756.608 330.997 756.796C330.712 756.947 330.397 756.94 330.156 756.801C329.915 756.663 329.752 756.393 329.74 756.07C329.725 755.668 329.686 755.298 329.541 754.948C329.262 754.274 328.726 753.738 328.052 753.459C327.762 753.339 327.462 753.292 327.145 753.271C326.841 753.25 326.47 753.25 326.025 753.25H325.975ZM324.522 754.845C324.599 754.813 324.716 754.784 324.957 754.767C325.204 754.75 325.524 754.75 326 754.75C326.476 754.75 326.796 754.75 327.043 754.767C327.284 754.784 327.401 754.813 327.478 754.845C327.785 754.972 328.028 755.215 328.155 755.522C328.195 755.618 328.228 755.769 328.241 756.126C328.271 756.918 328.68 757.681 329.406 758.1C330.132 758.52 330.997 758.492 331.698 758.122C332.014 757.955 332.161 757.908 332.265 757.895C332.594 757.851 332.926 757.94 333.189 758.142C333.255 758.193 333.34 758.28 333.474 758.48C333.612 758.686 333.773 758.963 334.011 759.375C334.249 759.787 334.408 760.064 334.517 760.287C334.624 760.504 334.657 760.62 334.668 760.703C334.711 761.032 334.622 761.364 334.42 761.627C334.356 761.71 334.242 761.814 333.94 762.004C333.268 762.426 332.812 763.162 332.812 764C332.812 764.838 333.268 765.574 333.94 765.996C334.242 766.186 334.356 766.29 334.42 766.373C334.622 766.636 334.711 766.968 334.667 767.297C334.657 767.38 334.623 767.496 334.517 767.713C334.408 767.936 334.249 768.213 334.011 768.625C333.773 769.037 333.612 769.314 333.474 769.52C333.339 769.72 333.255 769.807 333.189 769.858C332.926 770.059 332.594 770.149 332.265 770.105C332.161 770.092 332.014 770.045 331.698 769.878C330.997 769.508 330.132 769.48 329.406 769.9C328.68 770.319 328.271 771.082 328.241 771.874C328.228 772.231 328.195 772.382 328.155 772.478C328.028 772.785 327.785 773.028 327.478 773.155C327.401 773.187 327.284 773.216 327.043 773.233C326.796 773.25 326.476 773.25 326 773.25C325.524 773.25 325.204 773.25 324.957 773.233C324.716 773.216 324.599 773.187 324.522 773.155C324.215 773.028 323.972 772.785 323.845 772.478C323.805 772.382 323.772 772.231 323.759 771.874C323.729 771.082 323.32 770.319 322.594 769.9C321.868 769.48 321.003 769.508 320.302 769.878C319.986 770.045 319.839 770.092 319.735 770.105C319.406 770.149 319.074 770.06 318.811 769.858C318.745 769.807 318.66 769.72 318.526 769.52C318.388 769.314 318.227 769.037 317.989 768.625C317.751 768.213 317.592 767.936 317.483 767.713C317.376 767.496 317.343 767.38 317.332 767.297C317.289 766.968 317.378 766.636 317.58 766.373C317.644 766.29 317.758 766.186 318.06 765.996C318.732 765.574 319.188 764.838 319.188 764C319.188 763.162 318.732 762.426 318.06 762.004C317.758 761.814 317.644 761.71 317.58 761.627C317.378 761.364 317.289 761.031 317.333 760.703C317.343 760.62 317.377 760.504 317.483 760.287C317.592 760.064 317.751 759.787 317.989 759.375C318.227 758.963 318.388 758.686 318.526 758.48C318.661 758.28 318.745 758.193 318.811 758.142C319.074 757.94 319.406 757.851 319.735 757.895C319.839 757.908 319.986 757.955 320.302 758.122C321.003 758.492 321.868 758.52 322.594 758.1C323.32 757.681 323.729 756.918 323.759 756.126C323.772 755.769 323.805 755.618 323.845 755.522C323.972 755.215 324.215 754.972 324.522 754.845Z" fill="#747474"/>
</g>
<defs>
<clipPath id="clip0_37_406">
<rect width="375" height="812" fill="white"/>
</clipPath>
</defs>
</svg>
