<svg width="375" height="812" viewBox="0 0 375 812" fill="none" xmlns="http://www.w3.org/2000/svg">
<g clip-path="url(#clip0_13_11459)">
<rect width="375" height="812" fill="#F4F3F1"/>
<path d="M0 0H375V260C375 260 272.897 199.089 183.5 200.5C96.6988 201.87 0 260 0 260V0Z" fill="#102466"/>
<g clip-path="url(#clip1_13_11459)">
<path opacity="0.38" fill-rule="evenodd" clip-rule="evenodd" d="M355.5 17.5H338.5C337.119 17.5 336 18.6193 336 20V26.5C336 27.8807 337.119 29 338.5 29H355.5C356.881 29 358 27.8807 358 26.5V20C358 18.6193 356.881 17.5 355.5 17.5ZM337 20C337 19.1716 337.672 18.5 338.5 18.5H355.5C356.328 18.5 357 19.1716 357 20V26.5C357 27.3284 356.328 28 355.5 28H338.5C337.672 28 337 27.3284 337 26.5V20ZM360.25 23C360.25 22.0746 359.747 21.2667 359 20.8345V25.1655C359.747 24.7333 360.25 23.9254 360.25 23Z" fill="white"/>
<path fill-rule="evenodd" clip-rule="evenodd" d="M339 19.5H355C355.552 19.5 356 19.9477 356 20.5V26C356 26.5523 355.552 27 355 27H339C338.448 27 338 26.5523 338 26V20.5C338 19.9477 338.448 19.5 339 19.5Z" fill="white"/>
<path fill-rule="evenodd" clip-rule="evenodd" d="M330.872 20.6988L330.866 20.464C328.806 18.6212 326.161 17.605 323.381 17.605C320.593 17.605 317.94 18.627 315.879 20.4792L315.872 20.7138L317.092 21.9352L317.312 21.9423C318.99 20.4653 321.132 19.6524 323.381 19.6524C325.622 19.6524 327.757 20.4597 329.433 21.9277L329.653 21.9203L330.872 20.6988ZM328.193 23.1343L328.204 23.3723L326.981 24.5974L326.766 24.6094C325.805 23.8415 324.62 23.4241 323.381 23.4241C322.134 23.4241 320.942 23.8466 319.979 24.6231L319.763 24.6115L318.541 23.3868L318.551 23.1492C319.9 22.0039 321.599 21.3766 323.381 21.3766C325.154 21.3766 326.847 21.9983 328.193 23.1343ZM323.479 28.105H323.251L321.222 26.0728C321.151 26.0019 321.161 25.8842 321.243 25.8264C321.867 25.385 322.609 25.1482 323.381 25.1482C324.144 25.1482 324.879 25.38 325.499 25.8128C325.581 25.8703 325.592 25.9885 325.521 26.0597L323.479 28.105Z" fill="white"/>
<path fill-rule="evenodd" clip-rule="evenodd" d="M308.75 17.75C308.198 17.75 307.75 18.1977 307.75 18.75V27.25C307.75 27.8023 308.198 28.25 308.75 28.25H309.75C310.302 28.25 310.75 27.8023 310.75 27.25V18.75C310.75 18.1977 310.302 17.75 309.75 17.75H308.75ZM303 21C303 20.4477 303.448 20 304 20H305C305.552 20 306 20.4477 306 21V27.25C306 27.8023 305.552 28.25 305 28.25H304C303.448 28.25 303 27.8023 303 27.25V21ZM299.25 22.5C298.698 22.5 298.25 22.9477 298.25 23.5V27.25C298.25 27.8023 298.698 28.25 299.25 28.25H300.25C300.802 28.25 301.25 27.8023 301.25 27.25V23.5C301.25 22.9477 300.802 22.5 300.25 22.5H299.25ZM294.5 24.5C293.948 24.5 293.5 24.9477 293.5 25.5V27.25C293.5 27.8023 293.948 28.25 294.5 28.25H295.5C296.052 28.25 296.5 27.8023 296.5 27.25V25.5C296.5 24.9477 296.052 24.5 295.5 24.5H294.5Z" fill="white"/>
<path fill-rule="evenodd" clip-rule="evenodd" d="M30.6641 28.2563C28.7305 28.2563 27.2583 27.1138 26.9434 25.3779H28.8257C29.0674 26.1763 29.7705 26.6743 30.6787 26.6743C32.2241 26.6743 33.1396 25.2314 33.1396 22.8145H33.0151C32.5171 23.8179 31.5137 24.3965 30.2759 24.3965C28.2617 24.3965 26.7969 22.917 26.7969 20.8809C26.7969 18.7129 28.4229 17.1675 30.7227 17.1675C32.2681 17.1675 33.4912 17.8999 34.2017 19.2549C34.6924 20.1265 34.9487 21.2544 34.9487 22.5947C34.9487 26.1543 33.3521 28.2563 30.6641 28.2563ZM30.73 22.895C31.9385 22.895 32.8247 22.0308 32.8247 20.8516C32.8247 19.6577 31.9165 18.7422 30.7373 18.7422C29.5581 18.7422 28.6499 19.6431 28.6499 20.8223C28.6499 22.0308 29.5142 22.895 30.73 22.895ZM38.0266 26.8794C37.3381 26.8794 36.8547 26.3813 36.8547 25.7222C36.8547 25.0557 37.3381 24.5649 38.0266 24.5649C38.7224 24.5649 39.1985 25.0557 39.1985 25.7222C39.1985 26.3813 38.7224 26.8794 38.0266 26.8794ZM38.0266 21.3862C37.3381 21.3862 36.8547 20.8955 36.8547 20.2363C36.8547 19.5698 37.3381 19.0791 38.0266 19.0791C38.7224 19.0791 39.1985 19.5698 39.1985 20.2363C39.1985 20.8955 38.7224 21.3862 38.0266 21.3862ZM46.2607 28V26.0298H41.0971V24.3452C42.0493 22.5947 43.5361 20.2437 45.4038 17.4312H48.0698V24.4331H49.498V26.0298H48.0698V28H46.2607ZM42.8476 24.3672V24.4771H46.29V18.9692H46.1875C45.1767 20.4634 44.0781 22.1992 42.8476 24.3672ZM53.5866 28V19.3354H53.4621L50.8327 21.1812V19.3647L53.594 17.4312H55.4763V28H53.5866Z" fill="white"/>
</g>
<g clip-path="url(#clip2_13_11459)">
<path opacity="0.38" fill-rule="evenodd" clip-rule="evenodd" d="M355.5 17.5H338.5C337.119 17.5 336 18.6193 336 20V26.5C336 27.8807 337.119 29 338.5 29H355.5C356.881 29 358 27.8807 358 26.5V20C358 18.6193 356.881 17.5 355.5 17.5ZM337 20C337 19.1716 337.672 18.5 338.5 18.5H355.5C356.328 18.5 357 19.1716 357 20V26.5C357 27.3284 356.328 28 355.5 28H338.5C337.672 28 337 27.3284 337 26.5V20ZM360.25 23C360.25 22.0746 359.747 21.2667 359 20.8345V25.1655C359.747 24.7333 360.25 23.9254 360.25 23Z" fill="white"/>
<path fill-rule="evenodd" clip-rule="evenodd" d="M339 19.5H355C355.552 19.5 356 19.9477 356 20.5V26C356 26.5523 355.552 27 355 27H339C338.448 27 338 26.5523 338 26V20.5C338 19.9477 338.448 19.5 339 19.5Z" fill="white"/>
<path fill-rule="evenodd" clip-rule="evenodd" d="M330.872 20.6988L330.866 20.464C328.806 18.6212 326.161 17.605 323.381 17.605C320.593 17.605 317.94 18.627 315.879 20.4792L315.872 20.7138L317.092 21.9352L317.312 21.9423C318.99 20.4653 321.132 19.6524 323.381 19.6524C325.622 19.6524 327.757 20.4597 329.433 21.9277L329.653 21.9203L330.872 20.6988ZM328.193 23.1343L328.204 23.3723L326.981 24.5974L326.766 24.6094C325.805 23.8415 324.62 23.4241 323.381 23.4241C322.134 23.4241 320.942 23.8466 319.979 24.6231L319.763 24.6115L318.541 23.3868L318.551 23.1492C319.9 22.0039 321.599 21.3766 323.381 21.3766C325.154 21.3766 326.847 21.9983 328.193 23.1343ZM323.479 28.105H323.251L321.222 26.0728C321.151 26.0019 321.161 25.8842 321.243 25.8264C321.867 25.385 322.609 25.1482 323.381 25.1482C324.144 25.1482 324.879 25.38 325.499 25.8128C325.581 25.8703 325.592 25.9885 325.521 26.0597L323.479 28.105Z" fill="white"/>
<path fill-rule="evenodd" clip-rule="evenodd" d="M308.75 17.75C308.198 17.75 307.75 18.1977 307.75 18.75V27.25C307.75 27.8023 308.198 28.25 308.75 28.25H309.75C310.302 28.25 310.75 27.8023 310.75 27.25V18.75C310.75 18.1977 310.302 17.75 309.75 17.75H308.75ZM303 21C303 20.4477 303.448 20 304 20H305C305.552 20 306 20.4477 306 21V27.25C306 27.8023 305.552 28.25 305 28.25H304C303.448 28.25 303 27.8023 303 27.25V21ZM299.25 22.5C298.698 22.5 298.25 22.9477 298.25 23.5V27.25C298.25 27.8023 298.698 28.25 299.25 28.25H300.25C300.802 28.25 301.25 27.8023 301.25 27.25V23.5C301.25 22.9477 300.802 22.5 300.25 22.5H299.25ZM294.5 24.5C293.948 24.5 293.5 24.9477 293.5 25.5V27.25C293.5 27.8023 293.948 28.25 294.5 28.25H295.5C296.052 28.25 296.5 27.8023 296.5 27.25V25.5C296.5 24.9477 296.052 24.5 295.5 24.5H294.5Z" fill="white"/>
<path fill-rule="evenodd" clip-rule="evenodd" d="M30.6641 28.2563C28.7305 28.2563 27.2583 27.1138 26.9434 25.3779H28.8257C29.0674 26.1763 29.7705 26.6743 30.6787 26.6743C32.2241 26.6743 33.1396 25.2314 33.1396 22.8145H33.0151C32.5171 23.8179 31.5137 24.3965 30.2759 24.3965C28.2617 24.3965 26.7969 22.917 26.7969 20.8809C26.7969 18.7129 28.4229 17.1675 30.7227 17.1675C32.2681 17.1675 33.4912 17.8999 34.2017 19.2549C34.6924 20.1265 34.9487 21.2544 34.9487 22.5947C34.9487 26.1543 33.3521 28.2563 30.6641 28.2563ZM30.73 22.895C31.9385 22.895 32.8247 22.0308 32.8247 20.8516C32.8247 19.6577 31.9165 18.7422 30.7373 18.7422C29.5581 18.7422 28.6499 19.6431 28.6499 20.8223C28.6499 22.0308 29.5142 22.895 30.73 22.895ZM38.0266 26.8794C37.3381 26.8794 36.8547 26.3813 36.8547 25.7222C36.8547 25.0557 37.3381 24.5649 38.0266 24.5649C38.7224 24.5649 39.1985 25.0557 39.1985 25.7222C39.1985 26.3813 38.7224 26.8794 38.0266 26.8794ZM38.0266 21.3862C37.3381 21.3862 36.8547 20.8955 36.8547 20.2363C36.8547 19.5698 37.3381 19.0791 38.0266 19.0791C38.7224 19.0791 39.1985 19.5698 39.1985 20.2363C39.1985 20.8955 38.7224 21.3862 38.0266 21.3862ZM46.2607 28V26.0298H41.0971V24.3452C42.0493 22.5947 43.5361 20.2437 45.4038 17.4312H48.0698V24.4331H49.498V26.0298H48.0698V28H46.2607ZM42.8476 24.3672V24.4771H46.29V18.9692H46.1875C45.1767 20.4634 44.0781 22.1992 42.8476 24.3672ZM53.5866 28V19.3354H53.4621L50.8327 21.1812V19.3647L53.594 17.4312H55.4763V28H53.5866Z" fill="white"/>
</g>
<path d="M33.9453 84.668H38.3398C38.1992 86.3438 37.7305 87.8379 36.9336 89.1504C36.1367 90.4512 35.0176 91.4766 33.5762 92.2266C32.1348 92.9766 30.3828 93.3516 28.3203 93.3516C26.7383 93.3516 25.3145 93.0703 24.0488 92.5078C22.7832 91.9336 21.6992 91.125 20.7969 90.082C19.8945 89.0273 19.2031 87.7559 18.7227 86.2676C18.2539 84.7793 18.0195 83.1152 18.0195 81.2754V79.1484C18.0195 77.3086 18.2598 75.6445 18.7402 74.1562C19.2324 72.668 19.9355 71.3965 20.8496 70.3418C21.7637 69.2754 22.8594 68.4609 24.1367 67.8984C25.4258 67.3359 26.873 67.0547 28.4785 67.0547C30.5176 67.0547 32.2402 67.4297 33.6465 68.1797C35.0527 68.9297 36.1426 69.9668 36.916 71.291C37.7012 72.6152 38.1816 74.1328 38.3574 75.8438H33.9629C33.8457 74.7422 33.5879 73.7988 33.1895 73.0137C32.8027 72.2285 32.2285 71.6309 31.4668 71.2207C30.7051 70.7988 29.709 70.5879 28.4785 70.5879C27.4707 70.5879 26.5918 70.7754 25.8418 71.1504C25.0918 71.5254 24.4648 72.0762 23.9609 72.8027C23.457 73.5293 23.0762 74.4258 22.8184 75.4922C22.5723 76.5469 22.4492 77.7539 22.4492 79.1133V81.2754C22.4492 82.5645 22.5605 83.7363 22.7832 84.791C23.0176 85.834 23.3691 86.7305 23.8379 87.4805C24.3184 88.2305 24.9277 88.8105 25.666 89.2207C26.4043 89.6309 27.2891 89.8359 28.3203 89.8359C29.5742 89.8359 30.5879 89.6367 31.3613 89.2383C32.1465 88.8398 32.7383 88.2598 33.1367 87.498C33.5469 86.7246 33.8164 85.7812 33.9453 84.668ZM41.1172 83.7012V83.2969C41.1172 81.9258 41.3164 80.6543 41.7148 79.4824C42.1133 78.2988 42.6875 77.2734 43.4375 76.4062C44.1992 75.5273 45.125 74.8477 46.2148 74.3672C47.3164 73.875 48.5586 73.6289 49.9414 73.6289C51.3359 73.6289 52.5781 73.875 53.668 74.3672C54.7695 74.8477 55.7012 75.5273 56.4629 76.4062C57.2246 77.2734 57.8047 78.2988 58.2031 79.4824C58.6016 80.6543 58.8008 81.9258 58.8008 83.2969V83.7012C58.8008 85.0723 58.6016 86.3438 58.2031 87.5156C57.8047 88.6875 57.2246 89.7129 56.4629 90.5918C55.7012 91.459 54.7754 92.1387 53.6855 92.6309C52.5957 93.1113 51.3594 93.3516 49.9766 93.3516C48.582 93.3516 47.334 93.1113 46.2324 92.6309C45.1426 92.1387 44.2168 91.459 43.4551 90.5918C42.6934 89.7129 42.1133 88.6875 41.7148 87.5156C41.3164 86.3438 41.1172 85.0723 41.1172 83.7012ZM45.3535 83.2969V83.7012C45.3535 84.5566 45.4414 85.3652 45.6172 86.127C45.793 86.8887 46.0684 87.5566 46.4434 88.1309C46.8184 88.7051 47.2988 89.1562 47.8848 89.4844C48.4707 89.8125 49.168 89.9766 49.9766 89.9766C50.7617 89.9766 51.4414 89.8125 52.0156 89.4844C52.6016 89.1562 53.082 88.7051 53.457 88.1309C53.832 87.5566 54.1074 86.8887 54.2832 86.127C54.4707 85.3652 54.5645 84.5566 54.5645 83.7012V83.2969C54.5645 82.4531 54.4707 81.6562 54.2832 80.9062C54.1074 80.1445 53.8262 79.4707 53.4395 78.8848C53.0645 78.2988 52.584 77.8418 51.998 77.5137C51.4238 77.1738 50.7383 77.0039 49.9414 77.0039C49.1445 77.0039 48.4531 77.1738 47.8672 77.5137C47.293 77.8418 46.8184 78.2988 46.4434 78.8848C46.0684 79.4707 45.793 80.1445 45.6172 80.9062C45.4414 81.6562 45.3535 82.4531 45.3535 83.2969ZM65.1992 73.9805L68.8203 80.291L72.5117 73.9805H77.1699L71.4043 83.3145L77.3984 93H72.7402L68.873 86.4258L65.0059 93H60.3301L66.3066 83.3145L60.5586 73.9805H65.1992ZM84.3242 77.6367V100.312H80.0879V73.9805H83.9902L84.3242 77.6367ZM96.7168 83.3145V83.6836C96.7168 85.0664 96.5527 86.3496 96.2246 87.5332C95.9082 88.7051 95.4336 89.7305 94.8008 90.6094C94.1797 91.4766 93.4121 92.1504 92.498 92.6309C91.584 93.1113 90.5293 93.3516 89.334 93.3516C88.1504 93.3516 87.1133 93.1348 86.2227 92.7012C85.3438 92.2559 84.5996 91.6289 83.9902 90.8203C83.3809 90.0117 82.8887 89.0625 82.5137 87.9727C82.1504 86.8711 81.8926 85.6641 81.7402 84.3516V82.9277C81.8926 81.5332 82.1504 80.2676 82.5137 79.1309C82.8887 77.9941 83.3809 77.0156 83.9902 76.1953C84.5996 75.375 85.3438 74.7422 86.2227 74.2969C87.1016 73.8516 88.127 73.6289 89.2988 73.6289C90.4941 73.6289 91.5547 73.8633 92.4805 74.332C93.4062 74.7891 94.1855 75.4453 94.8184 76.3008C95.4512 77.1445 95.9258 78.1641 96.2422 79.3594C96.5586 80.543 96.7168 81.8613 96.7168 83.3145ZM92.4805 83.6836V83.3145C92.4805 82.4355 92.3984 81.6211 92.2344 80.8711C92.0703 80.1094 91.8125 79.4414 91.4609 78.8672C91.1094 78.293 90.6582 77.8477 90.1074 77.5312C89.5684 77.2031 88.918 77.0391 88.1562 77.0391C87.4062 77.0391 86.7617 77.168 86.2227 77.4258C85.6836 77.6719 85.2324 78.0176 84.8691 78.4629C84.5059 78.9082 84.2246 79.4297 84.0254 80.0273C83.8262 80.6133 83.6855 81.252 83.6035 81.9434V85.3535C83.7441 86.1973 83.9844 86.9707 84.3242 87.6738C84.6641 88.377 85.1445 88.9395 85.7656 89.3613C86.3984 89.7715 87.207 89.9766 88.1914 89.9766C88.9531 89.9766 89.6035 89.8125 90.1426 89.4844C90.6816 89.1562 91.1211 88.7051 91.4609 88.1309C91.8125 87.5449 92.0703 86.8711 92.2344 86.1094C92.3984 85.3477 92.4805 84.5391 92.4805 83.6836ZM111.043 89.1855V80.1152C111.043 79.4355 110.92 78.8496 110.674 78.3574C110.428 77.8652 110.053 77.4844 109.549 77.2148C109.057 76.9453 108.436 76.8105 107.686 76.8105C106.994 76.8105 106.396 76.9277 105.893 77.1621C105.389 77.3965 104.996 77.7129 104.715 78.1113C104.434 78.5098 104.293 78.9609 104.293 79.4648H100.074C100.074 78.7148 100.256 77.9883 100.619 77.2852C100.982 76.582 101.51 75.9551 102.201 75.4043C102.893 74.8535 103.719 74.4199 104.68 74.1035C105.641 73.7871 106.719 73.6289 107.914 73.6289C109.344 73.6289 110.609 73.8691 111.711 74.3496C112.824 74.8301 113.697 75.5566 114.33 76.5293C114.975 77.4902 115.297 78.6973 115.297 80.1504V88.6055C115.297 89.4727 115.355 90.252 115.473 90.9434C115.602 91.623 115.783 92.2148 116.018 92.7188V93H111.676C111.477 92.543 111.318 91.9629 111.201 91.2598C111.096 90.5449 111.043 89.8535 111.043 89.1855ZM111.658 81.4336L111.693 84.0527H108.652C107.867 84.0527 107.176 84.1289 106.578 84.2812C105.98 84.4219 105.482 84.6328 105.084 84.9141C104.686 85.1953 104.387 85.5352 104.188 85.9336C103.988 86.332 103.889 86.7832 103.889 87.2871C103.889 87.791 104.006 88.2539 104.24 88.6758C104.475 89.0859 104.814 89.4082 105.26 89.6426C105.717 89.877 106.268 89.9941 106.912 89.9941C107.779 89.9941 108.535 89.8184 109.18 89.4668C109.836 89.1035 110.352 88.6641 110.727 88.1484C111.102 87.6211 111.301 87.123 111.324 86.6543L112.695 88.5352C112.555 89.0156 112.314 89.5312 111.975 90.082C111.635 90.6328 111.189 91.1602 110.639 91.6641C110.1 92.1562 109.449 92.5605 108.688 92.877C107.938 93.1934 107.07 93.3516 106.086 93.3516C104.844 93.3516 103.736 93.1055 102.764 92.6133C101.791 92.1094 101.029 91.4355 100.479 90.5918C99.9277 89.7363 99.6523 88.7695 99.6523 87.6914C99.6523 86.6836 99.8398 85.793 100.215 85.0195C100.602 84.2344 101.164 83.5781 101.902 83.0508C102.652 82.5234 103.566 82.125 104.645 81.8555C105.723 81.5742 106.953 81.4336 108.336 81.4336H111.658ZM132.717 81.9258V85.2656H122.873V81.9258H132.717ZM124.104 73.9805V93H119.867V73.9805H124.104ZM135.775 73.9805V93H131.539V73.9805H135.775ZM148.678 93.3516C147.271 93.3516 146 93.123 144.863 92.666C143.738 92.1973 142.777 91.5469 141.98 90.7148C141.195 89.8828 140.592 88.9043 140.17 87.7793C139.748 86.6543 139.537 85.4414 139.537 84.1406V83.4375C139.537 81.9492 139.754 80.6016 140.188 79.3945C140.621 78.1875 141.225 77.1562 141.998 76.3008C142.771 75.4336 143.686 74.7715 144.74 74.3145C145.795 73.8574 146.938 73.6289 148.168 73.6289C149.527 73.6289 150.717 73.8574 151.736 74.3145C152.756 74.7715 153.6 75.416 154.268 76.248C154.947 77.0684 155.451 78.0469 155.779 79.1836C156.119 80.3203 156.289 81.5742 156.289 82.9453V84.7559H141.594V81.7148H152.105V81.3809C152.082 80.6191 151.93 79.9043 151.648 79.2363C151.379 78.5684 150.963 78.0293 150.4 77.6191C149.838 77.209 149.088 77.0039 148.15 77.0039C147.447 77.0039 146.82 77.1562 146.27 77.4609C145.73 77.7539 145.279 78.1816 144.916 78.7441C144.553 79.3066 144.271 79.9863 144.072 80.7832C143.885 81.5684 143.791 82.4531 143.791 83.4375V84.1406C143.791 84.9727 143.902 85.7461 144.125 86.4609C144.359 87.1641 144.699 87.7793 145.145 88.3066C145.59 88.834 146.129 89.25 146.762 89.5547C147.395 89.8477 148.115 89.9941 148.924 89.9941C149.943 89.9941 150.852 89.7891 151.648 89.3789C152.445 88.9688 153.137 88.3887 153.723 87.6387L155.955 89.8008C155.545 90.3984 155.012 90.9727 154.355 91.5234C153.699 92.0625 152.896 92.502 151.947 92.8418C151.01 93.1816 149.92 93.3516 148.678 93.3516ZM172.584 81.9258V85.2656H162.74V81.9258H172.584ZM163.971 73.9805V93H159.734V73.9805H163.971ZM175.643 73.9805V93H171.406V73.9805H175.643ZM183.307 80.0273H188.914C190.555 80.0273 191.949 80.3027 193.098 80.8535C194.246 81.4043 195.119 82.1719 195.717 83.1562C196.326 84.1289 196.631 85.2422 196.631 86.4961C196.631 87.4219 196.461 88.2832 196.121 89.0801C195.781 89.8652 195.277 90.5508 194.609 91.1367C193.953 91.7227 193.145 92.1797 192.184 92.5078C191.234 92.8359 190.145 93 188.914 93H180.494V73.9805H184.748V89.6426H188.914C189.758 89.6426 190.432 89.4961 190.936 89.2031C191.439 88.9102 191.803 88.5293 192.025 88.0605C192.26 87.5918 192.377 87.0938 192.377 86.5664C192.377 86.0273 192.26 85.5176 192.025 85.0371C191.803 84.5566 191.439 84.1641 190.936 83.8594C190.432 83.5547 189.758 83.4023 188.914 83.4023H183.307V80.0273ZM204.119 73.9805V93H199.883V73.9805H204.119ZM217.514 93.3516C216.107 93.3516 214.836 93.123 213.699 92.666C212.574 92.1973 211.613 91.5469 210.816 90.7148C210.031 89.8828 209.428 88.9043 209.006 87.7793C208.584 86.6543 208.373 85.4414 208.373 84.1406V83.4375C208.373 81.9492 208.59 80.6016 209.023 79.3945C209.457 78.1875 210.061 77.1562 210.834 76.3008C211.607 75.4336 212.521 74.7715 213.576 74.3145C214.631 73.8574 215.773 73.6289 217.004 73.6289C218.363 73.6289 219.553 73.8574 220.572 74.3145C221.592 74.7715 222.436 75.416 223.104 76.248C223.783 77.0684 224.287 78.0469 224.615 79.1836C224.955 80.3203 225.125 81.5742 225.125 82.9453V84.7559H210.43V81.7148H220.941V81.3809C220.918 80.6191 220.766 79.9043 220.484 79.2363C220.215 78.5684 219.799 78.0293 219.236 77.6191C218.674 77.209 217.924 77.0039 216.986 77.0039C216.283 77.0039 215.656 77.1562 215.105 77.4609C214.566 77.7539 214.115 78.1816 213.752 78.7441C213.389 79.3066 213.107 79.9863 212.908 80.7832C212.721 81.5684 212.627 82.4531 212.627 83.4375V84.1406C212.627 84.9727 212.738 85.7461 212.961 86.4609C213.195 87.1641 213.535 87.7793 213.98 88.3066C214.426 88.834 214.965 89.25 215.598 89.5547C216.23 89.8477 216.951 89.9941 217.76 89.9941C218.779 89.9941 219.688 89.7891 220.484 89.3789C221.281 88.9688 221.973 88.3887 222.559 87.6387L224.791 89.8008C224.381 90.3984 223.848 90.9727 223.191 91.5234C222.535 92.0625 221.732 92.502 220.783 92.8418C219.846 93.1816 218.756 93.3516 217.514 93.3516ZM252.67 73.9805V93H248.434V73.9805H252.67ZM250.877 82.4004V85.7578C250.361 85.9805 249.781 86.1855 249.137 86.373C248.504 86.5488 247.836 86.6953 247.133 86.8125C246.43 86.918 245.721 86.9707 245.006 86.9707C243.33 86.9707 241.883 86.7129 240.664 86.1973C239.457 85.6816 238.525 84.8906 237.869 83.8242C237.225 82.7461 236.902 81.3809 236.902 79.7285V73.9629H241.121V79.7285C241.121 80.6777 241.262 81.4336 241.543 81.9961C241.836 82.5586 242.27 82.9629 242.844 83.209C243.418 83.4551 244.139 83.5781 245.006 83.5781C245.732 83.5781 246.418 83.5312 247.062 83.4375C247.707 83.332 248.346 83.1914 248.979 83.0156C249.611 82.8398 250.244 82.6348 250.877 82.4004ZM265.572 93.3516C264.166 93.3516 262.895 93.123 261.758 92.666C260.633 92.1973 259.672 91.5469 258.875 90.7148C258.09 89.8828 257.486 88.9043 257.064 87.7793C256.643 86.6543 256.432 85.4414 256.432 84.1406V83.4375C256.432 81.9492 256.648 80.6016 257.082 79.3945C257.516 78.1875 258.119 77.1562 258.893 76.3008C259.666 75.4336 260.58 74.7715 261.635 74.3145C262.689 73.8574 263.832 73.6289 265.062 73.6289C266.422 73.6289 267.611 73.8574 268.631 74.3145C269.65 74.7715 270.494 75.416 271.162 76.248C271.842 77.0684 272.346 78.0469 272.674 79.1836C273.014 80.3203 273.184 81.5742 273.184 82.9453V84.7559H258.488V81.7148H269V81.3809C268.977 80.6191 268.824 79.9043 268.543 79.2363C268.273 78.5684 267.857 78.0293 267.295 77.6191C266.732 77.209 265.982 77.0039 265.045 77.0039C264.342 77.0039 263.715 77.1562 263.164 77.4609C262.625 77.7539 262.174 78.1816 261.811 78.7441C261.447 79.3066 261.166 79.9863 260.967 80.7832C260.779 81.5684 260.686 82.4531 260.686 83.4375V84.1406C260.686 84.9727 260.797 85.7461 261.02 86.4609C261.254 87.1641 261.594 87.7793 262.039 88.3066C262.484 88.834 263.023 89.25 263.656 89.5547C264.289 89.8477 265.01 89.9941 265.818 89.9941C266.838 89.9941 267.746 89.7891 268.543 89.3789C269.34 88.9688 270.031 88.3887 270.617 87.6387L272.85 89.8008C272.439 90.3984 271.906 90.9727 271.25 91.5234C270.594 92.0625 269.791 92.502 268.842 92.8418C267.904 93.1816 266.814 93.3516 265.572 93.3516ZM281.059 73.9805V93H276.822V73.9805H281.059ZM293.469 73.9805L284.908 85.4238H280.074L279.512 81.5918H283.045L288.178 73.9805H293.469ZM288.512 93L282.781 84.7031L286.121 82.2949L294.084 93H288.512ZM300.764 86.8125L308.234 73.9805H312.471V93H308.234V80.1504L300.764 93H296.527V73.9805H300.764V86.8125Z" fill="#FE724C"/>
<mask id="path-13-inside-1_13_11459" fill="white">
<path d="M0 732H375V812H0V732Z"/>
</mask>
<path d="M0 732H375V812H0V732Z" fill="#102466"/>
<path d="M0 733H375V731H0V733Z" fill="white" mask="url(#path-13-inside-1_13_11459)"/>
<circle cx="49" cy="764" r="24" fill="#284194"/>
<path fill-rule="evenodd" clip-rule="evenodd" d="M40.9553 754.25C40.9701 754.25 40.985 754.25 41 754.25L57.0448 754.25C57.4776 754.25 57.8744 754.25 58.1972 754.293C58.5527 754.341 58.9284 754.454 59.2374 754.763C59.5465 755.072 59.6589 755.447 59.7067 755.803C59.7501 756.126 59.7501 756.522 59.75 756.955V757.045C59.7501 757.478 59.7501 757.874 59.7067 758.197C59.6589 758.553 59.5465 758.928 59.2374 759.237C58.9437 759.531 58.5896 759.647 58.25 759.699V765.056C58.25 766.894 58.25 768.35 58.0969 769.489C57.9392 770.661 57.6071 771.61 56.8588 772.359C56.1104 773.107 55.1615 773.439 53.989 773.597C52.8498 773.75 51.3942 773.75 49.5564 773.75H48.4436C46.6058 773.75 45.1502 773.75 44.011 773.597C42.8386 773.439 41.8896 773.107 41.1412 772.359C40.3929 771.61 40.0608 770.661 39.9031 769.489C39.75 768.35 39.75 766.894 39.75 765.056L39.75 759.699C39.4104 759.647 39.0563 759.531 38.7626 759.237C38.4535 758.928 38.3411 758.553 38.2933 758.197C38.2499 757.874 38.25 757.478 38.25 757.045C38.25 757.03 38.25 757.015 38.25 757C38.25 756.985 38.25 756.97 38.25 756.955C38.25 756.522 38.2499 756.126 38.2933 755.803C38.3411 755.447 38.4535 755.072 38.7626 754.763C39.0716 754.454 39.4473 754.341 39.8028 754.293C40.1256 754.25 40.5224 754.25 40.9553 754.25ZM41.25 759.75V765C41.25 766.907 41.2516 768.261 41.3898 769.289C41.525 770.295 41.7787 770.875 42.2019 771.298C42.6251 771.721 43.2048 771.975 44.2109 772.11C45.2385 772.248 46.5932 772.25 48.5 772.25H49.5C51.4068 772.25 52.7615 772.248 53.7892 772.11C54.7952 771.975 55.3749 771.721 55.7981 771.298C56.2213 770.875 56.475 770.295 56.6102 769.289C56.7484 768.261 56.75 766.907 56.75 765V759.75H41.25ZM39.8232 755.823L39.8257 755.822C39.8276 755.821 39.8309 755.819 39.836 755.817C39.8578 755.808 39.9061 755.793 40.0027 755.78C40.2134 755.752 40.5074 755.75 41 755.75H57C57.4926 755.75 57.7866 755.752 57.9973 755.78C58.0939 755.793 58.1423 755.808 58.164 755.817C58.1691 755.819 58.1724 755.821 58.1743 755.822L58.1768 755.823L58.1781 755.826C58.1792 755.828 58.1808 755.831 58.1828 755.836C58.1918 755.858 58.2071 755.906 58.2201 756.003C58.2484 756.213 58.25 756.507 58.25 757C58.25 757.493 58.2484 757.787 58.2201 757.997C58.2071 758.094 58.1918 758.142 58.1828 758.164C58.1808 758.169 58.1792 758.172 58.1781 758.174L58.1768 758.177L58.1743 758.178C58.1724 758.179 58.1691 758.181 58.164 758.183C58.1423 758.192 58.0939 758.207 57.9973 758.22C57.7866 758.248 57.4926 758.25 57 758.25H41C40.5074 758.25 40.2134 758.248 40.0027 758.22C39.9061 758.207 39.8578 758.192 39.836 758.183C39.8309 758.181 39.8276 758.179 39.8257 758.178L39.8232 758.177L39.8219 758.174C39.8209 758.172 39.8192 758.169 39.8172 758.164C39.8082 758.142 39.7929 758.094 39.7799 757.997C39.7516 757.787 39.75 757.493 39.75 757C39.75 756.507 39.7516 756.213 39.7799 756.003C39.7929 755.906 39.8082 755.858 39.8172 755.836C39.8192 755.831 39.8209 755.828 39.8219 755.826L39.8232 755.823ZM39.8232 758.177C39.8228 758.176 39.823 758.176 39.8232 758.177V758.177ZM47.4782 761.75H50.5218C50.736 761.75 50.9329 761.75 51.0982 761.761C51.2759 761.773 51.4712 761.801 51.6697 761.883C52.0985 762.061 52.4392 762.402 52.6168 762.83C52.699 763.029 52.7266 763.224 52.7388 763.402C52.75 763.567 52.75 763.764 52.75 763.978V764.022C52.75 764.236 52.75 764.433 52.7388 764.598C52.7266 764.776 52.699 764.971 52.6168 765.17C52.4392 765.599 52.0985 765.939 51.6697 766.117C51.4712 766.199 51.2759 766.227 51.0982 766.239C50.9329 766.25 50.736 766.25 50.5218 766.25H47.4782C47.264 766.25 47.0671 766.25 46.9018 766.239C46.7242 766.227 46.5288 766.199 46.3303 766.117C45.9015 765.939 45.5608 765.599 45.3832 765.17C45.301 764.971 45.2734 764.776 45.2613 764.598C45.25 764.433 45.25 764.236 45.25 764.022V763.978C45.25 763.764 45.25 763.567 45.2613 763.402C45.2734 763.224 45.301 763.029 45.3832 762.83C45.5608 762.402 45.9015 762.061 46.3303 761.883C46.5288 761.801 46.7242 761.773 46.9018 761.761C47.0671 761.75 47.264 761.75 47.4782 761.75ZM46.9013 763.27C46.8425 763.296 46.7956 763.342 46.7703 763.401C46.7684 763.409 46.7623 763.437 46.7578 763.504C46.7504 763.612 46.75 763.757 46.75 764C46.75 764.243 46.7504 764.388 46.7578 764.496C46.7623 764.563 46.7684 764.591 46.7703 764.599C46.7956 764.658 46.8425 764.704 46.9013 764.73C46.9087 764.732 46.9371 764.738 47.0039 764.742C47.1119 764.75 47.2568 764.75 47.5 764.75H50.5C50.7432 764.75 50.8881 764.75 50.9961 764.742C51.0629 764.738 51.0913 764.732 51.0987 764.73C51.1575 764.704 51.2044 764.658 51.2297 764.599C51.2316 764.591 51.2377 764.563 51.2422 764.496C51.2496 764.388 51.25 764.243 51.25 764C51.25 763.757 51.2496 763.612 51.2422 763.504C51.2377 763.437 51.2316 763.409 51.2297 763.401C51.2044 763.342 51.1575 763.296 51.0987 763.27C51.0913 763.268 51.0629 763.262 50.9961 763.258C50.8881 763.25 50.7432 763.25 50.5 763.25H47.5C47.2568 763.25 47.1119 763.25 47.0039 763.258C46.9371 763.262 46.9087 763.268 46.9013 763.27Z" fill="white"/>
<path fill-rule="evenodd" clip-rule="evenodd" d="M121.955 753.25C121.522 753.25 121.126 753.25 120.803 753.293C120.447 753.341 120.072 753.454 119.763 753.763C119.454 754.072 119.341 754.447 119.293 754.803C119.25 755.126 119.25 755.522 119.25 755.955V769.045C119.25 769.478 119.25 769.874 119.293 770.197C119.341 770.553 119.454 770.928 119.763 771.237C120.072 771.546 120.447 771.659 120.803 771.707C121.126 771.75 121.522 771.75 121.955 771.75H122.045C122.478 771.75 122.874 771.75 123.197 771.707C123.553 771.659 123.928 771.546 124.237 771.237C124.546 770.928 124.659 770.553 124.707 770.197C124.75 769.874 124.75 769.478 124.75 769.045V755.955C124.75 755.522 124.75 755.126 124.707 754.803C124.659 754.447 124.546 754.072 124.237 753.763C123.928 753.454 123.553 753.341 123.197 753.293C122.874 753.25 122.478 753.25 122.045 753.25H121.955ZM120.826 754.822L120.823 754.823L120.822 754.826C120.821 754.828 120.819 754.831 120.817 754.836C120.808 754.858 120.793 754.906 120.78 755.003C120.752 755.213 120.75 755.507 120.75 756V769C120.75 769.493 120.752 769.787 120.78 769.997C120.793 770.094 120.808 770.142 120.817 770.164C120.819 770.169 120.821 770.172 120.822 770.174L120.823 770.177L120.826 770.178C120.826 770.179 120.828 770.179 120.829 770.18C120.831 770.181 120.833 770.182 120.836 770.183C120.858 770.192 120.906 770.207 121.003 770.22C121.213 770.248 121.507 770.25 122 770.25C122.493 770.25 122.787 770.248 122.997 770.22C123.094 770.207 123.142 770.192 123.164 770.183C123.169 770.181 123.172 770.179 123.174 770.178L123.177 770.177L123.178 770.174C123.179 770.172 123.181 770.169 123.183 770.164C123.192 770.142 123.207 770.094 123.22 769.997C123.248 769.787 123.25 769.493 123.25 769V756C123.25 755.507 123.248 755.213 123.22 755.003C123.207 754.906 123.192 754.858 123.183 754.836C123.181 754.831 123.179 754.828 123.178 754.826L123.177 754.823L123.174 754.822C123.172 754.821 123.169 754.819 123.164 754.817C123.142 754.808 123.094 754.793 122.997 754.78C122.787 754.752 122.493 754.75 122 754.75C121.507 754.75 121.213 754.752 121.003 754.78C120.906 754.793 120.858 754.808 120.836 754.817C120.831 754.819 120.828 754.821 120.826 754.822Z" fill="#747474"/>
<path fill-rule="evenodd" clip-rule="evenodd" d="M114.955 756.25H115.045C115.478 756.25 115.874 756.25 116.197 756.293C116.553 756.341 116.928 756.454 117.237 756.763C117.546 757.072 117.659 757.447 117.707 757.803C117.75 758.126 117.75 758.522 117.75 758.955V769.045C117.75 769.478 117.75 769.874 117.707 770.197C117.659 770.553 117.546 770.928 117.237 771.237C116.928 771.546 116.553 771.659 116.197 771.707C115.874 771.75 115.478 771.75 115.045 771.75H114.955C114.522 771.75 114.126 771.75 113.803 771.707C113.447 771.659 113.072 771.546 112.763 771.237C112.454 770.928 112.341 770.553 112.293 770.197C112.25 769.874 112.25 769.478 112.25 769.045V758.955C112.25 758.522 112.25 758.126 112.293 757.803C112.341 757.447 112.454 757.072 112.763 756.763C113.072 756.454 113.447 756.341 113.803 756.293C114.126 756.25 114.522 756.25 114.955 756.25ZM113.823 757.823L113.826 757.822L113.823 770.177L113.822 770.174C113.821 770.172 113.819 770.169 113.817 770.164C113.808 770.142 113.793 770.094 113.78 769.997C113.752 769.787 113.75 769.493 113.75 769V759C113.75 758.507 113.752 758.213 113.78 758.003C113.793 757.906 113.808 757.858 113.817 757.836C113.819 757.831 113.821 757.828 113.822 757.826L113.823 757.823ZM113.823 770.177L113.826 757.822L113.829 757.82L113.836 757.817C113.858 757.808 113.906 757.793 114.003 757.78C114.213 757.752 114.507 757.75 115 757.75C115.493 757.75 115.787 757.752 115.997 757.78C116.094 757.793 116.142 757.808 116.164 757.817C116.169 757.819 116.172 757.821 116.174 757.822L116.177 757.823L116.178 757.826C116.179 757.828 116.181 757.831 116.183 757.836C116.192 757.858 116.207 757.906 116.22 758.003C116.248 758.213 116.25 758.507 116.25 759V769C116.25 769.493 116.248 769.787 116.22 769.997C116.207 770.094 116.192 770.142 116.183 770.164C116.181 770.169 116.179 770.172 116.178 770.174L116.177 770.177L116.174 770.178C116.173 770.179 116.171 770.18 116.169 770.181C116.167 770.181 116.166 770.182 116.164 770.183C116.142 770.192 116.094 770.207 115.997 770.22C115.787 770.248 115.493 770.25 115 770.25C114.507 770.25 114.213 770.248 114.003 770.22C113.906 770.207 113.858 770.192 113.836 770.183C113.831 770.181 113.828 770.179 113.826 770.178L113.823 770.177Z" fill="#747474"/>
<path fill-rule="evenodd" clip-rule="evenodd" d="M107.955 760.25C107.522 760.25 107.126 760.25 106.803 760.293C106.447 760.341 106.072 760.454 105.763 760.763C105.454 761.072 105.341 761.447 105.293 761.803C105.25 762.126 105.25 762.522 105.25 762.955V769.045C105.25 769.478 105.25 769.874 105.293 770.197C105.341 770.553 105.454 770.928 105.763 771.237C106.072 771.546 106.447 771.659 106.803 771.707C107.126 771.75 107.522 771.75 107.955 771.75H108.045C108.478 771.75 108.874 771.75 109.197 771.707C109.553 771.659 109.928 771.546 110.237 771.237C110.546 770.928 110.659 770.553 110.707 770.197C110.75 769.874 110.75 769.478 110.75 769.045V762.955C110.75 762.522 110.75 762.126 110.707 761.803C110.659 761.447 110.546 761.072 110.237 760.763C109.928 760.454 109.553 760.341 109.197 760.293C108.874 760.25 108.478 760.25 108.045 760.25H107.955ZM106.826 761.822L106.823 761.823L106.822 761.826C106.821 761.828 106.819 761.831 106.817 761.836C106.808 761.858 106.793 761.906 106.78 762.003C106.752 762.213 106.75 762.507 106.75 763V769C106.75 769.493 106.752 769.787 106.78 769.997C106.793 770.094 106.808 770.142 106.817 770.164C106.819 770.169 106.821 770.172 106.822 770.174L106.823 770.176L106.826 770.178C106.828 770.179 106.831 770.181 106.836 770.183C106.858 770.192 106.906 770.207 107.003 770.22C107.213 770.248 107.507 770.25 108 770.25C108.493 770.25 108.787 770.248 108.997 770.22C109.094 770.207 109.142 770.192 109.164 770.183C109.169 770.181 109.172 770.179 109.174 770.178L109.177 770.177L109.178 770.174L109.18 770.17L109.183 770.164C109.192 770.142 109.207 770.094 109.22 769.997C109.248 769.787 109.25 769.493 109.25 769V763C109.25 762.507 109.248 762.213 109.22 762.003C109.207 761.906 109.192 761.858 109.183 761.836C109.181 761.831 109.179 761.828 109.178 761.826L109.177 761.823L109.174 761.822C109.172 761.821 109.169 761.819 109.164 761.817C109.142 761.808 109.094 761.793 108.997 761.78C108.787 761.752 108.493 761.75 108 761.75C107.507 761.75 107.213 761.752 107.003 761.78C106.906 761.793 106.858 761.808 106.836 761.817C106.831 761.819 106.828 761.821 106.826 761.822Z" fill="#747474"/>
<path d="M106 773.25C105.586 773.25 105.25 773.586 105.25 774C105.25 774.414 105.586 774.75 106 774.75H124C124.414 774.75 124.75 774.414 124.75 774C124.75 773.586 124.414 773.25 124 773.25H106Z" fill="#747474"/>
<path d="M218.5 749.5C218.5 766.053 204.636 779.5 187.5 779.5C170.364 779.5 156.5 766.053 156.5 749.5C156.5 732.947 170.364 719.5 187.5 719.5C204.636 719.5 218.5 732.947 218.5 749.5Z" fill="#102466" stroke="white"/>
<path fill-rule="evenodd" clip-rule="evenodd" d="M183.598 742.487C183.865 741.177 185.031 740.25 186.366 740.25H189.634C190.969 740.25 192.135 741.177 192.402 742.487C192.463 742.789 192.737 743.011 193.022 743.011H193.038L193.055 743.012C194.458 743.073 195.536 743.245 196.436 743.836C197.003 744.208 197.491 744.686 197.871 745.245C198.344 745.939 198.552 746.737 198.652 747.701C198.75 748.644 198.75 749.825 198.75 751.321V751.406C198.75 752.902 198.75 754.083 198.652 755.026C198.552 755.99 198.344 756.788 197.871 757.483C197.491 758.041 197.003 758.52 196.436 758.892C195.733 759.353 194.926 759.557 193.948 759.654C192.99 759.75 191.789 759.75 190.263 759.75H185.737C184.211 759.75 183.01 759.75 182.052 759.654C181.074 759.557 180.267 759.353 179.564 758.892C178.997 758.52 178.509 758.041 178.129 757.483C177.656 756.788 177.448 755.99 177.348 755.026C177.25 754.083 177.25 752.902 177.25 751.406V751.321C177.25 749.825 177.25 748.644 177.348 747.701C177.448 746.737 177.656 745.939 178.129 745.245C178.509 744.686 178.997 744.208 179.564 743.836C180.464 743.245 181.542 743.073 182.945 743.012L182.962 743.011H182.978C183.263 743.011 183.537 742.789 183.598 742.487ZM186.366 741.75C185.725 741.75 185.189 742.193 185.068 742.786C184.873 743.747 184.021 744.502 182.996 744.511C181.648 744.571 180.925 744.736 180.387 745.09C179.983 745.355 179.638 745.694 179.369 746.089C179.093 746.494 178.927 747.013 178.84 747.856C178.751 748.712 178.75 749.816 178.75 751.364C178.75 752.912 178.751 754.015 178.84 754.871C178.927 755.714 179.093 756.233 179.369 756.639C179.638 757.033 179.983 757.373 180.387 757.637C180.804 757.911 181.338 758.076 182.201 758.162C183.075 758.249 184.202 758.25 185.778 758.25H190.222C191.798 758.25 192.925 758.249 193.799 758.162C194.662 758.076 195.196 757.911 195.613 757.637C196.017 757.373 196.362 757.033 196.631 756.639C196.907 756.233 197.073 755.714 197.16 754.871C197.249 754.015 197.25 752.912 197.25 751.364C197.25 749.816 197.249 748.712 197.16 747.856C197.073 747.013 196.907 746.494 196.631 746.089C196.362 745.694 196.017 745.355 195.613 745.09C195.075 744.736 194.352 744.571 193.004 744.511C191.979 744.502 191.127 743.747 190.932 742.786C190.811 742.193 190.275 741.75 189.634 741.75H186.366ZM188 748.75C186.757 748.75 185.75 749.757 185.75 751C185.75 752.243 186.757 753.25 188 753.25C189.243 753.25 190.25 752.243 190.25 751C190.25 749.757 189.243 748.75 188 748.75ZM184.25 751C184.25 748.929 185.929 747.25 188 747.25C190.071 747.25 191.75 748.929 191.75 751C191.75 753.071 190.071 754.75 188 754.75C185.929 754.75 184.25 753.071 184.25 751ZM193.25 748C193.25 747.586 193.586 747.25 194 747.25H195C195.414 747.25 195.75 747.586 195.75 748C195.75 748.414 195.414 748.75 195 748.75H194C193.586 748.75 193.25 748.414 193.25 748Z" fill="white"/>
<path fill-rule="evenodd" clip-rule="evenodd" d="M257.465 754.821C259.087 754.06 260.913 754.06 262.536 754.821L269.227 757.958C270.279 758.451 270.75 759.522 270.75 760.5C270.75 761.478 270.279 762.549 269.227 763.042L267.75 763.735V768.625C267.75 769.878 267.122 771.088 265.978 771.722C265.226 772.138 264.238 772.639 263.199 773.038C262.171 773.432 261.034 773.75 260 773.75C258.966 773.75 257.829 773.432 256.801 773.038C255.762 772.639 254.774 772.138 254.022 771.722C252.878 771.088 252.25 769.878 252.25 768.625V763.5C252.25 763.459 252.253 763.418 252.26 763.378C252.236 763.234 252.254 763.082 252.321 762.94C252.497 762.565 252.944 762.403 253.319 762.579L258.101 764.821C259.321 765.393 260.68 765.393 261.899 764.821L268.59 761.684C268.993 761.495 269.25 761.044 269.25 760.5C269.25 759.956 268.993 759.505 268.59 759.316L261.899 756.179C260.68 755.607 259.321 755.607 258.101 756.179L251.41 759.316C251.035 759.491 250.589 759.33 250.413 758.955C250.237 758.58 250.398 758.133 250.773 757.958L257.465 754.821ZM253.75 764.438V768.625C253.75 769.388 254.129 770.066 254.749 770.409C255.465 770.806 256.387 771.272 257.338 771.637C258.302 772.007 259.238 772.25 260 772.25C260.762 772.25 261.698 772.007 262.662 771.637C263.613 771.272 264.535 770.806 265.251 770.409C265.871 770.066 266.25 769.388 266.25 768.625V764.438L262.536 766.179C260.913 766.94 259.087 766.94 257.465 766.179L253.75 764.438Z" fill="#747474"/>
<path d="M254.689 759.705C254.853 760.085 254.676 760.526 254.295 760.689L253.22 761.15C252.617 761.409 252.22 761.58 251.928 761.744C251.652 761.899 251.532 762.015 251.456 762.131C251.38 762.246 251.321 762.402 251.287 762.716C251.251 763.049 251.25 763.482 251.25 764.138V767C251.25 767.414 250.914 767.75 250.5 767.75C250.086 767.75 249.75 767.414 249.75 767V764.099C249.75 763.492 249.75 762.978 249.796 762.555C249.844 762.105 249.95 761.691 250.204 761.305C250.459 760.919 250.798 760.659 251.193 760.437C251.563 760.228 252.036 760.026 252.593 759.787L253.705 759.311C254.085 759.147 254.526 759.324 254.689 759.705Z" fill="#747474"/>
<path fill-rule="evenodd" clip-rule="evenodd" d="M326 760.25C323.929 760.25 322.25 761.929 322.25 764C322.25 766.071 323.929 767.75 326 767.75C328.071 767.75 329.75 766.071 329.75 764C329.75 761.929 328.071 760.25 326 760.25ZM323.75 764C323.75 762.757 324.757 761.75 326 761.75C327.243 761.75 328.25 762.757 328.25 764C328.25 765.243 327.243 766.25 326 766.25C324.757 766.25 323.75 765.243 323.75 764Z" fill="#747474"/>
<path fill-rule="evenodd" clip-rule="evenodd" d="M325.975 753.25C325.53 753.25 325.159 753.25 324.855 753.271C324.538 753.292 324.238 753.339 323.948 753.459C323.274 753.738 322.738 754.274 322.459 754.948C322.314 755.298 322.275 755.668 322.26 756.07C322.248 756.393 322.085 756.663 321.844 756.801C321.603 756.94 321.288 756.947 321.003 756.796C320.647 756.608 320.307 756.457 319.931 756.407C319.208 756.312 318.476 756.508 317.898 756.952C317.648 757.144 317.458 757.38 317.281 757.643C317.111 757.897 316.925 758.218 316.703 758.603L316.678 758.647C316.455 759.032 316.27 759.353 316.136 759.627C315.996 759.913 315.886 760.195 315.845 760.507C315.75 761.23 315.946 761.961 316.39 762.54C316.621 762.841 316.922 763.06 317.262 763.274C317.536 763.446 317.688 763.722 317.688 764C317.688 764.278 317.536 764.554 317.262 764.726C316.922 764.94 316.621 765.159 316.39 765.46C315.946 766.039 315.75 766.77 315.845 767.493C315.886 767.805 315.996 768.087 316.136 768.373C316.27 768.647 316.455 768.968 316.678 769.353L316.703 769.397C316.925 769.782 317.111 770.103 317.281 770.357C317.458 770.62 317.648 770.856 317.898 771.048C318.476 771.492 319.208 771.688 319.931 771.592C320.307 771.543 320.647 771.392 321.003 771.204C321.288 771.053 321.603 771.06 321.844 771.199C322.085 771.337 322.248 771.607 322.26 771.93C322.275 772.332 322.314 772.702 322.459 773.052C322.738 773.726 323.274 774.262 323.948 774.541C324.238 774.661 324.538 774.708 324.855 774.729C325.159 774.75 325.53 774.75 325.975 774.75H326.025C326.47 774.75 326.841 774.75 327.145 774.729C327.462 774.708 327.762 774.661 328.052 774.541C328.726 774.262 329.262 773.726 329.541 773.052C329.686 772.702 329.725 772.332 329.74 771.93C329.752 771.607 329.915 771.337 330.156 771.199C330.397 771.06 330.712 771.053 330.997 771.204C331.353 771.392 331.693 771.543 332.069 771.592C332.792 771.688 333.524 771.492 334.102 771.048C334.352 770.856 334.542 770.62 334.719 770.356C334.889 770.103 335.075 769.782 335.297 769.397L335.322 769.353C335.544 768.968 335.73 768.647 335.864 768.373C336.004 768.087 336.114 767.804 336.155 767.493C336.25 766.77 336.054 766.038 335.61 765.46C335.379 765.159 335.078 764.94 334.738 764.726C334.464 764.554 334.312 764.278 334.312 764C334.312 763.722 334.464 763.446 334.738 763.274C335.078 763.06 335.379 762.841 335.61 762.54C336.054 761.961 336.25 761.23 336.155 760.507C336.114 760.195 336.004 759.913 335.864 759.627C335.73 759.353 335.545 759.032 335.322 758.647L335.297 758.603C335.075 758.218 334.889 757.897 334.719 757.643C334.542 757.38 334.352 757.144 334.102 756.952C333.524 756.508 332.792 756.312 332.069 756.408C331.693 756.457 331.353 756.608 330.997 756.796C330.712 756.947 330.397 756.94 330.156 756.801C329.915 756.663 329.752 756.393 329.74 756.07C329.725 755.668 329.686 755.298 329.541 754.948C329.262 754.274 328.726 753.738 328.052 753.459C327.762 753.339 327.462 753.292 327.145 753.271C326.841 753.25 326.47 753.25 326.025 753.25H325.975ZM324.522 754.845C324.599 754.813 324.716 754.784 324.957 754.767C325.204 754.75 325.524 754.75 326 754.75C326.476 754.75 326.796 754.75 327.043 754.767C327.284 754.784 327.401 754.813 327.478 754.845C327.785 754.972 328.028 755.215 328.155 755.522C328.195 755.618 328.228 755.769 328.241 756.126C328.271 756.918 328.68 757.681 329.406 758.1C330.132 758.52 330.997 758.492 331.698 758.122C332.014 757.955 332.161 757.908 332.265 757.895C332.594 757.851 332.926 757.94 333.189 758.142C333.255 758.193 333.34 758.28 333.474 758.48C333.612 758.686 333.773 758.963 334.011 759.375C334.249 759.787 334.408 760.064 334.517 760.287C334.624 760.504 334.657 760.62 334.668 760.703C334.711 761.032 334.622 761.364 334.42 761.627C334.356 761.71 334.242 761.814 333.94 762.004C333.268 762.426 332.812 763.162 332.812 764C332.812 764.838 333.268 765.574 333.94 765.996C334.242 766.186 334.356 766.29 334.42 766.373C334.622 766.636 334.711 766.968 334.667 767.297C334.657 767.38 334.623 767.496 334.517 767.713C334.408 767.936 334.249 768.213 334.011 768.625C333.773 769.037 333.612 769.314 333.474 769.52C333.339 769.72 333.255 769.807 333.189 769.858C332.926 770.059 332.594 770.149 332.265 770.105C332.161 770.092 332.014 770.045 331.698 769.878C330.997 769.508 330.132 769.48 329.406 769.9C328.68 770.319 328.271 771.082 328.241 771.874C328.228 772.231 328.195 772.382 328.155 772.478C328.028 772.785 327.785 773.028 327.478 773.155C327.401 773.187 327.284 773.216 327.043 773.233C326.796 773.25 326.476 773.25 326 773.25C325.524 773.25 325.204 773.25 324.957 773.233C324.716 773.216 324.599 773.187 324.522 773.155C324.215 773.028 323.972 772.785 323.845 772.478C323.805 772.382 323.772 772.231 323.759 771.874C323.729 771.082 323.32 770.319 322.594 769.9C321.868 769.48 321.003 769.508 320.302 769.878C319.986 770.045 319.839 770.092 319.735 770.105C319.406 770.149 319.074 770.06 318.811 769.858C318.745 769.807 318.66 769.72 318.526 769.52C318.388 769.314 318.227 769.037 317.989 768.625C317.751 768.213 317.592 767.936 317.483 767.713C317.376 767.496 317.343 767.38 317.332 767.297C317.289 766.968 317.378 766.636 317.58 766.373C317.644 766.29 317.758 766.186 318.06 765.996C318.732 765.574 319.188 764.838 319.188 764C319.188 763.162 318.732 762.426 318.06 762.004C317.758 761.814 317.644 761.71 317.58 761.627C317.378 761.364 317.289 761.031 317.333 760.703C317.343 760.62 317.377 760.504 317.483 760.287C317.592 760.064 317.751 759.787 317.989 759.375C318.227 758.963 318.388 758.686 318.526 758.48C318.661 758.28 318.745 758.193 318.811 758.142C319.074 757.94 319.406 757.851 319.735 757.895C319.839 757.908 319.986 757.955 320.302 758.122C321.003 758.492 321.868 758.52 322.594 758.1C323.32 757.681 323.729 756.918 323.759 756.126C323.772 755.769 323.805 755.618 323.845 755.522C323.972 755.215 324.215 754.972 324.522 754.845Z" fill="#747474"/>
<path opacity="0.81" d="M187.5 494.751C244.109 494.751 290 448.916 290 392.376C290 335.835 244.109 290 187.5 290C130.891 290 85 335.835 85 392.376C85 448.916 130.891 494.751 187.5 494.751Z" fill="#4CB049"/>
<path d="M154.692 351.401C154.692 343.506 148.284 337.105 140.378 337.105C132.473 337.105 126.065 343.506 126.065 351.401V393.115L113.869 407.391L154.346 407.266L154.692 393.115V351.401Z" fill="#102466"/>
<path d="M218.601 337.105V314.276C218.601 313.409 217.898 312.707 217.03 312.707H103.695C102.831 312.707 102.129 313.403 102.125 314.266C102.075 323.626 101.806 372.129 102.014 395.16C102.022 396.064 102.129 396.968 102.334 397.849C102.533 398.707 102.826 399.543 103.205 400.338C103.577 401.121 104.033 401.863 104.561 402.551C105.087 403.234 105.684 403.862 106.34 404.422C106.998 404.984 107.715 405.478 108.475 405.89C109.245 406.309 110.061 406.645 110.902 406.891C111.898 407.182 112.933 407.357 113.969 407.395C114.934 407.431 115.903 407.351 116.849 407.159C117.701 406.988 118.534 406.725 119.331 406.378C120.113 406.037 120.861 405.615 121.556 405.12C122.247 404.628 122.887 404.066 123.464 403.445C124.042 402.822 124.555 402.141 124.993 401.414C125.436 400.68 125.802 399.9 126.083 399.089C126.37 398.26 126.568 397.401 126.672 396.531C126.731 396.038 126.761 395.542 126.761 395.046V393.115V351.744C126.761 343.992 132.796 337.39 140.553 337.114C148.695 336.825 155.388 343.332 155.388 351.401" fill="url(#paint0_linear_13_11459)"/>
<path opacity="0.12" d="M147.604 393.115L147.95 351.401C147.95 343.506 149.447 337.105 141.542 337.105H236.099C246.896 337.105 255.648 345.847 255.648 356.631V416.336C255.648 445.281 250.293 472.144 275.557 500H274.553H166.009C147.383 485.766 147.604 463.679 147.604 440.254V393.115Z" fill="#102466"/>
<path d="M262.389 416.336V356.631C262.389 345.847 253.637 337.105 242.84 337.105H140.378C148.283 337.105 154.692 343.506 154.692 351.401L154.346 393.115V440.254C154.346 463.678 154.125 485.766 172.751 500H281.294H282.298C257.034 472.144 262.389 445.281 262.389 416.336Z" fill="url(#paint1_linear_13_11459)"/>
<path d="M169.984 387.553V373.623H172.938V387.553H169.984ZM182.266 376.7C183.403 376.7 184.318 377.012 185.01 377.634C185.702 378.25 186.048 379.241 186.048 380.607V387.553H183.142V381.331C183.142 380.569 183.003 379.994 182.723 379.606C182.45 379.219 182.018 379.025 181.427 379.025C180.538 379.025 179.931 379.327 179.607 379.93C179.284 380.534 179.122 381.404 179.122 382.541V387.553H176.215V376.9H178.436L178.826 378.263H178.988C179.217 377.894 179.499 377.596 179.836 377.367C180.179 377.139 180.557 376.97 180.97 376.862C181.389 376.754 181.821 376.7 182.266 376.7ZM191.575 387.553L187.516 376.9H190.555L192.613 382.97C192.728 383.325 192.817 383.7 192.88 384.094C192.95 384.488 192.998 384.84 193.023 385.152H193.099C193.118 384.815 193.163 384.456 193.233 384.075C193.309 383.694 193.407 383.325 193.528 382.97L195.577 376.9H198.616L194.557 387.553H191.575ZM209.831 382.207C209.831 383.097 209.71 383.884 209.468 384.57C209.233 385.256 208.887 385.838 208.43 386.314C207.979 386.784 207.433 387.14 206.791 387.381C206.156 387.623 205.438 387.743 204.638 387.743C203.888 387.743 203.199 387.623 202.57 387.381C201.948 387.14 201.405 386.784 200.941 386.314C200.483 385.838 200.128 385.256 199.874 384.57C199.626 383.884 199.502 383.097 199.502 382.207C199.502 381.026 199.712 380.026 200.131 379.206C200.55 378.387 201.147 377.764 201.922 377.339C202.697 376.913 203.621 376.7 204.695 376.7C205.692 376.7 206.575 376.913 207.344 377.339C208.119 377.764 208.725 378.387 209.164 379.206C209.608 380.026 209.831 381.026 209.831 382.207ZM202.465 382.207C202.465 382.906 202.542 383.494 202.694 383.97C202.846 384.447 203.085 384.805 203.409 385.047C203.733 385.288 204.155 385.409 204.676 385.409C205.19 385.409 205.606 385.288 205.924 385.047C206.248 384.805 206.483 384.447 206.629 383.97C206.782 383.494 206.858 382.906 206.858 382.207C206.858 381.502 206.782 380.918 206.629 380.454C206.483 379.984 206.248 379.632 205.924 379.397C205.6 379.162 205.178 379.044 204.657 379.044C203.888 379.044 203.329 379.308 202.98 379.835C202.637 380.362 202.465 381.153 202.465 382.207ZM178.207 410.684C178.207 411.51 178.007 412.228 177.607 412.838C177.206 413.447 176.622 413.918 175.853 414.248C175.091 414.578 174.164 414.743 173.071 414.743C172.588 414.743 172.115 414.712 171.652 414.648C171.194 414.584 170.753 414.492 170.327 414.372C169.908 414.245 169.508 414.089 169.127 413.905V411.161C169.787 411.453 170.473 411.717 171.185 411.952C171.896 412.187 172.601 412.304 173.3 412.304C173.783 412.304 174.17 412.241 174.462 412.114C174.761 411.987 174.977 411.812 175.11 411.59C175.244 411.367 175.31 411.113 175.31 410.827C175.31 410.478 175.193 410.179 174.958 409.932C174.723 409.684 174.399 409.452 173.986 409.236C173.579 409.02 173.119 408.788 172.604 408.541C172.28 408.388 171.928 408.204 171.547 407.988C171.166 407.766 170.804 407.496 170.461 407.178C170.118 406.86 169.835 406.476 169.613 406.025C169.397 405.568 169.289 405.021 169.289 404.386C169.289 403.554 169.479 402.843 169.86 402.252C170.241 401.661 170.784 401.21 171.49 400.899C172.201 400.581 173.039 400.423 174.005 400.423C174.729 400.423 175.418 400.508 176.073 400.68C176.733 400.845 177.422 401.086 178.14 401.404L177.187 403.7C176.546 403.44 175.971 403.24 175.463 403.1C174.955 402.954 174.437 402.881 173.91 402.881C173.541 402.881 173.227 402.941 172.966 403.062C172.706 403.176 172.509 403.341 172.376 403.557C172.242 403.767 172.176 404.012 172.176 404.291C172.176 404.621 172.271 404.901 172.461 405.129C172.658 405.352 172.951 405.568 173.338 405.777C173.732 405.987 174.221 406.232 174.805 406.511C175.517 406.848 176.123 407.2 176.625 407.569C177.133 407.931 177.524 408.359 177.797 408.855C178.07 409.344 178.207 409.954 178.207 410.684ZM186.553 403.7C187.69 403.7 188.605 404.012 189.298 404.634C189.99 405.25 190.336 406.241 190.336 407.607V414.553H187.43V408.331C187.43 407.569 187.29 406.994 187.011 406.606C186.738 406.219 186.306 406.025 185.715 406.025C184.826 406.025 184.219 406.327 183.895 406.93C183.571 407.534 183.409 408.404 183.409 409.541V414.553H180.503V403.9H182.723L183.114 405.263H183.276C183.504 404.894 183.787 404.596 184.124 404.367C184.467 404.139 184.845 403.97 185.258 403.862C185.677 403.754 186.109 403.7 186.553 403.7ZM197.692 403.681C199.121 403.681 200.217 403.992 200.979 404.615C201.741 405.237 202.122 406.184 202.122 407.454V414.553H200.093L199.531 413.104H199.454C199.15 413.486 198.838 413.797 198.521 414.038C198.203 414.28 197.838 414.457 197.425 414.572C197.012 414.686 196.51 414.743 195.92 414.743C195.291 414.743 194.725 414.623 194.224 414.381C193.728 414.14 193.337 413.771 193.052 413.276C192.766 412.774 192.623 412.139 192.623 411.37C192.623 410.24 193.02 409.408 193.814 408.874C194.608 408.334 195.799 408.036 197.387 407.978L199.235 407.921V407.454C199.235 406.895 199.089 406.486 198.797 406.225C198.505 405.965 198.098 405.835 197.577 405.835C197.063 405.835 196.558 405.908 196.062 406.054C195.567 406.2 195.072 406.384 194.576 406.606L193.614 404.644C194.179 404.345 194.811 404.11 195.51 403.938C196.215 403.767 196.942 403.681 197.692 403.681ZM199.235 409.617L198.111 409.655C197.171 409.681 196.517 409.849 196.148 410.16C195.786 410.472 195.605 410.881 195.605 411.389C195.605 411.834 195.735 412.152 195.996 412.342C196.256 412.526 196.596 412.619 197.015 412.619C197.638 412.619 198.162 412.434 198.587 412.066C199.019 411.697 199.235 411.173 199.235 410.494V409.617ZM211.05 403.7C212.251 403.7 213.219 404.167 213.956 405.101C214.699 406.035 215.071 407.404 215.071 409.207C215.071 410.414 214.896 411.431 214.547 412.256C214.198 413.076 213.715 413.695 213.099 414.114C212.483 414.534 211.774 414.743 210.974 414.743C210.459 414.743 210.018 414.68 209.65 414.553C209.281 414.419 208.967 414.251 208.706 414.048C208.446 413.838 208.22 413.616 208.03 413.381H207.877C207.928 413.635 207.966 413.895 207.992 414.162C208.017 414.429 208.03 414.689 208.03 414.943V419.241H205.124V403.9H207.487L207.896 405.282H208.03C208.22 404.996 208.452 404.732 208.725 404.491C208.998 404.25 209.326 404.059 209.707 403.919C210.094 403.773 210.542 403.7 211.05 403.7ZM210.116 406.025C209.608 406.025 209.205 406.13 208.906 406.34C208.608 406.549 208.389 406.864 208.249 407.283C208.115 407.702 208.042 408.232 208.03 408.874V409.188C208.03 409.874 208.093 410.456 208.22 410.932C208.354 411.408 208.573 411.771 208.878 412.018C209.189 412.266 209.615 412.39 210.154 412.39C210.599 412.39 210.964 412.266 211.25 412.018C211.536 411.771 211.749 411.408 211.889 410.932C212.035 410.449 212.108 409.862 212.108 409.169C212.108 408.128 211.946 407.343 211.622 406.816C211.298 406.289 210.796 406.025 210.116 406.025Z" fill="#284194"/>
<path d="M172.723 456.973H176.417" stroke="#284194" stroke-width="2" stroke-miterlimit="10"/>
<path d="M183.211 456.973H247.748" stroke="#284194" stroke-width="2" stroke-miterlimit="10" stroke-dasharray="11.03 11.03"/>
<path d="M251.145 456.973H254.839" stroke="#284194" stroke-width="2" stroke-miterlimit="10"/>
<path d="M183.383 486.777H181.566V479.722H179.24V478.21H185.709V479.722H183.383V486.777ZM194.803 482.482C194.803 483.142 194.721 483.743 194.557 484.286C194.393 484.825 194.143 485.29 193.807 485.681C193.475 486.072 193.053 486.372 192.541 486.583C192.029 486.79 191.424 486.894 190.725 486.894C190.025 486.894 189.42 486.79 188.908 486.583C188.396 486.372 187.973 486.072 187.637 485.681C187.305 485.29 187.057 484.823 186.893 484.281C186.729 483.738 186.646 483.134 186.646 482.47C186.646 481.583 186.791 480.812 187.08 480.156C187.373 479.495 187.822 478.984 188.428 478.62C189.033 478.257 189.803 478.075 190.736 478.075C191.666 478.075 192.43 478.257 193.027 478.62C193.629 478.984 194.074 479.495 194.363 480.156C194.656 480.816 194.803 481.591 194.803 482.482ZM188.551 482.482C188.551 483.079 188.625 483.595 188.773 484.029C188.926 484.458 189.162 484.79 189.482 485.025C189.803 485.255 190.217 485.37 190.725 485.37C191.24 485.37 191.658 485.255 191.979 485.025C192.299 484.79 192.531 484.458 192.676 484.029C192.824 483.595 192.898 483.079 192.898 482.482C192.898 481.583 192.73 480.876 192.395 480.361C192.059 479.845 191.506 479.587 190.736 479.587C190.225 479.587 189.807 479.704 189.482 479.939C189.162 480.169 188.926 480.501 188.773 480.935C188.625 481.365 188.551 481.88 188.551 482.482ZM199.883 486.777H198.066V479.722H195.74V478.21H202.209V479.722H199.883V486.777ZM208.771 486.777L208.15 484.738H205.027L204.406 486.777H202.449L205.473 478.175H207.693L210.729 486.777H208.771ZM207.717 483.214L207.096 481.222C207.057 481.089 207.004 480.919 206.938 480.712C206.875 480.501 206.811 480.288 206.744 480.073C206.682 479.855 206.631 479.665 206.592 479.505C206.553 479.665 206.498 479.865 206.428 480.103C206.361 480.337 206.297 480.56 206.234 480.771C206.172 480.982 206.127 481.132 206.1 481.222L205.484 483.214H207.717ZM211.812 486.777V478.21H213.629V485.277H217.104V486.777H211.812ZM218.205 485.939C218.205 485.572 218.305 485.314 218.504 485.165C218.707 485.017 218.951 484.943 219.236 484.943C219.514 484.943 219.752 485.017 219.951 485.165C220.154 485.314 220.256 485.572 220.256 485.939C220.256 486.29 220.154 486.544 219.951 486.7C219.752 486.857 219.514 486.935 219.236 486.935C218.951 486.935 218.707 486.857 218.504 486.7C218.305 486.544 218.205 486.29 218.205 485.939ZM218.205 481.099C218.205 480.732 218.305 480.474 218.504 480.325C218.707 480.177 218.951 480.103 219.236 480.103C219.514 480.103 219.752 480.177 219.951 480.325C220.154 480.474 220.256 480.732 220.256 481.099C220.256 481.454 220.154 481.71 219.951 481.866C219.752 482.019 219.514 482.095 219.236 482.095C218.951 482.095 218.707 482.019 218.504 481.866C218.305 481.71 218.205 481.454 218.205 481.099ZM230.48 482.493C230.48 483.185 230.426 483.802 230.316 484.345C230.211 484.888 230.039 485.349 229.801 485.728C229.566 486.107 229.258 486.396 228.875 486.595C228.492 486.794 228.027 486.894 227.48 486.894C226.793 486.894 226.229 486.72 225.787 486.372C225.346 486.021 225.02 485.517 224.809 484.861C224.598 484.2 224.492 483.411 224.492 482.493C224.492 481.568 224.588 480.777 224.779 480.12C224.975 479.46 225.291 478.954 225.729 478.603C226.166 478.251 226.75 478.075 227.48 478.075C228.164 478.075 228.727 478.251 229.168 478.603C229.613 478.95 229.943 479.454 230.158 480.115C230.373 480.771 230.48 481.564 230.48 482.493ZM226.291 482.493C226.291 483.146 226.326 483.691 226.396 484.128C226.471 484.562 226.594 484.888 226.766 485.107C226.938 485.325 227.176 485.435 227.48 485.435C227.781 485.435 228.018 485.327 228.189 485.113C228.365 484.894 228.49 484.568 228.564 484.134C228.639 483.697 228.676 483.15 228.676 482.493C228.676 481.841 228.639 481.296 228.564 480.859C228.49 480.421 228.365 480.093 228.189 479.874C228.018 479.652 227.781 479.54 227.48 479.54C227.176 479.54 226.938 479.652 226.766 479.874C226.594 480.093 226.471 480.421 226.396 480.859C226.326 481.296 226.291 481.841 226.291 482.493ZM237.348 482.493C237.348 483.185 237.293 483.802 237.184 484.345C237.078 484.888 236.906 485.349 236.668 485.728C236.434 486.107 236.125 486.396 235.742 486.595C235.359 486.794 234.895 486.894 234.348 486.894C233.66 486.894 233.096 486.72 232.654 486.372C232.213 486.021 231.887 485.517 231.676 484.861C231.465 484.2 231.359 483.411 231.359 482.493C231.359 481.568 231.455 480.777 231.646 480.12C231.842 479.46 232.158 478.954 232.596 478.603C233.033 478.251 233.617 478.075 234.348 478.075C235.031 478.075 235.594 478.251 236.035 478.603C236.48 478.95 236.811 479.454 237.025 480.115C237.24 480.771 237.348 481.564 237.348 482.493ZM233.158 482.493C233.158 483.146 233.193 483.691 233.264 484.128C233.338 484.562 233.461 484.888 233.633 485.107C233.805 485.325 234.043 485.435 234.348 485.435C234.648 485.435 234.885 485.327 235.057 485.113C235.232 484.894 235.357 484.568 235.432 484.134C235.506 483.697 235.543 483.15 235.543 482.493C235.543 481.841 235.506 481.296 235.432 480.859C235.357 480.421 235.232 480.093 235.057 479.874C234.885 479.652 234.648 479.54 234.348 479.54C234.043 479.54 233.805 479.652 233.633 479.874C233.461 480.093 233.338 480.421 233.264 480.859C233.193 481.296 233.158 481.841 233.158 482.493ZM238.479 485.939C238.479 485.572 238.578 485.314 238.777 485.165C238.98 485.017 239.225 484.943 239.51 484.943C239.787 484.943 240.025 485.017 240.225 485.165C240.428 485.314 240.529 485.572 240.529 485.939C240.529 486.29 240.428 486.544 240.225 486.7C240.025 486.857 239.787 486.935 239.51 486.935C239.225 486.935 238.98 486.857 238.777 486.7C238.578 486.544 238.479 486.29 238.479 485.939ZM247.637 482.493C247.637 483.185 247.582 483.802 247.473 484.345C247.367 484.888 247.195 485.349 246.957 485.728C246.723 486.107 246.414 486.396 246.031 486.595C245.648 486.794 245.184 486.894 244.637 486.894C243.949 486.894 243.385 486.72 242.943 486.372C242.502 486.021 242.176 485.517 241.965 484.861C241.754 484.2 241.648 483.411 241.648 482.493C241.648 481.568 241.744 480.777 241.936 480.12C242.131 479.46 242.447 478.954 242.885 478.603C243.322 478.251 243.906 478.075 244.637 478.075C245.32 478.075 245.883 478.251 246.324 478.603C246.77 478.95 247.1 479.454 247.314 480.115C247.529 480.771 247.637 481.564 247.637 482.493ZM243.447 482.493C243.447 483.146 243.482 483.691 243.553 484.128C243.627 484.562 243.75 484.888 243.922 485.107C244.094 485.325 244.332 485.435 244.637 485.435C244.938 485.435 245.174 485.327 245.346 485.113C245.521 484.894 245.646 484.568 245.721 484.134C245.795 483.697 245.832 483.15 245.832 482.493C245.832 481.841 245.795 481.296 245.721 480.859C245.646 480.421 245.521 480.093 245.346 479.874C245.174 479.652 244.938 479.54 244.637 479.54C244.332 479.54 244.094 479.652 243.922 479.874C243.75 480.093 243.627 480.421 243.553 480.859C243.482 481.296 243.447 481.841 243.447 482.493ZM254.504 482.493C254.504 483.185 254.449 483.802 254.34 484.345C254.234 484.888 254.062 485.349 253.824 485.728C253.59 486.107 253.281 486.396 252.898 486.595C252.516 486.794 252.051 486.894 251.504 486.894C250.816 486.894 250.252 486.72 249.811 486.372C249.369 486.021 249.043 485.517 248.832 484.861C248.621 484.2 248.516 483.411 248.516 482.493C248.516 481.568 248.611 480.777 248.803 480.12C248.998 479.46 249.314 478.954 249.752 478.603C250.189 478.251 250.773 478.075 251.504 478.075C252.188 478.075 252.75 478.251 253.191 478.603C253.637 478.95 253.967 479.454 254.182 480.115C254.396 480.771 254.504 481.564 254.504 482.493ZM250.314 482.493C250.314 483.146 250.35 483.691 250.42 484.128C250.494 484.562 250.617 484.888 250.789 485.107C250.961 485.325 251.199 485.435 251.504 485.435C251.805 485.435 252.041 485.327 252.213 485.113C252.389 484.894 252.514 484.568 252.588 484.134C252.662 483.697 252.699 483.15 252.699 482.493C252.699 481.841 252.662 481.296 252.588 480.859C252.514 480.421 252.389 480.093 252.213 479.874C252.041 479.652 251.805 479.54 251.504 479.54C251.199 479.54 250.961 479.652 250.789 479.874C250.617 480.093 250.494 480.421 250.42 480.859C250.35 481.296 250.314 481.841 250.314 482.493Z" fill="#5852A0"/>
<path d="M167.202 438.334H255.858" stroke="#284194" stroke-width="6" stroke-miterlimit="10"/>
<path d="M167.202 448.778H255.858" stroke="#284194" stroke-width="6" stroke-miterlimit="10"/>
<path d="M95.0713 516.698L97.7031 510.047H99.2207L95.7002 518.339C95.5999 518.571 95.4883 518.797 95.3652 519.016C95.2422 519.23 95.0918 519.421 94.9141 519.59C94.7363 519.758 94.5153 519.893 94.251 519.993C93.9912 520.093 93.6676 520.144 93.2803 520.144C93.1709 520.144 93.041 520.137 92.8906 520.123C92.7402 520.114 92.6423 520.103 92.5967 520.089L92.6377 519.036C92.6878 519.045 92.7858 519.054 92.9316 519.063C93.0775 519.068 93.1846 519.07 93.2529 519.07C93.5127 519.07 93.7178 519.018 93.8682 518.913C94.0186 518.808 94.1393 518.676 94.2305 518.517C94.3262 518.353 94.4128 518.186 94.4902 518.018L95.0713 516.698ZM92.8359 510.047L95.6045 516.247L95.9326 517.471L94.8252 517.553L91.3594 510.047H92.8359ZM107.547 516.746H105.12L105.106 515.734H107.089C107.481 515.734 107.807 515.696 108.066 515.618C108.331 515.541 108.529 515.424 108.661 515.27C108.793 515.115 108.859 514.923 108.859 514.695C108.859 514.518 108.821 514.363 108.743 514.23C108.67 514.094 108.559 513.982 108.408 513.896C108.258 513.804 108.071 513.738 107.848 513.697C107.629 513.652 107.371 513.629 107.075 513.629H105.455V520H104.19V512.604H107.075C107.545 512.604 107.966 512.645 108.34 512.727C108.718 512.809 109.039 512.934 109.304 513.103C109.573 513.267 109.778 513.476 109.919 513.731C110.06 513.987 110.131 514.287 110.131 514.634C110.131 514.857 110.085 515.069 109.994 515.27C109.903 515.47 109.769 515.648 109.591 515.803C109.413 515.958 109.194 516.085 108.935 516.186C108.675 516.281 108.376 516.343 108.039 516.37L107.547 516.746ZM107.547 520H104.662L105.291 518.975H107.547C107.898 518.975 108.189 518.931 108.422 518.845C108.654 518.754 108.827 518.626 108.941 518.462C109.06 518.293 109.119 518.093 109.119 517.86C109.119 517.628 109.06 517.43 108.941 517.266C108.827 517.097 108.654 516.969 108.422 516.883C108.189 516.792 107.898 516.746 107.547 516.746H105.626L105.64 515.734H108.039L108.497 516.117C108.903 516.149 109.247 516.249 109.529 516.418C109.812 516.587 110.026 516.801 110.172 517.061C110.318 517.316 110.391 517.594 110.391 517.895C110.391 518.241 110.325 518.546 110.192 518.811C110.065 519.075 109.878 519.296 109.632 519.474C109.386 519.647 109.087 519.779 108.736 519.87C108.385 519.957 107.989 520 107.547 520ZM116.447 518.735V514.928C116.447 514.636 116.388 514.383 116.27 514.169C116.156 513.95 115.982 513.782 115.75 513.663C115.518 513.545 115.23 513.485 114.889 513.485C114.57 513.485 114.289 513.54 114.048 513.649C113.811 513.759 113.624 513.902 113.487 514.08C113.355 514.258 113.289 514.449 113.289 514.654H112.024C112.024 514.39 112.093 514.128 112.229 513.868C112.366 513.608 112.562 513.374 112.817 513.164C113.077 512.95 113.387 512.781 113.747 512.658C114.112 512.531 114.517 512.467 114.964 512.467C115.502 512.467 115.976 512.558 116.386 512.74C116.8 512.923 117.124 513.198 117.356 513.567C117.593 513.932 117.712 514.39 117.712 514.941V518.387C117.712 518.633 117.732 518.895 117.773 519.173C117.819 519.451 117.885 519.69 117.972 519.891V520H116.652C116.589 519.854 116.538 519.66 116.502 519.419C116.465 519.173 116.447 518.945 116.447 518.735ZM116.666 515.516L116.68 516.404H115.401C115.041 516.404 114.72 516.434 114.438 516.493C114.155 516.548 113.918 516.632 113.727 516.746C113.535 516.86 113.389 517.004 113.289 517.177C113.189 517.345 113.139 517.544 113.139 517.771C113.139 518.004 113.191 518.216 113.296 518.407C113.401 518.599 113.558 518.751 113.768 518.865C113.982 518.975 114.244 519.029 114.554 519.029C114.941 519.029 115.283 518.947 115.579 518.783C115.875 518.619 116.11 518.419 116.283 518.182C116.461 517.945 116.557 517.715 116.57 517.491L117.11 518.1C117.078 518.291 116.992 518.503 116.851 518.735C116.709 518.968 116.52 519.191 116.283 519.405C116.051 519.615 115.773 519.79 115.449 519.932C115.13 520.068 114.77 520.137 114.369 520.137C113.868 520.137 113.428 520.039 113.05 519.843C112.676 519.647 112.384 519.385 112.175 519.057C111.97 518.724 111.867 518.353 111.867 517.942C111.867 517.546 111.945 517.197 112.1 516.896C112.255 516.591 112.478 516.338 112.77 516.138C113.061 515.933 113.412 515.778 113.822 515.673C114.232 515.568 114.69 515.516 115.196 515.516H116.666ZM122.661 519.098C122.962 519.098 123.24 519.036 123.495 518.913C123.75 518.79 123.96 518.621 124.124 518.407C124.288 518.188 124.382 517.94 124.404 517.662H125.607C125.585 518.1 125.437 518.507 125.163 518.886C124.894 519.259 124.541 519.562 124.104 519.795C123.666 520.023 123.185 520.137 122.661 520.137C122.105 520.137 121.62 520.039 121.205 519.843C120.795 519.647 120.453 519.378 120.18 519.036C119.911 518.694 119.708 518.302 119.571 517.86C119.439 517.414 119.373 516.942 119.373 516.445V516.158C119.373 515.661 119.439 515.192 119.571 514.75C119.708 514.303 119.911 513.909 120.18 513.567C120.453 513.226 120.795 512.957 121.205 512.761C121.62 512.565 122.105 512.467 122.661 512.467C123.24 512.467 123.746 512.585 124.179 512.822C124.612 513.055 124.951 513.374 125.197 513.779C125.448 514.18 125.585 514.636 125.607 515.146H124.404C124.382 514.841 124.295 514.565 124.145 514.319C123.999 514.073 123.798 513.877 123.543 513.731C123.292 513.581 122.998 513.506 122.661 513.506C122.274 513.506 121.948 513.583 121.684 513.738C121.424 513.889 121.216 514.094 121.062 514.354C120.911 514.609 120.802 514.894 120.733 515.208C120.67 515.518 120.638 515.835 120.638 516.158V516.445C120.638 516.769 120.67 517.088 120.733 517.402C120.797 517.717 120.904 518.002 121.055 518.257C121.21 518.512 121.417 518.717 121.677 518.872C121.941 519.022 122.269 519.098 122.661 519.098ZM135.52 515.81V516.835H131.609V515.81H135.52ZM131.876 512.604V520H130.611V512.604H131.876ZM136.545 512.604V520H135.273V512.604H136.545ZM141.651 520.137C141.136 520.137 140.669 520.05 140.25 519.877C139.835 519.699 139.478 519.451 139.177 519.132C138.881 518.813 138.653 518.435 138.493 517.997C138.334 517.56 138.254 517.081 138.254 516.562V516.274C138.254 515.673 138.343 515.137 138.521 514.668C138.698 514.194 138.94 513.793 139.245 513.465C139.55 513.137 139.897 512.888 140.284 512.72C140.672 512.551 141.073 512.467 141.487 512.467C142.016 512.467 142.472 512.558 142.854 512.74C143.242 512.923 143.559 513.178 143.805 513.506C144.051 513.829 144.233 514.212 144.352 514.654C144.47 515.092 144.529 515.57 144.529 516.09V516.657H139.006V515.625H143.265V515.529C143.246 515.201 143.178 514.882 143.06 514.572C142.946 514.262 142.763 514.007 142.513 513.807C142.262 513.606 141.92 513.506 141.487 513.506C141.2 513.506 140.936 513.567 140.694 513.69C140.453 513.809 140.245 513.987 140.072 514.224C139.899 514.461 139.765 514.75 139.669 515.092C139.573 515.434 139.525 515.828 139.525 516.274V516.562C139.525 516.912 139.573 517.243 139.669 517.553C139.769 517.858 139.913 518.127 140.1 518.359C140.291 518.592 140.521 518.774 140.79 518.906C141.063 519.038 141.373 519.104 141.72 519.104C142.166 519.104 142.545 519.013 142.854 518.831C143.164 518.649 143.436 518.405 143.668 518.1L144.434 518.708C144.274 518.95 144.071 519.18 143.825 519.398C143.579 519.617 143.276 519.795 142.916 519.932C142.561 520.068 142.139 520.137 141.651 520.137ZM148.938 512.604V520H147.667V512.604H148.938ZM151.42 512.604V513.629H145.233V512.604H151.42ZM159.097 519.098C159.397 519.098 159.675 519.036 159.931 518.913C160.186 518.79 160.396 518.621 160.56 518.407C160.724 518.188 160.817 517.94 160.84 517.662H162.043C162.02 518.1 161.872 518.507 161.599 518.886C161.33 519.259 160.977 519.562 160.539 519.795C160.102 520.023 159.621 520.137 159.097 520.137C158.541 520.137 158.055 520.039 157.641 519.843C157.23 519.647 156.889 519.378 156.615 519.036C156.346 518.694 156.144 518.302 156.007 517.86C155.875 517.414 155.809 516.942 155.809 516.445V516.158C155.809 515.661 155.875 515.192 156.007 514.75C156.144 514.303 156.346 513.909 156.615 513.567C156.889 513.226 157.23 512.957 157.641 512.761C158.055 512.565 158.541 512.467 159.097 512.467C159.675 512.467 160.181 512.585 160.614 512.822C161.047 513.055 161.387 513.374 161.633 513.779C161.883 514.18 162.02 514.636 162.043 515.146H160.84C160.817 514.841 160.73 514.565 160.58 514.319C160.434 514.073 160.234 513.877 159.979 513.731C159.728 513.581 159.434 513.506 159.097 513.506C158.709 513.506 158.383 513.583 158.119 513.738C157.859 513.889 157.652 514.094 157.497 514.354C157.347 514.609 157.237 514.894 157.169 515.208C157.105 515.518 157.073 515.835 157.073 516.158V516.445C157.073 516.769 157.105 517.088 157.169 517.402C157.233 517.717 157.34 518.002 157.49 518.257C157.645 518.512 157.853 518.717 158.112 518.872C158.377 519.022 158.705 519.098 159.097 519.098ZM163.13 516.384V516.227C163.13 515.693 163.207 515.199 163.362 514.743C163.517 514.283 163.741 513.884 164.032 513.547C164.324 513.205 164.677 512.941 165.092 512.754C165.507 512.562 165.971 512.467 166.486 512.467C167.006 512.467 167.473 512.562 167.888 512.754C168.307 512.941 168.662 513.205 168.954 513.547C169.25 513.884 169.476 514.283 169.631 514.743C169.786 515.199 169.863 515.693 169.863 516.227V516.384C169.863 516.917 169.786 517.411 169.631 517.867C169.476 518.323 169.25 518.722 168.954 519.063C168.662 519.401 168.309 519.665 167.895 519.856C167.484 520.043 167.02 520.137 166.5 520.137C165.98 520.137 165.513 520.043 165.099 519.856C164.684 519.665 164.328 519.401 164.032 519.063C163.741 518.722 163.517 518.323 163.362 517.867C163.207 517.411 163.13 516.917 163.13 516.384ZM164.395 516.227V516.384C164.395 516.753 164.438 517.102 164.524 517.43C164.611 517.753 164.741 518.04 164.914 518.291C165.092 518.542 165.313 518.74 165.577 518.886C165.841 519.027 166.149 519.098 166.5 519.098C166.846 519.098 167.149 519.027 167.409 518.886C167.674 518.74 167.892 518.542 168.065 518.291C168.239 518.04 168.368 517.753 168.455 517.43C168.546 517.102 168.592 516.753 168.592 516.384V516.227C168.592 515.862 168.546 515.518 168.455 515.194C168.368 514.866 168.236 514.577 168.059 514.326C167.885 514.071 167.667 513.87 167.402 513.725C167.143 513.579 166.837 513.506 166.486 513.506C166.14 513.506 165.835 513.579 165.57 513.725C165.311 513.87 165.092 514.071 164.914 514.326C164.741 514.577 164.611 514.866 164.524 515.194C164.438 515.518 164.395 515.862 164.395 516.227ZM172.153 512.604L173.773 515.297L175.414 512.604H176.897L174.478 516.254L176.973 520H175.51L173.801 517.225L172.092 520H170.622L173.11 516.254L170.697 512.604H172.153ZM179.509 514.025V522.844H178.237V512.604H179.399L179.509 514.025ZM184.492 516.24V516.384C184.492 516.922 184.428 517.421 184.301 517.881C184.173 518.337 183.986 518.733 183.74 519.07C183.499 519.408 183.2 519.67 182.845 519.856C182.489 520.043 182.081 520.137 181.621 520.137C181.152 520.137 180.737 520.059 180.377 519.904C180.017 519.749 179.712 519.524 179.461 519.228C179.21 518.931 179.01 518.576 178.859 518.161C178.714 517.746 178.613 517.279 178.559 516.76V515.994C178.613 515.447 178.716 514.957 178.866 514.524C179.017 514.091 179.215 513.722 179.461 513.417C179.712 513.107 180.015 512.872 180.37 512.713C180.726 512.549 181.136 512.467 181.601 512.467C182.065 512.467 182.478 512.558 182.838 512.74C183.198 512.918 183.501 513.173 183.747 513.506C183.993 513.839 184.178 514.237 184.301 514.702C184.428 515.162 184.492 515.675 184.492 516.24ZM183.221 516.384V516.24C183.221 515.871 183.182 515.525 183.104 515.201C183.027 514.873 182.906 514.586 182.742 514.34C182.583 514.089 182.378 513.893 182.127 513.752C181.876 513.606 181.578 513.533 181.231 513.533C180.912 513.533 180.634 513.588 180.397 513.697C180.165 513.807 179.967 513.955 179.803 514.142C179.639 514.324 179.504 514.534 179.399 514.771C179.299 515.003 179.224 515.244 179.174 515.495V517.266C179.265 517.585 179.393 517.885 179.557 518.168C179.721 518.446 179.939 518.672 180.213 518.845C180.486 519.013 180.83 519.098 181.245 519.098C181.587 519.098 181.881 519.027 182.127 518.886C182.378 518.74 182.583 518.542 182.742 518.291C182.906 518.04 183.027 517.753 183.104 517.43C183.182 517.102 183.221 516.753 183.221 516.384ZM190.467 518.735V514.928C190.467 514.636 190.408 514.383 190.289 514.169C190.175 513.95 190.002 513.782 189.77 513.663C189.537 513.545 189.25 513.485 188.908 513.485C188.589 513.485 188.309 513.54 188.067 513.649C187.83 513.759 187.644 513.902 187.507 514.08C187.375 514.258 187.309 514.449 187.309 514.654H186.044C186.044 514.39 186.112 514.128 186.249 513.868C186.386 513.608 186.582 513.374 186.837 513.164C187.097 512.95 187.407 512.781 187.767 512.658C188.131 512.531 188.537 512.467 188.983 512.467C189.521 512.467 189.995 512.558 190.405 512.74C190.82 512.923 191.144 513.198 191.376 513.567C191.613 513.932 191.731 514.39 191.731 514.941V518.387C191.731 518.633 191.752 518.895 191.793 519.173C191.839 519.451 191.905 519.69 191.991 519.891V520H190.672C190.608 519.854 190.558 519.66 190.521 519.419C190.485 519.173 190.467 518.945 190.467 518.735ZM190.686 515.516L190.699 516.404H189.421C189.061 516.404 188.74 516.434 188.457 516.493C188.174 516.548 187.938 516.632 187.746 516.746C187.555 516.86 187.409 517.004 187.309 517.177C187.208 517.345 187.158 517.544 187.158 517.771C187.158 518.004 187.211 518.216 187.315 518.407C187.42 518.599 187.577 518.751 187.787 518.865C188.001 518.975 188.263 519.029 188.573 519.029C188.961 519.029 189.302 518.947 189.599 518.783C189.895 518.619 190.13 518.419 190.303 518.182C190.48 517.945 190.576 517.715 190.59 517.491L191.13 518.1C191.098 518.291 191.011 518.503 190.87 518.735C190.729 518.968 190.54 519.191 190.303 519.405C190.07 519.615 189.792 519.79 189.469 519.932C189.15 520.068 188.79 520.137 188.389 520.137C187.887 520.137 187.448 520.039 187.069 519.843C186.696 519.647 186.404 519.385 186.194 519.057C185.989 518.724 185.887 518.353 185.887 517.942C185.887 517.546 185.964 517.197 186.119 516.896C186.274 516.591 186.497 516.338 186.789 516.138C187.081 515.933 187.432 515.778 187.842 515.673C188.252 515.568 188.71 515.516 189.216 515.516H190.686ZM198.738 515.81V516.835H194.828V515.81H198.738ZM195.095 512.604V520H193.83V512.604H195.095ZM199.764 512.604V520H198.492V512.604H199.764ZM204.87 520.137C204.355 520.137 203.888 520.05 203.469 519.877C203.054 519.699 202.696 519.451 202.396 519.132C202.099 518.813 201.871 518.435 201.712 517.997C201.552 517.56 201.473 517.081 201.473 516.562V516.274C201.473 515.673 201.562 515.137 201.739 514.668C201.917 514.194 202.159 513.793 202.464 513.465C202.769 513.137 203.116 512.888 203.503 512.72C203.89 512.551 204.291 512.467 204.706 512.467C205.235 512.467 205.69 512.558 206.073 512.74C206.461 512.923 206.777 513.178 207.023 513.506C207.27 513.829 207.452 514.212 207.57 514.654C207.689 515.092 207.748 515.57 207.748 516.09V516.657H202.225V515.625H206.483V515.529C206.465 515.201 206.397 514.882 206.278 514.572C206.164 514.262 205.982 514.007 205.731 513.807C205.481 513.606 205.139 513.506 204.706 513.506C204.419 513.506 204.155 513.567 203.913 513.69C203.672 513.809 203.464 513.987 203.291 514.224C203.118 514.461 202.983 514.75 202.888 515.092C202.792 515.434 202.744 515.828 202.744 516.274V516.562C202.744 516.912 202.792 517.243 202.888 517.553C202.988 517.858 203.132 518.127 203.318 518.359C203.51 518.592 203.74 518.774 204.009 518.906C204.282 519.038 204.592 519.104 204.938 519.104C205.385 519.104 205.763 519.013 206.073 518.831C206.383 518.649 206.654 518.405 206.887 518.1L207.652 518.708C207.493 518.95 207.29 519.18 207.044 519.398C206.798 519.617 206.495 519.795 206.135 519.932C205.779 520.068 205.358 520.137 204.87 520.137ZM214.242 515.81V516.835H210.332V515.81H214.242ZM210.599 512.604V520H209.334V512.604H210.599ZM215.268 512.604V520H213.996V512.604H215.268ZM222.322 515.81V516.835H218.412V515.81H222.322ZM218.679 512.604V520H217.414V512.604H218.679ZM223.348 512.604V520H222.076V512.604H223.348ZM226.424 515.146H228.646C229.243 515.146 229.746 515.251 230.156 515.461C230.566 515.666 230.876 515.951 231.086 516.315C231.3 516.675 231.407 517.086 231.407 517.546C231.407 517.888 231.348 518.209 231.229 518.51C231.111 518.806 230.933 519.066 230.696 519.289C230.464 519.512 230.174 519.688 229.828 519.815C229.486 519.938 229.092 520 228.646 520H225.501V512.604H226.766V518.961H228.646C229.01 518.961 229.302 518.895 229.521 518.763C229.739 518.631 229.896 518.46 229.992 518.25C230.088 518.04 230.136 517.822 230.136 517.594C230.136 517.37 230.088 517.152 229.992 516.938C229.896 516.723 229.739 516.546 229.521 516.404C229.302 516.258 229.01 516.186 228.646 516.186H226.424V515.146ZM234.039 512.604V520H232.774V512.604H234.039ZM237.108 512.604L238.729 515.297L240.369 512.604H241.853L239.433 516.254L241.928 520H240.465L238.756 517.225L237.047 520H235.577L238.065 516.254L235.652 512.604H237.108ZM252.25 512.604V520H250.985V512.604H252.25ZM251.819 516.001V517.04C251.564 517.136 251.304 517.222 251.04 517.3C250.78 517.373 250.505 517.432 250.213 517.478C249.926 517.519 249.614 517.539 249.276 517.539C248.693 517.539 248.187 517.439 247.759 517.238C247.33 517.033 247 516.726 246.768 516.315C246.535 515.901 246.419 515.379 246.419 514.75V512.59H247.684V514.75C247.684 515.16 247.745 515.493 247.868 515.748C247.991 516.003 248.171 516.192 248.408 516.315C248.645 516.434 248.935 516.493 249.276 516.493C249.604 516.493 249.912 516.473 250.199 516.432C250.491 516.386 250.769 516.327 251.033 516.254C251.302 516.181 251.564 516.097 251.819 516.001ZM257.356 520.137C256.841 520.137 256.374 520.05 255.955 519.877C255.54 519.699 255.183 519.451 254.882 519.132C254.586 518.813 254.358 518.435 254.198 517.997C254.039 517.56 253.959 517.081 253.959 516.562V516.274C253.959 515.673 254.048 515.137 254.226 514.668C254.403 514.194 254.645 513.793 254.95 513.465C255.256 513.137 255.602 512.888 255.989 512.72C256.377 512.551 256.778 512.467 257.192 512.467C257.721 512.467 258.177 512.558 258.56 512.74C258.947 512.923 259.264 513.178 259.51 513.506C259.756 513.829 259.938 514.212 260.057 514.654C260.175 515.092 260.234 515.57 260.234 516.09V516.657H254.711V515.625H258.97V515.529C258.951 515.201 258.883 514.882 258.765 514.572C258.651 514.262 258.468 514.007 258.218 513.807C257.967 513.606 257.625 513.506 257.192 513.506C256.905 513.506 256.641 513.567 256.399 513.69C256.158 513.809 255.951 513.987 255.777 514.224C255.604 514.461 255.47 514.75 255.374 515.092C255.278 515.434 255.23 515.828 255.23 516.274V516.562C255.23 516.912 255.278 517.243 255.374 517.553C255.474 517.858 255.618 518.127 255.805 518.359C255.996 518.592 256.226 518.774 256.495 518.906C256.769 519.038 257.078 519.104 257.425 519.104C257.871 519.104 258.25 519.013 258.56 518.831C258.869 518.649 259.141 518.405 259.373 518.1L260.139 518.708C259.979 518.95 259.776 519.18 259.53 519.398C259.284 519.617 258.981 519.795 258.621 519.932C258.266 520.068 257.844 520.137 257.356 520.137ZM263.085 512.604V520H261.82V512.604H263.085ZM267.938 512.604L264.432 516.842H262.661L262.47 515.734H263.919L266.4 512.604H267.938ZM266.578 520L263.857 516.65L264.671 515.734L268.185 520H266.578ZM268.8 516.384V516.227C268.8 515.693 268.877 515.199 269.032 514.743C269.187 514.283 269.41 513.884 269.702 513.547C269.994 513.205 270.347 512.941 270.762 512.754C271.176 512.562 271.641 512.467 272.156 512.467C272.676 512.467 273.143 512.562 273.558 512.754C273.977 512.941 274.332 513.205 274.624 513.547C274.92 513.884 275.146 514.283 275.301 514.743C275.456 515.199 275.533 515.693 275.533 516.227V516.384C275.533 516.917 275.456 517.411 275.301 517.867C275.146 518.323 274.92 518.722 274.624 519.063C274.332 519.401 273.979 519.665 273.564 519.856C273.154 520.043 272.689 520.137 272.17 520.137C271.65 520.137 271.183 520.043 270.769 519.856C270.354 519.665 269.998 519.401 269.702 519.063C269.41 518.722 269.187 518.323 269.032 517.867C268.877 517.411 268.8 516.917 268.8 516.384ZM270.064 516.227V516.384C270.064 516.753 270.108 517.102 270.194 517.43C270.281 517.753 270.411 518.04 270.584 518.291C270.762 518.542 270.983 518.74 271.247 518.886C271.511 519.027 271.819 519.098 272.17 519.098C272.516 519.098 272.819 519.027 273.079 518.886C273.343 518.74 273.562 518.542 273.735 518.291C273.909 518.04 274.038 517.753 274.125 517.43C274.216 517.102 274.262 516.753 274.262 516.384V516.227C274.262 515.862 274.216 515.518 274.125 515.194C274.038 514.866 273.906 514.577 273.729 514.326C273.555 514.071 273.337 513.87 273.072 513.725C272.812 513.579 272.507 513.506 272.156 513.506C271.81 513.506 271.505 513.579 271.24 513.725C270.98 513.87 270.762 514.071 270.584 514.326C270.411 514.577 270.281 514.866 270.194 515.194C270.108 515.518 270.064 515.862 270.064 516.227ZM280.592 516.746H278.165L278.151 515.734H280.134C280.526 515.734 280.852 515.696 281.111 515.618C281.376 515.541 281.574 515.424 281.706 515.27C281.838 515.115 281.904 514.923 281.904 514.695C281.904 514.518 281.866 514.363 281.788 514.23C281.715 514.094 281.604 513.982 281.453 513.896C281.303 513.804 281.116 513.738 280.893 513.697C280.674 513.652 280.416 513.629 280.12 513.629H278.5V520H277.235V512.604H280.12C280.59 512.604 281.011 512.645 281.385 512.727C281.763 512.809 282.084 512.934 282.349 513.103C282.618 513.267 282.823 513.476 282.964 513.731C283.105 513.987 283.176 514.287 283.176 514.634C283.176 514.857 283.13 515.069 283.039 515.27C282.948 515.47 282.813 515.648 282.636 515.803C282.458 515.958 282.239 516.085 281.979 516.186C281.72 516.281 281.421 516.343 281.084 516.37L280.592 516.746ZM280.592 520H277.707L278.336 518.975H280.592C280.943 518.975 281.234 518.931 281.467 518.845C281.699 518.754 281.872 518.626 281.986 518.462C282.105 518.293 282.164 518.093 282.164 517.86C282.164 517.628 282.105 517.43 281.986 517.266C281.872 517.097 281.699 516.969 281.467 516.883C281.234 516.792 280.943 516.746 280.592 516.746H278.671L278.685 515.734H281.084L281.542 516.117C281.948 516.149 282.292 516.249 282.574 516.418C282.857 516.587 283.071 516.801 283.217 517.061C283.363 517.316 283.436 517.594 283.436 517.895C283.436 518.241 283.369 518.546 283.237 518.811C283.11 519.075 282.923 519.296 282.677 519.474C282.431 519.647 282.132 519.779 281.781 519.87C281.43 519.957 281.034 520 280.592 520Z" fill="#747474"/>
</g>
<defs>
<linearGradient id="paint0_linear_13_11459" x1="160.269" y1="291.886" x2="160.269" y2="435.194" gradientUnits="userSpaceOnUse">
<stop stop-color="#ECEAF4"/>
<stop offset="0.1352" stop-color="#E3E1F0"/>
<stop offset="0.3592" stop-color="#CAC7E4"/>
<stop offset="0.5674" stop-color="#AEAAD7"/>
<stop offset="0.8652" stop-color="#847CBE"/>
<stop offset="0.9944" stop-color="#696397"/>
</linearGradient>
<linearGradient id="paint1_linear_13_11459" x1="211.338" y1="405.646" x2="211.338" y2="611.043" gradientUnits="userSpaceOnUse">
<stop stop-color="#ECEAF4"/>
<stop offset="0.1352" stop-color="#E3E1F0"/>
<stop offset="0.3592" stop-color="#CAC7E4"/>
<stop offset="0.5674" stop-color="#AEAAD7"/>
<stop offset="0.8652" stop-color="#847CBE"/>
<stop offset="0.9944" stop-color="#696397"/>
</linearGradient>
<clipPath id="clip0_13_11459">
<rect width="375" height="812" fill="white"/>
</clipPath>
<clipPath id="clip1_13_11459">
<rect width="375" height="44" fill="white"/>
</clipPath>
<clipPath id="clip2_13_11459">
<rect width="375" height="44" fill="white"/>
</clipPath>
</defs>
</svg>
