<svg width="375" height="812" viewBox="0 0 375 812" fill="none" xmlns="http://www.w3.org/2000/svg">
<g clip-path="url(#clip0_44_3380)">
<rect width="375" height="812" fill="#F4F3F1"/>
<path d="M0 0H375V260C375 260 272.897 199.089 183.5 200.5C96.6988 201.87 0 260 0 260V0Z" fill="#102466"/>
<path d="M35.8242 78.0938V81.5918H22.2363V78.0938H35.8242ZM23.3262 67.4062V93H18.9141V67.4062H23.3262ZM39.2168 67.4062V93H34.8223V67.4062H39.2168ZM54.7734 89.1855V80.1152C54.7734 79.4355 54.6504 78.8496 54.4043 78.3574C54.1582 77.8652 53.7832 77.4844 53.2793 77.2148C52.7871 76.9453 52.166 76.8105 51.416 76.8105C50.7246 76.8105 50.127 76.9277 49.623 77.1621C49.1191 77.3965 48.7266 77.7129 48.4453 78.1113C48.1641 78.5098 48.0234 78.9609 48.0234 79.4648H43.8047C43.8047 78.7148 43.9863 77.9883 44.3496 77.2852C44.7129 76.582 45.2402 75.9551 45.9316 75.4043C46.623 74.8535 47.4492 74.4199 48.4102 74.1035C49.3711 73.7871 50.4492 73.6289 51.6445 73.6289C53.0742 73.6289 54.3398 73.8691 55.4414 74.3496C56.5547 74.8301 57.4277 75.5566 58.0605 76.5293C58.7051 77.4902 59.0273 78.6973 59.0273 80.1504V88.6055C59.0273 89.4727 59.0859 90.252 59.2031 90.9434C59.332 91.623 59.5137 92.2148 59.748 92.7188V93H55.4062C55.207 92.543 55.0488 91.9629 54.9316 91.2598C54.8262 90.5449 54.7734 89.8535 54.7734 89.1855ZM55.3887 81.4336L55.4238 84.0527H52.3828C51.5977 84.0527 50.9062 84.1289 50.3086 84.2812C49.7109 84.4219 49.2129 84.6328 48.8145 84.9141C48.416 85.1953 48.1172 85.5352 47.918 85.9336C47.7188 86.332 47.6191 86.7832 47.6191 87.2871C47.6191 87.791 47.7363 88.2539 47.9707 88.6758C48.2051 89.0859 48.5449 89.4082 48.9902 89.6426C49.4473 89.877 49.998 89.9941 50.6426 89.9941C51.5098 89.9941 52.2656 89.8184 52.9102 89.4668C53.5664 89.1035 54.082 88.6641 54.457 88.1484C54.832 87.6211 55.0312 87.123 55.0547 86.6543L56.4258 88.5352C56.2852 89.0156 56.0449 89.5312 55.7051 90.082C55.3652 90.6328 54.9199 91.1602 54.3691 91.6641C53.8301 92.1562 53.1797 92.5605 52.418 92.877C51.668 93.1934 50.8008 93.3516 49.8164 93.3516C48.5742 93.3516 47.4668 93.1055 46.4941 92.6133C45.5215 92.1094 44.7598 91.4355 44.209 90.5918C43.6582 89.7363 43.3828 88.7695 43.3828 87.6914C43.3828 86.6836 43.5703 85.793 43.9453 85.0195C44.332 84.2344 44.8945 83.5781 45.6328 83.0508C46.3828 82.5234 47.2969 82.125 48.375 81.8555C49.4531 81.5742 50.6836 81.4336 52.0664 81.4336H55.3887ZM71.2266 89.9766C71.918 89.9766 72.5391 89.8418 73.0898 89.5723C73.6523 89.291 74.1035 88.9043 74.4434 88.4121C74.7949 87.9199 74.9883 87.3516 75.0234 86.707H79.0137C78.9902 87.9375 78.627 89.0566 77.9238 90.0645C77.2207 91.0723 76.2891 91.875 75.1289 92.4727C73.9688 93.0586 72.6855 93.3516 71.2793 93.3516C69.8262 93.3516 68.5605 93.1055 67.4824 92.6133C66.4043 92.1094 65.5078 91.418 64.793 90.5391C64.0781 89.6602 63.5391 88.6465 63.1758 87.498C62.8242 86.3496 62.6484 85.1191 62.6484 83.8066V83.1914C62.6484 81.8789 62.8242 80.6484 63.1758 79.5C63.5391 78.3398 64.0781 77.3203 64.793 76.4414C65.5078 75.5625 66.4043 74.877 67.4824 74.3848C68.5605 73.8809 69.8203 73.6289 71.2617 73.6289C72.7852 73.6289 74.1211 73.9336 75.2695 74.543C76.418 75.1406 77.3203 75.9785 77.9766 77.0566C78.6445 78.123 78.9902 79.3652 79.0137 80.7832H75.0234C74.9883 80.0801 74.8125 79.4473 74.4961 78.8848C74.1914 78.3105 73.7578 77.8535 73.1953 77.5137C72.6445 77.1738 71.9824 77.0039 71.209 77.0039C70.3535 77.0039 69.6445 77.1797 69.082 77.5312C68.5195 77.8711 68.0801 78.3398 67.7637 78.9375C67.4473 79.5234 67.2188 80.1855 67.0781 80.9238C66.9492 81.6504 66.8848 82.4062 66.8848 83.1914V83.8066C66.8848 84.5918 66.9492 85.3535 67.0781 86.0918C67.207 86.8301 67.4297 87.4922 67.7461 88.0781C68.0742 88.6523 68.5195 89.1152 69.082 89.4668C69.6445 89.8066 70.3594 89.9766 71.2266 89.9766ZM91.0898 73.9805V93H86.8359V73.9805H91.0898ZM97.3301 73.9805V77.3203H80.7012V73.9805H97.3301ZM104.414 77.6367V100.312H100.178V73.9805H104.08L104.414 77.6367ZM116.807 83.3145V83.6836C116.807 85.0664 116.643 86.3496 116.314 87.5332C115.998 88.7051 115.523 89.7305 114.891 90.6094C114.27 91.4766 113.502 92.1504 112.588 92.6309C111.674 93.1113 110.619 93.3516 109.424 93.3516C108.24 93.3516 107.203 93.1348 106.312 92.7012C105.434 92.2559 104.689 91.6289 104.08 90.8203C103.471 90.0117 102.979 89.0625 102.604 87.9727C102.24 86.8711 101.982 85.6641 101.83 84.3516V82.9277C101.982 81.5332 102.24 80.2676 102.604 79.1309C102.979 77.9941 103.471 77.0156 104.08 76.1953C104.689 75.375 105.434 74.7422 106.312 74.2969C107.191 73.8516 108.217 73.6289 109.389 73.6289C110.584 73.6289 111.645 73.8633 112.57 74.332C113.496 74.7891 114.275 75.4453 114.908 76.3008C115.541 77.1445 116.016 78.1641 116.332 79.3594C116.648 80.543 116.807 81.8613 116.807 83.3145ZM112.57 83.6836V83.3145C112.57 82.4355 112.488 81.6211 112.324 80.8711C112.16 80.1094 111.902 79.4414 111.551 78.8672C111.199 78.293 110.748 77.8477 110.197 77.5312C109.658 77.2031 109.008 77.0391 108.246 77.0391C107.496 77.0391 106.852 77.168 106.312 77.4258C105.773 77.6719 105.322 78.0176 104.959 78.4629C104.596 78.9082 104.314 79.4297 104.115 80.0273C103.916 80.6133 103.775 81.252 103.693 81.9434V85.3535C103.834 86.1973 104.074 86.9707 104.414 87.6738C104.754 88.377 105.234 88.9395 105.855 89.3613C106.488 89.7715 107.297 89.9766 108.281 89.9766C109.043 89.9766 109.693 89.8125 110.232 89.4844C110.771 89.1562 111.211 88.7051 111.551 88.1309C111.902 87.5449 112.16 86.8711 112.324 86.1094C112.488 85.3477 112.57 84.5391 112.57 83.6836ZM119.602 83.7012V83.2969C119.602 81.9258 119.801 80.6543 120.199 79.4824C120.598 78.2988 121.172 77.2734 121.922 76.4062C122.684 75.5273 123.609 74.8477 124.699 74.3672C125.801 73.875 127.043 73.6289 128.426 73.6289C129.82 73.6289 131.062 73.875 132.152 74.3672C133.254 74.8477 134.186 75.5273 134.947 76.4062C135.709 77.2734 136.289 78.2988 136.688 79.4824C137.086 80.6543 137.285 81.9258 137.285 83.2969V83.7012C137.285 85.0723 137.086 86.3438 136.688 87.5156C136.289 88.6875 135.709 89.7129 134.947 90.5918C134.186 91.459 133.26 92.1387 132.17 92.6309C131.08 93.1113 129.844 93.3516 128.461 93.3516C127.066 93.3516 125.818 93.1113 124.717 92.6309C123.627 92.1387 122.701 91.459 121.939 90.5918C121.178 89.7129 120.598 88.6875 120.199 87.5156C119.801 86.3438 119.602 85.0723 119.602 83.7012ZM123.838 83.2969V83.7012C123.838 84.5566 123.926 85.3652 124.102 86.127C124.277 86.8887 124.553 87.5566 124.928 88.1309C125.303 88.7051 125.783 89.1562 126.369 89.4844C126.955 89.8125 127.652 89.9766 128.461 89.9766C129.246 89.9766 129.926 89.8125 130.5 89.4844C131.086 89.1562 131.566 88.7051 131.941 88.1309C132.316 87.5566 132.592 86.8887 132.768 86.127C132.955 85.3652 133.049 84.5566 133.049 83.7012V83.2969C133.049 82.4531 132.955 81.6562 132.768 80.9062C132.592 80.1445 132.311 79.4707 131.924 78.8848C131.549 78.2988 131.068 77.8418 130.482 77.5137C129.908 77.1738 129.223 77.0039 128.426 77.0039C127.629 77.0039 126.938 77.1738 126.352 77.5137C125.777 77.8418 125.303 78.2988 124.928 78.8848C124.553 79.4707 124.277 80.1445 124.102 80.9062C123.926 81.6562 123.838 82.4531 123.838 83.2969ZM145.213 86.8125L152.684 73.9805H156.92V93H152.684V80.1504L145.213 93H140.977V73.9805H145.213V86.8125ZM151.559 66.668H154.705C154.705 67.6406 154.471 68.502 154.002 69.252C153.545 69.9902 152.889 70.5703 152.033 70.9922C151.189 71.4141 150.182 71.625 149.01 71.625C147.24 71.625 145.84 71.168 144.809 70.2539C143.789 69.3281 143.279 68.1328 143.279 66.668H146.426C146.426 67.3242 146.619 67.9043 147.006 68.4082C147.404 68.9004 148.072 69.1465 149.01 69.1465C149.936 69.1465 150.592 68.9004 150.979 68.4082C151.365 67.9043 151.559 67.3242 151.559 66.668ZM165.973 73.9805V93H161.736V73.9805H165.973ZM178.383 73.9805L169.822 85.4238H164.988L164.426 81.5918H167.959L173.092 73.9805H178.383ZM173.426 93L167.695 84.7031L171.035 82.2949L178.998 93H173.426ZM185.678 86.8125L193.148 73.9805H197.385V93H193.148V80.1504L185.678 93H181.441V73.9805H185.678V86.8125Z" fill="#FE724C"/>
<mask id="path-3-inside-1_44_3380" fill="white">
<path d="M0 732H375V812H0V732Z"/>
</mask>
<path d="M0 732H375V812H0V732Z" fill="#102466"/>
<path d="M0 733H375V731H0V733Z" fill="white" mask="url(#path-3-inside-1_44_3380)"/>
<path fill-rule="evenodd" clip-rule="evenodd" d="M40.9553 754.25C40.9701 754.25 40.985 754.25 41 754.25L57.0447 754.25C57.4776 754.25 57.8744 754.25 58.1972 754.293C58.5527 754.341 58.9284 754.454 59.2374 754.763C59.5465 755.072 59.6589 755.447 59.7067 755.803C59.7501 756.126 59.7501 756.522 59.75 756.955V757.045C59.7501 757.478 59.7501 757.874 59.7067 758.197C59.6589 758.553 59.5465 758.928 59.2374 759.237C58.9437 759.531 58.5896 759.647 58.25 759.699V765.056C58.25 766.894 58.25 768.35 58.0969 769.489C57.9392 770.661 57.6071 771.61 56.8588 772.359C56.1104 773.107 55.1614 773.439 53.989 773.597C52.8498 773.75 51.3942 773.75 49.5564 773.75H48.4436C46.6058 773.75 45.1502 773.75 44.011 773.597C42.8386 773.439 41.8896 773.107 41.1412 772.359C40.3929 771.61 40.0608 770.661 39.9031 769.489C39.75 768.35 39.75 766.894 39.75 765.056L39.75 759.699C39.4104 759.647 39.0563 759.531 38.7626 759.237C38.4535 758.928 38.3411 758.553 38.2933 758.197C38.2499 757.874 38.2499 757.478 38.25 757.045C38.25 757.03 38.25 757.015 38.25 757C38.25 756.985 38.25 756.97 38.25 756.955C38.2499 756.522 38.2499 756.126 38.2933 755.803C38.3411 755.447 38.4535 755.072 38.7626 754.763C39.0716 754.454 39.4473 754.341 39.8028 754.293C40.1256 754.25 40.5224 754.25 40.9553 754.25ZM41.25 759.75V765C41.25 766.907 41.2516 768.261 41.3898 769.289C41.525 770.295 41.7787 770.875 42.2019 771.298C42.6251 771.721 43.2048 771.975 44.2108 772.11C45.2385 772.248 46.5932 772.25 48.5 772.25H49.5C51.4068 772.25 52.7615 772.248 53.7892 772.11C54.7952 771.975 55.3749 771.721 55.7981 771.298C56.2213 770.875 56.475 770.295 56.6102 769.289C56.7484 768.261 56.75 766.907 56.75 765V759.75H41.25ZM39.8232 755.823L39.8257 755.822C39.8276 755.821 39.8309 755.819 39.836 755.817C39.8577 755.808 39.9061 755.793 40.0027 755.78C40.2134 755.752 40.5074 755.75 41 755.75H57C57.4926 755.75 57.7866 755.752 57.9973 755.78C58.0939 755.793 58.1423 755.808 58.164 755.817C58.1691 755.819 58.1724 755.821 58.1743 755.822L58.1768 755.823L58.1781 755.826C58.1791 755.828 58.1808 755.831 58.1828 755.836C58.1918 755.858 58.2071 755.906 58.2201 756.003C58.2484 756.213 58.25 756.507 58.25 757C58.25 757.493 58.2484 757.787 58.2201 757.997C58.2071 758.094 58.1918 758.142 58.1828 758.164C58.1808 758.169 58.1791 758.172 58.1781 758.174L58.1768 758.177L58.1743 758.178C58.1724 758.179 58.1691 758.181 58.164 758.183C58.1423 758.192 58.0939 758.207 57.9973 758.22C57.7866 758.248 57.4926 758.25 57 758.25H41C40.5074 758.25 40.2134 758.248 40.0027 758.22C39.9061 758.207 39.8577 758.192 39.836 758.183C39.8309 758.181 39.8276 758.179 39.8257 758.178L39.8232 758.177L39.8219 758.174C39.8209 758.172 39.8192 758.169 39.8172 758.164C39.8082 758.142 39.7929 758.094 39.7799 757.997C39.7516 757.787 39.75 757.493 39.75 757C39.75 756.507 39.7516 756.213 39.7799 756.003C39.7929 755.906 39.8082 755.858 39.8172 755.836C39.8192 755.831 39.8209 755.828 39.8219 755.826L39.8232 755.823ZM39.8232 758.177C39.823 758.176 39.8228 758.176 39.8232 758.177ZM47.4782 761.75H50.5218C50.736 761.75 50.9329 761.75 51.0982 761.761C51.2759 761.773 51.4712 761.801 51.6697 761.883C52.0985 762.061 52.4392 762.402 52.6168 762.83C52.699 763.029 52.7266 763.224 52.7387 763.402C52.75 763.567 52.75 763.764 52.75 763.978V764.022C52.75 764.236 52.75 764.433 52.7387 764.598C52.7266 764.776 52.699 764.971 52.6168 765.17C52.4392 765.599 52.0985 765.939 51.6697 766.117C51.4712 766.199 51.2759 766.227 51.0982 766.239C50.9329 766.25 50.736 766.25 50.5218 766.25H47.4782C47.264 766.25 47.0671 766.25 46.9018 766.239C46.7241 766.227 46.5288 766.199 46.3303 766.117C45.9015 765.939 45.5608 765.599 45.3832 765.17C45.301 764.971 45.2734 764.776 45.2613 764.598C45.25 764.433 45.25 764.236 45.25 764.022V763.978C45.25 763.764 45.25 763.567 45.2613 763.402C45.2734 763.224 45.301 763.029 45.3832 762.83C45.5608 762.402 45.9015 762.061 46.3303 761.883C46.5288 761.801 46.7241 761.773 46.9018 761.761C47.0671 761.75 47.264 761.75 47.4782 761.75ZM46.9013 763.27C46.8425 763.296 46.7956 763.342 46.7703 763.401C46.7684 763.409 46.7623 763.437 46.7578 763.504C46.7504 763.612 46.75 763.757 46.75 764C46.75 764.243 46.7504 764.388 46.7578 764.496C46.7623 764.563 46.7684 764.591 46.7703 764.599C46.7956 764.658 46.8425 764.704 46.9013 764.73C46.9087 764.732 46.9371 764.738 47.0039 764.742C47.1119 764.75 47.2568 764.75 47.5 764.75H50.5C50.7432 764.75 50.8881 764.75 50.9961 764.742C51.0629 764.738 51.0913 764.732 51.0987 764.73C51.1575 764.704 51.2044 764.658 51.2297 764.599C51.2316 764.591 51.2377 764.563 51.2422 764.496C51.2496 764.388 51.25 764.243 51.25 764C51.25 763.757 51.2496 763.612 51.2422 763.504C51.2377 763.437 51.2316 763.409 51.2297 763.401C51.2044 763.342 51.1575 763.296 51.0987 763.27C51.0913 763.268 51.0629 763.262 50.9961 763.258C50.8881 763.25 50.7432 763.25 50.5 763.25H47.5C47.2568 763.25 47.1119 763.25 47.0039 763.258C46.9371 763.262 46.9087 763.268 46.9013 763.27Z" fill="#747474"/>
<path fill-rule="evenodd" clip-rule="evenodd" d="M121.955 753.25C121.522 753.25 121.126 753.25 120.803 753.293C120.447 753.341 120.072 753.454 119.763 753.763C119.454 754.072 119.341 754.447 119.293 754.803C119.25 755.126 119.25 755.522 119.25 755.955V769.045C119.25 769.478 119.25 769.874 119.293 770.197C119.341 770.553 119.454 770.928 119.763 771.237C120.072 771.546 120.447 771.659 120.803 771.707C121.126 771.75 121.522 771.75 121.955 771.75H122.045C122.478 771.75 122.874 771.75 123.197 771.707C123.553 771.659 123.928 771.546 124.237 771.237C124.546 770.928 124.659 770.553 124.707 770.197C124.75 769.874 124.75 769.478 124.75 769.045V755.955C124.75 755.522 124.75 755.126 124.707 754.803C124.659 754.447 124.546 754.072 124.237 753.763C123.928 753.454 123.553 753.341 123.197 753.293C122.874 753.25 122.478 753.25 122.045 753.25H121.955ZM120.826 754.822L120.823 754.823L120.822 754.826C120.821 754.828 120.819 754.831 120.817 754.836C120.808 754.858 120.793 754.906 120.78 755.003C120.752 755.213 120.75 755.507 120.75 756V769C120.75 769.493 120.752 769.787 120.78 769.997C120.793 770.094 120.808 770.142 120.817 770.164C120.819 770.169 120.821 770.172 120.822 770.174L120.823 770.177L120.826 770.178C120.826 770.179 120.828 770.179 120.829 770.18C120.831 770.181 120.833 770.182 120.836 770.183C120.858 770.192 120.906 770.207 121.003 770.22C121.213 770.248 121.507 770.25 122 770.25C122.493 770.25 122.787 770.248 122.997 770.22C123.094 770.207 123.142 770.192 123.164 770.183C123.169 770.181 123.172 770.179 123.174 770.178L123.177 770.177L123.178 770.174C123.179 770.172 123.181 770.169 123.183 770.164C123.192 770.142 123.207 770.094 123.22 769.997C123.248 769.787 123.25 769.493 123.25 769V756C123.25 755.507 123.248 755.213 123.22 755.003C123.207 754.906 123.192 754.858 123.183 754.836C123.181 754.831 123.179 754.828 123.178 754.826L123.177 754.823L123.174 754.822C123.172 754.821 123.169 754.819 123.164 754.817C123.142 754.808 123.094 754.793 122.997 754.78C122.787 754.752 122.493 754.75 122 754.75C121.507 754.75 121.213 754.752 121.003 754.78C120.906 754.793 120.858 754.808 120.836 754.817C120.831 754.819 120.828 754.821 120.826 754.822Z" fill="#747474"/>
<path fill-rule="evenodd" clip-rule="evenodd" d="M114.955 756.25H115.045C115.478 756.25 115.874 756.25 116.197 756.293C116.553 756.341 116.928 756.454 117.237 756.763C117.546 757.072 117.659 757.447 117.707 757.803C117.75 758.126 117.75 758.522 117.75 758.955V769.045C117.75 769.478 117.75 769.874 117.707 770.197C117.659 770.553 117.546 770.928 117.237 771.237C116.928 771.546 116.553 771.659 116.197 771.707C115.874 771.75 115.478 771.75 115.045 771.75H114.955C114.522 771.75 114.126 771.75 113.803 771.707C113.447 771.659 113.072 771.546 112.763 771.237C112.454 770.928 112.341 770.553 112.293 770.197C112.25 769.874 112.25 769.478 112.25 769.045V758.955C112.25 758.522 112.25 758.126 112.293 757.803C112.341 757.447 112.454 757.072 112.763 756.763C113.072 756.454 113.447 756.341 113.803 756.293C114.126 756.25 114.522 756.25 114.955 756.25ZM113.823 757.823L113.826 757.822L113.823 770.177L113.822 770.174C113.821 770.172 113.819 770.169 113.817 770.164C113.808 770.142 113.793 770.094 113.78 769.997C113.752 769.787 113.75 769.493 113.75 769V759C113.75 758.507 113.752 758.213 113.78 758.003C113.793 757.906 113.808 757.858 113.817 757.836C113.819 757.831 113.821 757.828 113.822 757.826L113.823 757.823ZM113.823 770.177L113.826 757.822L113.829 757.82L113.836 757.817C113.858 757.808 113.906 757.793 114.003 757.78C114.213 757.752 114.507 757.75 115 757.75C115.493 757.75 115.787 757.752 115.997 757.78C116.094 757.793 116.142 757.808 116.164 757.817C116.169 757.819 116.172 757.821 116.174 757.822L116.177 757.823L116.178 757.826C116.179 757.828 116.181 757.831 116.183 757.836C116.192 757.858 116.207 757.906 116.22 758.003C116.248 758.213 116.25 758.507 116.25 759V769C116.25 769.493 116.248 769.787 116.22 769.997C116.207 770.094 116.192 770.142 116.183 770.164C116.181 770.169 116.179 770.172 116.178 770.174L116.177 770.177L116.174 770.178C116.173 770.179 116.171 770.18 116.169 770.181C116.167 770.181 116.166 770.182 116.164 770.183C116.142 770.192 116.094 770.207 115.997 770.22C115.787 770.248 115.493 770.25 115 770.25C114.507 770.25 114.213 770.248 114.003 770.22C113.906 770.207 113.858 770.192 113.836 770.183C113.831 770.181 113.828 770.179 113.826 770.178L113.823 770.177Z" fill="#747474"/>
<path fill-rule="evenodd" clip-rule="evenodd" d="M107.955 760.25C107.522 760.25 107.126 760.25 106.803 760.293C106.447 760.341 106.072 760.454 105.763 760.763C105.454 761.072 105.341 761.447 105.293 761.803C105.25 762.126 105.25 762.522 105.25 762.955V769.045C105.25 769.478 105.25 769.874 105.293 770.197C105.341 770.553 105.454 770.928 105.763 771.237C106.072 771.546 106.447 771.659 106.803 771.707C107.126 771.75 107.522 771.75 107.955 771.75H108.045C108.478 771.75 108.874 771.75 109.197 771.707C109.553 771.659 109.928 771.546 110.237 771.237C110.546 770.928 110.659 770.553 110.707 770.197C110.75 769.874 110.75 769.478 110.75 769.045V762.955C110.75 762.522 110.75 762.126 110.707 761.803C110.659 761.447 110.546 761.072 110.237 760.763C109.928 760.454 109.553 760.341 109.197 760.293C108.874 760.25 108.478 760.25 108.045 760.25H107.955ZM106.826 761.822L106.823 761.823L106.822 761.826C106.821 761.828 106.819 761.831 106.817 761.836C106.808 761.858 106.793 761.906 106.78 762.003C106.752 762.213 106.75 762.507 106.75 763V769C106.75 769.493 106.752 769.787 106.78 769.997C106.793 770.094 106.808 770.142 106.817 770.164C106.819 770.169 106.821 770.172 106.822 770.174L106.823 770.176L106.826 770.178C106.828 770.179 106.831 770.181 106.836 770.183C106.858 770.192 106.906 770.207 107.003 770.22C107.213 770.248 107.507 770.25 108 770.25C108.493 770.25 108.787 770.248 108.997 770.22C109.094 770.207 109.142 770.192 109.164 770.183C109.169 770.181 109.172 770.179 109.174 770.178L109.177 770.177L109.178 770.174L109.18 770.17L109.183 770.164C109.192 770.142 109.207 770.094 109.22 769.997C109.248 769.787 109.25 769.493 109.25 769V763C109.25 762.507 109.248 762.213 109.22 762.003C109.207 761.906 109.192 761.858 109.183 761.836C109.181 761.831 109.179 761.828 109.178 761.826L109.177 761.823L109.174 761.822C109.172 761.821 109.169 761.819 109.164 761.817C109.142 761.808 109.094 761.793 108.997 761.78C108.787 761.752 108.493 761.75 108 761.75C107.507 761.75 107.213 761.752 107.003 761.78C106.906 761.793 106.858 761.808 106.836 761.817C106.831 761.819 106.828 761.821 106.826 761.822Z" fill="#747474"/>
<path d="M106 773.25C105.586 773.25 105.25 773.586 105.25 774C105.25 774.414 105.586 774.75 106 774.75H124C124.414 774.75 124.75 774.414 124.75 774C124.75 773.586 124.414 773.25 124 773.25H106Z" fill="#747474"/>
<path d="M218.5 749.5C218.5 766.053 204.636 779.5 187.5 779.5C170.364 779.5 156.5 766.053 156.5 749.5C156.5 732.947 170.364 719.5 187.5 719.5C204.636 719.5 218.5 732.947 218.5 749.5Z" fill="#102466" stroke="white"/>
<path fill-rule="evenodd" clip-rule="evenodd" d="M183.598 742.487C183.865 741.177 185.031 740.25 186.366 740.25H189.634C190.969 740.25 192.135 741.177 192.402 742.487C192.463 742.789 192.737 743.011 193.022 743.011H193.038L193.055 743.012C194.458 743.073 195.536 743.245 196.436 743.836C197.003 744.208 197.491 744.686 197.871 745.245C198.344 745.939 198.552 746.737 198.652 747.701C198.75 748.644 198.75 749.825 198.75 751.321V751.406C198.75 752.902 198.75 754.083 198.652 755.026C198.552 755.99 198.344 756.788 197.871 757.483C197.491 758.041 197.003 758.52 196.436 758.892C195.733 759.353 194.926 759.557 193.948 759.654C192.99 759.75 191.789 759.75 190.263 759.75H185.737C184.211 759.75 183.01 759.75 182.052 759.654C181.074 759.557 180.267 759.353 179.564 758.892C178.997 758.52 178.509 758.041 178.129 757.483C177.656 756.788 177.448 755.99 177.348 755.026C177.25 754.083 177.25 752.902 177.25 751.406V751.321C177.25 749.825 177.25 748.644 177.348 747.701C177.448 746.737 177.656 745.939 178.129 745.245C178.509 744.686 178.997 744.208 179.564 743.836C180.464 743.245 181.542 743.073 182.945 743.012L182.962 743.011H182.978C183.263 743.011 183.537 742.789 183.598 742.487ZM186.366 741.75C185.725 741.75 185.189 742.193 185.068 742.786C184.873 743.747 184.021 744.502 182.996 744.511C181.648 744.571 180.925 744.736 180.387 745.09C179.983 745.355 179.638 745.694 179.369 746.089C179.093 746.494 178.927 747.013 178.84 747.856C178.751 748.712 178.75 749.816 178.75 751.364C178.75 752.912 178.751 754.015 178.84 754.871C178.927 755.714 179.093 756.233 179.369 756.639C179.638 757.033 179.983 757.373 180.387 757.637C180.804 757.911 181.338 758.076 182.201 758.162C183.075 758.249 184.202 758.25 185.778 758.25H190.222C191.798 758.25 192.925 758.249 193.799 758.162C194.662 758.076 195.196 757.911 195.613 757.637C196.017 757.373 196.362 757.033 196.631 756.639C196.907 756.233 197.073 755.714 197.16 754.871C197.249 754.015 197.25 752.912 197.25 751.364C197.25 749.816 197.249 748.712 197.16 747.856C197.073 747.013 196.907 746.494 196.631 746.089C196.362 745.694 196.017 745.355 195.613 745.09C195.075 744.736 194.352 744.571 193.004 744.511C191.979 744.502 191.127 743.747 190.932 742.786C190.811 742.193 190.275 741.75 189.634 741.75H186.366ZM188 748.75C186.757 748.75 185.75 749.757 185.75 751C185.75 752.243 186.757 753.25 188 753.25C189.243 753.25 190.25 752.243 190.25 751C190.25 749.757 189.243 748.75 188 748.75ZM184.25 751C184.25 748.929 185.929 747.25 188 747.25C190.071 747.25 191.75 748.929 191.75 751C191.75 753.071 190.071 754.75 188 754.75C185.929 754.75 184.25 753.071 184.25 751ZM193.25 748C193.25 747.586 193.586 747.25 194 747.25H195C195.414 747.25 195.75 747.586 195.75 748C195.75 748.414 195.414 748.75 195 748.75H194C193.586 748.75 193.25 748.414 193.25 748Z" fill="white"/>
<path fill-rule="evenodd" clip-rule="evenodd" d="M257.465 754.821C259.087 754.06 260.913 754.06 262.536 754.821L269.227 757.958C270.279 758.451 270.75 759.522 270.75 760.5C270.75 761.478 270.279 762.549 269.227 763.042L267.75 763.735V768.625C267.75 769.878 267.122 771.088 265.978 771.722C265.226 772.138 264.238 772.639 263.199 773.038C262.171 773.432 261.034 773.75 260 773.75C258.966 773.75 257.829 773.432 256.801 773.038C255.762 772.639 254.774 772.138 254.022 771.722C252.878 771.088 252.25 769.878 252.25 768.625V763.5C252.25 763.459 252.253 763.418 252.26 763.378C252.236 763.234 252.254 763.082 252.321 762.94C252.497 762.565 252.944 762.403 253.319 762.579L258.101 764.821C259.321 765.393 260.68 765.393 261.899 764.821L268.59 761.684C268.993 761.495 269.25 761.044 269.25 760.5C269.25 759.956 268.993 759.505 268.59 759.316L261.899 756.179C260.68 755.607 259.321 755.607 258.101 756.179L251.41 759.316C251.035 759.491 250.589 759.33 250.413 758.955C250.237 758.58 250.398 758.133 250.773 757.958L257.465 754.821ZM253.75 764.438V768.625C253.75 769.388 254.129 770.066 254.749 770.409C255.465 770.806 256.387 771.272 257.338 771.637C258.302 772.007 259.238 772.25 260 772.25C260.762 772.25 261.698 772.007 262.662 771.637C263.613 771.272 264.535 770.806 265.251 770.409C265.871 770.066 266.25 769.388 266.25 768.625V764.438L262.536 766.179C260.913 766.94 259.087 766.94 257.465 766.179L253.75 764.438Z" fill="#747474"/>
<path d="M254.689 759.705C254.853 760.085 254.676 760.526 254.295 760.689L253.22 761.15C252.617 761.409 252.22 761.58 251.928 761.744C251.652 761.899 251.532 762.015 251.456 762.131C251.38 762.246 251.321 762.402 251.287 762.716C251.251 763.049 251.25 763.482 251.25 764.138V767C251.25 767.414 250.914 767.75 250.5 767.75C250.086 767.75 249.75 767.414 249.75 767V764.099C249.75 763.492 249.75 762.978 249.796 762.555C249.844 762.105 249.95 761.691 250.204 761.305C250.459 760.919 250.798 760.659 251.193 760.437C251.563 760.228 252.036 760.026 252.593 759.787L253.705 759.311C254.085 759.147 254.526 759.324 254.689 759.705Z" fill="#747474"/>
<circle cx="326" cy="764" r="24" fill="#284194"/>
<path fill-rule="evenodd" clip-rule="evenodd" d="M326 760.25C323.929 760.25 322.25 761.929 322.25 764C322.25 766.071 323.929 767.75 326 767.75C328.071 767.75 329.75 766.071 329.75 764C329.75 761.929 328.071 760.25 326 760.25ZM323.75 764C323.75 762.757 324.757 761.75 326 761.75C327.243 761.75 328.25 762.757 328.25 764C328.25 765.243 327.243 766.25 326 766.25C324.757 766.25 323.75 765.243 323.75 764Z" fill="white"/>
<path fill-rule="evenodd" clip-rule="evenodd" d="M325.975 753.25C325.53 753.25 325.159 753.25 324.855 753.271C324.538 753.292 324.238 753.339 323.948 753.459C323.274 753.738 322.738 754.274 322.459 754.948C322.314 755.298 322.275 755.668 322.26 756.07C322.248 756.393 322.085 756.663 321.844 756.801C321.603 756.94 321.288 756.947 321.003 756.796C320.647 756.608 320.307 756.457 319.931 756.407C319.208 756.312 318.476 756.508 317.898 756.952C317.648 757.144 317.458 757.38 317.281 757.643C317.111 757.897 316.925 758.218 316.703 758.603L316.678 758.647C316.455 759.032 316.27 759.353 316.136 759.627C315.996 759.913 315.886 760.195 315.845 760.507C315.75 761.23 315.946 761.961 316.39 762.54C316.621 762.841 316.922 763.06 317.262 763.274C317.536 763.446 317.688 763.722 317.688 764C317.688 764.278 317.536 764.554 317.262 764.726C316.922 764.94 316.621 765.159 316.39 765.46C315.946 766.039 315.75 766.77 315.845 767.493C315.886 767.805 315.996 768.087 316.136 768.373C316.27 768.647 316.455 768.968 316.678 769.353L316.703 769.397C316.925 769.782 317.111 770.103 317.281 770.357C317.458 770.62 317.648 770.856 317.898 771.048C318.476 771.492 319.208 771.688 319.931 771.592C320.307 771.543 320.647 771.392 321.003 771.204C321.288 771.053 321.603 771.06 321.844 771.199C322.085 771.337 322.248 771.607 322.26 771.93C322.275 772.332 322.314 772.702 322.459 773.052C322.738 773.726 323.274 774.262 323.948 774.541C324.238 774.661 324.538 774.708 324.855 774.729C325.159 774.75 325.53 774.75 325.975 774.75H326.025C326.47 774.75 326.841 774.75 327.145 774.729C327.462 774.708 327.762 774.661 328.052 774.541C328.726 774.262 329.262 773.726 329.541 773.052C329.686 772.702 329.725 772.332 329.74 771.93C329.752 771.607 329.915 771.337 330.156 771.199C330.397 771.06 330.712 771.053 330.997 771.204C331.353 771.392 331.693 771.543 332.069 771.592C332.792 771.688 333.524 771.492 334.102 771.048C334.352 770.856 334.542 770.62 334.719 770.356C334.889 770.103 335.075 769.782 335.297 769.397L335.322 769.353C335.544 768.968 335.73 768.647 335.864 768.373C336.004 768.087 336.114 767.804 336.155 767.493C336.25 766.77 336.054 766.038 335.61 765.46C335.379 765.159 335.078 764.94 334.738 764.726C334.464 764.554 334.312 764.278 334.312 764C334.312 763.722 334.464 763.446 334.738 763.274C335.078 763.06 335.379 762.841 335.61 762.54C336.054 761.961 336.25 761.23 336.155 760.507C336.114 760.195 336.004 759.913 335.864 759.627C335.73 759.353 335.545 759.032 335.322 758.647L335.297 758.603C335.075 758.218 334.889 757.897 334.719 757.643C334.542 757.38 334.352 757.144 334.102 756.952C333.524 756.508 332.792 756.312 332.069 756.408C331.693 756.457 331.353 756.608 330.997 756.796C330.712 756.947 330.397 756.94 330.156 756.801C329.915 756.663 329.752 756.393 329.74 756.07C329.725 755.668 329.686 755.298 329.541 754.948C329.262 754.274 328.726 753.738 328.052 753.459C327.762 753.339 327.462 753.292 327.145 753.271C326.841 753.25 326.47 753.25 326.025 753.25H325.975ZM324.522 754.845C324.599 754.813 324.716 754.784 324.957 754.767C325.204 754.75 325.524 754.75 326 754.75C326.476 754.75 326.796 754.75 327.043 754.767C327.284 754.784 327.401 754.813 327.478 754.845C327.785 754.972 328.028 755.215 328.155 755.522C328.195 755.618 328.228 755.769 328.241 756.126C328.271 756.918 328.68 757.681 329.406 758.1C330.132 758.52 330.997 758.492 331.698 758.122C332.014 757.955 332.161 757.908 332.265 757.895C332.594 757.851 332.926 757.94 333.189 758.142C333.255 758.193 333.34 758.28 333.474 758.48C333.612 758.686 333.773 758.963 334.011 759.375C334.249 759.787 334.408 760.064 334.517 760.287C334.624 760.504 334.657 760.62 334.668 760.703C334.711 761.032 334.622 761.364 334.42 761.627C334.356 761.71 334.242 761.814 333.94 762.004C333.268 762.426 332.812 763.162 332.812 764C332.812 764.838 333.268 765.574 333.94 765.996C334.242 766.186 334.356 766.29 334.42 766.373C334.622 766.636 334.711 766.968 334.667 767.297C334.657 767.38 334.623 767.496 334.517 767.713C334.408 767.936 334.249 768.213 334.011 768.625C333.773 769.037 333.612 769.314 333.474 769.52C333.339 769.72 333.255 769.807 333.189 769.858C332.926 770.059 332.594 770.149 332.265 770.105C332.161 770.092 332.014 770.045 331.698 769.878C330.997 769.508 330.132 769.48 329.406 769.9C328.68 770.319 328.271 771.082 328.241 771.874C328.228 772.231 328.195 772.382 328.155 772.478C328.028 772.785 327.785 773.028 327.478 773.155C327.401 773.187 327.284 773.216 327.043 773.233C326.796 773.25 326.476 773.25 326 773.25C325.524 773.25 325.204 773.25 324.957 773.233C324.716 773.216 324.599 773.187 324.522 773.155C324.215 773.028 323.972 772.785 323.845 772.478C323.805 772.382 323.772 772.231 323.759 771.874C323.729 771.082 323.32 770.319 322.594 769.9C321.868 769.48 321.003 769.508 320.302 769.878C319.986 770.045 319.839 770.092 319.735 770.105C319.406 770.149 319.074 770.06 318.811 769.858C318.745 769.807 318.66 769.72 318.526 769.52C318.388 769.314 318.227 769.037 317.989 768.625C317.751 768.213 317.592 767.936 317.483 767.713C317.376 767.496 317.343 767.38 317.332 767.297C317.289 766.968 317.378 766.636 317.58 766.373C317.644 766.29 317.758 766.186 318.06 765.996C318.732 765.574 319.188 764.838 319.188 764C319.188 763.162 318.732 762.426 318.06 762.004C317.758 761.814 317.644 761.71 317.58 761.627C317.378 761.364 317.289 761.031 317.333 760.703C317.343 760.62 317.377 760.504 317.483 760.287C317.592 760.064 317.751 759.787 317.989 759.375C318.227 758.963 318.388 758.686 318.526 758.48C318.661 758.28 318.745 758.193 318.811 758.142C319.074 757.94 319.406 757.851 319.735 757.895C319.839 757.908 319.986 757.955 320.302 758.122C321.003 758.492 321.868 758.52 322.594 758.1C323.32 757.681 323.729 756.918 323.759 756.126C323.772 755.769 323.805 755.618 323.845 755.522C323.972 755.215 324.215 754.972 324.522 754.845Z" fill="white"/>
<rect x="16" y="126" width="343" height="56" rx="12" fill="white"/>
<path d="M42.0078 147.625V159H40.5078V148.859H34.8984V159H33.3906V147.625H42.0078ZM44.1406 154.867V154.688C44.1406 154.078 44.2292 153.513 44.4062 152.992C44.5833 152.466 44.8385 152.01 45.1719 151.625C45.5052 151.234 45.9089 150.932 46.3828 150.719C46.8568 150.5 47.388 150.391 47.9766 150.391C48.5703 150.391 49.1042 150.5 49.5781 150.719C50.0573 150.932 50.4635 151.234 50.7969 151.625C51.1354 152.01 51.3932 152.466 51.5703 152.992C51.7474 153.513 51.8359 154.078 51.8359 154.688V154.867C51.8359 155.477 51.7474 156.042 51.5703 156.562C51.3932 157.083 51.1354 157.539 50.7969 157.93C50.4635 158.315 50.0599 158.617 49.5859 158.836C49.1172 159.049 48.5859 159.156 47.9922 159.156C47.3984 159.156 46.8646 159.049 46.3906 158.836C45.9167 158.617 45.5104 158.315 45.1719 157.93C44.8385 157.539 44.5833 157.083 44.4062 156.562C44.2292 156.042 44.1406 155.477 44.1406 154.867ZM45.5859 154.688V154.867C45.5859 155.289 45.6354 155.688 45.7344 156.062C45.8333 156.432 45.9818 156.76 46.1797 157.047C46.3828 157.333 46.6354 157.56 46.9375 157.727C47.2396 157.888 47.5911 157.969 47.9922 157.969C48.388 157.969 48.7344 157.888 49.0312 157.727C49.3333 157.56 49.5833 157.333 49.7812 157.047C49.9792 156.76 50.1276 156.432 50.2266 156.062C50.3307 155.688 50.3828 155.289 50.3828 154.867V154.688C50.3828 154.271 50.3307 153.878 50.2266 153.508C50.1276 153.133 49.9766 152.802 49.7734 152.516C49.5755 152.224 49.3255 151.995 49.0234 151.828C48.7266 151.661 48.3776 151.578 47.9766 151.578C47.5807 151.578 47.2318 151.661 46.9297 151.828C46.6328 151.995 46.3828 152.224 46.1797 152.516C45.9818 152.802 45.8333 153.133 45.7344 153.508C45.6354 153.878 45.5859 154.271 45.5859 154.688ZM59.1719 150.547V151.742H55.0859V150.547H59.1719ZM60.4453 150.547V159H59V150.547H60.4453ZM54.7344 150.547H56.1875L55.9688 154.625C55.9323 155.255 55.8724 155.812 55.7891 156.297C55.7109 156.776 55.6016 157.188 55.4609 157.531C55.3255 157.875 55.1536 158.156 54.9453 158.375C54.7422 158.589 54.4974 158.747 54.2109 158.852C53.9245 158.951 53.5938 159 53.2188 159H52.7656V157.727L53.0781 157.703C53.3021 157.688 53.4922 157.635 53.6484 157.547C53.8099 157.458 53.9453 157.328 54.0547 157.156C54.1641 156.979 54.2526 156.753 54.3203 156.477C54.3932 156.201 54.4479 155.872 54.4844 155.492C54.526 155.112 54.5573 154.669 54.5781 154.164L54.7344 150.547ZM63.9609 153.453H66.5C67.1823 153.453 67.7578 153.573 68.2266 153.812C68.6953 154.047 69.0495 154.372 69.2891 154.789C69.5339 155.201 69.6562 155.669 69.6562 156.195C69.6562 156.586 69.5885 156.953 69.4531 157.297C69.3177 157.635 69.1146 157.932 68.8438 158.188C68.5781 158.443 68.2474 158.643 67.8516 158.789C67.4609 158.93 67.0104 159 66.5 159H62.9062V150.547H64.3516V157.812H66.5C66.9167 157.812 67.25 157.737 67.5 157.586C67.75 157.435 67.9297 157.24 68.0391 157C68.1484 156.76 68.2031 156.51 68.2031 156.25C68.2031 155.995 68.1484 155.745 68.0391 155.5C67.9297 155.255 67.75 155.052 67.5 154.891C67.25 154.724 66.9167 154.641 66.5 154.641H63.9609V153.453ZM74.6172 154.961H73.0625V154.07H74.5C74.901 154.07 75.2188 154.021 75.4531 153.922C75.6875 153.818 75.8542 153.674 75.9531 153.492C76.0521 153.31 76.1016 153.096 76.1016 152.852C76.1016 152.633 76.0443 152.427 75.9297 152.234C75.8203 152.036 75.6432 151.878 75.3984 151.758C75.1536 151.633 74.8255 151.57 74.4141 151.57C74.0807 151.57 73.7786 151.63 73.5078 151.75C73.237 151.865 73.0208 152.023 72.8594 152.227C72.7031 152.424 72.625 152.648 72.625 152.898H71.1797C71.1797 152.383 71.3255 151.94 71.6172 151.57C71.9141 151.195 72.3073 150.906 72.7969 150.703C73.2917 150.5 73.8307 150.398 74.4141 150.398C74.9036 150.398 75.3411 150.453 75.7266 150.562C76.1172 150.667 76.4479 150.823 76.7188 151.031C76.9896 151.234 77.1953 151.49 77.3359 151.797C77.4818 152.099 77.5547 152.451 77.5547 152.852C77.5547 153.138 77.487 153.409 77.3516 153.664C77.2161 153.919 77.0208 154.146 76.7656 154.344C76.5104 154.536 76.2005 154.688 75.8359 154.797C75.4766 154.906 75.0703 154.961 74.6172 154.961ZM73.0625 154.414H74.6172C75.1224 154.414 75.5677 154.464 75.9531 154.562C76.3385 154.656 76.6615 154.797 76.9219 154.984C77.1823 155.172 77.3776 155.404 77.5078 155.68C77.6432 155.951 77.7109 156.263 77.7109 156.617C77.7109 157.013 77.6302 157.37 77.4688 157.688C77.3125 158 77.0885 158.266 76.7969 158.484C76.5052 158.703 76.1562 158.87 75.75 158.984C75.349 159.099 74.9036 159.156 74.4141 159.156C73.8672 159.156 73.3359 159.062 72.8203 158.875C72.3047 158.688 71.8802 158.398 71.5469 158.008C71.2135 157.612 71.0469 157.109 71.0469 156.5H72.4922C72.4922 156.755 72.5729 156.997 72.7344 157.227C72.8958 157.456 73.1198 157.641 73.4062 157.781C73.6979 157.922 74.0339 157.992 74.4141 157.992C74.8203 157.992 75.1589 157.93 75.4297 157.805C75.7005 157.68 75.9036 157.513 76.0391 157.305C76.1797 157.096 76.25 156.87 76.25 156.625C76.25 156.307 76.1875 156.052 76.0625 155.859C75.9375 155.667 75.7448 155.526 75.4844 155.438C75.2292 155.344 74.901 155.297 74.5 155.297H73.0625V154.414ZM79.2031 154.867V154.688C79.2031 154.078 79.2917 153.513 79.4688 152.992C79.6458 152.466 79.901 152.01 80.2344 151.625C80.5677 151.234 80.9714 150.932 81.4453 150.719C81.9193 150.5 82.4505 150.391 83.0391 150.391C83.6328 150.391 84.1667 150.5 84.6406 150.719C85.1198 150.932 85.526 151.234 85.8594 151.625C86.1979 152.01 86.4557 152.466 86.6328 152.992C86.8099 153.513 86.8984 154.078 86.8984 154.688V154.867C86.8984 155.477 86.8099 156.042 86.6328 156.562C86.4557 157.083 86.1979 157.539 85.8594 157.93C85.526 158.315 85.1224 158.617 84.6484 158.836C84.1797 159.049 83.6484 159.156 83.0547 159.156C82.4609 159.156 81.9271 159.049 81.4531 158.836C80.9792 158.617 80.5729 158.315 80.2344 157.93C79.901 157.539 79.6458 157.083 79.4688 156.562C79.2917 156.042 79.2031 155.477 79.2031 154.867ZM80.6484 154.688V154.867C80.6484 155.289 80.6979 155.688 80.7969 156.062C80.8958 156.432 81.0443 156.76 81.2422 157.047C81.4453 157.333 81.6979 157.56 82 157.727C82.3021 157.888 82.6536 157.969 83.0547 157.969C83.4505 157.969 83.7969 157.888 84.0938 157.727C84.3958 157.56 84.6458 157.333 84.8438 157.047C85.0417 156.76 85.1901 156.432 85.2891 156.062C85.3932 155.688 85.4453 155.289 85.4453 154.867V154.688C85.4453 154.271 85.3932 153.878 85.2891 153.508C85.1901 153.133 85.0391 152.802 84.8359 152.516C84.638 152.224 84.388 151.995 84.0859 151.828C83.7891 151.661 83.4401 151.578 83.0391 151.578C82.6432 151.578 82.2943 151.661 81.9922 151.828C81.6953 151.995 81.4453 152.224 81.2422 152.516C81.0443 152.802 80.8958 153.133 80.7969 153.508C80.6979 153.878 80.6484 154.271 80.6484 154.688ZM92.6797 155.281H89.9062L89.8906 154.125H92.1562C92.6042 154.125 92.9766 154.081 93.2734 153.992C93.5755 153.904 93.8021 153.771 93.9531 153.594C94.1042 153.417 94.1797 153.198 94.1797 152.938C94.1797 152.734 94.1354 152.557 94.0469 152.406C93.9635 152.25 93.8359 152.122 93.6641 152.023C93.4922 151.919 93.2786 151.844 93.0234 151.797C92.7734 151.745 92.4792 151.719 92.1406 151.719H90.2891V159H88.8438V150.547H92.1406C92.6771 150.547 93.1589 150.594 93.5859 150.688C94.0182 150.781 94.3854 150.924 94.6875 151.117C94.9948 151.305 95.2292 151.544 95.3906 151.836C95.5521 152.128 95.6328 152.471 95.6328 152.867C95.6328 153.122 95.5807 153.365 95.4766 153.594C95.3724 153.823 95.2188 154.026 95.0156 154.203C94.8125 154.38 94.5625 154.526 94.2656 154.641C93.9688 154.75 93.6276 154.82 93.2422 154.852L92.6797 155.281ZM92.6797 159H89.3828L90.1016 157.828H92.6797C93.0807 157.828 93.4141 157.779 93.6797 157.68C93.9453 157.576 94.1432 157.43 94.2734 157.242C94.4089 157.049 94.4766 156.82 94.4766 156.555C94.4766 156.289 94.4089 156.062 94.2734 155.875C94.1432 155.682 93.9453 155.536 93.6797 155.438C93.4141 155.333 93.0807 155.281 92.6797 155.281H90.4844L90.5 154.125H93.2422L93.7656 154.562C94.2292 154.599 94.6224 154.714 94.9453 154.906C95.2682 155.099 95.513 155.344 95.6797 155.641C95.8464 155.932 95.9297 156.25 95.9297 156.594C95.9297 156.99 95.8542 157.339 95.7031 157.641C95.5573 157.943 95.3438 158.195 95.0625 158.398C94.7812 158.596 94.4401 158.747 94.0391 158.852C93.638 158.951 93.1849 159 92.6797 159ZM102.852 157.555V153.203C102.852 152.87 102.784 152.581 102.648 152.336C102.518 152.086 102.32 151.893 102.055 151.758C101.789 151.622 101.461 151.555 101.07 151.555C100.706 151.555 100.385 151.617 100.109 151.742C99.8385 151.867 99.625 152.031 99.4688 152.234C99.3177 152.438 99.2422 152.656 99.2422 152.891H97.7969C97.7969 152.589 97.875 152.289 98.0312 151.992C98.1875 151.695 98.4115 151.427 98.7031 151.188C99 150.943 99.3542 150.75 99.7656 150.609C100.182 150.464 100.646 150.391 101.156 150.391C101.771 150.391 102.312 150.495 102.781 150.703C103.255 150.911 103.625 151.227 103.891 151.648C104.161 152.065 104.297 152.589 104.297 153.219V157.156C104.297 157.438 104.32 157.737 104.367 158.055C104.419 158.372 104.495 158.646 104.594 158.875V159H103.086C103.013 158.833 102.956 158.612 102.914 158.336C102.872 158.055 102.852 157.794 102.852 157.555ZM103.102 153.875L103.117 154.891H101.656C101.245 154.891 100.878 154.924 100.555 154.992C100.232 155.055 99.9609 155.151 99.7422 155.281C99.5234 155.411 99.3568 155.576 99.2422 155.773C99.1276 155.966 99.0703 156.193 99.0703 156.453C99.0703 156.719 99.1302 156.961 99.25 157.18C99.3698 157.398 99.5495 157.573 99.7891 157.703C100.034 157.828 100.333 157.891 100.688 157.891C101.13 157.891 101.521 157.797 101.859 157.609C102.198 157.422 102.466 157.193 102.664 156.922C102.867 156.651 102.977 156.388 102.992 156.133L103.609 156.828C103.573 157.047 103.474 157.289 103.312 157.555C103.151 157.82 102.935 158.076 102.664 158.32C102.398 158.56 102.081 158.76 101.711 158.922C101.346 159.078 100.935 159.156 100.477 159.156C99.9036 159.156 99.401 159.044 98.9688 158.82C98.5417 158.596 98.2083 158.297 97.9688 157.922C97.7344 157.542 97.6172 157.117 97.6172 156.648C97.6172 156.195 97.7057 155.797 97.8828 155.453C98.0599 155.104 98.3151 154.815 98.6484 154.586C98.9818 154.352 99.3828 154.174 99.8516 154.055C100.32 153.935 100.844 153.875 101.422 153.875H103.102ZM109.891 150.547V159H108.438V150.547H109.891ZM112.727 150.547V151.719H105.656V150.547H112.727ZM117.031 159.156C116.443 159.156 115.909 159.057 115.43 158.859C114.956 158.656 114.547 158.372 114.203 158.008C113.865 157.643 113.604 157.211 113.422 156.711C113.24 156.211 113.148 155.664 113.148 155.07V154.742C113.148 154.055 113.25 153.443 113.453 152.906C113.656 152.365 113.932 151.906 114.281 151.531C114.63 151.156 115.026 150.872 115.469 150.68C115.911 150.487 116.37 150.391 116.844 150.391C117.448 150.391 117.969 150.495 118.406 150.703C118.849 150.911 119.211 151.203 119.492 151.578C119.773 151.948 119.982 152.385 120.117 152.891C120.253 153.391 120.32 153.938 120.32 154.531V155.18H114.008V154H118.875V153.891C118.854 153.516 118.776 153.151 118.641 152.797C118.51 152.443 118.302 152.151 118.016 151.922C117.729 151.693 117.339 151.578 116.844 151.578C116.516 151.578 116.214 151.648 115.938 151.789C115.661 151.924 115.424 152.128 115.227 152.398C115.029 152.669 114.875 153 114.766 153.391C114.656 153.781 114.602 154.232 114.602 154.742V155.07C114.602 155.471 114.656 155.849 114.766 156.203C114.88 156.552 115.044 156.859 115.258 157.125C115.477 157.391 115.74 157.599 116.047 157.75C116.359 157.901 116.714 157.977 117.109 157.977C117.62 157.977 118.052 157.872 118.406 157.664C118.76 157.456 119.07 157.177 119.336 156.828L120.211 157.523C120.029 157.799 119.797 158.062 119.516 158.312C119.234 158.562 118.888 158.766 118.477 158.922C118.07 159.078 117.589 159.156 117.031 159.156ZM127.656 150.547V151.742H123.57V150.547H127.656ZM128.93 150.547V159H127.484V150.547H128.93ZM123.219 150.547H124.672L124.453 154.625C124.417 155.255 124.357 155.812 124.273 156.297C124.195 156.776 124.086 157.188 123.945 157.531C123.81 157.875 123.638 158.156 123.43 158.375C123.227 158.589 122.982 158.747 122.695 158.852C122.409 158.951 122.078 159 121.703 159H121.25V157.727L121.562 157.703C121.786 157.688 121.977 157.635 122.133 157.547C122.294 157.458 122.43 157.328 122.539 157.156C122.648 156.979 122.737 156.753 122.805 156.477C122.878 156.201 122.932 155.872 122.969 155.492C123.01 155.112 123.042 154.669 123.062 154.164L123.219 150.547ZM132.445 153.453H134.984C135.667 153.453 136.242 153.573 136.711 153.812C137.18 154.047 137.534 154.372 137.773 154.789C138.018 155.201 138.141 155.669 138.141 156.195C138.141 156.586 138.073 156.953 137.938 157.297C137.802 157.635 137.599 157.932 137.328 158.188C137.062 158.443 136.732 158.643 136.336 158.789C135.945 158.93 135.495 159 134.984 159H131.391V150.547H132.836V157.812H134.984C135.401 157.812 135.734 157.737 135.984 157.586C136.234 157.435 136.414 157.24 136.523 157C136.633 156.76 136.688 156.51 136.688 156.25C136.688 155.995 136.633 155.745 136.523 155.5C136.414 155.255 136.234 155.052 135.984 154.891C135.734 154.724 135.401 154.641 134.984 154.641H132.445V153.453ZM143.328 157.969C143.672 157.969 143.99 157.898 144.281 157.758C144.573 157.617 144.812 157.424 145 157.18C145.188 156.93 145.294 156.646 145.32 156.328H146.695C146.669 156.828 146.5 157.294 146.188 157.727C145.88 158.154 145.477 158.5 144.977 158.766C144.477 159.026 143.927 159.156 143.328 159.156C142.693 159.156 142.138 159.044 141.664 158.82C141.195 158.596 140.805 158.289 140.492 157.898C140.185 157.508 139.953 157.06 139.797 156.555C139.646 156.044 139.57 155.505 139.57 154.938V154.609C139.57 154.042 139.646 153.505 139.797 153C139.953 152.49 140.185 152.039 140.492 151.648C140.805 151.258 141.195 150.951 141.664 150.727C142.138 150.503 142.693 150.391 143.328 150.391C143.99 150.391 144.568 150.526 145.062 150.797C145.557 151.062 145.945 151.427 146.227 151.891C146.513 152.349 146.669 152.87 146.695 153.453H145.32C145.294 153.104 145.195 152.789 145.023 152.508C144.857 152.227 144.628 152.003 144.336 151.836C144.049 151.664 143.714 151.578 143.328 151.578C142.885 151.578 142.513 151.667 142.211 151.844C141.914 152.016 141.677 152.25 141.5 152.547C141.328 152.839 141.203 153.164 141.125 153.523C141.052 153.878 141.016 154.24 141.016 154.609V154.938C141.016 155.307 141.052 155.672 141.125 156.031C141.198 156.391 141.32 156.716 141.492 157.008C141.669 157.299 141.906 157.534 142.203 157.711C142.505 157.883 142.88 157.969 143.328 157.969ZM149.891 150.547V159H148.445V150.547H149.891ZM155.438 150.547L151.43 155.391H149.406L149.188 154.125H150.844L153.68 150.547H155.438ZM153.883 159L150.773 155.172L151.703 154.125L155.719 159H153.883ZM156.422 154.867V154.688C156.422 154.078 156.51 153.513 156.688 152.992C156.865 152.466 157.12 152.01 157.453 151.625C157.786 151.234 158.19 150.932 158.664 150.719C159.138 150.5 159.669 150.391 160.258 150.391C160.852 150.391 161.385 150.5 161.859 150.719C162.339 150.932 162.745 151.234 163.078 151.625C163.417 152.01 163.674 152.466 163.852 152.992C164.029 153.513 164.117 154.078 164.117 154.688V154.867C164.117 155.477 164.029 156.042 163.852 156.562C163.674 157.083 163.417 157.539 163.078 157.93C162.745 158.315 162.341 158.617 161.867 158.836C161.398 159.049 160.867 159.156 160.273 159.156C159.68 159.156 159.146 159.049 158.672 158.836C158.198 158.617 157.792 158.315 157.453 157.93C157.12 157.539 156.865 157.083 156.688 156.562C156.51 156.042 156.422 155.477 156.422 154.867ZM157.867 154.688V154.867C157.867 155.289 157.917 155.688 158.016 156.062C158.115 156.432 158.263 156.76 158.461 157.047C158.664 157.333 158.917 157.56 159.219 157.727C159.521 157.888 159.872 157.969 160.273 157.969C160.669 157.969 161.016 157.888 161.312 157.727C161.615 157.56 161.865 157.333 162.062 157.047C162.26 156.76 162.409 156.432 162.508 156.062C162.612 155.688 162.664 155.289 162.664 154.867V154.688C162.664 154.271 162.612 153.878 162.508 153.508C162.409 153.133 162.258 152.802 162.055 152.516C161.857 152.224 161.607 151.995 161.305 151.828C161.008 151.661 160.659 151.578 160.258 151.578C159.862 151.578 159.513 151.661 159.211 151.828C158.914 151.995 158.664 152.224 158.461 152.516C158.263 152.802 158.115 153.133 158.016 153.508C157.917 153.878 157.867 154.271 157.867 154.688ZM169.438 159.156C168.849 159.156 168.315 159.057 167.836 158.859C167.362 158.656 166.953 158.372 166.609 158.008C166.271 157.643 166.01 157.211 165.828 156.711C165.646 156.211 165.555 155.664 165.555 155.07V154.742C165.555 154.055 165.656 153.443 165.859 152.906C166.062 152.365 166.339 151.906 166.688 151.531C167.036 151.156 167.432 150.872 167.875 150.68C168.318 150.487 168.776 150.391 169.25 150.391C169.854 150.391 170.375 150.495 170.812 150.703C171.255 150.911 171.617 151.203 171.898 151.578C172.18 151.948 172.388 152.385 172.523 152.891C172.659 153.391 172.727 153.938 172.727 154.531V155.18H166.414V154H171.281V153.891C171.26 153.516 171.182 153.151 171.047 152.797C170.917 152.443 170.708 152.151 170.422 151.922C170.135 151.693 169.745 151.578 169.25 151.578C168.922 151.578 168.62 151.648 168.344 151.789C168.068 151.924 167.831 152.128 167.633 152.398C167.435 152.669 167.281 153 167.172 153.391C167.062 153.781 167.008 154.232 167.008 154.742V155.07C167.008 155.471 167.062 155.849 167.172 156.203C167.286 156.552 167.451 156.859 167.664 157.125C167.883 157.391 168.146 157.599 168.453 157.75C168.766 157.901 169.12 157.977 169.516 157.977C170.026 157.977 170.458 157.872 170.812 157.664C171.167 157.456 171.477 157.177 171.742 156.828L172.617 157.523C172.435 157.799 172.203 158.062 171.922 158.312C171.641 158.562 171.294 158.766 170.883 158.922C170.477 159.078 169.995 159.156 169.438 159.156ZM181.766 157.969C182.109 157.969 182.427 157.898 182.719 157.758C183.01 157.617 183.25 157.424 183.438 157.18C183.625 156.93 183.732 156.646 183.758 156.328H185.133C185.107 156.828 184.938 157.294 184.625 157.727C184.318 158.154 183.914 158.5 183.414 158.766C182.914 159.026 182.365 159.156 181.766 159.156C181.13 159.156 180.576 159.044 180.102 158.82C179.633 158.596 179.242 158.289 178.93 157.898C178.622 157.508 178.391 157.06 178.234 156.555C178.083 156.044 178.008 155.505 178.008 154.938V154.609C178.008 154.042 178.083 153.505 178.234 153C178.391 152.49 178.622 152.039 178.93 151.648C179.242 151.258 179.633 150.951 180.102 150.727C180.576 150.503 181.13 150.391 181.766 150.391C182.427 150.391 183.005 150.526 183.5 150.797C183.995 151.062 184.383 151.427 184.664 151.891C184.951 152.349 185.107 152.87 185.133 153.453H183.758C183.732 153.104 183.633 152.789 183.461 152.508C183.294 152.227 183.065 152.003 182.773 151.836C182.487 151.664 182.151 151.578 181.766 151.578C181.323 151.578 180.951 151.667 180.648 151.844C180.352 152.016 180.115 152.25 179.938 152.547C179.766 152.839 179.641 153.164 179.562 153.523C179.49 153.878 179.453 154.24 179.453 154.609V154.938C179.453 155.307 179.49 155.672 179.562 156.031C179.635 156.391 179.758 156.716 179.93 157.008C180.107 157.299 180.344 157.534 180.641 157.711C180.943 157.883 181.318 157.969 181.766 157.969ZM186.375 154.867V154.688C186.375 154.078 186.464 153.513 186.641 152.992C186.818 152.466 187.073 152.01 187.406 151.625C187.74 151.234 188.143 150.932 188.617 150.719C189.091 150.5 189.622 150.391 190.211 150.391C190.805 150.391 191.339 150.5 191.812 150.719C192.292 150.932 192.698 151.234 193.031 151.625C193.37 152.01 193.628 152.466 193.805 152.992C193.982 153.513 194.07 154.078 194.07 154.688V154.867C194.07 155.477 193.982 156.042 193.805 156.562C193.628 157.083 193.37 157.539 193.031 157.93C192.698 158.315 192.294 158.617 191.82 158.836C191.352 159.049 190.82 159.156 190.227 159.156C189.633 159.156 189.099 159.049 188.625 158.836C188.151 158.617 187.745 158.315 187.406 157.93C187.073 157.539 186.818 157.083 186.641 156.562C186.464 156.042 186.375 155.477 186.375 154.867ZM187.82 154.688V154.867C187.82 155.289 187.87 155.688 187.969 156.062C188.068 156.432 188.216 156.76 188.414 157.047C188.617 157.333 188.87 157.56 189.172 157.727C189.474 157.888 189.826 157.969 190.227 157.969C190.622 157.969 190.969 157.888 191.266 157.727C191.568 157.56 191.818 157.333 192.016 157.047C192.214 156.76 192.362 156.432 192.461 156.062C192.565 155.688 192.617 155.289 192.617 154.867V154.688C192.617 154.271 192.565 153.878 192.461 153.508C192.362 153.133 192.211 152.802 192.008 152.516C191.81 152.224 191.56 151.995 191.258 151.828C190.961 151.661 190.612 151.578 190.211 151.578C189.815 151.578 189.466 151.661 189.164 151.828C188.867 151.995 188.617 152.224 188.414 152.516C188.216 152.802 188.068 153.133 187.969 153.508C187.87 153.878 187.82 154.271 187.82 154.688ZM201.344 150.547V151.742H197.438V159H195.992V150.547H201.344ZM207.938 150.547V151.742H203.852V150.547H207.938ZM209.211 150.547V159H207.766V150.547H209.211ZM203.5 150.547H204.953L204.734 154.625C204.698 155.255 204.638 155.812 204.555 156.297C204.477 156.776 204.367 157.188 204.227 157.531C204.091 157.875 203.919 158.156 203.711 158.375C203.508 158.589 203.263 158.747 202.977 158.852C202.69 158.951 202.359 159 201.984 159H201.531V157.727L201.844 157.703C202.068 157.688 202.258 157.635 202.414 157.547C202.576 157.458 202.711 157.328 202.82 157.156C202.93 156.979 203.018 156.753 203.086 156.477C203.159 156.201 203.214 155.872 203.25 155.492C203.292 155.112 203.323 154.669 203.344 154.164L203.5 150.547ZM216.523 157.555V153.203C216.523 152.87 216.456 152.581 216.32 152.336C216.19 152.086 215.992 151.893 215.727 151.758C215.461 151.622 215.133 151.555 214.742 151.555C214.378 151.555 214.057 151.617 213.781 151.742C213.51 151.867 213.297 152.031 213.141 152.234C212.99 152.438 212.914 152.656 212.914 152.891H211.469C211.469 152.589 211.547 152.289 211.703 151.992C211.859 151.695 212.083 151.427 212.375 151.188C212.672 150.943 213.026 150.75 213.438 150.609C213.854 150.464 214.318 150.391 214.828 150.391C215.443 150.391 215.984 150.495 216.453 150.703C216.927 150.911 217.297 151.227 217.562 151.648C217.833 152.065 217.969 152.589 217.969 153.219V157.156C217.969 157.438 217.992 157.737 218.039 158.055C218.091 158.372 218.167 158.646 218.266 158.875V159H216.758C216.685 158.833 216.628 158.612 216.586 158.336C216.544 158.055 216.523 157.794 216.523 157.555ZM216.773 153.875L216.789 154.891H215.328C214.917 154.891 214.549 154.924 214.227 154.992C213.904 155.055 213.633 155.151 213.414 155.281C213.195 155.411 213.029 155.576 212.914 155.773C212.799 155.966 212.742 156.193 212.742 156.453C212.742 156.719 212.802 156.961 212.922 157.18C213.042 157.398 213.221 157.573 213.461 157.703C213.706 157.828 214.005 157.891 214.359 157.891C214.802 157.891 215.193 157.797 215.531 157.609C215.87 157.422 216.138 157.193 216.336 156.922C216.539 156.651 216.648 156.388 216.664 156.133L217.281 156.828C217.245 157.047 217.146 157.289 216.984 157.555C216.823 157.82 216.607 158.076 216.336 158.32C216.07 158.56 215.753 158.76 215.383 158.922C215.018 159.078 214.607 159.156 214.148 159.156C213.576 159.156 213.073 159.044 212.641 158.82C212.214 158.596 211.88 158.297 211.641 157.922C211.406 157.542 211.289 157.117 211.289 156.648C211.289 156.195 211.378 155.797 211.555 155.453C211.732 155.104 211.987 154.815 212.32 154.586C212.654 154.352 213.055 154.174 213.523 154.055C213.992 153.935 214.516 153.875 215.094 153.875H216.773ZM220.367 150.547H221.812V157.812H224.906V150.547H226.359V157.812H229.445V150.547H230.891V159H220.367V150.547ZM236.703 159.156C236.115 159.156 235.581 159.057 235.102 158.859C234.628 158.656 234.219 158.372 233.875 158.008C233.536 157.643 233.276 157.211 233.094 156.711C232.911 156.211 232.82 155.664 232.82 155.07V154.742C232.82 154.055 232.922 153.443 233.125 152.906C233.328 152.365 233.604 151.906 233.953 151.531C234.302 151.156 234.698 150.872 235.141 150.68C235.583 150.487 236.042 150.391 236.516 150.391C237.12 150.391 237.641 150.495 238.078 150.703C238.521 150.911 238.883 151.203 239.164 151.578C239.445 151.948 239.654 152.385 239.789 152.891C239.924 153.391 239.992 153.938 239.992 154.531V155.18H233.68V154H238.547V153.891C238.526 153.516 238.448 153.151 238.312 152.797C238.182 152.443 237.974 152.151 237.688 151.922C237.401 151.693 237.01 151.578 236.516 151.578C236.188 151.578 235.885 151.648 235.609 151.789C235.333 151.924 235.096 152.128 234.898 152.398C234.701 152.669 234.547 153 234.438 153.391C234.328 153.781 234.273 154.232 234.273 154.742V155.07C234.273 155.471 234.328 155.849 234.438 156.203C234.552 156.552 234.716 156.859 234.93 157.125C235.148 157.391 235.411 157.599 235.719 157.75C236.031 157.901 236.385 157.977 236.781 157.977C237.292 157.977 237.724 157.872 238.078 157.664C238.432 157.456 238.742 157.177 239.008 156.828L239.883 157.523C239.701 157.799 239.469 158.062 239.188 158.312C238.906 158.562 238.56 158.766 238.148 158.922C237.742 159.078 237.26 159.156 236.703 159.156ZM247.414 154.211V155.383H242.945V154.211H247.414ZM243.25 150.547V159H241.805V150.547H243.25ZM248.586 150.547V159H247.133V150.547H248.586ZM252.477 156.711L256.375 150.547H257.828V159H256.375V152.836L252.477 159H251.039V150.547H252.477V156.711ZM263.656 159.156C263.068 159.156 262.534 159.057 262.055 158.859C261.581 158.656 261.172 158.372 260.828 158.008C260.49 157.643 260.229 157.211 260.047 156.711C259.865 156.211 259.773 155.664 259.773 155.07V154.742C259.773 154.055 259.875 153.443 260.078 152.906C260.281 152.365 260.557 151.906 260.906 151.531C261.255 151.156 261.651 150.872 262.094 150.68C262.536 150.487 262.995 150.391 263.469 150.391C264.073 150.391 264.594 150.495 265.031 150.703C265.474 150.911 265.836 151.203 266.117 151.578C266.398 151.948 266.607 152.385 266.742 152.891C266.878 153.391 266.945 153.938 266.945 154.531V155.18H260.633V154H265.5V153.891C265.479 153.516 265.401 153.151 265.266 152.797C265.135 152.443 264.927 152.151 264.641 151.922C264.354 151.693 263.964 151.578 263.469 151.578C263.141 151.578 262.839 151.648 262.562 151.789C262.286 151.924 262.049 152.128 261.852 152.398C261.654 152.669 261.5 153 261.391 153.391C261.281 153.781 261.227 154.232 261.227 154.742V155.07C261.227 155.471 261.281 155.849 261.391 156.203C261.505 156.552 261.669 156.859 261.883 157.125C262.102 157.391 262.365 157.599 262.672 157.75C262.984 157.901 263.339 157.977 263.734 157.977C264.245 157.977 264.677 157.872 265.031 157.664C265.385 157.456 265.695 157.177 265.961 156.828L266.836 157.523C266.654 157.799 266.422 158.062 266.141 158.312C265.859 158.562 265.513 158.766 265.102 158.922C264.695 159.078 264.214 159.156 263.656 159.156Z" fill="#030303"/>
<path fill-rule="evenodd" clip-rule="evenodd" d="M327.512 146.431C327.826 146.161 328.3 146.197 328.569 146.512L334.569 153.512C334.81 153.793 334.81 154.207 334.569 154.488L328.569 161.488C328.3 161.803 327.826 161.839 327.512 161.569C327.197 161.3 327.161 160.826 327.431 160.512L333.012 154L327.431 147.488C327.161 147.174 327.197 146.7 327.512 146.431Z" fill="#FF7035"/>
<rect x="16" y="198" width="343" height="56" rx="12" fill="white"/>
<path d="M42.0078 219.625V231H40.5078V220.859H34.8984V231H33.3906V219.625H42.0078ZM44.1406 226.867V226.688C44.1406 226.078 44.2292 225.513 44.4062 224.992C44.5833 224.466 44.8385 224.01 45.1719 223.625C45.5052 223.234 45.9089 222.932 46.3828 222.719C46.8568 222.5 47.388 222.391 47.9766 222.391C48.5703 222.391 49.1042 222.5 49.5781 222.719C50.0573 222.932 50.4635 223.234 50.7969 223.625C51.1354 224.01 51.3932 224.466 51.5703 224.992C51.7474 225.513 51.8359 226.078 51.8359 226.688V226.867C51.8359 227.477 51.7474 228.042 51.5703 228.562C51.3932 229.083 51.1354 229.539 50.7969 229.93C50.4635 230.315 50.0599 230.617 49.5859 230.836C49.1172 231.049 48.5859 231.156 47.9922 231.156C47.3984 231.156 46.8646 231.049 46.3906 230.836C45.9167 230.617 45.5104 230.315 45.1719 229.93C44.8385 229.539 44.5833 229.083 44.4062 228.562C44.2292 228.042 44.1406 227.477 44.1406 226.867ZM45.5859 226.688V226.867C45.5859 227.289 45.6354 227.688 45.7344 228.062C45.8333 228.432 45.9818 228.76 46.1797 229.047C46.3828 229.333 46.6354 229.56 46.9375 229.727C47.2396 229.888 47.5911 229.969 47.9922 229.969C48.388 229.969 48.7344 229.888 49.0312 229.727C49.3333 229.56 49.5833 229.333 49.7812 229.047C49.9792 228.76 50.1276 228.432 50.2266 228.062C50.3307 227.688 50.3828 227.289 50.3828 226.867V226.688C50.3828 226.271 50.3307 225.878 50.2266 225.508C50.1276 225.133 49.9766 224.802 49.7734 224.516C49.5755 224.224 49.3255 223.995 49.0234 223.828C48.7266 223.661 48.3776 223.578 47.9766 223.578C47.5807 223.578 47.2318 223.661 46.9297 223.828C46.6328 223.995 46.3828 224.224 46.1797 224.516C45.9818 224.802 45.8333 225.133 45.7344 225.508C45.6354 225.878 45.5859 226.271 45.5859 226.688ZM59.1719 222.547V223.742H55.0859V222.547H59.1719ZM60.4453 222.547V231H59V222.547H60.4453ZM54.7344 222.547H56.1875L55.9688 226.625C55.9323 227.255 55.8724 227.812 55.7891 228.297C55.7109 228.776 55.6016 229.188 55.4609 229.531C55.3255 229.875 55.1536 230.156 54.9453 230.375C54.7422 230.589 54.4974 230.747 54.2109 230.852C53.9245 230.951 53.5938 231 53.2188 231H52.7656V229.727L53.0781 229.703C53.3021 229.688 53.4922 229.635 53.6484 229.547C53.8099 229.458 53.9453 229.328 54.0547 229.156C54.1641 228.979 54.2526 228.753 54.3203 228.477C54.3932 228.201 54.4479 227.872 54.4844 227.492C54.526 227.112 54.5573 226.669 54.5781 226.164L54.7344 222.547ZM64.3359 228.711L68.2344 222.547H69.6875V231H68.2344V224.836L64.3359 231H62.8984V222.547H64.3359V228.711ZM75.4531 222.547V231H74V222.547H75.4531ZM78.2891 222.547V223.719H71.2188V222.547H78.2891ZM81.2734 228.711L85.1719 222.547H86.625V231H85.1719V224.836L81.2734 231H79.8359V222.547H81.2734V228.711ZM90.5156 222.547V231H89.0703V222.547H90.5156ZM96.0625 222.547L92.0547 227.391H90.0312L89.8125 226.125H91.4688L94.3047 222.547H96.0625ZM94.5078 231L91.3984 227.172L92.3281 226.125L96.3438 231H94.5078ZM102.586 229.555V225.203C102.586 224.87 102.518 224.581 102.383 224.336C102.253 224.086 102.055 223.893 101.789 223.758C101.523 223.622 101.195 223.555 100.805 223.555C100.44 223.555 100.12 223.617 99.8438 223.742C99.5729 223.867 99.3594 224.031 99.2031 224.234C99.0521 224.438 98.9766 224.656 98.9766 224.891H97.5312C97.5312 224.589 97.6094 224.289 97.7656 223.992C97.9219 223.695 98.1458 223.427 98.4375 223.188C98.7344 222.943 99.0885 222.75 99.5 222.609C99.9167 222.464 100.38 222.391 100.891 222.391C101.505 222.391 102.047 222.495 102.516 222.703C102.99 222.911 103.359 223.227 103.625 223.648C103.896 224.065 104.031 224.589 104.031 225.219V229.156C104.031 229.438 104.055 229.737 104.102 230.055C104.154 230.372 104.229 230.646 104.328 230.875V231H102.82C102.747 230.833 102.69 230.612 102.648 230.336C102.607 230.055 102.586 229.794 102.586 229.555ZM102.836 225.875L102.852 226.891H101.391C100.979 226.891 100.612 226.924 100.289 226.992C99.9661 227.055 99.6953 227.151 99.4766 227.281C99.2578 227.411 99.0911 227.576 98.9766 227.773C98.862 227.966 98.8047 228.193 98.8047 228.453C98.8047 228.719 98.8646 228.961 98.9844 229.18C99.1042 229.398 99.2839 229.573 99.5234 229.703C99.7682 229.828 100.068 229.891 100.422 229.891C100.865 229.891 101.255 229.797 101.594 229.609C101.932 229.422 102.201 229.193 102.398 228.922C102.602 228.651 102.711 228.388 102.727 228.133L103.344 228.828C103.307 229.047 103.208 229.289 103.047 229.555C102.885 229.82 102.669 230.076 102.398 230.32C102.133 230.56 101.815 230.76 101.445 230.922C101.081 231.078 100.669 231.156 100.211 231.156C99.638 231.156 99.1354 231.044 98.7031 230.82C98.276 230.596 97.9427 230.297 97.7031 229.922C97.4688 229.542 97.3516 229.117 97.3516 228.648C97.3516 228.195 97.4401 227.797 97.6172 227.453C97.7943 227.104 98.0495 226.815 98.3828 226.586C98.7161 226.352 99.1172 226.174 99.5859 226.055C100.055 225.935 100.578 225.875 101.156 225.875H102.836ZM111.844 222.547V231H110.398V222.547H111.844ZM117.391 222.547L113.383 227.391H111.359L111.141 226.125H112.797L115.633 222.547H117.391ZM115.836 231L112.727 227.172L113.656 226.125L117.672 231H115.836ZM118.375 226.867V226.688C118.375 226.078 118.464 225.513 118.641 224.992C118.818 224.466 119.073 224.01 119.406 223.625C119.74 223.234 120.143 222.932 120.617 222.719C121.091 222.5 121.622 222.391 122.211 222.391C122.805 222.391 123.339 222.5 123.812 222.719C124.292 222.932 124.698 223.234 125.031 223.625C125.37 224.01 125.628 224.466 125.805 224.992C125.982 225.513 126.07 226.078 126.07 226.688V226.867C126.07 227.477 125.982 228.042 125.805 228.562C125.628 229.083 125.37 229.539 125.031 229.93C124.698 230.315 124.294 230.617 123.82 230.836C123.352 231.049 122.82 231.156 122.227 231.156C121.633 231.156 121.099 231.049 120.625 230.836C120.151 230.617 119.745 230.315 119.406 229.93C119.073 229.539 118.818 229.083 118.641 228.562C118.464 228.042 118.375 227.477 118.375 226.867ZM119.82 226.688V226.867C119.82 227.289 119.87 227.688 119.969 228.062C120.068 228.432 120.216 228.76 120.414 229.047C120.617 229.333 120.87 229.56 121.172 229.727C121.474 229.888 121.826 229.969 122.227 229.969C122.622 229.969 122.969 229.888 123.266 229.727C123.568 229.56 123.818 229.333 124.016 229.047C124.214 228.76 124.362 228.432 124.461 228.062C124.565 227.688 124.617 227.289 124.617 226.867V226.688C124.617 226.271 124.565 225.878 124.461 225.508C124.362 225.133 124.211 224.802 124.008 224.516C123.81 224.224 123.56 223.995 123.258 223.828C122.961 223.661 122.612 223.578 122.211 223.578C121.815 223.578 121.466 223.661 121.164 223.828C120.867 223.995 120.617 224.224 120.414 224.516C120.216 224.802 120.068 225.133 119.969 225.508C119.87 225.878 119.82 226.271 119.82 226.688ZM133.617 226.211V227.383H129.148V226.211H133.617ZM129.453 222.547V231H128.008V222.547H129.453ZM134.789 222.547V231H133.336V222.547H134.789ZM146.836 226.922V227.086C146.836 227.68 146.771 228.227 146.641 228.727C146.51 229.221 146.315 229.651 146.055 230.016C145.799 230.38 145.482 230.664 145.102 230.867C144.721 231.065 144.281 231.164 143.781 231.164C143.37 231.164 143.008 231.109 142.695 231C142.383 230.885 142.117 230.721 141.898 230.508C141.685 230.294 141.513 230.039 141.383 229.742C141.258 229.44 141.172 229.102 141.125 228.727V224.977C141.172 224.576 141.258 224.216 141.383 223.898C141.513 223.581 141.685 223.31 141.898 223.086C142.117 222.862 142.38 222.69 142.688 222.57C142.995 222.451 143.354 222.391 143.766 222.391C144.172 222.391 144.536 222.464 144.859 222.609C145.188 222.75 145.474 222.953 145.719 223.219C145.969 223.484 146.174 223.805 146.336 224.18C146.503 224.549 146.628 224.966 146.711 225.43C146.794 225.893 146.836 226.391 146.836 226.922ZM145.391 227.086V226.922C145.391 226.557 145.365 226.211 145.312 225.883C145.266 225.549 145.19 225.245 145.086 224.969C144.987 224.688 144.857 224.443 144.695 224.234C144.534 224.026 144.339 223.865 144.109 223.75C143.885 223.635 143.628 223.578 143.336 223.578C143.023 223.578 142.763 223.617 142.555 223.695C142.352 223.773 142.193 223.878 142.078 224.008C141.964 224.133 141.88 224.266 141.828 224.406V229.305C141.891 229.419 141.982 229.529 142.102 229.633C142.221 229.732 142.383 229.815 142.586 229.883C142.789 229.945 143.044 229.977 143.352 229.977C143.716 229.977 144.026 229.904 144.281 229.758C144.542 229.607 144.753 229.398 144.914 229.133C145.081 228.867 145.201 228.56 145.273 228.211C145.352 227.862 145.391 227.487 145.391 227.086ZM136.797 227.086V226.922C136.797 226.391 136.839 225.893 136.922 225.43C137.005 224.966 137.13 224.549 137.297 224.18C137.464 223.805 137.669 223.484 137.914 223.219C138.164 222.953 138.451 222.75 138.773 222.609C139.102 222.464 139.469 222.391 139.875 222.391C140.276 222.391 140.625 222.451 140.922 222.57C141.224 222.69 141.479 222.862 141.688 223.086C141.896 223.31 142.062 223.581 142.188 223.898C142.312 224.216 142.401 224.576 142.453 224.977V228.578C142.406 228.974 142.32 229.331 142.195 229.648C142.07 229.966 141.904 230.24 141.695 230.469C141.487 230.693 141.229 230.865 140.922 230.984C140.62 231.104 140.266 231.164 139.859 231.164C139.359 231.164 138.919 231.065 138.539 230.867C138.159 230.664 137.839 230.38 137.578 230.016C137.323 229.651 137.128 229.221 136.992 228.727C136.862 228.227 136.797 227.68 136.797 227.086ZM138.25 226.922V227.086C138.25 227.487 138.284 227.862 138.352 228.211C138.424 228.56 138.536 228.867 138.688 229.133C138.844 229.398 139.047 229.607 139.297 229.758C139.547 229.904 139.854 229.977 140.219 229.977C140.531 229.977 140.789 229.938 140.992 229.859C141.195 229.781 141.357 229.68 141.477 229.555C141.596 229.43 141.688 229.299 141.75 229.164V224.406C141.698 224.266 141.612 224.133 141.492 224.008C141.378 223.878 141.219 223.773 141.016 223.695C140.812 223.617 140.552 223.578 140.234 223.578C139.87 223.578 139.56 223.667 139.305 223.844C139.049 224.021 138.844 224.263 138.688 224.57C138.536 224.878 138.424 225.234 138.352 225.641C138.284 226.042 138.25 226.469 138.25 226.922ZM141.031 234.25V219H142.484V234.25H141.031ZM150.289 228.711L154.188 222.547H155.641V231H154.188V224.836L150.289 231H148.852V222.547H150.289V228.711ZM159.484 222.547H160.93L160.805 225.711C160.773 226.513 160.682 227.206 160.531 227.789C160.38 228.372 160.188 228.87 159.953 229.281C159.719 229.688 159.456 230.029 159.164 230.305C158.878 230.581 158.581 230.812 158.273 231H157.555L157.594 229.82L157.891 229.812C158.062 229.609 158.229 229.401 158.391 229.188C158.552 228.969 158.701 228.711 158.836 228.414C158.971 228.112 159.083 227.745 159.172 227.312C159.266 226.875 159.326 226.341 159.352 225.711L159.484 222.547ZM159.844 222.547H164.93V231H163.484V223.883H159.844V222.547ZM157.227 229.812H166.016V233.492H164.57V231H158.672V233.492H157.219L157.227 229.812ZM171.125 231.156C170.536 231.156 170.003 231.057 169.523 230.859C169.049 230.656 168.641 230.372 168.297 230.008C167.958 229.643 167.698 229.211 167.516 228.711C167.333 228.211 167.242 227.664 167.242 227.07V226.742C167.242 226.055 167.344 225.443 167.547 224.906C167.75 224.365 168.026 223.906 168.375 223.531C168.724 223.156 169.12 222.872 169.562 222.68C170.005 222.487 170.464 222.391 170.938 222.391C171.542 222.391 172.062 222.495 172.5 222.703C172.943 222.911 173.305 223.203 173.586 223.578C173.867 223.948 174.076 224.385 174.211 224.891C174.346 225.391 174.414 225.938 174.414 226.531V227.18H168.102V226H172.969V225.891C172.948 225.516 172.87 225.151 172.734 224.797C172.604 224.443 172.396 224.151 172.109 223.922C171.823 223.693 171.432 223.578 170.938 223.578C170.609 223.578 170.307 223.648 170.031 223.789C169.755 223.924 169.518 224.128 169.32 224.398C169.122 224.669 168.969 225 168.859 225.391C168.75 225.781 168.695 226.232 168.695 226.742V227.07C168.695 227.471 168.75 227.849 168.859 228.203C168.974 228.552 169.138 228.859 169.352 229.125C169.57 229.391 169.833 229.599 170.141 229.75C170.453 229.901 170.807 229.977 171.203 229.977C171.714 229.977 172.146 229.872 172.5 229.664C172.854 229.456 173.164 229.177 173.43 228.828L174.305 229.523C174.122 229.799 173.891 230.062 173.609 230.312C173.328 230.562 172.982 230.766 172.57 230.922C172.164 231.078 171.682 231.156 171.125 231.156ZM181.836 226.211V227.383H177.367V226.211H181.836ZM177.672 222.547V231H176.227V222.547H177.672ZM183.008 222.547V231H181.555V222.547H183.008ZM185.461 231V222.547H186.906V229.812H190.797V222.547H192.25V231H185.461ZM193.25 229.812L193.109 233.508H191.82V231H190.719V229.812H193.25ZM196.383 228.711L200.281 222.547H201.734V231H200.281V224.836L196.383 231H194.945V222.547H196.383V228.711ZM209.039 229.555V225.203C209.039 224.87 208.971 224.581 208.836 224.336C208.706 224.086 208.508 223.893 208.242 223.758C207.977 223.622 207.648 223.555 207.258 223.555C206.893 223.555 206.573 223.617 206.297 223.742C206.026 223.867 205.812 224.031 205.656 224.234C205.505 224.438 205.43 224.656 205.43 224.891H203.984C203.984 224.589 204.062 224.289 204.219 223.992C204.375 223.695 204.599 223.427 204.891 223.188C205.188 222.943 205.542 222.75 205.953 222.609C206.37 222.464 206.833 222.391 207.344 222.391C207.958 222.391 208.5 222.495 208.969 222.703C209.443 222.911 209.812 223.227 210.078 223.648C210.349 224.065 210.484 224.589 210.484 225.219V229.156C210.484 229.438 210.508 229.737 210.555 230.055C210.607 230.372 210.682 230.646 210.781 230.875V231H209.273C209.201 230.833 209.143 230.612 209.102 230.336C209.06 230.055 209.039 229.794 209.039 229.555ZM209.289 225.875L209.305 226.891H207.844C207.432 226.891 207.065 226.924 206.742 226.992C206.419 227.055 206.148 227.151 205.93 227.281C205.711 227.411 205.544 227.576 205.43 227.773C205.315 227.966 205.258 228.193 205.258 228.453C205.258 228.719 205.318 228.961 205.438 229.18C205.557 229.398 205.737 229.573 205.977 229.703C206.221 229.828 206.521 229.891 206.875 229.891C207.318 229.891 207.708 229.797 208.047 229.609C208.385 229.422 208.654 229.193 208.852 228.922C209.055 228.651 209.164 228.388 209.18 228.133L209.797 228.828C209.76 229.047 209.661 229.289 209.5 229.555C209.339 229.82 209.122 230.076 208.852 230.32C208.586 230.56 208.268 230.76 207.898 230.922C207.534 231.078 207.122 231.156 206.664 231.156C206.091 231.156 205.589 231.044 205.156 230.82C204.729 230.596 204.396 230.297 204.156 229.922C203.922 229.542 203.805 229.117 203.805 228.648C203.805 228.195 203.893 227.797 204.07 227.453C204.247 227.104 204.503 226.815 204.836 226.586C205.169 226.352 205.57 226.174 206.039 226.055C206.508 225.935 207.031 225.875 207.609 225.875H209.289ZM218.406 222.547V223.742H214.32V222.547H218.406ZM219.68 222.547V231H218.234V222.547H219.68ZM213.969 222.547H215.422L215.203 226.625C215.167 227.255 215.107 227.812 215.023 228.297C214.945 228.776 214.836 229.188 214.695 229.531C214.56 229.875 214.388 230.156 214.18 230.375C213.977 230.589 213.732 230.747 213.445 230.852C213.159 230.951 212.828 231 212.453 231H212V229.727L212.312 229.703C212.536 229.688 212.727 229.635 212.883 229.547C213.044 229.458 213.18 229.328 213.289 229.156C213.398 228.979 213.487 228.753 213.555 228.477C213.628 228.201 213.682 227.872 213.719 227.492C213.76 227.112 213.792 226.669 213.812 226.164L213.969 222.547ZM223.195 225.453H225.734C226.417 225.453 226.992 225.573 227.461 225.812C227.93 226.047 228.284 226.372 228.523 226.789C228.768 227.201 228.891 227.669 228.891 228.195C228.891 228.586 228.823 228.953 228.688 229.297C228.552 229.635 228.349 229.932 228.078 230.188C227.812 230.443 227.482 230.643 227.086 230.789C226.695 230.93 226.245 231 225.734 231H222.141V222.547H223.586V229.812H225.734C226.151 229.812 226.484 229.737 226.734 229.586C226.984 229.435 227.164 229.24 227.273 229C227.383 228.76 227.438 228.51 227.438 228.25C227.438 227.995 227.383 227.745 227.273 227.5C227.164 227.255 226.984 227.052 226.734 226.891C226.484 226.724 226.151 226.641 225.734 226.641H223.195V225.453ZM236.43 226.211V227.383H231.961V226.211H236.43ZM232.266 222.547V231H230.82V222.547H232.266ZM237.602 222.547V231H236.148V222.547H237.602ZM239.547 226.867V226.688C239.547 226.078 239.635 225.513 239.812 224.992C239.99 224.466 240.245 224.01 240.578 223.625C240.911 223.234 241.315 222.932 241.789 222.719C242.263 222.5 242.794 222.391 243.383 222.391C243.977 222.391 244.51 222.5 244.984 222.719C245.464 222.932 245.87 223.234 246.203 223.625C246.542 224.01 246.799 224.466 246.977 224.992C247.154 225.513 247.242 226.078 247.242 226.688V226.867C247.242 227.477 247.154 228.042 246.977 228.562C246.799 229.083 246.542 229.539 246.203 229.93C245.87 230.315 245.466 230.617 244.992 230.836C244.523 231.049 243.992 231.156 243.398 231.156C242.805 231.156 242.271 231.049 241.797 230.836C241.323 230.617 240.917 230.315 240.578 229.93C240.245 229.539 239.99 229.083 239.812 228.562C239.635 228.042 239.547 227.477 239.547 226.867ZM240.992 226.688V226.867C240.992 227.289 241.042 227.688 241.141 228.062C241.24 228.432 241.388 228.76 241.586 229.047C241.789 229.333 242.042 229.56 242.344 229.727C242.646 229.888 242.997 229.969 243.398 229.969C243.794 229.969 244.141 229.888 244.438 229.727C244.74 229.56 244.99 229.333 245.188 229.047C245.385 228.76 245.534 228.432 245.633 228.062C245.737 227.688 245.789 227.289 245.789 226.867V226.688C245.789 226.271 245.737 225.878 245.633 225.508C245.534 225.133 245.383 224.802 245.18 224.516C244.982 224.224 244.732 223.995 244.43 223.828C244.133 223.661 243.784 223.578 243.383 223.578C242.987 223.578 242.638 223.661 242.336 223.828C242.039 223.995 241.789 224.224 241.586 224.516C241.388 224.802 241.24 225.133 241.141 225.508C241.042 225.878 240.992 226.271 240.992 226.688ZM252.438 229.969C252.781 229.969 253.099 229.898 253.391 229.758C253.682 229.617 253.922 229.424 254.109 229.18C254.297 228.93 254.404 228.646 254.43 228.328H255.805C255.779 228.828 255.609 229.294 255.297 229.727C254.99 230.154 254.586 230.5 254.086 230.766C253.586 231.026 253.036 231.156 252.438 231.156C251.802 231.156 251.247 231.044 250.773 230.82C250.305 230.596 249.914 230.289 249.602 229.898C249.294 229.508 249.062 229.06 248.906 228.555C248.755 228.044 248.68 227.505 248.68 226.938V226.609C248.68 226.042 248.755 225.505 248.906 225C249.062 224.49 249.294 224.039 249.602 223.648C249.914 223.258 250.305 222.951 250.773 222.727C251.247 222.503 251.802 222.391 252.438 222.391C253.099 222.391 253.677 222.526 254.172 222.797C254.667 223.062 255.055 223.427 255.336 223.891C255.622 224.349 255.779 224.87 255.805 225.453H254.43C254.404 225.104 254.305 224.789 254.133 224.508C253.966 224.227 253.737 224.003 253.445 223.836C253.159 223.664 252.823 223.578 252.438 223.578C251.995 223.578 251.622 223.667 251.32 223.844C251.023 224.016 250.786 224.25 250.609 224.547C250.438 224.839 250.312 225.164 250.234 225.523C250.161 225.878 250.125 226.24 250.125 226.609V226.938C250.125 227.307 250.161 227.672 250.234 228.031C250.307 228.391 250.43 228.716 250.602 229.008C250.779 229.299 251.016 229.534 251.312 229.711C251.615 229.883 251.99 229.969 252.438 229.969ZM260.875 222.547V231H259.422V222.547H260.875ZM263.711 222.547V223.719H256.641V222.547H263.711ZM266.695 228.711L270.594 222.547H272.047V231H270.594V224.836L266.695 231H265.258V222.547H266.695V228.711Z" fill="#030303"/>
<path fill-rule="evenodd" clip-rule="evenodd" d="M327.512 218.431C327.826 218.161 328.3 218.197 328.569 218.512L334.569 225.512C334.81 225.793 334.81 226.207 334.569 226.488L328.569 233.488C328.3 233.803 327.826 233.839 327.512 233.569C327.197 233.3 327.161 232.826 327.431 232.512L333.012 226L327.431 219.488C327.161 219.174 327.197 218.7 327.512 218.431Z" fill="#FF7035"/>
<rect x="16" y="286" width="343" height="56" rx="12" fill="white"/>
<path d="M42.0781 312.953V313.672C42.0781 314.526 41.9714 315.292 41.7578 315.969C41.5443 316.646 41.237 317.221 40.8359 317.695C40.4349 318.169 39.9531 318.531 39.3906 318.781C38.8333 319.031 38.2083 319.156 37.5156 319.156C36.8438 319.156 36.2266 319.031 35.6641 318.781C35.1068 318.531 34.6224 318.169 34.2109 317.695C33.8047 317.221 33.4896 316.646 33.2656 315.969C33.0417 315.292 32.9297 314.526 32.9297 313.672V312.953C32.9297 312.099 33.0391 311.336 33.2578 310.664C33.4818 309.987 33.7969 309.411 34.2031 308.938C34.6094 308.458 35.0911 308.094 35.6484 307.844C36.2109 307.594 36.8281 307.469 37.5 307.469C38.1927 307.469 38.8177 307.594 39.375 307.844C39.9375 308.094 40.4193 308.458 40.8203 308.938C41.2266 309.411 41.5365 309.987 41.75 310.664C41.9688 311.336 42.0781 312.099 42.0781 312.953ZM40.5859 313.672V312.938C40.5859 312.26 40.5156 311.661 40.375 311.141C40.2396 310.62 40.0391 310.182 39.7734 309.828C39.5078 309.474 39.1823 309.206 38.7969 309.023C38.4167 308.841 37.9844 308.75 37.5 308.75C37.0312 308.75 36.6068 308.841 36.2266 309.023C35.8516 309.206 35.5286 309.474 35.2578 309.828C34.9922 310.182 34.7865 310.62 34.6406 311.141C34.4948 311.661 34.4219 312.26 34.4219 312.938V313.672C34.4219 314.354 34.4948 314.958 34.6406 315.484C34.7865 316.005 34.9948 316.445 35.2656 316.805C35.5417 317.159 35.8672 317.427 36.2422 317.609C36.6224 317.792 37.0469 317.883 37.5156 317.883C38.0052 317.883 38.4401 317.792 38.8203 317.609C39.2005 317.427 39.5208 317.159 39.7812 316.805C40.0469 316.445 40.2474 316.005 40.3828 315.484C40.5182 314.958 40.5859 314.354 40.5859 313.672ZM44.2422 319V310.547H45.6875V317.812H49.5781V310.547H51.0312V319H44.2422ZM52.0312 317.812L51.8906 321.508H50.6016V319H49.5V317.812H52.0312ZM57.1094 319.156C56.5208 319.156 55.987 319.057 55.5078 318.859C55.0339 318.656 54.625 318.372 54.2812 318.008C53.9427 317.643 53.6823 317.211 53.5 316.711C53.3177 316.211 53.2266 315.664 53.2266 315.07V314.742C53.2266 314.055 53.3281 313.443 53.5312 312.906C53.7344 312.365 54.0104 311.906 54.3594 311.531C54.7083 311.156 55.1042 310.872 55.5469 310.68C55.9896 310.487 56.4479 310.391 56.9219 310.391C57.526 310.391 58.0469 310.495 58.4844 310.703C58.9271 310.911 59.2891 311.203 59.5703 311.578C59.8516 311.948 60.0599 312.385 60.1953 312.891C60.3307 313.391 60.3984 313.938 60.3984 314.531V315.18H54.0859V314H58.9531V313.891C58.9323 313.516 58.8542 313.151 58.7188 312.797C58.5885 312.443 58.3802 312.151 58.0938 311.922C57.8073 311.693 57.4167 311.578 56.9219 311.578C56.5938 311.578 56.2917 311.648 56.0156 311.789C55.7396 311.924 55.5026 312.128 55.3047 312.398C55.1068 312.669 54.9531 313 54.8438 313.391C54.7344 313.781 54.6797 314.232 54.6797 314.742V315.07C54.6797 315.471 54.7344 315.849 54.8438 316.203C54.9583 316.552 55.1224 316.859 55.3359 317.125C55.5547 317.391 55.8177 317.599 56.125 317.75C56.4375 317.901 56.7917 317.977 57.1875 317.977C57.6979 317.977 58.1302 317.872 58.4844 317.664C58.8385 317.456 59.1484 317.177 59.4141 316.828L60.2891 317.523C60.1068 317.799 59.875 318.062 59.5938 318.312C59.3125 318.562 58.9661 318.766 58.5547 318.922C58.1484 319.078 57.6667 319.156 57.1094 319.156ZM67.8203 314.211V315.383H63.3516V314.211H67.8203ZM63.6562 310.547V319H62.2109V310.547H63.6562ZM68.9922 310.547V319H67.5391V310.547H68.9922ZM72.8828 316.711L76.7812 310.547H78.2344V319H76.7812V312.836L72.8828 319H71.4453V310.547H72.8828V316.711ZM84 310.547V319H82.5469V310.547H84ZM86.8359 310.547V311.719H79.7656V310.547H86.8359ZM89.4453 313.453H91.9844C92.6667 313.453 93.2422 313.573 93.7109 313.812C94.1797 314.047 94.5339 314.372 94.7734 314.789C95.0182 315.201 95.1406 315.669 95.1406 316.195C95.1406 316.586 95.0729 316.953 94.9375 317.297C94.8021 317.635 94.599 317.932 94.3281 318.188C94.0625 318.443 93.7318 318.643 93.3359 318.789C92.9453 318.93 92.4948 319 91.9844 319H88.3906V310.547H89.8359V317.812H91.9844C92.401 317.812 92.7344 317.737 92.9844 317.586C93.2344 317.435 93.4141 317.24 93.5234 317C93.6328 316.76 93.6875 316.51 93.6875 316.25C93.6875 315.995 93.6328 315.745 93.5234 315.5C93.4141 315.255 93.2344 315.052 92.9844 314.891C92.7344 314.724 92.401 314.641 91.9844 314.641H89.4453V313.453ZM106.547 310.547V311.742H102.273V310.547H106.547ZM102.484 310.547V319H101.039V310.547H102.484ZM107.828 310.547V319H106.375V310.547H107.828ZM111.594 312.172V322.25H110.141V310.547H111.469L111.594 312.172ZM117.289 314.703V314.867C117.289 315.482 117.216 316.052 117.07 316.578C116.924 317.099 116.711 317.552 116.43 317.938C116.154 318.323 115.812 318.622 115.406 318.836C115 319.049 114.534 319.156 114.008 319.156C113.471 319.156 112.997 319.068 112.586 318.891C112.174 318.714 111.826 318.456 111.539 318.117C111.253 317.779 111.023 317.372 110.852 316.898C110.685 316.424 110.57 315.891 110.508 315.297V314.422C110.57 313.797 110.688 313.237 110.859 312.742C111.031 312.247 111.258 311.826 111.539 311.477C111.826 311.122 112.172 310.854 112.578 310.672C112.984 310.484 113.453 310.391 113.984 310.391C114.516 310.391 114.987 310.495 115.398 310.703C115.81 310.906 116.156 311.198 116.438 311.578C116.719 311.958 116.93 312.414 117.07 312.945C117.216 313.471 117.289 314.057 117.289 314.703ZM115.836 314.867V314.703C115.836 314.281 115.792 313.885 115.703 313.516C115.615 313.141 115.477 312.812 115.289 312.531C115.107 312.245 114.872 312.021 114.586 311.859C114.299 311.693 113.958 311.609 113.562 311.609C113.198 311.609 112.88 311.672 112.609 311.797C112.344 311.922 112.117 312.091 111.93 312.305C111.742 312.513 111.589 312.753 111.469 313.023C111.354 313.289 111.268 313.565 111.211 313.852V315.875C111.315 316.24 111.461 316.583 111.648 316.906C111.836 317.224 112.086 317.482 112.398 317.68C112.711 317.872 113.104 317.969 113.578 317.969C113.969 317.969 114.305 317.888 114.586 317.727C114.872 317.56 115.107 317.333 115.289 317.047C115.477 316.76 115.615 316.432 115.703 316.062C115.792 315.688 115.836 315.289 115.836 314.867ZM120.695 316.711L124.594 310.547H126.047V319H124.594V312.836L120.695 319H119.258V310.547H120.695V316.711ZM134.016 310.547V311.742H129.93V310.547H134.016ZM135.289 310.547V319H133.844V310.547H135.289ZM129.578 310.547H131.031L130.812 314.625C130.776 315.255 130.716 315.812 130.633 316.297C130.555 316.776 130.445 317.188 130.305 317.531C130.169 317.875 129.997 318.156 129.789 318.375C129.586 318.589 129.341 318.747 129.055 318.852C128.768 318.951 128.438 319 128.062 319H127.609V317.727L127.922 317.703C128.146 317.688 128.336 317.635 128.492 317.547C128.654 317.458 128.789 317.328 128.898 317.156C129.008 316.979 129.096 316.753 129.164 316.477C129.237 316.201 129.292 315.872 129.328 315.492C129.37 315.112 129.401 314.669 129.422 314.164L129.578 310.547ZM137.234 314.867V314.688C137.234 314.078 137.323 313.513 137.5 312.992C137.677 312.466 137.932 312.01 138.266 311.625C138.599 311.234 139.003 310.932 139.477 310.719C139.951 310.5 140.482 310.391 141.07 310.391C141.664 310.391 142.198 310.5 142.672 310.719C143.151 310.932 143.557 311.234 143.891 311.625C144.229 312.01 144.487 312.466 144.664 312.992C144.841 313.513 144.93 314.078 144.93 314.688V314.867C144.93 315.477 144.841 316.042 144.664 316.562C144.487 317.083 144.229 317.539 143.891 317.93C143.557 318.315 143.154 318.617 142.68 318.836C142.211 319.049 141.68 319.156 141.086 319.156C140.492 319.156 139.958 319.049 139.484 318.836C139.01 318.617 138.604 318.315 138.266 317.93C137.932 317.539 137.677 317.083 137.5 316.562C137.323 316.042 137.234 315.477 137.234 314.867ZM138.68 314.688V314.867C138.68 315.289 138.729 315.688 138.828 316.062C138.927 316.432 139.076 316.76 139.273 317.047C139.477 317.333 139.729 317.56 140.031 317.727C140.333 317.888 140.685 317.969 141.086 317.969C141.482 317.969 141.828 317.888 142.125 317.727C142.427 317.56 142.677 317.333 142.875 317.047C143.073 316.76 143.221 316.432 143.32 316.062C143.424 315.688 143.477 315.289 143.477 314.867V314.688C143.477 314.271 143.424 313.878 143.32 313.508C143.221 313.133 143.07 312.802 142.867 312.516C142.669 312.224 142.419 311.995 142.117 311.828C141.82 311.661 141.471 311.578 141.07 311.578C140.674 311.578 140.326 311.661 140.023 311.828C139.727 311.995 139.477 312.224 139.273 312.516C139.076 312.802 138.927 313.133 138.828 313.508C138.729 313.878 138.68 314.271 138.68 314.688ZM149.133 315.32L145.93 310.547H147.672L149.859 314.047H151.547L151.336 315.32H149.133ZM149.922 315.172L147.469 319H145.641L149.008 314.125L149.922 315.172ZM152.289 310.547V319H150.844V310.547H152.289ZM157.219 310.547L154.016 315.32H151.812L151.586 314.047H153.281L155.469 310.547H157.219ZM155.672 319L153.211 315.172L154.141 314.125L157.5 319H155.672ZM162.188 319.156C161.599 319.156 161.065 319.057 160.586 318.859C160.112 318.656 159.703 318.372 159.359 318.008C159.021 317.643 158.76 317.211 158.578 316.711C158.396 316.211 158.305 315.664 158.305 315.07V314.742C158.305 314.055 158.406 313.443 158.609 312.906C158.812 312.365 159.089 311.906 159.438 311.531C159.786 311.156 160.182 310.872 160.625 310.68C161.068 310.487 161.526 310.391 162 310.391C162.604 310.391 163.125 310.495 163.562 310.703C164.005 310.911 164.367 311.203 164.648 311.578C164.93 311.948 165.138 312.385 165.273 312.891C165.409 313.391 165.477 313.938 165.477 314.531V315.18H159.164V314H164.031V313.891C164.01 313.516 163.932 313.151 163.797 312.797C163.667 312.443 163.458 312.151 163.172 311.922C162.885 311.693 162.495 311.578 162 311.578C161.672 311.578 161.37 311.648 161.094 311.789C160.818 311.924 160.581 312.128 160.383 312.398C160.185 312.669 160.031 313 159.922 313.391C159.812 313.781 159.758 314.232 159.758 314.742V315.07C159.758 315.471 159.812 315.849 159.922 316.203C160.036 316.552 160.201 316.859 160.414 317.125C160.633 317.391 160.896 317.599 161.203 317.75C161.516 317.901 161.87 317.977 162.266 317.977C162.776 317.977 163.208 317.872 163.562 317.664C163.917 317.456 164.227 317.177 164.492 316.828L165.367 317.523C165.185 317.799 164.953 318.062 164.672 318.312C164.391 318.562 164.044 318.766 163.633 318.922C163.227 319.078 162.745 319.156 162.188 319.156ZM172.898 314.211V315.383H168.43V314.211H172.898ZM168.734 310.547V319H167.289V310.547H168.734ZM174.07 310.547V319H172.617V310.547H174.07ZM177.961 316.711L181.859 310.547H183.312V319H181.859V312.836L177.961 319H176.523V310.547H177.961V316.711ZM189.141 319.156C188.552 319.156 188.018 319.057 187.539 318.859C187.065 318.656 186.656 318.372 186.312 318.008C185.974 317.643 185.714 317.211 185.531 316.711C185.349 316.211 185.258 315.664 185.258 315.07V314.742C185.258 314.055 185.359 313.443 185.562 312.906C185.766 312.365 186.042 311.906 186.391 311.531C186.74 311.156 187.135 310.872 187.578 310.68C188.021 310.487 188.479 310.391 188.953 310.391C189.557 310.391 190.078 310.495 190.516 310.703C190.958 310.911 191.32 311.203 191.602 311.578C191.883 311.948 192.091 312.385 192.227 312.891C192.362 313.391 192.43 313.938 192.43 314.531V315.18H186.117V314H190.984V313.891C190.964 313.516 190.885 313.151 190.75 312.797C190.62 312.443 190.411 312.151 190.125 311.922C189.839 311.693 189.448 311.578 188.953 311.578C188.625 311.578 188.323 311.648 188.047 311.789C187.771 311.924 187.534 312.128 187.336 312.398C187.138 312.669 186.984 313 186.875 313.391C186.766 313.781 186.711 314.232 186.711 314.742V315.07C186.711 315.471 186.766 315.849 186.875 316.203C186.99 316.552 187.154 316.859 187.367 317.125C187.586 317.391 187.849 317.599 188.156 317.75C188.469 317.901 188.823 317.977 189.219 317.977C189.729 317.977 190.161 317.872 190.516 317.664C190.87 317.456 191.18 317.177 191.445 316.828L192.32 317.523C192.138 317.799 191.906 318.062 191.625 318.312C191.344 318.562 190.997 318.766 190.586 318.922C190.18 319.078 189.698 319.156 189.141 319.156Z" fill="#030303"/>
<path fill-rule="evenodd" clip-rule="evenodd" d="M327.512 306.431C327.826 306.161 328.3 306.197 328.569 306.512L334.569 313.512C334.81 313.793 334.81 314.207 334.569 314.488L328.569 321.488C328.3 321.803 327.826 321.839 327.512 321.569C327.197 321.3 327.161 320.826 327.431 320.512L333.012 314L327.431 307.488C327.161 307.174 327.197 306.7 327.512 306.431Z" fill="#FF7035"/>
</g>
<defs>
<clipPath id="clip0_44_3380">
<rect width="375" height="812" fill="white"/>
</clipPath>
</defs>
</svg>
