<svg width="375" height="812" viewBox="0 0 375 812" fill="none" xmlns="http://www.w3.org/2000/svg">
<rect width="375" height="812" fill="#F4F3F1"/>
<rect width="375" height="102" fill="#102466"/>
<path fill-rule="evenodd" clip-rule="evenodd" d="M31.4881 72.4306C31.8026 72.7001 31.839 73.1736 31.5694 73.4881L25.9878 80L31.5694 86.5119C31.839 86.8264 31.8026 87.2999 31.4881 87.5694C31.1736 87.839 30.7001 87.8026 30.4306 87.4881L24.4306 80.4881C24.1898 80.2072 24.1898 79.7928 24.4306 79.5119L30.4306 72.5119C30.7001 72.1974 31.1736 72.161 31.4881 72.4306Z" fill="#747474"/>
<path d="M58.6333 73.9141V86H57.0396V75.2256H51.0796V86H49.4775V73.9141H58.6333ZM62.8418 78.7451V89.4531H61.2979V77.0186H62.709L62.8418 78.7451ZM68.8931 81.4346V81.6089C68.8931 82.2619 68.8156 82.8678 68.6606 83.4268C68.5057 83.9801 68.2788 84.4616 67.98 84.8711C67.6867 85.2806 67.3242 85.5988 66.8926 85.8257C66.4609 86.0526 65.9657 86.166 65.4067 86.166C64.8368 86.166 64.3332 86.0719 63.896 85.8838C63.4588 85.6956 63.0881 85.4217 62.7837 85.062C62.4793 84.7023 62.2358 84.2707 62.0532 83.7671C61.8761 83.2635 61.7544 82.6963 61.688 82.0654V81.1357C61.7544 80.4717 61.8789 79.8768 62.0615 79.3511C62.2441 78.8254 62.4849 78.3771 62.7837 78.0063C63.0881 77.63 63.4561 77.3451 63.8877 77.1514C64.3193 76.9521 64.8174 76.8525 65.3818 76.8525C65.9463 76.8525 66.4471 76.9632 66.8843 77.1846C67.3215 77.4004 67.6895 77.7103 67.9883 78.1143C68.2871 78.5182 68.5112 79.0024 68.6606 79.5669C68.8156 80.1258 68.8931 80.7484 68.8931 81.4346ZM67.3491 81.6089V81.4346C67.3491 80.9863 67.3021 80.5658 67.208 80.1729C67.1139 79.7744 66.9673 79.4258 66.7681 79.127C66.5744 78.8226 66.3254 78.5846 66.021 78.4131C65.7166 78.236 65.3542 78.1475 64.9336 78.1475C64.5462 78.1475 64.2087 78.2139 63.9209 78.3467C63.6387 78.4795 63.3979 78.6593 63.1987 78.8862C62.9995 79.1076 62.8363 79.3621 62.709 79.6499C62.5872 79.9321 62.4959 80.2254 62.4351 80.5298V82.6797C62.5457 83.0671 62.7007 83.4323 62.8999 83.7754C63.0991 84.113 63.3647 84.3869 63.6968 84.5972C64.0288 84.8019 64.4466 84.9043 64.9502 84.9043C65.3652 84.9043 65.7222 84.8185 66.021 84.647C66.3254 84.4699 66.5744 84.2292 66.7681 83.9248C66.9673 83.6204 67.1139 83.2718 67.208 82.8789C67.3021 82.4805 67.3491 82.0571 67.3491 81.6089ZM76.1479 84.4644V79.8408C76.1479 79.4867 76.076 79.1795 75.9321 78.9194C75.7938 78.6538 75.5835 78.4491 75.3013 78.3052C75.019 78.1613 74.6704 78.0894 74.2554 78.0894C73.868 78.0894 73.5277 78.1558 73.2344 78.2886C72.9466 78.4214 72.7197 78.5957 72.5537 78.8115C72.3932 79.0273 72.313 79.2598 72.313 79.5088H70.7773C70.7773 79.1878 70.8604 78.8696 71.0264 78.5542C71.1924 78.2388 71.4303 77.9538 71.7402 77.6992C72.0557 77.4391 72.432 77.2344 72.8691 77.085C73.3118 76.93 73.8044 76.8525 74.3467 76.8525C74.9997 76.8525 75.5752 76.9632 76.0732 77.1846C76.5768 77.4059 76.9697 77.7407 77.252 78.189C77.5397 78.6317 77.6836 79.1878 77.6836 79.8574V84.041C77.6836 84.3398 77.7085 84.658 77.7583 84.9956C77.8136 85.3332 77.8939 85.6237 77.999 85.8672V86H76.397C76.3195 85.8229 76.2586 85.5877 76.2144 85.2944C76.1701 84.9956 76.1479 84.7189 76.1479 84.4644ZM76.4136 80.5547L76.4302 81.6338H74.8779C74.4408 81.6338 74.0506 81.6698 73.7075 81.7417C73.3644 81.8081 73.0767 81.9105 72.8442 82.0488C72.6118 82.1872 72.4347 82.3615 72.313 82.5718C72.1912 82.7765 72.1304 83.0173 72.1304 83.2939C72.1304 83.5762 72.194 83.8335 72.3213 84.0659C72.4486 84.2983 72.6395 84.4837 72.894 84.6221C73.1541 84.7549 73.4723 84.8213 73.8486 84.8213C74.319 84.8213 74.734 84.7217 75.0938 84.5225C75.4535 84.3232 75.7384 84.0798 75.9487 83.792C76.1646 83.5042 76.2808 83.2248 76.2974 82.9536L76.9531 83.6924C76.9144 83.9248 76.8092 84.1821 76.6377 84.4644C76.4661 84.7466 76.2365 85.0177 75.9487 85.2778C75.6665 85.5324 75.3289 85.7454 74.936 85.917C74.5487 86.083 74.1115 86.166 73.6245 86.166C73.0158 86.166 72.4818 86.047 72.0225 85.8091C71.5687 85.5711 71.2145 85.2529 70.96 84.8545C70.7109 84.4505 70.5864 83.9995 70.5864 83.5015C70.5864 83.02 70.6805 82.5967 70.8687 82.2314C71.0568 81.8607 71.328 81.5535 71.6821 81.3101C72.0363 81.061 72.4624 80.8729 72.9604 80.7456C73.4585 80.6183 74.0146 80.5547 74.6289 80.5547H76.4136ZM81.7676 77.0186V86H80.2319V77.0186H81.7676ZM87.6611 77.0186L83.4028 82.165H81.2529L81.0205 80.8203H82.7803L85.7935 77.0186H87.6611ZM86.0093 86L82.7056 81.9326L83.6934 80.8203L87.96 86H86.0093ZM92.957 77.0186V86H91.4131V77.0186H92.957ZM95.9702 77.0186V78.2637H88.458V77.0186H95.9702ZM99.1411 83.5679L103.283 77.0186H104.827V86H103.283V79.4507L99.1411 86H97.6138V77.0186H99.1411V83.5679ZM114.066 77.0186V86H112.53V77.0186H114.066ZM113.543 81.144V82.4058C113.233 82.522 112.918 82.6271 112.597 82.7212C112.281 82.8097 111.946 82.8817 111.592 82.937C111.244 82.9868 110.865 83.0117 110.455 83.0117C109.747 83.0117 109.132 82.89 108.612 82.6465C108.092 82.3975 107.691 82.0239 107.409 81.5259C107.126 81.0223 106.985 80.3887 106.985 79.625V77.002H108.521V79.625C108.521 80.123 108.596 80.527 108.745 80.8369C108.895 81.1468 109.113 81.3765 109.401 81.5259C109.689 81.6698 110.04 81.7417 110.455 81.7417C110.854 81.7417 111.227 81.7168 111.576 81.667C111.93 81.6117 112.267 81.5397 112.588 81.4512C112.915 81.3626 113.233 81.2603 113.543 81.144ZM120.267 86.166C119.641 86.166 119.074 86.0609 118.565 85.8506C118.061 85.6348 117.627 85.3332 117.262 84.9458C116.902 84.5584 116.625 84.0991 116.432 83.5679C116.238 83.0366 116.141 82.4556 116.141 81.8247V81.4761C116.141 80.7456 116.249 80.0954 116.465 79.5254C116.681 78.9499 116.974 78.4629 117.345 78.0645C117.715 77.666 118.136 77.3644 118.606 77.1597C119.077 76.9549 119.564 76.8525 120.067 76.8525C120.709 76.8525 121.263 76.9632 121.728 77.1846C122.198 77.4059 122.583 77.7158 122.881 78.1143C123.18 78.5072 123.402 78.972 123.545 79.5088C123.689 80.04 123.761 80.6211 123.761 81.252V81.9409H117.054V80.6875H122.226V80.5713C122.203 80.1729 122.12 79.7855 121.977 79.4092C121.838 79.0329 121.617 78.723 121.312 78.4795C121.008 78.236 120.593 78.1143 120.067 78.1143C119.719 78.1143 119.398 78.189 119.104 78.3384C118.811 78.4823 118.559 78.6981 118.349 78.9858C118.139 79.2736 117.976 79.625 117.859 80.04C117.743 80.4551 117.685 80.9338 117.685 81.4761V81.8247C117.685 82.2508 117.743 82.652 117.859 83.0283C117.981 83.3991 118.155 83.7256 118.382 84.0078C118.615 84.29 118.894 84.5114 119.221 84.6719C119.553 84.8324 119.929 84.9126 120.35 84.9126C120.892 84.9126 121.351 84.8019 121.728 84.5806C122.104 84.3592 122.433 84.0632 122.715 83.6924L123.645 84.4312C123.451 84.7244 123.205 85.0039 122.906 85.2695C122.607 85.5352 122.239 85.751 121.802 85.917C121.371 86.083 120.859 86.166 120.267 86.166ZM129.148 84.9043C129.514 84.9043 129.851 84.8296 130.161 84.6802C130.471 84.5308 130.726 84.326 130.925 84.0659C131.124 83.8003 131.237 83.4987 131.265 83.1611H132.726C132.698 83.6924 132.519 84.1877 132.187 84.647C131.86 85.1007 131.431 85.4688 130.9 85.751C130.369 86.0277 129.785 86.166 129.148 86.166C128.473 86.166 127.884 86.047 127.38 85.8091C126.882 85.5711 126.467 85.2446 126.135 84.8296C125.809 84.4146 125.562 83.9386 125.396 83.4019C125.236 82.8595 125.156 82.2868 125.156 81.6836V81.335C125.156 80.7318 125.236 80.1618 125.396 79.625C125.562 79.0827 125.809 78.604 126.135 78.189C126.467 77.7739 126.882 77.4474 127.38 77.2095C127.884 76.9715 128.473 76.8525 129.148 76.8525C129.851 76.8525 130.465 76.9964 130.991 77.2842C131.517 77.5664 131.929 77.9538 132.228 78.4463C132.532 78.9333 132.698 79.4867 132.726 80.1064H131.265C131.237 79.7357 131.132 79.4009 130.95 79.1021C130.773 78.8032 130.529 78.5653 130.219 78.3882C129.915 78.2056 129.558 78.1143 129.148 78.1143C128.678 78.1143 128.282 78.2083 127.961 78.3965C127.646 78.5791 127.394 78.8281 127.206 79.1436C127.023 79.4535 126.891 79.7993 126.808 80.1812C126.73 80.5575 126.691 80.9421 126.691 81.335V81.6836C126.691 82.0765 126.73 82.4639 126.808 82.8457C126.885 83.2275 127.015 83.5734 127.198 83.8833C127.386 84.1932 127.638 84.4422 127.953 84.6304C128.274 84.813 128.673 84.9043 129.148 84.9043ZM136.121 77.0186V86H134.585V77.0186H136.121ZM142.015 77.0186L137.756 82.165H135.606L135.374 80.8203H137.134L140.147 77.0186H142.015ZM140.363 86L137.059 81.9326L138.047 80.8203L142.313 86H140.363ZM145.31 83.5679L149.452 77.0186H150.996V86H149.452V79.4507L145.31 86H143.783V77.0186H145.31V83.5679ZM157.188 86.166C156.563 86.166 155.996 86.0609 155.487 85.8506C154.983 85.6348 154.549 85.3332 154.184 84.9458C153.824 84.5584 153.547 84.0991 153.354 83.5679C153.16 83.0366 153.063 82.4556 153.063 81.8247V81.4761C153.063 80.7456 153.171 80.0954 153.387 79.5254C153.603 78.9499 153.896 78.4629 154.267 78.0645C154.637 77.666 155.058 77.3644 155.528 77.1597C155.999 76.9549 156.486 76.8525 156.989 76.8525C157.631 76.8525 158.185 76.9632 158.649 77.1846C159.12 77.4059 159.504 77.7158 159.803 78.1143C160.102 78.5072 160.323 78.972 160.467 79.5088C160.611 80.04 160.683 80.6211 160.683 81.252V81.9409H153.976V80.6875H159.147V80.5713C159.125 80.1729 159.042 79.7855 158.898 79.4092C158.76 79.0329 158.539 78.723 158.234 78.4795C157.93 78.236 157.515 78.1143 156.989 78.1143C156.641 78.1143 156.32 78.189 156.026 78.3384C155.733 78.4823 155.481 78.6981 155.271 78.9858C155.061 79.2736 154.897 79.625 154.781 80.04C154.665 80.4551 154.607 80.9338 154.607 81.4761V81.8247C154.607 82.2508 154.665 82.652 154.781 83.0283C154.903 83.3991 155.077 83.7256 155.304 84.0078C155.537 84.29 155.816 84.5114 156.143 84.6719C156.475 84.8324 156.851 84.9126 157.271 84.9126C157.814 84.9126 158.273 84.8019 158.649 84.5806C159.026 84.3592 159.355 84.0632 159.637 83.6924L160.567 84.4312C160.373 84.7244 160.127 85.0039 159.828 85.2695C159.529 85.5352 159.161 85.751 158.724 85.917C158.292 86.083 157.781 86.166 157.188 86.166ZM170.287 84.9043C170.652 84.9043 170.99 84.8296 171.3 84.6802C171.61 84.5308 171.864 84.326 172.063 84.0659C172.263 83.8003 172.376 83.4987 172.404 83.1611H173.865C173.837 83.6924 173.657 84.1877 173.325 84.647C172.999 85.1007 172.57 85.4688 172.039 85.751C171.507 86.0277 170.924 86.166 170.287 86.166C169.612 86.166 169.023 86.047 168.519 85.8091C168.021 85.5711 167.606 85.2446 167.274 84.8296C166.947 84.4146 166.701 83.9386 166.535 83.4019C166.375 82.8595 166.294 82.2868 166.294 81.6836V81.335C166.294 80.7318 166.375 80.1618 166.535 79.625C166.701 79.0827 166.947 78.604 167.274 78.189C167.606 77.7739 168.021 77.4474 168.519 77.2095C169.023 76.9715 169.612 76.8525 170.287 76.8525C170.99 76.8525 171.604 76.9964 172.13 77.2842C172.656 77.5664 173.068 77.9538 173.367 78.4463C173.671 78.9333 173.837 79.4867 173.865 80.1064H172.404C172.376 79.7357 172.271 79.4009 172.088 79.1021C171.911 78.8032 171.668 78.5653 171.358 78.3882C171.054 78.2056 170.697 78.1143 170.287 78.1143C169.817 78.1143 169.421 78.2083 169.1 78.3965C168.785 78.5791 168.533 78.8281 168.345 79.1436C168.162 79.4535 168.029 79.7993 167.946 80.1812C167.869 80.5575 167.83 80.9421 167.83 81.335V81.6836C167.83 82.0765 167.869 82.4639 167.946 82.8457C168.024 83.2275 168.154 83.5734 168.336 83.8833C168.525 84.1932 168.776 84.4422 169.092 84.6304C169.413 84.813 169.811 84.9043 170.287 84.9043ZM175.185 81.6089V81.418C175.185 80.7705 175.279 80.1701 175.467 79.6167C175.655 79.0578 175.926 78.5736 176.28 78.1641C176.634 77.749 177.063 77.4281 177.567 77.2012C178.07 76.9688 178.635 76.8525 179.26 76.8525C179.891 76.8525 180.458 76.9688 180.962 77.2012C181.471 77.4281 181.903 77.749 182.257 78.1641C182.617 78.5736 182.89 79.0578 183.079 79.6167C183.267 80.1701 183.361 80.7705 183.361 81.418V81.6089C183.361 82.2563 183.267 82.8568 183.079 83.4102C182.89 83.9635 182.617 84.4478 182.257 84.8628C181.903 85.2723 181.474 85.5933 180.97 85.8257C180.472 86.0526 179.908 86.166 179.277 86.166C178.646 86.166 178.079 86.0526 177.575 85.8257C177.072 85.5933 176.64 85.2723 176.28 84.8628C175.926 84.4478 175.655 83.9635 175.467 83.4102C175.279 82.8568 175.185 82.2563 175.185 81.6089ZM176.72 81.418V81.6089C176.72 82.0571 176.773 82.4805 176.878 82.8789C176.983 83.2718 177.141 83.6204 177.351 83.9248C177.567 84.2292 177.835 84.4699 178.156 84.647C178.477 84.8185 178.851 84.9043 179.277 84.9043C179.697 84.9043 180.065 84.8185 180.381 84.647C180.702 84.4699 180.967 84.2292 181.178 83.9248C181.388 83.6204 181.546 83.2718 181.651 82.8789C181.762 82.4805 181.817 82.0571 181.817 81.6089V81.418C181.817 80.9753 181.762 80.5575 181.651 80.1646C181.546 79.7661 181.385 79.4147 181.169 79.1104C180.959 78.8005 180.694 78.557 180.373 78.3799C180.057 78.2028 179.686 78.1143 179.26 78.1143C178.84 78.1143 178.469 78.2028 178.148 78.3799C177.833 78.557 177.567 78.8005 177.351 79.1104C177.141 79.4147 176.983 79.7661 176.878 80.1646C176.773 80.5575 176.72 80.9753 176.72 81.418ZM189.503 82.0488H186.557L186.54 80.8203H188.947C189.423 80.8203 189.819 80.7733 190.134 80.6792C190.455 80.5851 190.696 80.444 190.856 80.2559C191.017 80.0677 191.097 79.8353 191.097 79.5586C191.097 79.3428 191.05 79.1546 190.956 78.9941C190.868 78.8281 190.732 78.6925 190.549 78.5874C190.367 78.4767 190.14 78.3965 189.869 78.3467C189.603 78.2913 189.29 78.2637 188.931 78.2637H186.963V86H185.428V77.0186H188.931C189.501 77.0186 190.013 77.0684 190.466 77.168C190.926 77.2676 191.316 77.4198 191.637 77.6245C191.963 77.8237 192.212 78.0783 192.384 78.3882C192.555 78.6981 192.641 79.0633 192.641 79.4839C192.641 79.755 192.586 80.0124 192.475 80.2559C192.364 80.4993 192.201 80.7152 191.985 80.9033C191.77 81.0915 191.504 81.2464 191.188 81.3682C190.873 81.4844 190.511 81.5591 190.101 81.5923L189.503 82.0488ZM189.503 86H186L186.764 84.7549H189.503C189.93 84.7549 190.284 84.7023 190.566 84.5972C190.848 84.4865 191.058 84.3315 191.197 84.1323C191.341 83.9276 191.413 83.6841 191.413 83.4019C191.413 83.1196 191.341 82.8789 191.197 82.6797C191.058 82.4749 190.848 82.32 190.566 82.2148C190.284 82.1042 189.93 82.0488 189.503 82.0488H187.171L187.188 80.8203H190.101L190.657 81.2852C191.15 81.3239 191.568 81.4456 191.911 81.6504C192.254 81.8551 192.514 82.1152 192.691 82.4307C192.868 82.7406 192.957 83.0781 192.957 83.4434C192.957 83.8639 192.876 84.2347 192.716 84.5557C192.561 84.8766 192.334 85.145 192.035 85.3608C191.736 85.5711 191.374 85.7316 190.948 85.8423C190.522 85.9474 190.04 86 189.503 86ZM198.742 86.166C198.117 86.166 197.55 86.0609 197.041 85.8506C196.537 85.6348 196.103 85.3332 195.737 84.9458C195.378 84.5584 195.101 84.0991 194.907 83.5679C194.714 83.0366 194.617 82.4556 194.617 81.8247V81.4761C194.617 80.7456 194.725 80.0954 194.94 79.5254C195.156 78.9499 195.45 78.4629 195.82 78.0645C196.191 77.666 196.612 77.3644 197.082 77.1597C197.552 76.9549 198.039 76.8525 198.543 76.8525C199.185 76.8525 199.738 76.9632 200.203 77.1846C200.674 77.4059 201.058 77.7158 201.357 78.1143C201.656 78.5072 201.877 78.972 202.021 79.5088C202.165 80.04 202.237 80.6211 202.237 81.252V81.9409H195.53V80.6875H200.701V80.5713C200.679 80.1729 200.596 79.7855 200.452 79.4092C200.314 79.0329 200.092 78.723 199.788 78.4795C199.484 78.236 199.069 78.1143 198.543 78.1143C198.194 78.1143 197.873 78.189 197.58 78.3384C197.287 78.4823 197.035 78.6981 196.825 78.9858C196.614 79.2736 196.451 79.625 196.335 80.04C196.219 80.4551 196.161 80.9338 196.161 81.4761V81.8247C196.161 82.2508 196.219 82.652 196.335 83.0283C196.457 83.3991 196.631 83.7256 196.858 84.0078C197.09 84.29 197.37 84.5114 197.696 84.6719C198.028 84.8324 198.405 84.9126 198.825 84.9126C199.368 84.9126 199.827 84.8019 200.203 84.5806C200.579 84.3592 200.909 84.0632 201.191 83.6924L202.121 84.4312C201.927 84.7244 201.681 85.0039 201.382 85.2695C201.083 85.5352 200.715 85.751 200.278 85.917C199.846 86.083 199.334 86.166 198.742 86.166ZM207.591 77.0186V86H206.047V77.0186H207.591ZM210.604 77.0186V78.2637H203.092V77.0186H210.604ZM213.376 80.1064H216.074C216.799 80.1064 217.411 80.2337 217.909 80.4883C218.407 80.7373 218.783 81.0832 219.038 81.5259C219.298 81.9631 219.428 82.4611 219.428 83.02C219.428 83.4351 219.356 83.8252 219.212 84.1904C219.068 84.5501 218.852 84.8656 218.564 85.1367C218.282 85.4079 217.931 85.6209 217.51 85.7759C217.095 85.9253 216.617 86 216.074 86H212.256V77.0186H213.792V84.7383H216.074C216.517 84.7383 216.871 84.658 217.137 84.4976C217.402 84.3371 217.593 84.1296 217.709 83.875C217.826 83.6204 217.884 83.3548 217.884 83.0781C217.884 82.807 217.826 82.5413 217.709 82.2812C217.593 82.0212 217.402 81.8053 217.137 81.6338C216.871 81.4567 216.517 81.3682 216.074 81.3682H213.376V80.1064ZM222.624 77.0186V86H221.088V77.0186H222.624Z" fill="white"/>
</svg>
