<svg width="375" height="102" viewBox="0 0 375 102" fill="none" xmlns="http://www.w3.org/2000/svg">
<rect width="375" height="102" fill="#102466"/>
<path fill-rule="evenodd" clip-rule="evenodd" d="M31.4881 72.4306C31.8026 72.7001 31.839 73.1736 31.5694 73.4881L25.9878 80L31.5694 86.5119C31.839 86.8264 31.8026 87.2999 31.4881 87.5695C31.1736 87.839 30.7001 87.8026 30.4306 87.4881L24.4306 80.4881C24.1898 80.2072 24.1898 79.7928 24.4306 79.5119L30.4306 72.5119C30.7001 72.1974 31.1736 72.161 31.4881 72.4306Z" fill="#747474"/>
<path d="M53.8604 81.2603H50.6313V79.957H53.8604C54.4857 79.957 54.992 79.8574 55.3794 79.6582C55.7668 79.459 56.049 79.1823 56.2261 78.8281C56.4087 78.474 56.5 78.07 56.5 77.6162C56.5 77.2012 56.4087 76.811 56.2261 76.4458C56.049 76.0806 55.7668 75.7873 55.3794 75.5659C54.992 75.339 54.4857 75.2256 53.8604 75.2256H51.0049V86H49.4028V73.9141H53.8604C54.7734 73.9141 55.5454 74.0718 56.1763 74.3872C56.8071 74.7026 57.2858 75.1398 57.6123 75.6987C57.9388 76.2521 58.1021 76.8857 58.1021 77.5996C58.1021 78.3743 57.9388 79.0356 57.6123 79.5835C57.2858 80.1313 56.8071 80.5492 56.1763 80.8369C55.5454 81.1191 54.7734 81.2603 53.8604 81.2603ZM65.0913 84.4644V79.8408C65.0913 79.4867 65.0194 79.1795 64.8755 78.9194C64.7371 78.6538 64.5269 78.4491 64.2446 78.3052C63.9624 78.1613 63.6138 78.0894 63.1987 78.0894C62.8114 78.0894 62.471 78.1558 62.1777 78.2886C61.89 78.4214 61.6631 78.5957 61.4971 78.8115C61.3366 79.0273 61.2563 79.2598 61.2563 79.5088H59.7207C59.7207 79.1878 59.8037 78.8696 59.9697 78.5542C60.1357 78.2388 60.3737 77.9538 60.6836 77.6992C60.999 77.4391 61.3753 77.2344 61.8125 77.085C62.2552 76.93 62.7477 76.8525 63.29 76.8525C63.943 76.8525 64.5186 76.9632 65.0166 77.1846C65.5202 77.4059 65.9131 77.7407 66.1953 78.189C66.4831 78.6317 66.627 79.1878 66.627 79.8574V84.041C66.627 84.3398 66.6519 84.658 66.7017 84.9956C66.757 85.3332 66.8372 85.6237 66.9424 85.8672V86H65.3403C65.2629 85.8229 65.202 85.5877 65.1577 85.2944C65.1134 84.9956 65.0913 84.7189 65.0913 84.4644ZM65.3569 80.5547L65.3735 81.6338H63.8213C63.3841 81.6338 62.994 81.6698 62.6509 81.7417C62.3078 81.8081 62.02 81.9105 61.7876 82.0488C61.5552 82.1872 61.3781 82.3615 61.2563 82.5718C61.1346 82.7765 61.0737 83.0173 61.0737 83.2939C61.0737 83.5762 61.1374 83.8335 61.2646 84.0659C61.3919 84.2983 61.5828 84.4837 61.8374 84.6221C62.0975 84.7549 62.4157 84.8213 62.792 84.8213C63.2624 84.8213 63.6774 84.7217 64.0371 84.5225C64.3968 84.3232 64.6818 84.0798 64.8921 83.792C65.1079 83.5042 65.2241 83.2248 65.2407 82.9536L65.8965 83.6924C65.8577 83.9248 65.7526 84.1821 65.5811 84.4644C65.4095 84.7466 65.1799 85.0177 64.8921 85.2778C64.6099 85.5324 64.2723 85.7454 63.8794 85.917C63.492 86.083 63.0549 86.166 62.5679 86.166C61.9591 86.166 61.4251 86.047 60.9658 85.8091C60.512 85.5711 60.1579 85.2529 59.9033 84.8545C59.6543 84.4505 59.5298 83.9995 59.5298 83.5015C59.5298 83.02 59.6239 82.5967 59.812 82.2314C60.0002 81.8607 60.2713 81.5535 60.6255 81.3101C60.9797 81.061 61.4058 80.8729 61.9038 80.7456C62.4019 80.6183 62.958 80.5547 63.5723 80.5547H65.3569ZM74.8032 73.1089H76.0649C76.0649 73.6512 75.9819 74.0828 75.8159 74.4038C75.6499 74.7192 75.423 74.9627 75.1353 75.1343C74.853 75.3058 74.5321 75.4359 74.1724 75.5244C73.8182 75.613 73.4502 75.6987 73.0684 75.7817C72.5924 75.8813 72.1497 76.0391 71.7402 76.2549C71.3363 76.4652 70.9876 76.764 70.6943 77.1514C70.4066 77.5387 70.1935 78.0423 70.0552 78.6621C69.9224 79.2819 69.8864 80.0483 69.9473 80.9614V81.7251H68.6855V80.9614C68.6855 79.9377 68.7824 79.0439 68.9761 78.2803C69.1753 77.5166 69.4548 76.8719 69.8145 76.3462C70.1742 75.8205 70.6003 75.4027 71.0928 75.0928C71.5908 74.7829 72.1387 74.5698 72.7363 74.4536C73.168 74.3706 73.5387 74.2821 73.8486 74.188C74.1585 74.0884 74.3937 73.9556 74.5542 73.7896C74.7202 73.6235 74.8032 73.3966 74.8032 73.1089ZM72.9854 77.5332C73.5719 77.5332 74.0949 77.6356 74.5542 77.8403C75.0135 78.0451 75.4036 78.3301 75.7246 78.6953C76.0456 79.0605 76.2891 79.4922 76.4551 79.9902C76.6266 80.4827 76.7124 81.0195 76.7124 81.6006V81.7832C76.7124 82.4085 76.6211 82.9896 76.4385 83.5264C76.2614 84.0576 75.9985 84.5225 75.6499 84.9209C75.3068 85.3138 74.8862 85.6209 74.3882 85.8423C73.8957 86.0636 73.334 86.1743 72.7031 86.1743C72.0723 86.1743 71.5078 86.0636 71.0098 85.8423C70.5173 85.6209 70.0967 85.3138 69.748 84.9209C69.3994 84.5225 69.1338 84.0576 68.9512 83.5264C68.7741 82.9896 68.6855 82.4085 68.6855 81.7832V81.6006C68.6855 81.4622 68.7104 81.3267 68.7603 81.1938C68.8101 81.061 68.8709 80.9255 68.9429 80.7871C69.0203 80.6488 69.0895 80.5021 69.1504 80.3472C69.3551 79.8491 69.6346 79.387 69.9888 78.9609C70.3485 78.5348 70.7773 78.1917 71.2754 77.9316C71.779 77.666 72.349 77.5332 72.9854 77.5332ZM72.6865 78.7866C72.1221 78.7866 71.6572 78.9167 71.292 79.1768C70.9323 79.4368 70.6639 79.7827 70.4868 80.2144C70.3097 80.6405 70.2212 81.1025 70.2212 81.6006V81.7832C70.2212 82.2038 70.271 82.6022 70.3706 82.9785C70.4702 83.3548 70.6196 83.6896 70.8188 83.9829C71.0236 84.2707 71.2809 84.4976 71.5908 84.6636C71.9062 84.8296 72.277 84.9126 72.7031 84.9126C73.1292 84.9126 73.4972 84.8296 73.8071 84.6636C74.117 84.4976 74.3716 84.2707 74.5708 83.9829C74.77 83.6896 74.9194 83.3548 75.019 82.9785C75.1187 82.6022 75.1685 82.2038 75.1685 81.7832V81.6006C75.1685 81.2243 75.1187 80.8674 75.019 80.5298C74.9194 80.1922 74.7673 79.8934 74.5625 79.6333C74.3633 79.3732 74.106 79.1685 73.7905 79.019C73.4806 78.8641 73.1126 78.7866 72.6865 78.7866ZM78.0488 81.6089V81.418C78.0488 80.7705 78.1429 80.1701 78.3311 79.6167C78.5192 79.0578 78.7904 78.5736 79.1445 78.1641C79.4987 77.749 79.9276 77.4281 80.4312 77.2012C80.9347 76.9688 81.4992 76.8525 82.1245 76.8525C82.7554 76.8525 83.3226 76.9688 83.8262 77.2012C84.3353 77.4281 84.7669 77.749 85.1211 78.1641C85.4808 78.5736 85.7547 79.0578 85.9429 79.6167C86.131 80.1701 86.2251 80.7705 86.2251 81.418V81.6089C86.2251 82.2563 86.131 82.8568 85.9429 83.4102C85.7547 83.9635 85.4808 84.4478 85.1211 84.8628C84.7669 85.2723 84.3381 85.5933 83.8345 85.8257C83.3364 86.0526 82.772 86.166 82.1411 86.166C81.5103 86.166 80.943 86.0526 80.4395 85.8257C79.9359 85.5933 79.5042 85.2723 79.1445 84.8628C78.7904 84.4478 78.5192 83.9635 78.3311 83.4102C78.1429 82.8568 78.0488 82.2563 78.0488 81.6089ZM79.5845 81.418V81.6089C79.5845 82.0571 79.637 82.4805 79.7422 82.8789C79.8473 83.2718 80.005 83.6204 80.2153 83.9248C80.4312 84.2292 80.6995 84.4699 81.0205 84.647C81.3415 84.8185 81.715 84.9043 82.1411 84.9043C82.5617 84.9043 82.9297 84.8185 83.2451 84.647C83.5661 84.4699 83.8317 84.2292 84.042 83.9248C84.2523 83.6204 84.41 83.2718 84.5151 82.8789C84.6258 82.4805 84.6812 82.0571 84.6812 81.6089V81.418C84.6812 80.9753 84.6258 80.5575 84.5151 80.1646C84.41 79.7661 84.2495 79.4147 84.0337 79.1104C83.8234 78.8005 83.5578 78.557 83.2368 78.3799C82.9214 78.2028 82.5506 78.1143 82.1245 78.1143C81.7039 78.1143 81.3332 78.2028 81.0122 78.3799C80.6968 78.557 80.4312 78.8005 80.2153 79.1104C80.005 79.4147 79.8473 79.7661 79.7422 80.1646C79.637 80.5575 79.5845 80.9753 79.5845 81.418ZM94.9243 77.0186V86H93.3887V77.0186H94.9243ZM94.4014 81.144V82.4058C94.0915 82.522 93.776 82.6271 93.4551 82.7212C93.1396 82.8097 92.8049 82.8817 92.4507 82.937C92.1021 82.9868 91.723 83.0117 91.3135 83.0117C90.6051 83.0117 89.9909 82.89 89.4707 82.6465C88.9505 82.3975 88.5493 82.0239 88.2671 81.5259C87.9849 81.0223 87.8438 80.3887 87.8438 79.625V77.002H89.3794V79.625C89.3794 80.123 89.4541 80.527 89.6035 80.8369C89.7529 81.1468 89.9715 81.3765 90.2593 81.5259C90.547 81.6698 90.8984 81.7417 91.3135 81.7417C91.7119 81.7417 92.0854 81.7168 92.4341 81.667C92.7882 81.6117 93.1258 81.5397 93.4468 81.4512C93.7733 81.3626 94.0915 81.2603 94.4014 81.144ZM99.0581 83.5679L103.2 77.0186H104.744V86H103.2V79.4507L99.0581 86H97.5308V77.0186H99.0581V83.5679ZM108.87 83.5679L113.012 77.0186H114.556V86H113.012V79.4507L108.87 86H107.342V77.0186H108.87V83.5679ZM112.173 73.7646H113.418C113.418 74.1963 113.319 74.5809 113.12 74.9185C112.92 75.2505 112.635 75.5106 112.265 75.6987C111.894 75.8869 111.454 75.981 110.945 75.981C110.176 75.981 109.567 75.7762 109.119 75.3667C108.676 74.9517 108.455 74.4176 108.455 73.7646H109.7C109.7 74.0911 109.794 74.3789 109.982 74.6279C110.17 74.877 110.491 75.0015 110.945 75.0015C111.388 75.0015 111.703 74.877 111.891 74.6279C112.079 74.3789 112.173 74.0911 112.173 73.7646ZM124.832 84.9043C125.197 84.9043 125.535 84.8296 125.845 84.6802C126.155 84.5308 126.409 84.326 126.608 84.0659C126.808 83.8003 126.921 83.4987 126.949 83.1611H128.41C128.382 83.6924 128.202 84.1877 127.87 84.647C127.544 85.1007 127.115 85.4688 126.583 85.751C126.052 86.0277 125.468 86.166 124.832 86.166C124.157 86.166 123.568 86.047 123.064 85.8091C122.566 85.5711 122.151 85.2446 121.819 84.8296C121.492 84.4146 121.246 83.9386 121.08 83.4019C120.92 82.8595 120.839 82.2868 120.839 81.6836V81.335C120.839 80.7318 120.92 80.1618 121.08 79.625C121.246 79.0827 121.492 78.604 121.819 78.189C122.151 77.7739 122.566 77.4474 123.064 77.2095C123.568 76.9715 124.157 76.8525 124.832 76.8525C125.535 76.8525 126.149 76.9964 126.675 77.2842C127.201 77.5664 127.613 77.9538 127.912 78.4463C128.216 78.9333 128.382 79.4867 128.41 80.1064H126.949C126.921 79.7357 126.816 79.4009 126.633 79.1021C126.456 78.8032 126.213 78.5653 125.903 78.3882C125.598 78.2056 125.242 78.1143 124.832 78.1143C124.362 78.1143 123.966 78.2083 123.645 78.3965C123.33 78.5791 123.078 78.8281 122.89 79.1436C122.707 79.4535 122.574 79.7993 122.491 80.1812C122.414 80.5575 122.375 80.9421 122.375 81.335V81.6836C122.375 82.0765 122.414 82.4639 122.491 82.8457C122.569 83.2275 122.699 83.5734 122.881 83.8833C123.069 84.1932 123.321 84.4422 123.637 84.6304C123.958 84.813 124.356 84.9043 124.832 84.9043ZM133.797 77.0186V86H132.253V77.0186H133.797ZM136.81 77.0186V78.2637H129.298V77.0186H136.81ZM137.565 81.6089V81.418C137.565 80.7705 137.66 80.1701 137.848 79.6167C138.036 79.0578 138.307 78.5736 138.661 78.1641C139.015 77.749 139.444 77.4281 139.948 77.2012C140.451 76.9688 141.016 76.8525 141.641 76.8525C142.272 76.8525 142.839 76.9688 143.343 77.2012C143.852 77.4281 144.284 77.749 144.638 78.1641C144.997 78.5736 145.271 79.0578 145.459 79.6167C145.648 80.1701 145.742 80.7705 145.742 81.418V81.6089C145.742 82.2563 145.648 82.8568 145.459 83.4102C145.271 83.9635 144.997 84.4478 144.638 84.8628C144.284 85.2723 143.855 85.5933 143.351 85.8257C142.853 86.0526 142.289 86.166 141.658 86.166C141.027 86.166 140.46 86.0526 139.956 85.8257C139.452 85.5933 139.021 85.2723 138.661 84.8628C138.307 84.4478 138.036 83.9635 137.848 83.4102C137.66 82.8568 137.565 82.2563 137.565 81.6089ZM139.101 81.418V81.6089C139.101 82.0571 139.154 82.4805 139.259 82.8789C139.364 83.2718 139.522 83.6204 139.732 83.9248C139.948 84.2292 140.216 84.4699 140.537 84.647C140.858 84.8185 141.232 84.9043 141.658 84.9043C142.078 84.9043 142.446 84.8185 142.762 84.647C143.083 84.4699 143.348 84.2292 143.559 83.9248C143.769 83.6204 143.927 83.2718 144.032 82.8789C144.142 82.4805 144.198 82.0571 144.198 81.6089V81.418C144.198 80.9753 144.142 80.5575 144.032 80.1646C143.927 79.7661 143.766 79.4147 143.55 79.1104C143.34 78.8005 143.074 78.557 142.753 78.3799C142.438 78.2028 142.067 78.1143 141.641 78.1143C141.221 78.1143 140.85 78.2028 140.529 78.3799C140.213 78.557 139.948 78.8005 139.732 79.1104C139.522 79.4147 139.364 79.7661 139.259 80.1646C139.154 80.5575 139.101 80.9753 139.101 81.418ZM153.536 77.0186V78.2886H149.195V77.0186H153.536ZM154.889 77.0186V86H153.354V77.0186H154.889ZM148.821 77.0186H150.365L150.133 81.3516C150.094 82.0212 150.03 82.6133 149.942 83.1279C149.859 83.637 149.743 84.0742 149.593 84.4395C149.449 84.8047 149.267 85.1035 149.045 85.3359C148.83 85.5628 148.569 85.7316 148.265 85.8423C147.961 85.9474 147.609 86 147.211 86H146.729V84.647L147.062 84.6221C147.299 84.6055 147.501 84.5501 147.667 84.4561C147.839 84.362 147.983 84.2236 148.099 84.041C148.215 83.8529 148.309 83.6121 148.381 83.3188C148.459 83.0256 148.517 82.6769 148.556 82.2729C148.6 81.869 148.633 81.3986 148.655 80.8618L148.821 77.0186Z" fill="white"/>
</svg>
