<svg width="343" height="56" viewBox="0 0 343 56" fill="none" xmlns="http://www.w3.org/2000/svg">
<rect width="343" height="56" rx="12" fill="white"/>
<path d="M20.8438 29.2266L23.8516 21.625H25.5859L21.5625 31.1016C21.4479 31.3672 21.3203 31.625 21.1797 31.875C21.0391 32.1198 20.8672 32.3385 20.6641 32.5312C20.4609 32.724 20.2083 32.8776 19.9062 32.9922C19.6094 33.1068 19.2396 33.1641 18.7969 33.1641C18.6719 33.1641 18.5234 33.1562 18.3516 33.1406C18.1797 33.1302 18.0677 33.1172 18.0156 33.1016L18.0625 31.8984C18.1198 31.9089 18.2318 31.9193 18.3984 31.9297C18.5651 31.9349 18.6875 31.9375 18.7656 31.9375C19.0625 31.9375 19.2969 31.8776 19.4688 31.7578C19.6406 31.638 19.7786 31.487 19.8828 31.3047C19.9922 31.1172 20.0911 30.9271 20.1797 30.7344L20.8438 29.2266ZM18.2891 21.625L21.4531 28.7109L21.8281 30.1094L20.5625 30.2031L16.6016 21.625H18.2891ZM32 24.5469V25.7422H27.7266V24.5469H32ZM27.9375 24.5469V33H26.4922V24.5469H27.9375ZM33.2812 24.5469V33H31.8281V24.5469H33.2812ZM37.0469 26.1719V36.25H35.5938V24.5469H36.9219L37.0469 26.1719ZM42.7422 28.7031V28.8672C42.7422 29.4818 42.6693 30.0521 42.5234 30.5781C42.3776 31.099 42.1641 31.5521 41.8828 31.9375C41.6068 32.3229 41.2656 32.6224 40.8594 32.8359C40.4531 33.0495 39.987 33.1562 39.4609 33.1562C38.9245 33.1562 38.4505 33.0677 38.0391 32.8906C37.6276 32.7135 37.2786 32.4557 36.9922 32.1172C36.7057 31.7786 36.4766 31.3724 36.3047 30.8984C36.138 30.4245 36.0234 29.8906 35.9609 29.2969V28.4219C36.0234 27.7969 36.1406 27.237 36.3125 26.7422C36.4844 26.2474 36.7109 25.8255 36.9922 25.4766C37.2786 25.1224 37.625 24.8542 38.0312 24.6719C38.4375 24.4844 38.9062 24.3906 39.4375 24.3906C39.9688 24.3906 40.4401 24.4948 40.8516 24.7031C41.263 24.9062 41.6094 25.1979 41.8906 25.5781C42.1719 25.9583 42.3828 26.4141 42.5234 26.9453C42.6693 27.4714 42.7422 28.0573 42.7422 28.7031ZM41.2891 28.8672V28.7031C41.2891 28.2812 41.2448 27.8854 41.1562 27.5156C41.0677 27.1406 40.9297 26.8125 40.7422 26.5312C40.5599 26.2448 40.3255 26.0208 40.0391 25.8594C39.7526 25.6927 39.4115 25.6094 39.0156 25.6094C38.651 25.6094 38.3333 25.6719 38.0625 25.7969C37.7969 25.9219 37.5703 26.0911 37.3828 26.3047C37.1953 26.513 37.0417 26.7526 36.9219 27.0234C36.8073 27.2891 36.7214 27.5651 36.6641 27.8516V29.875C36.7682 30.2396 36.9141 30.5833 37.1016 30.9062C37.2891 31.224 37.5391 31.4818 37.8516 31.6797C38.1641 31.8724 38.5573 31.9688 39.0312 31.9688C39.4219 31.9688 39.7578 31.888 40.0391 31.7266C40.3255 31.5599 40.5599 31.3333 40.7422 31.0469C40.9297 30.7604 41.0677 30.4323 41.1562 30.0625C41.2448 29.6875 41.2891 29.2891 41.2891 28.8672ZM49.5703 31.5547V27.2031C49.5703 26.8698 49.5026 26.5807 49.3672 26.3359C49.237 26.0859 49.0391 25.8932 48.7734 25.7578C48.5078 25.6224 48.1797 25.5547 47.7891 25.5547C47.4245 25.5547 47.1042 25.6172 46.8281 25.7422C46.5573 25.8672 46.3438 26.0312 46.1875 26.2344C46.0365 26.4375 45.9609 26.6562 45.9609 26.8906H44.5156C44.5156 26.5885 44.5938 26.2891 44.75 25.9922C44.9062 25.6953 45.1302 25.4271 45.4219 25.1875C45.7188 24.9427 46.0729 24.75 46.4844 24.6094C46.901 24.4635 47.3646 24.3906 47.875 24.3906C48.4896 24.3906 49.0312 24.4948 49.5 24.7031C49.974 24.9115 50.3438 25.2266 50.6094 25.6484C50.8802 26.0651 51.0156 26.5885 51.0156 27.2188V31.1562C51.0156 31.4375 51.0391 31.737 51.0859 32.0547C51.138 32.3724 51.2135 32.6458 51.3125 32.875V33H49.8047C49.7318 32.8333 49.6745 32.612 49.6328 32.3359C49.5911 32.0547 49.5703 31.7943 49.5703 31.5547ZM49.8203 27.875L49.8359 28.8906H48.375C47.9635 28.8906 47.5964 28.9245 47.2734 28.9922C46.9505 29.0547 46.6797 29.151 46.4609 29.2812C46.2422 29.4115 46.0755 29.5755 45.9609 29.7734C45.8464 29.9661 45.7891 30.1927 45.7891 30.4531C45.7891 30.7188 45.849 30.9609 45.9688 31.1797C46.0885 31.3984 46.2682 31.5729 46.5078 31.7031C46.7526 31.8281 47.0521 31.8906 47.4062 31.8906C47.849 31.8906 48.2396 31.7969 48.5781 31.6094C48.9167 31.4219 49.1849 31.1927 49.3828 30.9219C49.5859 30.651 49.6953 30.388 49.7109 30.1328L50.3281 30.8281C50.2917 31.0469 50.1927 31.2891 50.0312 31.5547C49.8698 31.8203 49.6536 32.0755 49.3828 32.3203C49.1172 32.5599 48.7995 32.7604 48.4297 32.9219C48.0651 33.0781 47.6536 33.1562 47.1953 33.1562C46.6224 33.1562 46.1198 33.0443 45.6875 32.8203C45.2604 32.5964 44.9271 32.2969 44.6875 31.9219C44.4531 31.5417 44.3359 31.1172 44.3359 30.6484C44.3359 30.1953 44.4245 29.7969 44.6016 29.4531C44.7786 29.1042 45.0339 28.8151 45.3672 28.5859C45.7005 28.3516 46.1016 28.1745 46.5703 28.0547C47.0391 27.9349 47.5625 27.875 48.1406 27.875H49.8203ZM57.2578 29.2812H54.4844L54.4688 28.125H56.7344C57.1823 28.125 57.5547 28.0807 57.8516 27.9922C58.1536 27.9036 58.3802 27.7708 58.5312 27.5938C58.6823 27.4167 58.7578 27.1979 58.7578 26.9375C58.7578 26.7344 58.7135 26.5573 58.625 26.4062C58.5417 26.25 58.4141 26.1224 58.2422 26.0234C58.0703 25.9193 57.8568 25.8438 57.6016 25.7969C57.3516 25.7448 57.0573 25.7188 56.7188 25.7188H54.8672V33H53.4219V24.5469H56.7188C57.2552 24.5469 57.737 24.5938 58.1641 24.6875C58.5964 24.7812 58.9635 24.9245 59.2656 25.1172C59.5729 25.3047 59.8073 25.5443 59.9688 25.8359C60.1302 26.1276 60.2109 26.4714 60.2109 26.8672C60.2109 27.1224 60.1589 27.3646 60.0547 27.5938C59.9505 27.8229 59.7969 28.026 59.5938 28.2031C59.3906 28.3802 59.1406 28.526 58.8438 28.6406C58.5469 28.75 58.2057 28.8203 57.8203 28.8516L57.2578 29.2812ZM57.2578 33H53.9609L54.6797 31.8281H57.2578C57.6589 31.8281 57.9922 31.7786 58.2578 31.6797C58.5234 31.5755 58.7214 31.4297 58.8516 31.2422C58.987 31.0495 59.0547 30.8203 59.0547 30.5547C59.0547 30.2891 58.987 30.0625 58.8516 29.875C58.7214 29.6823 58.5234 29.5365 58.2578 29.4375C57.9922 29.3333 57.6589 29.2812 57.2578 29.2812H55.0625L55.0781 28.125H57.8203L58.3438 28.5625C58.8073 28.599 59.2005 28.7135 59.5234 28.9062C59.8464 29.099 60.0911 29.3438 60.2578 29.6406C60.4245 29.9323 60.5078 30.25 60.5078 30.5938C60.5078 30.9896 60.4323 31.3385 60.2812 31.6406C60.1354 31.9427 59.9219 32.1953 59.6406 32.3984C59.3594 32.5964 59.0182 32.7474 58.6172 32.8516C58.2161 32.9505 57.763 33 57.2578 33ZM68.0938 24.5469V25.7422H64.0078V24.5469H68.0938ZM69.3672 24.5469V33H67.9219V24.5469H69.3672ZM63.6562 24.5469H65.1094L64.8906 28.625C64.8542 29.2552 64.7943 29.8125 64.7109 30.2969C64.6328 30.776 64.5234 31.1875 64.3828 31.5312C64.2474 31.875 64.0755 32.1562 63.8672 32.375C63.6641 32.5885 63.4193 32.7474 63.1328 32.8516C62.8464 32.9505 62.5156 33 62.1406 33H61.6875V31.7266L62 31.7031C62.224 31.6875 62.4141 31.6354 62.5703 31.5469C62.7318 31.4583 62.8672 31.3281 62.9766 31.1562C63.0859 30.9792 63.1745 30.7526 63.2422 30.4766C63.3151 30.2005 63.3698 29.8724 63.4062 29.4922C63.4479 29.112 63.4792 28.6693 63.5 28.1641L63.6562 24.5469ZM75.2031 33.1562C74.6146 33.1562 74.0807 33.0573 73.6016 32.8594C73.1276 32.6562 72.7188 32.3724 72.375 32.0078C72.0365 31.6432 71.776 31.2109 71.5938 30.7109C71.4115 30.2109 71.3203 29.6641 71.3203 29.0703V28.7422C71.3203 28.0547 71.4219 27.4427 71.625 26.9062C71.8281 26.3646 72.1042 25.9062 72.4531 25.5312C72.8021 25.1562 73.1979 24.8724 73.6406 24.6797C74.0833 24.487 74.5417 24.3906 75.0156 24.3906C75.6198 24.3906 76.1406 24.4948 76.5781 24.7031C77.0208 24.9115 77.3828 25.2031 77.6641 25.5781C77.9453 25.9479 78.1536 26.3854 78.2891 26.8906C78.4245 27.3906 78.4922 27.9375 78.4922 28.5312V29.1797H72.1797V28H77.0469V27.8906C77.026 27.5156 76.9479 27.151 76.8125 26.7969C76.6823 26.4427 76.474 26.151 76.1875 25.9219C75.901 25.6927 75.5104 25.5781 75.0156 25.5781C74.6875 25.5781 74.3854 25.6484 74.1094 25.7891C73.8333 25.9245 73.5964 26.1276 73.3984 26.3984C73.2005 26.6693 73.0469 27 72.9375 27.3906C72.8281 27.7812 72.7734 28.2318 72.7734 28.7422V29.0703C72.7734 29.4714 72.8281 29.849 72.9375 30.2031C73.0521 30.5521 73.2161 30.8594 73.4297 31.125C73.6484 31.3906 73.9115 31.599 74.2188 31.75C74.5312 31.901 74.8854 31.9766 75.2812 31.9766C75.7917 31.9766 76.224 31.8724 76.5781 31.6641C76.9323 31.4557 77.2422 31.1771 77.5078 30.8281L78.3828 31.5234C78.2005 31.7995 77.9688 32.0625 77.6875 32.3125C77.4062 32.5625 77.0599 32.7656 76.6484 32.9219C76.2422 33.0781 75.7604 33.1562 75.2031 33.1562ZM85.9141 28.2109V29.3828H81.4453V28.2109H85.9141ZM81.75 24.5469V33H80.3047V24.5469H81.75ZM87.0859 24.5469V33H85.6328V24.5469H87.0859ZM90.9766 30.7109L94.875 24.5469H96.3281V33H94.875V26.8359L90.9766 33H89.5391V24.5469H90.9766V30.7109ZM102.156 33.1562C101.568 33.1562 101.034 33.0573 100.555 32.8594C100.081 32.6562 99.6719 32.3724 99.3281 32.0078C98.9896 31.6432 98.7292 31.2109 98.5469 30.7109C98.3646 30.2109 98.2734 29.6641 98.2734 29.0703V28.7422C98.2734 28.0547 98.375 27.4427 98.5781 26.9062C98.7812 26.3646 99.0573 25.9062 99.4062 25.5312C99.7552 25.1562 100.151 24.8724 100.594 24.6797C101.036 24.487 101.495 24.3906 101.969 24.3906C102.573 24.3906 103.094 24.4948 103.531 24.7031C103.974 24.9115 104.336 25.2031 104.617 25.5781C104.898 25.9479 105.107 26.3854 105.242 26.8906C105.378 27.3906 105.445 27.9375 105.445 28.5312V29.1797H99.1328V28H104V27.8906C103.979 27.5156 103.901 27.151 103.766 26.7969C103.635 26.4427 103.427 26.151 103.141 25.9219C102.854 25.6927 102.464 25.5781 101.969 25.5781C101.641 25.5781 101.339 25.6484 101.062 25.7891C100.786 25.9245 100.549 26.1276 100.352 26.3984C100.154 26.6693 100 27 99.8906 27.3906C99.7812 27.7812 99.7266 28.2318 99.7266 28.7422V29.0703C99.7266 29.4714 99.7812 29.849 99.8906 30.2031C100.005 30.5521 100.169 30.8594 100.383 31.125C100.602 31.3906 100.865 31.599 101.172 31.75C101.484 31.901 101.839 31.9766 102.234 31.9766C102.745 31.9766 103.177 31.8724 103.531 31.6641C103.885 31.4557 104.195 31.1771 104.461 30.8281L105.336 31.5234C105.154 31.7995 104.922 32.0625 104.641 32.3125C104.359 32.5625 104.013 32.7656 103.602 32.9219C103.195 33.0781 102.714 33.1562 102.156 33.1562ZM112.625 24.5469H114.07L113.945 27.7109C113.914 28.513 113.823 29.2057 113.672 29.7891C113.521 30.3724 113.328 30.8698 113.094 31.2812C112.859 31.6875 112.596 32.0286 112.305 32.3047C112.018 32.5807 111.721 32.8125 111.414 33H110.695L110.734 31.8203L111.031 31.8125C111.203 31.6094 111.37 31.401 111.531 31.1875C111.693 30.9688 111.841 30.7109 111.977 30.4141C112.112 30.112 112.224 29.7448 112.312 29.3125C112.406 28.875 112.466 28.3411 112.492 27.7109L112.625 24.5469ZM112.984 24.5469H118.07V33H116.625V25.8828H112.984V24.5469ZM110.367 31.8125H119.156V35.4922H117.711V33H111.812V35.4922H110.359L110.367 31.8125ZM120.375 28.8672V28.6875C120.375 28.0781 120.464 27.513 120.641 26.9922C120.818 26.4661 121.073 26.0104 121.406 25.625C121.74 25.2344 122.143 24.9323 122.617 24.7188C123.091 24.5 123.622 24.3906 124.211 24.3906C124.805 24.3906 125.339 24.5 125.812 24.7188C126.292 24.9323 126.698 25.2344 127.031 25.625C127.37 26.0104 127.628 26.4661 127.805 26.9922C127.982 27.513 128.07 28.0781 128.07 28.6875V28.8672C128.07 29.4766 127.982 30.0417 127.805 30.5625C127.628 31.0833 127.37 31.5391 127.031 31.9297C126.698 32.3151 126.294 32.6172 125.82 32.8359C125.352 33.0495 124.82 33.1562 124.227 33.1562C123.633 33.1562 123.099 33.0495 122.625 32.8359C122.151 32.6172 121.745 32.3151 121.406 31.9297C121.073 31.5391 120.818 31.0833 120.641 30.5625C120.464 30.0417 120.375 29.4766 120.375 28.8672ZM121.82 28.6875V28.8672C121.82 29.2891 121.87 29.6875 121.969 30.0625C122.068 30.4323 122.216 30.7604 122.414 31.0469C122.617 31.3333 122.87 31.5599 123.172 31.7266C123.474 31.888 123.826 31.9688 124.227 31.9688C124.622 31.9688 124.969 31.888 125.266 31.7266C125.568 31.5599 125.818 31.3333 126.016 31.0469C126.214 30.7604 126.362 30.4323 126.461 30.0625C126.565 29.6875 126.617 29.2891 126.617 28.8672V28.6875C126.617 28.2708 126.565 27.8776 126.461 27.5078C126.362 27.1328 126.211 26.8021 126.008 26.5156C125.81 26.224 125.56 25.9948 125.258 25.8281C124.961 25.6615 124.612 25.5781 124.211 25.5781C123.815 25.5781 123.466 25.6615 123.164 25.8281C122.867 25.9948 122.617 26.224 122.414 26.5156C122.216 26.8021 122.068 27.1328 121.969 27.5078C121.87 27.8776 121.82 28.2708 121.82 28.6875ZM135.406 24.5469V25.7422H131.32V24.5469H135.406ZM136.68 24.5469V33H135.234V24.5469H136.68ZM130.969 24.5469H132.422L132.203 28.625C132.167 29.2552 132.107 29.8125 132.023 30.2969C131.945 30.776 131.836 31.1875 131.695 31.5312C131.56 31.875 131.388 32.1562 131.18 32.375C130.977 32.5885 130.732 32.7474 130.445 32.8516C130.159 32.9505 129.828 33 129.453 33H129V31.7266L129.312 31.7031C129.536 31.6875 129.727 31.6354 129.883 31.5469C130.044 31.4583 130.18 31.3281 130.289 31.1562C130.398 30.9792 130.487 30.7526 130.555 30.4766C130.628 30.2005 130.682 29.8724 130.719 29.4922C130.76 29.112 130.792 28.6693 130.812 28.1641L130.969 24.5469ZM144.469 24.5469V25.7422H140.562V33H139.117V24.5469H144.469ZM150.711 31.5547V27.2031C150.711 26.8698 150.643 26.5807 150.508 26.3359C150.378 26.0859 150.18 25.8932 149.914 25.7578C149.648 25.6224 149.32 25.5547 148.93 25.5547C148.565 25.5547 148.245 25.6172 147.969 25.7422C147.698 25.8672 147.484 26.0312 147.328 26.2344C147.177 26.4375 147.102 26.6562 147.102 26.8906H145.656C145.656 26.5885 145.734 26.2891 145.891 25.9922C146.047 25.6953 146.271 25.4271 146.562 25.1875C146.859 24.9427 147.214 24.75 147.625 24.6094C148.042 24.4635 148.505 24.3906 149.016 24.3906C149.63 24.3906 150.172 24.4948 150.641 24.7031C151.115 24.9115 151.484 25.2266 151.75 25.6484C152.021 26.0651 152.156 26.5885 152.156 27.2188V31.1562C152.156 31.4375 152.18 31.737 152.227 32.0547C152.279 32.3724 152.354 32.6458 152.453 32.875V33H150.945C150.872 32.8333 150.815 32.612 150.773 32.3359C150.732 32.0547 150.711 31.7943 150.711 31.5547ZM150.961 27.875L150.977 28.8906H149.516C149.104 28.8906 148.737 28.9245 148.414 28.9922C148.091 29.0547 147.82 29.151 147.602 29.2812C147.383 29.4115 147.216 29.5755 147.102 29.7734C146.987 29.9661 146.93 30.1927 146.93 30.4531C146.93 30.7188 146.99 30.9609 147.109 31.1797C147.229 31.3984 147.409 31.5729 147.648 31.7031C147.893 31.8281 148.193 31.8906 148.547 31.8906C148.99 31.8906 149.38 31.7969 149.719 31.6094C150.057 31.4219 150.326 31.1927 150.523 30.9219C150.727 30.651 150.836 30.388 150.852 30.1328L151.469 30.8281C151.432 31.0469 151.333 31.2891 151.172 31.5547C151.01 31.8203 150.794 32.0755 150.523 32.3203C150.258 32.5599 149.94 32.7604 149.57 32.9219C149.206 33.0781 148.794 33.1562 148.336 33.1562C147.763 33.1562 147.26 33.0443 146.828 32.8203C146.401 32.5964 146.068 32.2969 145.828 31.9219C145.594 31.5417 145.477 31.1172 145.477 30.6484C145.477 30.1953 145.565 29.7969 145.742 29.4531C145.919 29.1042 146.174 28.8151 146.508 28.5859C146.841 28.3516 147.242 28.1745 147.711 28.0547C148.18 27.9349 148.703 27.875 149.281 27.875H150.961ZM159.289 31.0781L162.164 24.5469H163.555L159.789 33H158.789L155.039 24.5469H156.43L159.289 31.0781ZM156.008 24.5469V33H154.562V24.5469H156.008ZM162.523 33V24.5469H163.977V33H162.523ZM167.867 30.7109L171.766 24.5469H173.219V33H171.766V26.8359L167.867 33H166.43V24.5469H167.867V30.7109Z" fill="#030303"/>
<path fill-rule="evenodd" clip-rule="evenodd" d="M311.512 20.4306C311.826 20.161 312.3 20.1974 312.569 20.5119L318.569 27.5119C318.81 27.7928 318.81 28.2072 318.569 28.4881L312.569 35.4881C312.3 35.8026 311.826 35.839 311.512 35.5695C311.197 35.2999 311.161 34.8264 311.431 34.5119L317.012 28L311.431 21.4881C311.161 21.1736 311.197 20.7001 311.512 20.4306Z" fill="#FF7035"/>
</svg>
