<svg width="375" height="812" viewBox="0 0 375 812" fill="none" xmlns="http://www.w3.org/2000/svg">
<rect width="375" height="812" fill="#F4F3F1"/>
<rect width="375" height="102" fill="#102466"/>
<path fill-rule="evenodd" clip-rule="evenodd" d="M31.4881 72.4306C31.8026 72.7001 31.839 73.1736 31.5694 73.4881L25.9878 80L31.5694 86.5119C31.839 86.8264 31.8026 87.2999 31.4881 87.5694C31.1736 87.839 30.7001 87.8026 30.4306 87.4881L24.4306 80.4881C24.1898 80.2072 24.1898 79.7928 24.4306 79.5119L30.4306 72.5119C30.7001 72.1974 31.1736 72.161 31.4881 72.4306Z" fill="#747474"/>
<path d="M53.105 80.1978H51.6689V79.1768H53.0469C53.6556 79.1768 54.1481 79.091 54.5244 78.9194C54.9007 78.7479 55.1746 78.5099 55.3462 78.2056C55.5177 77.9012 55.6035 77.5498 55.6035 77.1514C55.6035 76.7695 55.5094 76.4209 55.3213 76.1055C55.1331 75.7845 54.8426 75.5299 54.4497 75.3418C54.0568 75.1481 53.5505 75.0513 52.9307 75.0513C52.4658 75.0513 52.0452 75.1398 51.6689 75.3169C51.2926 75.4884 50.9938 75.7292 50.7725 76.0391C50.5511 76.3434 50.4404 76.6948 50.4404 77.0933H48.8384C48.8384 76.5786 48.9463 76.1165 49.1621 75.707C49.3779 75.292 49.674 74.9406 50.0503 74.6528C50.4266 74.3595 50.861 74.1354 51.3535 73.9805C51.8516 73.8255 52.3773 73.748 52.9307 73.748C53.5781 73.748 54.1647 73.8228 54.6904 73.9722C55.2161 74.116 55.6672 74.3319 56.0435 74.6196C56.4198 74.9074 56.7075 75.2643 56.9067 75.6904C57.106 76.1165 57.2056 76.6118 57.2056 77.1763C57.2056 77.5913 57.1087 77.9814 56.915 78.3467C56.7214 78.7119 56.4447 79.0329 56.085 79.3096C55.7253 79.5863 55.2936 79.8049 54.79 79.9653C54.2865 80.1203 53.7248 80.1978 53.105 80.1978ZM51.6689 79.4922H53.105C53.7856 79.4922 54.3916 79.5614 54.9229 79.6997C55.4541 79.8381 55.9023 80.04 56.2676 80.3057C56.6328 80.5713 56.9095 80.9006 57.0977 81.2935C57.2913 81.6808 57.3882 82.1263 57.3882 82.6299C57.3882 83.1943 57.2775 83.6951 57.0562 84.1323C56.8403 84.5695 56.5332 84.9403 56.1348 85.2446C55.7363 85.549 55.2632 85.7786 54.7153 85.9336C54.173 86.0885 53.5781 86.166 52.9307 86.166C52.4105 86.166 51.8958 86.0996 51.3867 85.9668C50.8831 85.8285 50.4266 85.6182 50.0171 85.3359C49.6076 85.0482 49.2783 84.6829 49.0293 84.2402C48.7858 83.7975 48.6641 83.2663 48.6641 82.6465H50.2661C50.2661 83.0505 50.3768 83.4212 50.5981 83.7588C50.825 84.0964 51.1377 84.3675 51.5361 84.5723C51.9346 84.7715 52.3994 84.8711 52.9307 84.8711C53.5394 84.8711 54.054 84.777 54.4746 84.5889C54.9007 84.3952 55.2244 84.1323 55.4458 83.8003C55.6727 83.4627 55.7861 83.0837 55.7861 82.6631C55.7861 82.2923 55.7253 81.9714 55.6035 81.7002C55.4873 81.4235 55.313 81.1966 55.0806 81.0195C54.8537 80.8424 54.5687 80.7124 54.2256 80.6294C53.888 80.5409 53.4951 80.4966 53.0469 80.4966H51.6689V79.4922ZM64.5601 84.4644V79.8408C64.5601 79.4867 64.4881 79.1795 64.3442 78.9194C64.2059 78.6538 63.9956 78.4491 63.7134 78.3052C63.4312 78.1613 63.0825 78.0894 62.6675 78.0894C62.2801 78.0894 61.9398 78.1558 61.6465 78.2886C61.3587 78.4214 61.1318 78.5957 60.9658 78.8115C60.8053 79.0273 60.7251 79.2598 60.7251 79.5088H59.1895C59.1895 79.1878 59.2725 78.8696 59.4385 78.5542C59.6045 78.2388 59.8424 77.9538 60.1523 77.6992C60.4678 77.4391 60.8441 77.2344 61.2812 77.085C61.724 76.93 62.2165 76.8525 62.7588 76.8525C63.4118 76.8525 63.9873 76.9632 64.4854 77.1846C64.9889 77.4059 65.3818 77.7407 65.6641 78.189C65.9518 78.6317 66.0957 79.1878 66.0957 79.8574V84.041C66.0957 84.3398 66.1206 84.658 66.1704 84.9956C66.2257 85.3332 66.306 85.6237 66.4111 85.8672V86H64.8091C64.7316 85.8229 64.6707 85.5877 64.6265 85.2944C64.5822 84.9956 64.5601 84.7189 64.5601 84.4644ZM64.8257 80.5547L64.8423 81.6338H63.29C62.8529 81.6338 62.4627 81.6698 62.1196 81.7417C61.7765 81.8081 61.4888 81.9105 61.2563 82.0488C61.0239 82.1872 60.8468 82.3615 60.7251 82.5718C60.6034 82.7765 60.5425 83.0173 60.5425 83.2939C60.5425 83.5762 60.6061 83.8335 60.7334 84.0659C60.8607 84.2983 61.0516 84.4837 61.3062 84.6221C61.5662 84.7549 61.8844 84.8213 62.2607 84.8213C62.7311 84.8213 63.1462 84.7217 63.5059 84.5225C63.8656 84.3232 64.1506 84.0798 64.3608 83.792C64.5767 83.5042 64.6929 83.2248 64.7095 82.9536L65.3652 83.6924C65.3265 83.9248 65.2214 84.1821 65.0498 84.4644C64.8783 84.7466 64.6486 85.0177 64.3608 85.2778C64.0786 85.5324 63.741 85.7454 63.3481 85.917C62.9608 86.083 62.5236 86.166 62.0366 86.166C61.4279 86.166 60.8939 86.047 60.4346 85.8091C59.9808 85.5711 59.6266 85.2529 59.3721 84.8545C59.123 84.4505 58.9985 83.9995 58.9985 83.5015C58.9985 83.02 59.0926 82.5967 59.2808 82.2314C59.4689 81.8607 59.7401 81.5535 60.0942 81.3101C60.4484 81.061 60.8745 80.8729 61.3726 80.7456C61.8706 80.6183 62.4268 80.5547 63.041 80.5547H64.8257ZM80.9956 84.7383L80.8462 88.6646H79.4766V86H78.3062V84.7383H80.9956ZM68.5527 77.0186H70.0884V84.7383H73.3755V77.0186H74.9194V84.7383H78.1982V77.0186H79.7339V86H68.5527V77.0186ZM84.2495 83.5679L88.3916 77.0186H89.9355V86H88.3916V79.4507L84.2495 86H82.7222V77.0186H84.2495V83.5679ZM96.0615 77.0186V86H94.5176V77.0186H96.0615ZM99.0747 77.0186V78.2637H91.5625V77.0186H99.0747ZM105.749 84.4644V79.8408C105.749 79.4867 105.677 79.1795 105.533 78.9194C105.394 78.6538 105.184 78.4491 104.902 78.3052C104.62 78.1613 104.271 78.0894 103.856 78.0894C103.469 78.0894 103.128 78.1558 102.835 78.2886C102.547 78.4214 102.32 78.5957 102.154 78.8115C101.994 79.0273 101.914 79.2598 101.914 79.5088H100.378C100.378 79.1878 100.461 78.8696 100.627 78.5542C100.793 78.2388 101.031 77.9538 101.341 77.6992C101.656 77.4391 102.033 77.2344 102.47 77.085C102.912 76.93 103.405 76.8525 103.947 76.8525C104.6 76.8525 105.176 76.9632 105.674 77.1846C106.177 77.4059 106.57 77.7407 106.853 78.189C107.14 78.6317 107.284 79.1878 107.284 79.8574V84.041C107.284 84.3398 107.309 84.658 107.359 84.9956C107.414 85.3332 107.494 85.6237 107.6 85.8672V86H105.998C105.92 85.8229 105.859 85.5877 105.815 85.2944C105.771 84.9956 105.749 84.7189 105.749 84.4644ZM106.014 80.5547L106.031 81.6338H104.479C104.041 81.6338 103.651 81.6698 103.308 81.7417C102.965 81.8081 102.677 81.9105 102.445 82.0488C102.212 82.1872 102.035 82.3615 101.914 82.5718C101.792 82.7765 101.731 83.0173 101.731 83.2939C101.731 83.5762 101.795 83.8335 101.922 84.0659C102.049 84.2983 102.24 84.4837 102.495 84.6221C102.755 84.7549 103.073 84.8213 103.449 84.8213C103.92 84.8213 104.335 84.7217 104.694 84.5225C105.054 84.3232 105.339 84.0798 105.549 83.792C105.765 83.5042 105.881 83.2248 105.898 82.9536L106.554 83.6924C106.515 83.9248 106.41 84.1821 106.238 84.4644C106.067 84.7466 105.837 85.0177 105.549 85.2778C105.267 85.5324 104.93 85.7454 104.537 85.917C104.149 86.083 103.712 86.166 103.225 86.166C102.616 86.166 102.082 86.047 101.623 85.8091C101.169 85.5711 100.815 85.2529 100.561 84.8545C100.312 84.4505 100.187 83.9995 100.187 83.5015C100.187 83.02 100.281 82.5967 100.469 82.2314C100.657 81.8607 100.929 81.5535 101.283 81.3101C101.637 81.061 102.063 80.8729 102.561 80.7456C103.059 80.6183 103.615 80.5547 104.229 80.5547H106.014ZM119.901 77.0186V78.2886H115.361V77.0186H119.901ZM115.585 77.0186V86H114.049V77.0186H115.585ZM121.263 77.0186V86H119.719V77.0186H121.263ZM125.264 78.7451V89.4531H123.72V77.0186H125.131L125.264 78.7451ZM131.315 81.4346V81.6089C131.315 82.2619 131.237 82.8678 131.083 83.4268C130.928 83.9801 130.701 84.4616 130.402 84.8711C130.109 85.2806 129.746 85.5988 129.314 85.8257C128.883 86.0526 128.388 86.166 127.829 86.166C127.259 86.166 126.755 86.0719 126.318 85.8838C125.881 85.6956 125.51 85.4217 125.206 85.062C124.901 84.7023 124.658 84.2707 124.475 83.7671C124.298 83.2635 124.176 82.6963 124.11 82.0654V81.1357C124.176 80.4717 124.301 79.8768 124.483 79.3511C124.666 78.8254 124.907 78.3771 125.206 78.0063C125.51 77.63 125.878 77.3451 126.31 77.1514C126.741 76.9521 127.239 76.8525 127.804 76.8525C128.368 76.8525 128.869 76.9632 129.306 77.1846C129.743 77.4004 130.111 77.7103 130.41 78.1143C130.709 78.5182 130.933 79.0024 131.083 79.5669C131.237 80.1258 131.315 80.7484 131.315 81.4346ZM129.771 81.6089V81.4346C129.771 80.9863 129.724 80.5658 129.63 80.1729C129.536 79.7744 129.389 79.4258 129.19 79.127C128.996 78.8226 128.747 78.5846 128.443 78.4131C128.139 78.236 127.776 78.1475 127.355 78.1475C126.968 78.1475 126.631 78.2139 126.343 78.3467C126.061 78.4795 125.82 78.6593 125.621 78.8862C125.421 79.1076 125.258 79.3621 125.131 79.6499C125.009 79.9321 124.918 80.2254 124.857 80.5298V82.6797C124.968 83.0671 125.123 83.4323 125.322 83.7754C125.521 84.113 125.787 84.3869 126.119 84.5972C126.451 84.8019 126.868 84.9043 127.372 84.9043C127.787 84.9043 128.144 84.8185 128.443 84.647C128.747 84.4699 128.996 84.2292 129.19 83.9248C129.389 83.6204 129.536 83.2718 129.63 82.8789C129.724 82.4805 129.771 82.0571 129.771 81.6089ZM138.57 84.4644V79.8408C138.57 79.4867 138.498 79.1795 138.354 78.9194C138.216 78.6538 138.005 78.4491 137.723 78.3052C137.441 78.1613 137.092 78.0894 136.677 78.0894C136.29 78.0894 135.95 78.1558 135.656 78.2886C135.368 78.4214 135.142 78.5957 134.976 78.8115C134.815 79.0273 134.735 79.2598 134.735 79.5088H133.199C133.199 79.1878 133.282 78.8696 133.448 78.5542C133.614 78.2388 133.852 77.9538 134.162 77.6992C134.478 77.4391 134.854 77.2344 135.291 77.085C135.734 76.93 136.226 76.8525 136.769 76.8525C137.422 76.8525 137.997 76.9632 138.495 77.1846C138.999 77.4059 139.392 77.7407 139.674 78.189C139.962 78.6317 140.105 79.1878 140.105 79.8574V84.041C140.105 84.3398 140.13 84.658 140.18 84.9956C140.236 85.3332 140.316 85.6237 140.421 85.8672V86H138.819C138.741 85.8229 138.681 85.5877 138.636 85.2944C138.592 84.9956 138.57 84.7189 138.57 84.4644ZM138.835 80.5547L138.852 81.6338H137.3C136.863 81.6338 136.472 81.6698 136.129 81.7417C135.786 81.8081 135.499 81.9105 135.266 82.0488C135.034 82.1872 134.857 82.3615 134.735 82.5718C134.613 82.7765 134.552 83.0173 134.552 83.2939C134.552 83.5762 134.616 83.8335 134.743 84.0659C134.87 84.2983 135.061 84.4837 135.316 84.6221C135.576 84.7549 135.894 84.8213 136.271 84.8213C136.741 84.8213 137.156 84.7217 137.516 84.5225C137.875 84.3232 138.16 84.0798 138.371 83.792C138.586 83.5042 138.703 83.2248 138.719 82.9536L139.375 83.6924C139.336 83.9248 139.231 84.1821 139.06 84.4644C138.888 84.7466 138.658 85.0177 138.371 85.2778C138.088 85.5324 137.751 85.7454 137.358 85.917C136.971 86.083 136.533 86.166 136.046 86.166C135.438 86.166 134.904 86.047 134.444 85.8091C133.991 85.5711 133.636 85.2529 133.382 84.8545C133.133 84.4505 133.008 83.9995 133.008 83.5015C133.008 83.02 133.102 82.5967 133.291 82.2314C133.479 81.8607 133.75 81.5535 134.104 81.3101C134.458 81.061 134.884 80.8729 135.382 80.7456C135.88 80.6183 136.437 80.5547 137.051 80.5547H138.835ZM146.738 82.0488H143.791L143.774 80.8203H146.182C146.658 80.8203 147.053 80.7733 147.369 80.6792C147.69 80.5851 147.93 80.444 148.091 80.2559C148.251 80.0677 148.332 79.8353 148.332 79.5586C148.332 79.3428 148.285 79.1546 148.19 78.9941C148.102 78.8281 147.966 78.6925 147.784 78.5874C147.601 78.4767 147.374 78.3965 147.103 78.3467C146.837 78.2913 146.525 78.2637 146.165 78.2637H144.198V86H142.662V77.0186H146.165C146.735 77.0186 147.247 77.0684 147.701 77.168C148.16 77.2676 148.55 77.4198 148.871 77.6245C149.198 77.8237 149.447 78.0783 149.618 78.3882C149.79 78.6981 149.875 79.0633 149.875 79.4839C149.875 79.755 149.82 80.0124 149.709 80.2559C149.599 80.4993 149.436 80.7152 149.22 80.9033C149.004 81.0915 148.738 81.2464 148.423 81.3682C148.107 81.4844 147.745 81.5591 147.335 81.5923L146.738 82.0488ZM146.738 86H143.235L143.999 84.7549H146.738C147.164 84.7549 147.518 84.7023 147.8 84.5972C148.083 84.4865 148.293 84.3315 148.431 84.1323C148.575 83.9276 148.647 83.6841 148.647 83.4019C148.647 83.1196 148.575 82.8789 148.431 82.6797C148.293 82.4749 148.083 82.32 147.8 82.2148C147.518 82.1042 147.164 82.0488 146.738 82.0488H144.405L144.422 80.8203H147.335L147.892 81.2852C148.384 81.3239 148.802 81.4456 149.145 81.6504C149.488 81.8551 149.748 82.1152 149.925 82.4307C150.102 82.7406 150.191 83.0781 150.191 83.4434C150.191 83.8639 150.111 84.2347 149.95 84.5557C149.795 84.8766 149.568 85.145 149.27 85.3608C148.971 85.5711 148.608 85.7316 148.182 85.8423C147.756 85.9474 147.275 86 146.738 86ZM162.451 77.0186V78.2886H157.911V77.0186H162.451ZM158.135 77.0186V86H156.599V77.0186H158.135ZM163.812 77.0186V86H162.269V77.0186H163.812ZM165.871 81.6089V81.418C165.871 80.7705 165.965 80.1701 166.153 79.6167C166.341 79.0578 166.613 78.5736 166.967 78.1641C167.321 77.749 167.75 77.4281 168.253 77.2012C168.757 76.9688 169.321 76.8525 169.947 76.8525C170.578 76.8525 171.145 76.9688 171.648 77.2012C172.158 77.4281 172.589 77.749 172.943 78.1641C173.303 78.5736 173.577 79.0578 173.765 79.6167C173.953 80.1701 174.047 80.7705 174.047 81.418V81.6089C174.047 82.2563 173.953 82.8568 173.765 83.4102C173.577 83.9635 173.303 84.4478 172.943 84.8628C172.589 85.2723 172.16 85.5933 171.657 85.8257C171.159 86.0526 170.594 86.166 169.963 86.166C169.333 86.166 168.765 86.0526 168.262 85.8257C167.758 85.5933 167.326 85.2723 166.967 84.8628C166.613 84.4478 166.341 83.9635 166.153 83.4102C165.965 82.8568 165.871 82.2563 165.871 81.6089ZM167.407 81.418V81.6089C167.407 82.0571 167.459 82.4805 167.564 82.8789C167.67 83.2718 167.827 83.6204 168.038 83.9248C168.253 84.2292 168.522 84.4699 168.843 84.647C169.164 84.8185 169.537 84.9043 169.963 84.9043C170.384 84.9043 170.752 84.8185 171.067 84.647C171.388 84.4699 171.654 84.2292 171.864 83.9248C172.075 83.6204 172.232 83.2718 172.337 82.8789C172.448 82.4805 172.503 82.0571 172.503 81.6089V81.418C172.503 80.9753 172.448 80.5575 172.337 80.1646C172.232 79.7661 172.072 79.4147 171.856 79.1104C171.646 78.8005 171.38 78.557 171.059 78.3799C170.744 78.2028 170.373 78.1143 169.947 78.1143C169.526 78.1143 169.155 78.2028 168.834 78.3799C168.519 78.557 168.253 78.8005 168.038 79.1104C167.827 79.4147 167.67 79.7661 167.564 80.1646C167.459 80.5575 167.407 80.9753 167.407 81.418ZM179.451 77.0186V86H177.907V77.0186H179.451ZM182.464 77.0186V78.2637H174.952V77.0186H182.464ZM185.511 78.7451V89.4531H183.967V77.0186H185.378L185.511 78.7451ZM191.562 81.4346V81.6089C191.562 82.2619 191.485 82.8678 191.33 83.4268C191.175 83.9801 190.948 84.4616 190.649 84.8711C190.356 85.2806 189.993 85.5988 189.562 85.8257C189.13 86.0526 188.635 86.166 188.076 86.166C187.506 86.166 187.002 86.0719 186.565 85.8838C186.128 85.6956 185.757 85.4217 185.453 85.062C185.148 84.7023 184.905 84.2707 184.722 83.7671C184.545 83.2635 184.423 82.6963 184.357 82.0654V81.1357C184.423 80.4717 184.548 79.8768 184.73 79.3511C184.913 78.8254 185.154 78.3771 185.453 78.0063C185.757 77.63 186.125 77.3451 186.557 77.1514C186.988 76.9521 187.486 76.8525 188.051 76.8525C188.615 76.8525 189.116 76.9632 189.553 77.1846C189.99 77.4004 190.358 77.7103 190.657 78.1143C190.956 78.5182 191.18 79.0024 191.33 79.5669C191.485 80.1258 191.562 80.7484 191.562 81.4346ZM190.018 81.6089V81.4346C190.018 80.9863 189.971 80.5658 189.877 80.1729C189.783 79.7744 189.636 79.4258 189.437 79.127C189.243 78.8226 188.994 78.5846 188.69 78.4131C188.386 78.236 188.023 78.1475 187.603 78.1475C187.215 78.1475 186.878 78.2139 186.59 78.3467C186.308 78.4795 186.067 78.6593 185.868 78.8862C185.668 79.1076 185.505 79.3621 185.378 79.6499C185.256 79.9321 185.165 80.2254 185.104 80.5298V82.6797C185.215 83.0671 185.37 83.4323 185.569 83.7754C185.768 84.113 186.034 84.3869 186.366 84.5972C186.698 84.8019 187.116 84.9043 187.619 84.9043C188.034 84.9043 188.391 84.8185 188.69 84.647C188.994 84.4699 189.243 84.2292 189.437 83.9248C189.636 83.6204 189.783 83.2718 189.877 82.8789C189.971 82.4805 190.018 82.0571 190.018 81.6089ZM197.248 86.166C196.623 86.166 196.056 86.0609 195.546 85.8506C195.043 85.6348 194.608 85.3332 194.243 84.9458C193.883 84.5584 193.607 84.0991 193.413 83.5679C193.219 83.0366 193.123 82.4556 193.123 81.8247V81.4761C193.123 80.7456 193.23 80.0954 193.446 79.5254C193.662 78.9499 193.955 78.4629 194.326 78.0645C194.697 77.666 195.118 77.3644 195.588 77.1597C196.058 76.9549 196.545 76.8525 197.049 76.8525C197.691 76.8525 198.244 76.9632 198.709 77.1846C199.179 77.4059 199.564 77.7158 199.863 78.1143C200.162 78.5072 200.383 78.972 200.527 79.5088C200.671 80.04 200.743 80.6211 200.743 81.252V81.9409H194.036V80.6875H199.207V80.5713C199.185 80.1729 199.102 79.7855 198.958 79.4092C198.82 79.0329 198.598 78.723 198.294 78.4795C197.99 78.236 197.575 78.1143 197.049 78.1143C196.7 78.1143 196.379 78.189 196.086 78.3384C195.793 78.4823 195.541 78.6981 195.331 78.9858C195.12 79.2736 194.957 79.625 194.841 80.04C194.725 80.4551 194.667 80.9338 194.667 81.4761V81.8247C194.667 82.2508 194.725 82.652 194.841 83.0283C194.963 83.3991 195.137 83.7256 195.364 84.0078C195.596 84.29 195.876 84.5114 196.202 84.6719C196.534 84.8324 196.91 84.9126 197.331 84.9126C197.873 84.9126 198.333 84.8019 198.709 84.5806C199.085 84.3592 199.415 84.0632 199.697 83.6924L200.626 84.4312C200.433 84.7244 200.187 85.0039 199.888 85.2695C199.589 85.5352 199.221 85.751 198.784 85.917C198.352 86.083 197.84 86.166 197.248 86.166ZM208.296 73.1089H209.558C209.558 73.6512 209.475 74.0828 209.309 74.4038C209.143 74.7192 208.916 74.9627 208.628 75.1343C208.346 75.3058 208.025 75.4359 207.666 75.5244C207.311 75.613 206.943 75.6987 206.562 75.7817C206.086 75.8813 205.643 76.0391 205.233 76.2549C204.829 76.4652 204.481 76.764 204.188 77.1514C203.9 77.5387 203.687 78.0423 203.548 78.6621C203.416 79.2819 203.38 80.0483 203.44 80.9614V81.7251H202.179V80.9614C202.179 79.9377 202.276 79.0439 202.469 78.2803C202.668 77.5166 202.948 76.8719 203.308 76.3462C203.667 75.8205 204.093 75.4027 204.586 75.0928C205.084 74.7829 205.632 74.5698 206.229 74.4536C206.661 74.3706 207.032 74.2821 207.342 74.188C207.652 74.0884 207.887 73.9556 208.047 73.7896C208.213 73.6235 208.296 73.3966 208.296 73.1089ZM206.479 77.5332C207.065 77.5332 207.588 77.6356 208.047 77.8403C208.507 78.0451 208.897 78.3301 209.218 78.6953C209.539 79.0605 209.782 79.4922 209.948 79.9902C210.12 80.4827 210.206 81.0195 210.206 81.6006V81.7832C210.206 82.4085 210.114 82.9896 209.932 83.5264C209.755 84.0576 209.492 84.5225 209.143 84.9209C208.8 85.3138 208.379 85.6209 207.881 85.8423C207.389 86.0636 206.827 86.1743 206.196 86.1743C205.565 86.1743 205.001 86.0636 204.503 85.8423C204.01 85.6209 203.59 85.3138 203.241 84.9209C202.893 84.5225 202.627 84.0576 202.444 83.5264C202.267 82.9896 202.179 82.4085 202.179 81.7832V81.6006C202.179 81.4622 202.204 81.3267 202.253 81.1938C202.303 81.061 202.364 80.9255 202.436 80.7871C202.514 80.6488 202.583 80.5021 202.644 80.3472C202.848 79.8491 203.128 79.387 203.482 78.9609C203.842 78.5348 204.271 78.1917 204.769 77.9316C205.272 77.666 205.842 77.5332 206.479 77.5332ZM206.18 78.7866C205.615 78.7866 205.15 78.9167 204.785 79.1768C204.425 79.4368 204.157 79.7827 203.98 80.2144C203.803 80.6405 203.714 81.1025 203.714 81.6006V81.7832C203.714 82.2038 203.764 82.6022 203.864 82.9785C203.963 83.3548 204.113 83.6896 204.312 83.9829C204.517 84.2707 204.774 84.4976 205.084 84.6636C205.399 84.8296 205.77 84.9126 206.196 84.9126C206.622 84.9126 206.99 84.8296 207.3 84.6636C207.61 84.4976 207.865 84.2707 208.064 83.9829C208.263 83.6896 208.413 83.3548 208.512 82.9785C208.612 82.6022 208.662 82.2038 208.662 81.7832V81.6006C208.662 81.2243 208.612 80.8674 208.512 80.5298C208.413 80.1922 208.26 79.8934 208.056 79.6333C207.856 79.3732 207.599 79.1685 207.284 79.019C206.974 78.8641 206.606 78.7866 206.18 78.7866ZM213.459 83.5679L217.602 77.0186H219.146V86H217.602V79.4507L213.459 86H211.932V77.0186H213.459V83.5679ZM225.271 77.0186V86H223.728V77.0186H225.271ZM228.285 77.0186V78.2637H220.772V77.0186H228.285ZM232.858 86.166C232.233 86.166 231.666 86.0609 231.157 85.8506C230.653 85.6348 230.219 85.3332 229.854 84.9458C229.494 84.5584 229.217 84.0991 229.023 83.5679C228.83 83.0366 228.733 82.4556 228.733 81.8247V81.4761C228.733 80.7456 228.841 80.0954 229.057 79.5254C229.272 78.9499 229.566 78.4629 229.937 78.0645C230.307 77.666 230.728 77.3644 231.198 77.1597C231.669 76.9549 232.156 76.8525 232.659 76.8525C233.301 76.8525 233.854 76.9632 234.319 77.1846C234.79 77.4059 235.174 77.7158 235.473 78.1143C235.772 78.5072 235.993 78.972 236.137 79.5088C236.281 80.04 236.353 80.6211 236.353 81.252V81.9409H229.646V80.6875H234.817V80.5713C234.795 80.1729 234.712 79.7855 234.568 79.4092C234.43 79.0329 234.209 78.723 233.904 78.4795C233.6 78.236 233.185 78.1143 232.659 78.1143C232.311 78.1143 231.99 78.189 231.696 78.3384C231.403 78.4823 231.151 78.6981 230.941 78.9858C230.731 79.2736 230.567 79.625 230.451 80.04C230.335 80.4551 230.277 80.9338 230.277 81.4761V81.8247C230.277 82.2508 230.335 82.652 230.451 83.0283C230.573 83.3991 230.747 83.7256 230.974 84.0078C231.207 84.29 231.486 84.5114 231.812 84.6719C232.145 84.8324 232.521 84.9126 232.941 84.9126C233.484 84.9126 233.943 84.8019 234.319 84.5806C234.696 84.3592 235.025 84.0632 235.307 83.6924L236.237 84.4312C236.043 84.7244 235.797 85.0039 235.498 85.2695C235.199 85.5352 234.831 85.751 234.394 85.917C233.962 86.083 233.451 86.166 232.858 86.166ZM244.147 77.0186V78.2886H239.806V77.0186H244.147ZM245.5 77.0186V86H243.965V77.0186H245.5ZM239.433 77.0186H240.977L240.744 81.3516C240.705 82.0212 240.642 82.6133 240.553 83.1279C240.47 83.637 240.354 84.0742 240.205 84.4395C240.061 84.8047 239.878 85.1035 239.657 85.3359C239.441 85.5628 239.181 85.7316 238.876 85.8423C238.572 85.9474 238.221 86 237.822 86H237.341V84.647L237.673 84.6221C237.911 84.6055 238.113 84.5501 238.279 84.4561C238.45 84.362 238.594 84.2236 238.71 84.041C238.827 83.8529 238.921 83.6121 238.993 83.3188C239.07 83.0256 239.128 82.6769 239.167 82.2729C239.211 81.869 239.244 81.3986 239.267 80.8618L239.433 77.0186ZM249.792 81.7168H251.452L248.854 86H247.194L249.792 81.7168ZM251.079 77.0186H254.831V86H253.295V78.2637H251.079C250.641 78.2637 250.285 78.3384 250.008 78.4878C249.731 78.6317 249.529 78.8198 249.402 79.0522C249.275 79.2847 249.211 79.5254 249.211 79.7744C249.211 80.0179 249.269 80.2531 249.385 80.48C249.501 80.7013 249.684 80.884 249.933 81.0278C250.182 81.1717 250.503 81.2437 250.896 81.2437H253.71V82.5054H250.896C250.381 82.5054 249.925 82.4362 249.526 82.2979C249.128 82.1595 248.79 81.9686 248.514 81.7251C248.237 81.4761 248.027 81.1855 247.883 80.8535C247.739 80.516 247.667 80.1507 247.667 79.7578C247.667 79.3649 247.742 79.0024 247.891 78.6704C248.046 78.3384 248.267 78.0479 248.555 77.7988C248.848 77.5498 249.205 77.3589 249.626 77.2261C250.052 77.0877 250.536 77.0186 251.079 77.0186Z" fill="white"/>
</svg>
