<svg width="375" height="812" viewBox="0 0 375 812" fill="none" xmlns="http://www.w3.org/2000/svg">
<rect width="375" height="812" fill="#F4F3F1"/>
<rect width="375" height="102" fill="#102466"/>
<path fill-rule="evenodd" clip-rule="evenodd" d="M31.4881 72.4306C31.8026 72.7001 31.839 73.1736 31.5694 73.4881L25.9878 80L31.5694 86.5119C31.839 86.8264 31.8026 87.2999 31.4881 87.5694C31.1736 87.839 30.7001 87.8026 30.4306 87.4881L24.4306 80.4881C24.1898 80.2072 24.1898 79.7928 24.4306 79.5119L30.4306 72.5119C30.7001 72.1974 31.1736 72.161 31.4881 72.4306Z" fill="#747474"/>
<path d="M56.6992 82.1567H58.293C58.21 82.9204 57.9914 83.6038 57.6372 84.207C57.283 84.8102 56.7822 85.2889 56.1348 85.6431C55.4873 85.9917 54.6794 86.166 53.7109 86.166C53.0026 86.166 52.3579 86.0332 51.7769 85.7676C51.2013 85.502 50.7061 85.1257 50.291 84.6387C49.876 84.1462 49.555 83.5568 49.3281 82.8706C49.1068 82.1789 48.9961 81.4097 48.9961 80.563V79.3594C48.9961 78.5127 49.1068 77.7463 49.3281 77.0601C49.555 76.3683 49.8787 75.7762 50.2993 75.2837C50.7254 74.7912 51.2373 74.4121 51.835 74.1465C52.4326 73.8809 53.105 73.748 53.8521 73.748C54.7651 73.748 55.5371 73.9196 56.168 74.2627C56.7988 74.6058 57.2886 75.0817 57.6372 75.6904C57.9914 76.2936 58.21 76.9937 58.293 77.7905H56.6992C56.6217 77.2261 56.4779 76.7419 56.2676 76.3379C56.0573 75.9284 55.7585 75.613 55.3711 75.3916C54.9837 75.1702 54.4774 75.0596 53.8521 75.0596C53.3153 75.0596 52.8421 75.1619 52.4326 75.3667C52.0286 75.5715 51.6883 75.862 51.4116 76.2383C51.1405 76.6146 50.9357 77.0656 50.7974 77.5913C50.659 78.117 50.5898 78.7008 50.5898 79.3428V80.563C50.5898 81.1551 50.6507 81.7113 50.7725 82.2314C50.8997 82.7516 51.0907 83.2082 51.3452 83.6011C51.5998 83.994 51.9235 84.3039 52.3164 84.5308C52.7093 84.7521 53.1742 84.8628 53.7109 84.8628C54.3916 84.8628 54.9339 84.7549 55.3379 84.5391C55.7419 84.3232 56.0462 84.0133 56.251 83.6094C56.4613 83.2054 56.6107 82.7212 56.6992 82.1567ZM59.8369 81.6089V81.418C59.8369 80.7705 59.931 80.1701 60.1191 79.6167C60.3073 79.0578 60.5785 78.5736 60.9326 78.1641C61.2868 77.749 61.7157 77.4281 62.2192 77.2012C62.7228 76.9688 63.2873 76.8525 63.9126 76.8525C64.5435 76.8525 65.1107 76.9688 65.6143 77.2012C66.1234 77.4281 66.555 77.749 66.9092 78.1641C67.2689 78.5736 67.5428 79.0578 67.731 79.6167C67.9191 80.1701 68.0132 80.7705 68.0132 81.418V81.6089C68.0132 82.2563 67.9191 82.8568 67.731 83.4102C67.5428 83.9635 67.2689 84.4478 66.9092 84.8628C66.555 85.2723 66.1261 85.5933 65.6226 85.8257C65.1245 86.0526 64.5601 86.166 63.9292 86.166C63.2983 86.166 62.7311 86.0526 62.2275 85.8257C61.724 85.5933 61.2923 85.2723 60.9326 84.8628C60.5785 84.4478 60.3073 83.9635 60.1191 83.4102C59.931 82.8568 59.8369 82.2563 59.8369 81.6089ZM61.3726 81.418V81.6089C61.3726 82.0571 61.4251 82.4805 61.5303 82.8789C61.6354 83.2718 61.7931 83.6204 62.0034 83.9248C62.2192 84.2292 62.4876 84.4699 62.8086 84.647C63.1296 84.8185 63.5031 84.9043 63.9292 84.9043C64.3498 84.9043 64.7178 84.8185 65.0332 84.647C65.3542 84.4699 65.6198 84.2292 65.8301 83.9248C66.0404 83.6204 66.1981 83.2718 66.3032 82.8789C66.4139 82.4805 66.4692 82.0571 66.4692 81.6089V81.418C66.4692 80.9753 66.4139 80.5575 66.3032 80.1646C66.1981 79.7661 66.0376 79.4147 65.8218 79.1104C65.6115 78.8005 65.3459 78.557 65.0249 78.3799C64.7095 78.2028 64.3387 78.1143 63.9126 78.1143C63.492 78.1143 63.1213 78.2028 62.8003 78.3799C62.4849 78.557 62.2192 78.8005 62.0034 79.1104C61.7931 79.4147 61.6354 79.7661 61.5303 80.1646C61.4251 80.5575 61.3726 80.9753 61.3726 81.418ZM74.1558 82.0488H71.209L71.1924 80.8203H73.5996C74.0755 80.8203 74.4712 80.7733 74.7866 80.6792C75.1076 80.5851 75.3483 80.444 75.5088 80.2559C75.6693 80.0677 75.7495 79.8353 75.7495 79.5586C75.7495 79.3428 75.7025 79.1546 75.6084 78.9941C75.5199 78.8281 75.3843 78.6925 75.2017 78.5874C75.019 78.4767 74.7922 78.3965 74.521 78.3467C74.2554 78.2913 73.9427 78.2637 73.583 78.2637H71.6157V86H70.0801V77.0186H73.583C74.153 77.0186 74.6649 77.0684 75.1187 77.168C75.578 77.2676 75.9681 77.4198 76.2891 77.6245C76.6156 77.8237 76.8646 78.0783 77.0361 78.3882C77.2077 78.6981 77.2935 79.0633 77.2935 79.4839C77.2935 79.755 77.2381 80.0124 77.1274 80.2559C77.0168 80.4993 76.8535 80.7152 76.6377 80.9033C76.4219 81.0915 76.1562 81.2464 75.8408 81.3682C75.5254 81.4844 75.1629 81.5591 74.7534 81.5923L74.1558 82.0488ZM74.1558 86H70.6528L71.4165 84.7549H74.1558C74.5819 84.7549 74.936 84.7023 75.2183 84.5972C75.5005 84.4865 75.7108 84.3315 75.8491 84.1323C75.993 83.9276 76.0649 83.6841 76.0649 83.4019C76.0649 83.1196 75.993 82.8789 75.8491 82.6797C75.7108 82.4749 75.5005 82.32 75.2183 82.2148C74.936 82.1042 74.5819 82.0488 74.1558 82.0488H71.8232L71.8398 80.8203H74.7534L75.3096 81.2852C75.8021 81.3239 76.2199 81.4456 76.563 81.6504C76.9061 81.8551 77.1662 82.1152 77.3433 82.4307C77.5203 82.7406 77.6089 83.0781 77.6089 83.4434C77.6089 83.8639 77.5286 84.2347 77.3682 84.5557C77.2132 84.8766 76.9863 85.145 76.6875 85.3608C76.3887 85.5711 76.0262 85.7316 75.6001 85.8423C75.174 85.9474 74.6925 86 74.1558 86ZM83.3945 86.166C82.7692 86.166 82.202 86.0609 81.6929 85.8506C81.1893 85.6348 80.7549 85.3332 80.3896 84.9458C80.0299 84.5584 79.7533 84.0991 79.5596 83.5679C79.3659 83.0366 79.269 82.4556 79.269 81.8247V81.4761C79.269 80.7456 79.377 80.0954 79.5928 79.5254C79.8086 78.9499 80.1019 78.4629 80.4727 78.0645C80.8434 77.666 81.264 77.3644 81.7344 77.1597C82.2048 76.9549 82.6917 76.8525 83.1953 76.8525C83.8372 76.8525 84.3906 76.9632 84.8555 77.1846C85.3258 77.4059 85.7104 77.7158 86.0093 78.1143C86.3081 78.5072 86.5295 78.972 86.6733 79.5088C86.8172 80.04 86.8892 80.6211 86.8892 81.252V81.9409H80.1821V80.6875H85.3535V80.5713C85.3314 80.1729 85.2484 79.7855 85.1045 79.4092C84.9661 79.0329 84.7448 78.723 84.4404 78.4795C84.1361 78.236 83.721 78.1143 83.1953 78.1143C82.8467 78.1143 82.5257 78.189 82.2324 78.3384C81.9391 78.4823 81.6873 78.6981 81.4771 78.9858C81.2668 79.2736 81.1035 79.625 80.9873 80.04C80.8711 80.4551 80.813 80.9338 80.813 81.4761V81.8247C80.813 82.2508 80.8711 82.652 80.9873 83.0283C81.109 83.3991 81.2834 83.7256 81.5103 84.0078C81.7427 84.29 82.0221 84.5114 82.3486 84.6719C82.6807 84.8324 83.057 84.9126 83.4775 84.9126C84.0199 84.9126 84.4792 84.8019 84.8555 84.5806C85.2318 84.3592 85.561 84.0632 85.8433 83.6924L86.7729 84.4312C86.5793 84.7244 86.333 85.0039 86.0342 85.2695C85.7354 85.5352 85.3674 85.751 84.9302 85.917C84.4985 86.083 83.9867 86.166 83.3945 86.166ZM92.2432 77.0186V86H90.6992V77.0186H92.2432ZM95.2563 77.0186V78.2637H87.7441V77.0186H95.2563ZM98.0288 80.1064H100.727C101.451 80.1064 102.063 80.2337 102.561 80.4883C103.059 80.7373 103.435 81.0832 103.69 81.5259C103.95 81.9631 104.08 82.4611 104.08 83.02C104.08 83.4351 104.008 83.8252 103.864 84.1904C103.72 84.5501 103.505 84.8656 103.217 85.1367C102.935 85.4079 102.583 85.6209 102.163 85.7759C101.748 85.9253 101.269 86 100.727 86H96.9082V77.0186H98.4438V84.7383H100.727C101.169 84.7383 101.523 84.658 101.789 84.4976C102.055 84.3371 102.246 84.1296 102.362 83.875C102.478 83.6204 102.536 83.3548 102.536 83.0781C102.536 82.807 102.478 82.5413 102.362 82.2812C102.246 82.0212 102.055 81.8053 101.789 81.6338C101.523 81.4567 101.169 81.3682 100.727 81.3682H98.0288V80.1064ZM107.276 77.0186V86H105.74V77.0186H107.276ZM120.167 77.0186V78.2886H115.626V77.0186H120.167ZM115.851 77.0186V86H114.315V77.0186H115.851ZM121.528 77.0186V86H119.984V77.0186H121.528ZM123.587 81.6089V81.418C123.587 80.7705 123.681 80.1701 123.869 79.6167C124.057 79.0578 124.328 78.5736 124.683 78.1641C125.037 77.749 125.466 77.4281 125.969 77.2012C126.473 76.9688 127.037 76.8525 127.663 76.8525C128.293 76.8525 128.861 76.9688 129.364 77.2012C129.873 77.4281 130.305 77.749 130.659 78.1641C131.019 78.5736 131.293 79.0578 131.481 79.6167C131.669 80.1701 131.763 80.7705 131.763 81.418V81.6089C131.763 82.2563 131.669 82.8568 131.481 83.4102C131.293 83.9635 131.019 84.4478 130.659 84.8628C130.305 85.2723 129.876 85.5933 129.373 85.8257C128.875 86.0526 128.31 86.166 127.679 86.166C127.048 86.166 126.481 86.0526 125.978 85.8257C125.474 85.5933 125.042 85.2723 124.683 84.8628C124.328 84.4478 124.057 83.9635 123.869 83.4102C123.681 82.8568 123.587 82.2563 123.587 81.6089ZM125.123 81.418V81.6089C125.123 82.0571 125.175 82.4805 125.28 82.8789C125.385 83.2718 125.543 83.6204 125.753 83.9248C125.969 84.2292 126.238 84.4699 126.559 84.647C126.88 84.8185 127.253 84.9043 127.679 84.9043C128.1 84.9043 128.468 84.8185 128.783 84.647C129.104 84.4699 129.37 84.2292 129.58 83.9248C129.79 83.6204 129.948 83.2718 130.053 82.8789C130.164 82.4805 130.219 82.0571 130.219 81.6089V81.418C130.219 80.9753 130.164 80.5575 130.053 80.1646C129.948 79.7661 129.788 79.4147 129.572 79.1104C129.361 78.8005 129.096 78.557 128.775 78.3799C128.459 78.2028 128.089 78.1143 127.663 78.1143C127.242 78.1143 126.871 78.2028 126.55 78.3799C126.235 78.557 125.969 78.8005 125.753 79.1104C125.543 79.4147 125.385 79.7661 125.28 80.1646C125.175 80.5575 125.123 80.9753 125.123 81.418ZM141.259 81.7085H139.607V80.7622H141.135C141.561 80.7622 141.898 80.7096 142.147 80.6045C142.396 80.4938 142.574 80.3416 142.679 80.1479C142.784 79.9543 142.836 79.7274 142.836 79.4673C142.836 79.2349 142.776 79.0163 142.654 78.8115C142.538 78.6012 142.349 78.4325 142.089 78.3052C141.829 78.1724 141.481 78.106 141.043 78.106C140.689 78.106 140.368 78.1696 140.081 78.2969C139.793 78.4186 139.563 78.5874 139.392 78.8032C139.226 79.0135 139.143 79.2515 139.143 79.5171H137.607C137.607 78.9692 137.762 78.4989 138.072 78.106C138.387 77.7075 138.805 77.4004 139.325 77.1846C139.851 76.9688 140.424 76.8608 141.043 76.8608C141.564 76.8608 142.028 76.9189 142.438 77.0352C142.853 77.1458 143.204 77.3118 143.492 77.5332C143.78 77.749 143.999 78.0202 144.148 78.3467C144.303 78.6676 144.38 79.0412 144.38 79.4673C144.38 79.7716 144.308 80.0594 144.165 80.3306C144.021 80.6017 143.813 80.8424 143.542 81.0527C143.271 81.2575 142.942 81.418 142.554 81.5342C142.172 81.6504 141.741 81.7085 141.259 81.7085ZM139.607 81.1274H141.259C141.796 81.1274 142.269 81.18 142.679 81.2852C143.088 81.3848 143.431 81.5342 143.708 81.7334C143.985 81.9326 144.192 82.1789 144.331 82.4722C144.474 82.7599 144.546 83.092 144.546 83.4683C144.546 83.8888 144.461 84.2679 144.289 84.6055C144.123 84.9375 143.885 85.2197 143.575 85.4521C143.265 85.6846 142.895 85.8617 142.463 85.9834C142.037 86.1051 141.564 86.166 141.043 86.166C140.462 86.166 139.898 86.0664 139.35 85.8672C138.802 85.668 138.351 85.3608 137.997 84.9458C137.643 84.5252 137.466 83.9912 137.466 83.3438H139.001C139.001 83.6149 139.087 83.8722 139.259 84.1157C139.43 84.3592 139.668 84.5557 139.973 84.7051C140.283 84.8545 140.639 84.9292 141.043 84.9292C141.475 84.9292 141.835 84.8628 142.123 84.73C142.41 84.5972 142.626 84.4201 142.77 84.1987C142.919 83.9774 142.994 83.7367 142.994 83.4766C142.994 83.139 142.928 82.8678 142.795 82.6631C142.662 82.4583 142.457 82.3089 142.181 82.2148C141.91 82.1152 141.561 82.0654 141.135 82.0654H139.607V81.1274ZM151.834 84.4644V79.8408C151.834 79.4867 151.763 79.1795 151.619 78.9194C151.48 78.6538 151.27 78.4491 150.988 78.3052C150.706 78.1613 150.357 78.0894 149.942 78.0894C149.555 78.0894 149.214 78.1558 148.921 78.2886C148.633 78.4214 148.406 78.5957 148.24 78.8115C148.08 79.0273 148 79.2598 148 79.5088H146.464C146.464 79.1878 146.547 78.8696 146.713 78.5542C146.879 78.2388 147.117 77.9538 147.427 77.6992C147.742 77.4391 148.118 77.2344 148.556 77.085C148.998 76.93 149.491 76.8525 150.033 76.8525C150.686 76.8525 151.262 76.9632 151.76 77.1846C152.263 77.4059 152.656 77.7407 152.938 78.189C153.226 78.6317 153.37 79.1878 153.37 79.8574V84.041C153.37 84.3398 153.395 84.658 153.445 84.9956C153.5 85.3332 153.58 85.6237 153.686 85.8672V86H152.083C152.006 85.8229 151.945 85.5877 151.901 85.2944C151.857 84.9956 151.834 84.7189 151.834 84.4644ZM152.1 80.5547L152.117 81.6338H150.564C150.127 81.6338 149.737 81.6698 149.394 81.7417C149.051 81.8081 148.763 81.9105 148.531 82.0488C148.298 82.1872 148.121 82.3615 148 82.5718C147.878 82.7765 147.817 83.0173 147.817 83.2939C147.817 83.5762 147.881 83.8335 148.008 84.0659C148.135 84.2983 148.326 84.4837 148.581 84.6221C148.841 84.7549 149.159 84.8213 149.535 84.8213C150.006 84.8213 150.421 84.7217 150.78 84.5225C151.14 84.3232 151.425 84.0798 151.635 83.792C151.851 83.5042 151.967 83.2248 151.984 82.9536L152.64 83.6924C152.601 83.9248 152.496 84.1821 152.324 84.4644C152.153 84.7466 151.923 85.0177 151.635 85.2778C151.353 85.5324 151.015 85.7454 150.623 85.917C150.235 86.083 149.798 86.166 149.311 86.166C148.702 86.166 148.168 86.047 147.709 85.8091C147.255 85.5711 146.901 85.2529 146.646 84.8545C146.397 84.4505 146.273 83.9995 146.273 83.5015C146.273 83.02 146.367 82.5967 146.555 82.2314C146.743 81.8607 147.014 81.5535 147.369 81.3101C147.723 81.061 148.149 80.8729 148.647 80.7456C149.145 80.6183 149.701 80.5547 150.315 80.5547H152.1ZM168.27 84.7383L168.121 88.6646H166.751V86H165.581V84.7383H168.27ZM155.827 77.0186H157.363V84.7383H160.65V77.0186H162.194V84.7383H165.473V77.0186H167.008V86H155.827V77.0186ZM171.524 83.5679L175.666 77.0186H177.21V86H175.666V79.4507L171.524 86H169.997V77.0186H171.524V83.5679ZM183.336 77.0186V86H181.792V77.0186H183.336ZM186.349 77.0186V78.2637H178.837V77.0186H186.349ZM190.923 86.166C190.298 86.166 189.73 86.0609 189.221 85.8506C188.718 85.6348 188.283 85.3332 187.918 84.9458C187.558 84.5584 187.282 84.0991 187.088 83.5679C186.894 83.0366 186.797 82.4556 186.797 81.8247V81.4761C186.797 80.7456 186.905 80.0954 187.121 79.5254C187.337 78.9499 187.63 78.4629 188.001 78.0645C188.372 77.666 188.792 77.3644 189.263 77.1597C189.733 76.9549 190.22 76.8525 190.724 76.8525C191.366 76.8525 191.919 76.9632 192.384 77.1846C192.854 77.4059 193.239 77.7158 193.538 78.1143C193.836 78.5072 194.058 78.972 194.202 79.5088C194.346 80.04 194.417 80.6211 194.417 81.252V81.9409H187.71V80.6875H192.882V80.5713C192.86 80.1729 192.777 79.7855 192.633 79.4092C192.494 79.0329 192.273 78.723 191.969 78.4795C191.664 78.236 191.249 78.1143 190.724 78.1143C190.375 78.1143 190.054 78.189 189.761 78.3384C189.467 78.4823 189.216 78.6981 189.005 78.9858C188.795 79.2736 188.632 79.625 188.516 80.04C188.399 80.4551 188.341 80.9338 188.341 81.4761V81.8247C188.341 82.2508 188.399 82.652 188.516 83.0283C188.637 83.3991 188.812 83.7256 189.039 84.0078C189.271 84.29 189.55 84.5114 189.877 84.6719C190.209 84.8324 190.585 84.9126 191.006 84.9126C191.548 84.9126 192.007 84.8019 192.384 84.5806C192.76 84.3592 193.089 84.0632 193.372 83.6924L194.301 84.4312C194.108 84.7244 193.861 85.0039 193.562 85.2695C193.264 85.5352 192.896 85.751 192.458 85.917C192.027 86.083 191.515 86.166 190.923 86.166ZM202.046 77.0186H203.582L203.449 80.3804C203.416 81.2326 203.319 81.9686 203.158 82.5884C202.998 83.2082 202.793 83.7367 202.544 84.1738C202.295 84.6055 202.015 84.9679 201.706 85.2612C201.401 85.5545 201.086 85.8008 200.759 86H199.996L200.037 84.7466L200.353 84.7383C200.535 84.5225 200.712 84.3011 200.884 84.0742C201.055 83.8418 201.213 83.5679 201.357 83.2524C201.501 82.9315 201.62 82.5413 201.714 82.082C201.813 81.6172 201.877 81.05 201.905 80.3804L202.046 77.0186ZM202.428 77.0186H207.832V86H206.296V78.438H202.428V77.0186ZM199.647 84.7383H208.985V88.6479H207.45V86H201.183V88.6479H199.639L199.647 84.7383ZM215.983 84.4644V79.8408C215.983 79.4867 215.911 79.1795 215.767 78.9194C215.629 78.6538 215.418 78.4491 215.136 78.3052C214.854 78.1613 214.505 78.0894 214.09 78.0894C213.703 78.0894 213.363 78.1558 213.069 78.2886C212.782 78.4214 212.555 78.5957 212.389 78.8115C212.228 79.0273 212.148 79.2598 212.148 79.5088H210.612C210.612 79.1878 210.695 78.8696 210.861 78.5542C211.027 78.2388 211.265 77.9538 211.575 77.6992C211.891 77.4391 212.267 77.2344 212.704 77.085C213.147 76.93 213.639 76.8525 214.182 76.8525C214.835 76.8525 215.41 76.9632 215.908 77.1846C216.412 77.4059 216.805 77.7407 217.087 78.189C217.375 78.6317 217.519 79.1878 217.519 79.8574V84.041C217.519 84.3398 217.543 84.658 217.593 84.9956C217.649 85.3332 217.729 85.6237 217.834 85.8672V86H216.232C216.154 85.8229 216.094 85.5877 216.049 85.2944C216.005 84.9956 215.983 84.7189 215.983 84.4644ZM216.249 80.5547L216.265 81.6338H214.713C214.276 81.6338 213.886 81.6698 213.542 81.7417C213.199 81.8081 212.912 81.9105 212.679 82.0488C212.447 82.1872 212.27 82.3615 212.148 82.5718C212.026 82.7765 211.965 83.0173 211.965 83.2939C211.965 83.5762 212.029 83.8335 212.156 84.0659C212.284 84.2983 212.474 84.4837 212.729 84.6221C212.989 84.7549 213.307 84.8213 213.684 84.8213C214.154 84.8213 214.569 84.7217 214.929 84.5225C215.288 84.3232 215.573 84.0798 215.784 83.792C216 83.5042 216.116 83.2248 216.132 82.9536L216.788 83.6924C216.749 83.9248 216.644 84.1821 216.473 84.4644C216.301 84.7466 216.071 85.0177 215.784 85.2778C215.501 85.5324 215.164 85.7454 214.771 85.917C214.384 86.083 213.946 86.166 213.459 86.166C212.851 86.166 212.317 86.047 211.857 85.8091C211.404 85.5711 211.049 85.2529 210.795 84.8545C210.546 84.4505 210.421 83.9995 210.421 83.5015C210.421 83.02 210.515 82.5967 210.704 82.2314C210.892 81.8607 211.163 81.5535 211.517 81.3101C211.871 81.061 212.297 80.8729 212.795 80.7456C213.293 80.6183 213.85 80.5547 214.464 80.5547H216.249ZM226.027 80.9116V82.1567H221.279V80.9116H226.027ZM221.603 77.0186V86H220.067V77.0186H221.603ZM227.272 77.0186V86H225.728V77.0186H227.272ZM235.838 80.9116V82.1567H231.09V80.9116H235.838ZM231.414 77.0186V86H229.878V77.0186H231.414ZM237.083 77.0186V86H235.54V77.0186H237.083ZM240.819 80.1064H243.517C244.242 80.1064 244.853 80.2337 245.351 80.4883C245.849 80.7373 246.225 81.0832 246.48 81.5259C246.74 81.9631 246.87 82.4611 246.87 83.02C246.87 83.4351 246.798 83.8252 246.654 84.1904C246.51 84.5501 246.295 84.8656 246.007 85.1367C245.725 85.4079 245.373 85.6209 244.953 85.7759C244.538 85.9253 244.059 86 243.517 86H239.698V77.0186H241.234V84.7383H243.517C243.959 84.7383 244.313 84.658 244.579 84.4976C244.845 84.3371 245.036 84.1296 245.152 83.875C245.268 83.6204 245.326 83.3548 245.326 83.0781C245.326 82.807 245.268 82.5413 245.152 82.2812C245.036 82.0212 244.845 81.8053 244.579 81.6338C244.313 81.4567 243.959 81.3682 243.517 81.3682H240.819V80.1064ZM250.066 77.0186V86H248.53V77.0186H250.066ZM253.793 77.0186L255.76 80.2891L257.752 77.0186H259.554L256.615 81.4512L259.645 86H257.869L255.793 82.6299L253.718 86H251.934L254.955 81.4512L252.025 77.0186H253.793Z" fill="white"/>
</svg>
